G04 #@! TF.GenerationSoftware,KiCad,Pcbnew,7.0.1*
G04 #@! TF.CreationDate,2023-03-17T22:44:53-07:00*
G04 #@! TF.ProjectId,TI-83x,54492d38-3378-42e6-9b69-6361645f7063,A*
G04 #@! TF.SameCoordinates,Original*
G04 #@! TF.FileFunction,Soldermask,Top*
G04 #@! TF.FilePolarity,Negative*
%FSLAX46Y46*%
G04 Gerber Fmt 4.6, Leading zero omitted, Abs format (unit mm)*
G04 Created by KiCad (PCBNEW 7.0.1) date 2023-03-17 22:44:53*
%MOMM*%
%LPD*%
G01*
G04 APERTURE LIST*
G04 Aperture macros list*
%AMRoundRect*
0 Rectangle with rounded corners*
0 $1 Rounding radius*
0 $2 $3 $4 $5 $6 $7 $8 $9 X,Y pos of 4 corners*
0 Add a 4 corners polygon primitive as box body*
4,1,4,$2,$3,$4,$5,$6,$7,$8,$9,$2,$3,0*
0 Add four circle primitives for the rounded corners*
1,1,$1+$1,$2,$3*
1,1,$1+$1,$4,$5*
1,1,$1+$1,$6,$7*
1,1,$1+$1,$8,$9*
0 Add four rect primitives between the rounded corners*
20,1,$1+$1,$2,$3,$4,$5,0*
20,1,$1+$1,$4,$5,$6,$7,0*
20,1,$1+$1,$6,$7,$8,$9,0*
20,1,$1+$1,$8,$9,$2,$3,0*%
G04 Aperture macros list end*
%ADD10C,0.010000*%
%ADD11C,0.450000*%
%ADD12R,1.000000X1.000000*%
%ADD13R,0.900000X1.500000*%
%ADD14R,1.500000X0.900000*%
%ADD15R,0.300000X1.100000*%
%ADD16R,0.600000X1.100000*%
%ADD17RoundRect,0.237500X-0.300000X-0.237500X0.300000X-0.237500X0.300000X0.237500X-0.300000X0.237500X0*%
%ADD18RoundRect,0.237500X0.250000X0.237500X-0.250000X0.237500X-0.250000X-0.237500X0.250000X-0.237500X0*%
%ADD19RoundRect,0.237500X0.237500X-0.250000X0.237500X0.250000X-0.237500X0.250000X-0.237500X-0.250000X0*%
%ADD20RoundRect,0.237500X0.300000X0.237500X-0.300000X0.237500X-0.300000X-0.237500X0.300000X-0.237500X0*%
%ADD21RoundRect,0.150000X-0.150000X0.512500X-0.150000X-0.512500X0.150000X-0.512500X0.150000X0.512500X0*%
%ADD22R,1.300000X2.000000*%
%ADD23R,1.000000X0.300000*%
%ADD24RoundRect,0.150000X0.150000X-0.587500X0.150000X0.587500X-0.150000X0.587500X-0.150000X-0.587500X0*%
%ADD25RoundRect,0.237500X-0.237500X0.300000X-0.237500X-0.300000X0.237500X-0.300000X0.237500X0.300000X0*%
%ADD26RoundRect,0.237500X-0.237500X0.250000X-0.237500X-0.250000X0.237500X-0.250000X0.237500X0.250000X0*%
%ADD27RoundRect,0.150000X-0.512500X-0.150000X0.512500X-0.150000X0.512500X0.150000X-0.512500X0.150000X0*%
%ADD28RoundRect,0.237500X0.237500X-0.287500X0.237500X0.287500X-0.237500X0.287500X-0.237500X-0.287500X0*%
%ADD29RoundRect,0.250001X-0.624999X0.462499X-0.624999X-0.462499X0.624999X-0.462499X0.624999X0.462499X0*%
%ADD30RoundRect,0.100000X-0.637500X-0.100000X0.637500X-0.100000X0.637500X0.100000X-0.637500X0.100000X0*%
%ADD31RoundRect,0.237500X0.237500X-0.300000X0.237500X0.300000X-0.237500X0.300000X-0.237500X-0.300000X0*%
%ADD32R,1.000000X3.200000*%
%ADD33R,2.800000X2.100000*%
%ADD34R,1.900000X0.600000*%
%ADD35R,0.650000X1.560000*%
%ADD36O,1.200000X1.750000*%
%ADD37RoundRect,0.250000X0.350000X0.625000X-0.350000X0.625000X-0.350000X-0.625000X0.350000X-0.625000X0*%
%ADD38RoundRect,0.237500X-0.237500X0.287500X-0.237500X-0.287500X0.237500X-0.287500X0.237500X0.287500X0*%
%ADD39RoundRect,0.237500X-0.250000X-0.237500X0.250000X-0.237500X0.250000X0.237500X-0.250000X0.237500X0*%
%ADD40R,1.500000X3.600000*%
%ADD41RoundRect,0.237500X0.287500X0.237500X-0.287500X0.237500X-0.287500X-0.237500X0.287500X-0.237500X0*%
%ADD42R,5.100000X2.350000*%
%ADD43C,0.800000*%
%ADD44C,1.600000*%
%ADD45C,0.900000*%
%ADD46C,2.500000*%
%ADD47C,1.524000*%
%ADD48C,0.500000*%
G04 APERTURE END LIST*
D10*
X73901000Y-197201000D02*
X73933000Y-197203000D01*
X73964000Y-197207000D01*
X73995000Y-197213000D01*
X74025000Y-197220000D01*
X74055000Y-197229000D01*
X74085000Y-197240000D01*
X74114000Y-197252000D01*
X74142000Y-197265000D01*
X74170000Y-197280000D01*
X74197000Y-197297000D01*
X74223000Y-197315000D01*
X74248000Y-197334000D01*
X74271000Y-197354000D01*
X74294000Y-197376000D01*
X74316000Y-197399000D01*
X74336000Y-197422000D01*
X74355000Y-197447000D01*
X74373000Y-197473000D01*
X74390000Y-197500000D01*
X74405000Y-197528000D01*
X74418000Y-197556000D01*
X74430000Y-197585000D01*
X74441000Y-197615000D01*
X74450000Y-197645000D01*
X74457000Y-197675000D01*
X74463000Y-197706000D01*
X74467000Y-197737000D01*
X74469000Y-197769000D01*
X74470000Y-197800000D01*
X74470000Y-198400000D01*
X74470000Y-199000000D01*
X74469000Y-199031000D01*
X74467000Y-199063000D01*
X74463000Y-199094000D01*
X74457000Y-199125000D01*
X74450000Y-199155000D01*
X74441000Y-199185000D01*
X74430000Y-199215000D01*
X74418000Y-199244000D01*
X74405000Y-199272000D01*
X74390000Y-199300000D01*
X74373000Y-199327000D01*
X74355000Y-199353000D01*
X74336000Y-199378000D01*
X74316000Y-199401000D01*
X74294000Y-199424000D01*
X74271000Y-199446000D01*
X74248000Y-199466000D01*
X74223000Y-199485000D01*
X74197000Y-199503000D01*
X74170000Y-199520000D01*
X74142000Y-199535000D01*
X74114000Y-199548000D01*
X74085000Y-199560000D01*
X74055000Y-199571000D01*
X74025000Y-199580000D01*
X73995000Y-199587000D01*
X73964000Y-199593000D01*
X73933000Y-199597000D01*
X73901000Y-199599000D01*
X73870000Y-199600000D01*
X73839000Y-199599000D01*
X73807000Y-199597000D01*
X73776000Y-199593000D01*
X73745000Y-199587000D01*
X73715000Y-199580000D01*
X73685000Y-199571000D01*
X73655000Y-199560000D01*
X73626000Y-199548000D01*
X73598000Y-199535000D01*
X73570000Y-199520000D01*
X73543000Y-199503000D01*
X73517000Y-199485000D01*
X73492000Y-199466000D01*
X73469000Y-199446000D01*
X73446000Y-199424000D01*
X73424000Y-199401000D01*
X73404000Y-199378000D01*
X73385000Y-199353000D01*
X73367000Y-199327000D01*
X73350000Y-199300000D01*
X73335000Y-199272000D01*
X73322000Y-199244000D01*
X73310000Y-199215000D01*
X73299000Y-199185000D01*
X73290000Y-199155000D01*
X73283000Y-199125000D01*
X73277000Y-199094000D01*
X73273000Y-199063000D01*
X73271000Y-199031000D01*
X73270000Y-199000000D01*
X73270000Y-198400000D01*
X73270000Y-197800000D01*
X73271000Y-197769000D01*
X73273000Y-197737000D01*
X73277000Y-197706000D01*
X73283000Y-197675000D01*
X73290000Y-197645000D01*
X73299000Y-197615000D01*
X73310000Y-197585000D01*
X73322000Y-197556000D01*
X73335000Y-197528000D01*
X73350000Y-197500000D01*
X73367000Y-197473000D01*
X73385000Y-197447000D01*
X73404000Y-197422000D01*
X73424000Y-197399000D01*
X73446000Y-197376000D01*
X73469000Y-197354000D01*
X73492000Y-197334000D01*
X73517000Y-197315000D01*
X73543000Y-197297000D01*
X73570000Y-197280000D01*
X73598000Y-197265000D01*
X73626000Y-197252000D01*
X73655000Y-197240000D01*
X73685000Y-197229000D01*
X73715000Y-197220000D01*
X73745000Y-197213000D01*
X73776000Y-197207000D01*
X73807000Y-197203000D01*
X73839000Y-197201000D01*
X73870000Y-197200000D01*
X73901000Y-197201000D01*
G36*
X73901000Y-197201000D02*
G01*
X73933000Y-197203000D01*
X73964000Y-197207000D01*
X73995000Y-197213000D01*
X74025000Y-197220000D01*
X74055000Y-197229000D01*
X74085000Y-197240000D01*
X74114000Y-197252000D01*
X74142000Y-197265000D01*
X74170000Y-197280000D01*
X74197000Y-197297000D01*
X74223000Y-197315000D01*
X74248000Y-197334000D01*
X74271000Y-197354000D01*
X74294000Y-197376000D01*
X74316000Y-197399000D01*
X74336000Y-197422000D01*
X74355000Y-197447000D01*
X74373000Y-197473000D01*
X74390000Y-197500000D01*
X74405000Y-197528000D01*
X74418000Y-197556000D01*
X74430000Y-197585000D01*
X74441000Y-197615000D01*
X74450000Y-197645000D01*
X74457000Y-197675000D01*
X74463000Y-197706000D01*
X74467000Y-197737000D01*
X74469000Y-197769000D01*
X74470000Y-197800000D01*
X74470000Y-198400000D01*
X74470000Y-199000000D01*
X74469000Y-199031000D01*
X74467000Y-199063000D01*
X74463000Y-199094000D01*
X74457000Y-199125000D01*
X74450000Y-199155000D01*
X74441000Y-199185000D01*
X74430000Y-199215000D01*
X74418000Y-199244000D01*
X74405000Y-199272000D01*
X74390000Y-199300000D01*
X74373000Y-199327000D01*
X74355000Y-199353000D01*
X74336000Y-199378000D01*
X74316000Y-199401000D01*
X74294000Y-199424000D01*
X74271000Y-199446000D01*
X74248000Y-199466000D01*
X74223000Y-199485000D01*
X74197000Y-199503000D01*
X74170000Y-199520000D01*
X74142000Y-199535000D01*
X74114000Y-199548000D01*
X74085000Y-199560000D01*
X74055000Y-199571000D01*
X74025000Y-199580000D01*
X73995000Y-199587000D01*
X73964000Y-199593000D01*
X73933000Y-199597000D01*
X73901000Y-199599000D01*
X73870000Y-199600000D01*
X73839000Y-199599000D01*
X73807000Y-199597000D01*
X73776000Y-199593000D01*
X73745000Y-199587000D01*
X73715000Y-199580000D01*
X73685000Y-199571000D01*
X73655000Y-199560000D01*
X73626000Y-199548000D01*
X73598000Y-199535000D01*
X73570000Y-199520000D01*
X73543000Y-199503000D01*
X73517000Y-199485000D01*
X73492000Y-199466000D01*
X73469000Y-199446000D01*
X73446000Y-199424000D01*
X73424000Y-199401000D01*
X73404000Y-199378000D01*
X73385000Y-199353000D01*
X73367000Y-199327000D01*
X73350000Y-199300000D01*
X73335000Y-199272000D01*
X73322000Y-199244000D01*
X73310000Y-199215000D01*
X73299000Y-199185000D01*
X73290000Y-199155000D01*
X73283000Y-199125000D01*
X73277000Y-199094000D01*
X73273000Y-199063000D01*
X73271000Y-199031000D01*
X73270000Y-199000000D01*
X73270000Y-198400000D01*
X73270000Y-197800000D01*
X73271000Y-197769000D01*
X73273000Y-197737000D01*
X73277000Y-197706000D01*
X73283000Y-197675000D01*
X73290000Y-197645000D01*
X73299000Y-197615000D01*
X73310000Y-197585000D01*
X73322000Y-197556000D01*
X73335000Y-197528000D01*
X73350000Y-197500000D01*
X73367000Y-197473000D01*
X73385000Y-197447000D01*
X73404000Y-197422000D01*
X73424000Y-197399000D01*
X73446000Y-197376000D01*
X73469000Y-197354000D01*
X73492000Y-197334000D01*
X73517000Y-197315000D01*
X73543000Y-197297000D01*
X73570000Y-197280000D01*
X73598000Y-197265000D01*
X73626000Y-197252000D01*
X73655000Y-197240000D01*
X73685000Y-197229000D01*
X73715000Y-197220000D01*
X73745000Y-197213000D01*
X73776000Y-197207000D01*
X73807000Y-197203000D01*
X73839000Y-197201000D01*
X73870000Y-197200000D01*
X73901000Y-197201000D01*
G37*
X73901000Y-193401000D02*
X73933000Y-193403000D01*
X73964000Y-193407000D01*
X73995000Y-193413000D01*
X74025000Y-193420000D01*
X74055000Y-193429000D01*
X74085000Y-193440000D01*
X74114000Y-193452000D01*
X74142000Y-193465000D01*
X74170000Y-193480000D01*
X74197000Y-193497000D01*
X74223000Y-193515000D01*
X74248000Y-193534000D01*
X74271000Y-193554000D01*
X74294000Y-193576000D01*
X74316000Y-193599000D01*
X74336000Y-193622000D01*
X74355000Y-193647000D01*
X74373000Y-193673000D01*
X74390000Y-193700000D01*
X74405000Y-193728000D01*
X74418000Y-193756000D01*
X74430000Y-193785000D01*
X74441000Y-193815000D01*
X74450000Y-193845000D01*
X74457000Y-193875000D01*
X74463000Y-193906000D01*
X74467000Y-193937000D01*
X74469000Y-193969000D01*
X74470000Y-194000000D01*
X74470000Y-194800000D01*
X74469000Y-194831000D01*
X74467000Y-194863000D01*
X74463000Y-194894000D01*
X74457000Y-194925000D01*
X74450000Y-194955000D01*
X74441000Y-194985000D01*
X74430000Y-195015000D01*
X74418000Y-195044000D01*
X74405000Y-195072000D01*
X74390000Y-195100000D01*
X74373000Y-195127000D01*
X74355000Y-195153000D01*
X74336000Y-195178000D01*
X74316000Y-195201000D01*
X74294000Y-195224000D01*
X74271000Y-195246000D01*
X74248000Y-195266000D01*
X74223000Y-195285000D01*
X74197000Y-195303000D01*
X74170000Y-195320000D01*
X74142000Y-195335000D01*
X74114000Y-195348000D01*
X74085000Y-195360000D01*
X74055000Y-195371000D01*
X74025000Y-195380000D01*
X73995000Y-195387000D01*
X73964000Y-195393000D01*
X73933000Y-195397000D01*
X73901000Y-195399000D01*
X73870000Y-195400000D01*
X73839000Y-195399000D01*
X73807000Y-195397000D01*
X73776000Y-195393000D01*
X73745000Y-195387000D01*
X73715000Y-195380000D01*
X73685000Y-195371000D01*
X73655000Y-195360000D01*
X73626000Y-195348000D01*
X73598000Y-195335000D01*
X73570000Y-195320000D01*
X73543000Y-195303000D01*
X73517000Y-195285000D01*
X73492000Y-195266000D01*
X73469000Y-195246000D01*
X73446000Y-195224000D01*
X73424000Y-195201000D01*
X73404000Y-195178000D01*
X73385000Y-195153000D01*
X73367000Y-195127000D01*
X73350000Y-195100000D01*
X73335000Y-195072000D01*
X73322000Y-195044000D01*
X73310000Y-195015000D01*
X73299000Y-194985000D01*
X73290000Y-194955000D01*
X73283000Y-194925000D01*
X73277000Y-194894000D01*
X73273000Y-194863000D01*
X73271000Y-194831000D01*
X73270000Y-194800000D01*
X73270000Y-194000000D01*
X73271000Y-193969000D01*
X73273000Y-193937000D01*
X73277000Y-193906000D01*
X73283000Y-193875000D01*
X73290000Y-193845000D01*
X73299000Y-193815000D01*
X73310000Y-193785000D01*
X73322000Y-193756000D01*
X73335000Y-193728000D01*
X73350000Y-193700000D01*
X73367000Y-193673000D01*
X73385000Y-193647000D01*
X73404000Y-193622000D01*
X73424000Y-193599000D01*
X73446000Y-193576000D01*
X73469000Y-193554000D01*
X73492000Y-193534000D01*
X73517000Y-193515000D01*
X73543000Y-193497000D01*
X73570000Y-193480000D01*
X73598000Y-193465000D01*
X73626000Y-193452000D01*
X73655000Y-193440000D01*
X73685000Y-193429000D01*
X73715000Y-193420000D01*
X73745000Y-193413000D01*
X73776000Y-193407000D01*
X73807000Y-193403000D01*
X73839000Y-193401000D01*
X73870000Y-193400000D01*
X73901000Y-193401000D01*
G36*
X73901000Y-193401000D02*
G01*
X73933000Y-193403000D01*
X73964000Y-193407000D01*
X73995000Y-193413000D01*
X74025000Y-193420000D01*
X74055000Y-193429000D01*
X74085000Y-193440000D01*
X74114000Y-193452000D01*
X74142000Y-193465000D01*
X74170000Y-193480000D01*
X74197000Y-193497000D01*
X74223000Y-193515000D01*
X74248000Y-193534000D01*
X74271000Y-193554000D01*
X74294000Y-193576000D01*
X74316000Y-193599000D01*
X74336000Y-193622000D01*
X74355000Y-193647000D01*
X74373000Y-193673000D01*
X74390000Y-193700000D01*
X74405000Y-193728000D01*
X74418000Y-193756000D01*
X74430000Y-193785000D01*
X74441000Y-193815000D01*
X74450000Y-193845000D01*
X74457000Y-193875000D01*
X74463000Y-193906000D01*
X74467000Y-193937000D01*
X74469000Y-193969000D01*
X74470000Y-194000000D01*
X74470000Y-194800000D01*
X74469000Y-194831000D01*
X74467000Y-194863000D01*
X74463000Y-194894000D01*
X74457000Y-194925000D01*
X74450000Y-194955000D01*
X74441000Y-194985000D01*
X74430000Y-195015000D01*
X74418000Y-195044000D01*
X74405000Y-195072000D01*
X74390000Y-195100000D01*
X74373000Y-195127000D01*
X74355000Y-195153000D01*
X74336000Y-195178000D01*
X74316000Y-195201000D01*
X74294000Y-195224000D01*
X74271000Y-195246000D01*
X74248000Y-195266000D01*
X74223000Y-195285000D01*
X74197000Y-195303000D01*
X74170000Y-195320000D01*
X74142000Y-195335000D01*
X74114000Y-195348000D01*
X74085000Y-195360000D01*
X74055000Y-195371000D01*
X74025000Y-195380000D01*
X73995000Y-195387000D01*
X73964000Y-195393000D01*
X73933000Y-195397000D01*
X73901000Y-195399000D01*
X73870000Y-195400000D01*
X73839000Y-195399000D01*
X73807000Y-195397000D01*
X73776000Y-195393000D01*
X73745000Y-195387000D01*
X73715000Y-195380000D01*
X73685000Y-195371000D01*
X73655000Y-195360000D01*
X73626000Y-195348000D01*
X73598000Y-195335000D01*
X73570000Y-195320000D01*
X73543000Y-195303000D01*
X73517000Y-195285000D01*
X73492000Y-195266000D01*
X73469000Y-195246000D01*
X73446000Y-195224000D01*
X73424000Y-195201000D01*
X73404000Y-195178000D01*
X73385000Y-195153000D01*
X73367000Y-195127000D01*
X73350000Y-195100000D01*
X73335000Y-195072000D01*
X73322000Y-195044000D01*
X73310000Y-195015000D01*
X73299000Y-194985000D01*
X73290000Y-194955000D01*
X73283000Y-194925000D01*
X73277000Y-194894000D01*
X73273000Y-194863000D01*
X73271000Y-194831000D01*
X73270000Y-194800000D01*
X73270000Y-194000000D01*
X73271000Y-193969000D01*
X73273000Y-193937000D01*
X73277000Y-193906000D01*
X73283000Y-193875000D01*
X73290000Y-193845000D01*
X73299000Y-193815000D01*
X73310000Y-193785000D01*
X73322000Y-193756000D01*
X73335000Y-193728000D01*
X73350000Y-193700000D01*
X73367000Y-193673000D01*
X73385000Y-193647000D01*
X73404000Y-193622000D01*
X73424000Y-193599000D01*
X73446000Y-193576000D01*
X73469000Y-193554000D01*
X73492000Y-193534000D01*
X73517000Y-193515000D01*
X73543000Y-193497000D01*
X73570000Y-193480000D01*
X73598000Y-193465000D01*
X73626000Y-193452000D01*
X73655000Y-193440000D01*
X73685000Y-193429000D01*
X73715000Y-193420000D01*
X73745000Y-193413000D01*
X73776000Y-193407000D01*
X73807000Y-193403000D01*
X73839000Y-193401000D01*
X73870000Y-193400000D01*
X73901000Y-193401000D01*
G37*
X62661000Y-197201000D02*
X62693000Y-197203000D01*
X62724000Y-197207000D01*
X62755000Y-197213000D01*
X62785000Y-197220000D01*
X62815000Y-197229000D01*
X62845000Y-197240000D01*
X62874000Y-197252000D01*
X62902000Y-197265000D01*
X62930000Y-197280000D01*
X62957000Y-197297000D01*
X62983000Y-197315000D01*
X63008000Y-197334000D01*
X63031000Y-197354000D01*
X63054000Y-197376000D01*
X63076000Y-197399000D01*
X63096000Y-197422000D01*
X63115000Y-197447000D01*
X63133000Y-197473000D01*
X63150000Y-197500000D01*
X63165000Y-197528000D01*
X63178000Y-197556000D01*
X63190000Y-197585000D01*
X63201000Y-197615000D01*
X63210000Y-197645000D01*
X63217000Y-197675000D01*
X63223000Y-197706000D01*
X63227000Y-197737000D01*
X63229000Y-197769000D01*
X63230000Y-197800000D01*
X63230000Y-199000000D01*
X63229000Y-199031000D01*
X63227000Y-199063000D01*
X63223000Y-199094000D01*
X63217000Y-199125000D01*
X63210000Y-199155000D01*
X63201000Y-199185000D01*
X63190000Y-199215000D01*
X63178000Y-199244000D01*
X63165000Y-199272000D01*
X63150000Y-199300000D01*
X63133000Y-199327000D01*
X63115000Y-199353000D01*
X63096000Y-199378000D01*
X63076000Y-199401000D01*
X63054000Y-199424000D01*
X63031000Y-199446000D01*
X63008000Y-199466000D01*
X62983000Y-199485000D01*
X62957000Y-199503000D01*
X62930000Y-199520000D01*
X62902000Y-199535000D01*
X62874000Y-199548000D01*
X62845000Y-199560000D01*
X62815000Y-199571000D01*
X62785000Y-199580000D01*
X62755000Y-199587000D01*
X62724000Y-199593000D01*
X62693000Y-199597000D01*
X62661000Y-199599000D01*
X62630000Y-199600000D01*
X62599000Y-199599000D01*
X62567000Y-199597000D01*
X62536000Y-199593000D01*
X62505000Y-199587000D01*
X62475000Y-199580000D01*
X62445000Y-199571000D01*
X62415000Y-199560000D01*
X62386000Y-199548000D01*
X62358000Y-199535000D01*
X62330000Y-199520000D01*
X62303000Y-199503000D01*
X62277000Y-199485000D01*
X62252000Y-199466000D01*
X62229000Y-199446000D01*
X62206000Y-199424000D01*
X62184000Y-199401000D01*
X62164000Y-199378000D01*
X62145000Y-199353000D01*
X62127000Y-199327000D01*
X62110000Y-199300000D01*
X62095000Y-199272000D01*
X62082000Y-199244000D01*
X62070000Y-199215000D01*
X62059000Y-199185000D01*
X62050000Y-199155000D01*
X62043000Y-199125000D01*
X62037000Y-199094000D01*
X62033000Y-199063000D01*
X62031000Y-199031000D01*
X62030000Y-199000000D01*
X62030000Y-197800000D01*
X62031000Y-197769000D01*
X62033000Y-197737000D01*
X62037000Y-197706000D01*
X62043000Y-197675000D01*
X62050000Y-197645000D01*
X62059000Y-197615000D01*
X62070000Y-197585000D01*
X62082000Y-197556000D01*
X62095000Y-197528000D01*
X62110000Y-197500000D01*
X62127000Y-197473000D01*
X62145000Y-197447000D01*
X62164000Y-197422000D01*
X62184000Y-197399000D01*
X62206000Y-197376000D01*
X62229000Y-197354000D01*
X62252000Y-197334000D01*
X62277000Y-197315000D01*
X62303000Y-197297000D01*
X62330000Y-197280000D01*
X62358000Y-197265000D01*
X62386000Y-197252000D01*
X62415000Y-197240000D01*
X62445000Y-197229000D01*
X62475000Y-197220000D01*
X62505000Y-197213000D01*
X62536000Y-197207000D01*
X62567000Y-197203000D01*
X62599000Y-197201000D01*
X62630000Y-197200000D01*
X62661000Y-197201000D01*
G36*
X62661000Y-197201000D02*
G01*
X62693000Y-197203000D01*
X62724000Y-197207000D01*
X62755000Y-197213000D01*
X62785000Y-197220000D01*
X62815000Y-197229000D01*
X62845000Y-197240000D01*
X62874000Y-197252000D01*
X62902000Y-197265000D01*
X62930000Y-197280000D01*
X62957000Y-197297000D01*
X62983000Y-197315000D01*
X63008000Y-197334000D01*
X63031000Y-197354000D01*
X63054000Y-197376000D01*
X63076000Y-197399000D01*
X63096000Y-197422000D01*
X63115000Y-197447000D01*
X63133000Y-197473000D01*
X63150000Y-197500000D01*
X63165000Y-197528000D01*
X63178000Y-197556000D01*
X63190000Y-197585000D01*
X63201000Y-197615000D01*
X63210000Y-197645000D01*
X63217000Y-197675000D01*
X63223000Y-197706000D01*
X63227000Y-197737000D01*
X63229000Y-197769000D01*
X63230000Y-197800000D01*
X63230000Y-199000000D01*
X63229000Y-199031000D01*
X63227000Y-199063000D01*
X63223000Y-199094000D01*
X63217000Y-199125000D01*
X63210000Y-199155000D01*
X63201000Y-199185000D01*
X63190000Y-199215000D01*
X63178000Y-199244000D01*
X63165000Y-199272000D01*
X63150000Y-199300000D01*
X63133000Y-199327000D01*
X63115000Y-199353000D01*
X63096000Y-199378000D01*
X63076000Y-199401000D01*
X63054000Y-199424000D01*
X63031000Y-199446000D01*
X63008000Y-199466000D01*
X62983000Y-199485000D01*
X62957000Y-199503000D01*
X62930000Y-199520000D01*
X62902000Y-199535000D01*
X62874000Y-199548000D01*
X62845000Y-199560000D01*
X62815000Y-199571000D01*
X62785000Y-199580000D01*
X62755000Y-199587000D01*
X62724000Y-199593000D01*
X62693000Y-199597000D01*
X62661000Y-199599000D01*
X62630000Y-199600000D01*
X62599000Y-199599000D01*
X62567000Y-199597000D01*
X62536000Y-199593000D01*
X62505000Y-199587000D01*
X62475000Y-199580000D01*
X62445000Y-199571000D01*
X62415000Y-199560000D01*
X62386000Y-199548000D01*
X62358000Y-199535000D01*
X62330000Y-199520000D01*
X62303000Y-199503000D01*
X62277000Y-199485000D01*
X62252000Y-199466000D01*
X62229000Y-199446000D01*
X62206000Y-199424000D01*
X62184000Y-199401000D01*
X62164000Y-199378000D01*
X62145000Y-199353000D01*
X62127000Y-199327000D01*
X62110000Y-199300000D01*
X62095000Y-199272000D01*
X62082000Y-199244000D01*
X62070000Y-199215000D01*
X62059000Y-199185000D01*
X62050000Y-199155000D01*
X62043000Y-199125000D01*
X62037000Y-199094000D01*
X62033000Y-199063000D01*
X62031000Y-199031000D01*
X62030000Y-199000000D01*
X62030000Y-197800000D01*
X62031000Y-197769000D01*
X62033000Y-197737000D01*
X62037000Y-197706000D01*
X62043000Y-197675000D01*
X62050000Y-197645000D01*
X62059000Y-197615000D01*
X62070000Y-197585000D01*
X62082000Y-197556000D01*
X62095000Y-197528000D01*
X62110000Y-197500000D01*
X62127000Y-197473000D01*
X62145000Y-197447000D01*
X62164000Y-197422000D01*
X62184000Y-197399000D01*
X62206000Y-197376000D01*
X62229000Y-197354000D01*
X62252000Y-197334000D01*
X62277000Y-197315000D01*
X62303000Y-197297000D01*
X62330000Y-197280000D01*
X62358000Y-197265000D01*
X62386000Y-197252000D01*
X62415000Y-197240000D01*
X62445000Y-197229000D01*
X62475000Y-197220000D01*
X62505000Y-197213000D01*
X62536000Y-197207000D01*
X62567000Y-197203000D01*
X62599000Y-197201000D01*
X62630000Y-197200000D01*
X62661000Y-197201000D01*
G37*
X62661000Y-193401000D02*
X62693000Y-193403000D01*
X62724000Y-193407000D01*
X62755000Y-193413000D01*
X62785000Y-193420000D01*
X62815000Y-193429000D01*
X62845000Y-193440000D01*
X62874000Y-193452000D01*
X62902000Y-193465000D01*
X62930000Y-193480000D01*
X62957000Y-193497000D01*
X62983000Y-193515000D01*
X63008000Y-193534000D01*
X63031000Y-193554000D01*
X63054000Y-193576000D01*
X63076000Y-193599000D01*
X63096000Y-193622000D01*
X63115000Y-193647000D01*
X63133000Y-193673000D01*
X63150000Y-193700000D01*
X63165000Y-193728000D01*
X63178000Y-193756000D01*
X63190000Y-193785000D01*
X63201000Y-193815000D01*
X63210000Y-193845000D01*
X63217000Y-193875000D01*
X63223000Y-193906000D01*
X63227000Y-193937000D01*
X63229000Y-193969000D01*
X63230000Y-194000000D01*
X63230000Y-194800000D01*
X63229000Y-194831000D01*
X63227000Y-194863000D01*
X63223000Y-194894000D01*
X63217000Y-194925000D01*
X63210000Y-194955000D01*
X63201000Y-194985000D01*
X63190000Y-195015000D01*
X63178000Y-195044000D01*
X63165000Y-195072000D01*
X63150000Y-195100000D01*
X63133000Y-195127000D01*
X63115000Y-195153000D01*
X63096000Y-195178000D01*
X63076000Y-195201000D01*
X63054000Y-195224000D01*
X63031000Y-195246000D01*
X63008000Y-195266000D01*
X62983000Y-195285000D01*
X62957000Y-195303000D01*
X62930000Y-195320000D01*
X62902000Y-195335000D01*
X62874000Y-195348000D01*
X62845000Y-195360000D01*
X62815000Y-195371000D01*
X62785000Y-195380000D01*
X62755000Y-195387000D01*
X62724000Y-195393000D01*
X62693000Y-195397000D01*
X62661000Y-195399000D01*
X62630000Y-195400000D01*
X62599000Y-195399000D01*
X62567000Y-195397000D01*
X62536000Y-195393000D01*
X62505000Y-195387000D01*
X62475000Y-195380000D01*
X62445000Y-195371000D01*
X62415000Y-195360000D01*
X62386000Y-195348000D01*
X62358000Y-195335000D01*
X62330000Y-195320000D01*
X62303000Y-195303000D01*
X62277000Y-195285000D01*
X62252000Y-195266000D01*
X62229000Y-195246000D01*
X62206000Y-195224000D01*
X62184000Y-195201000D01*
X62164000Y-195178000D01*
X62145000Y-195153000D01*
X62127000Y-195127000D01*
X62110000Y-195100000D01*
X62095000Y-195072000D01*
X62082000Y-195044000D01*
X62070000Y-195015000D01*
X62059000Y-194985000D01*
X62050000Y-194955000D01*
X62043000Y-194925000D01*
X62037000Y-194894000D01*
X62033000Y-194863000D01*
X62031000Y-194831000D01*
X62030000Y-194800000D01*
X62030000Y-194000000D01*
X62031000Y-193969000D01*
X62033000Y-193937000D01*
X62037000Y-193906000D01*
X62043000Y-193875000D01*
X62050000Y-193845000D01*
X62059000Y-193815000D01*
X62070000Y-193785000D01*
X62082000Y-193756000D01*
X62095000Y-193728000D01*
X62110000Y-193700000D01*
X62127000Y-193673000D01*
X62145000Y-193647000D01*
X62164000Y-193622000D01*
X62184000Y-193599000D01*
X62206000Y-193576000D01*
X62229000Y-193554000D01*
X62252000Y-193534000D01*
X62277000Y-193515000D01*
X62303000Y-193497000D01*
X62330000Y-193480000D01*
X62358000Y-193465000D01*
X62386000Y-193452000D01*
X62415000Y-193440000D01*
X62445000Y-193429000D01*
X62475000Y-193420000D01*
X62505000Y-193413000D01*
X62536000Y-193407000D01*
X62567000Y-193403000D01*
X62599000Y-193401000D01*
X62630000Y-193400000D01*
X62661000Y-193401000D01*
G36*
X62661000Y-193401000D02*
G01*
X62693000Y-193403000D01*
X62724000Y-193407000D01*
X62755000Y-193413000D01*
X62785000Y-193420000D01*
X62815000Y-193429000D01*
X62845000Y-193440000D01*
X62874000Y-193452000D01*
X62902000Y-193465000D01*
X62930000Y-193480000D01*
X62957000Y-193497000D01*
X62983000Y-193515000D01*
X63008000Y-193534000D01*
X63031000Y-193554000D01*
X63054000Y-193576000D01*
X63076000Y-193599000D01*
X63096000Y-193622000D01*
X63115000Y-193647000D01*
X63133000Y-193673000D01*
X63150000Y-193700000D01*
X63165000Y-193728000D01*
X63178000Y-193756000D01*
X63190000Y-193785000D01*
X63201000Y-193815000D01*
X63210000Y-193845000D01*
X63217000Y-193875000D01*
X63223000Y-193906000D01*
X63227000Y-193937000D01*
X63229000Y-193969000D01*
X63230000Y-194000000D01*
X63230000Y-194800000D01*
X63229000Y-194831000D01*
X63227000Y-194863000D01*
X63223000Y-194894000D01*
X63217000Y-194925000D01*
X63210000Y-194955000D01*
X63201000Y-194985000D01*
X63190000Y-195015000D01*
X63178000Y-195044000D01*
X63165000Y-195072000D01*
X63150000Y-195100000D01*
X63133000Y-195127000D01*
X63115000Y-195153000D01*
X63096000Y-195178000D01*
X63076000Y-195201000D01*
X63054000Y-195224000D01*
X63031000Y-195246000D01*
X63008000Y-195266000D01*
X62983000Y-195285000D01*
X62957000Y-195303000D01*
X62930000Y-195320000D01*
X62902000Y-195335000D01*
X62874000Y-195348000D01*
X62845000Y-195360000D01*
X62815000Y-195371000D01*
X62785000Y-195380000D01*
X62755000Y-195387000D01*
X62724000Y-195393000D01*
X62693000Y-195397000D01*
X62661000Y-195399000D01*
X62630000Y-195400000D01*
X62599000Y-195399000D01*
X62567000Y-195397000D01*
X62536000Y-195393000D01*
X62505000Y-195387000D01*
X62475000Y-195380000D01*
X62445000Y-195371000D01*
X62415000Y-195360000D01*
X62386000Y-195348000D01*
X62358000Y-195335000D01*
X62330000Y-195320000D01*
X62303000Y-195303000D01*
X62277000Y-195285000D01*
X62252000Y-195266000D01*
X62229000Y-195246000D01*
X62206000Y-195224000D01*
X62184000Y-195201000D01*
X62164000Y-195178000D01*
X62145000Y-195153000D01*
X62127000Y-195127000D01*
X62110000Y-195100000D01*
X62095000Y-195072000D01*
X62082000Y-195044000D01*
X62070000Y-195015000D01*
X62059000Y-194985000D01*
X62050000Y-194955000D01*
X62043000Y-194925000D01*
X62037000Y-194894000D01*
X62033000Y-194863000D01*
X62031000Y-194831000D01*
X62030000Y-194800000D01*
X62030000Y-194000000D01*
X62031000Y-193969000D01*
X62033000Y-193937000D01*
X62037000Y-193906000D01*
X62043000Y-193875000D01*
X62050000Y-193845000D01*
X62059000Y-193815000D01*
X62070000Y-193785000D01*
X62082000Y-193756000D01*
X62095000Y-193728000D01*
X62110000Y-193700000D01*
X62127000Y-193673000D01*
X62145000Y-193647000D01*
X62164000Y-193622000D01*
X62184000Y-193599000D01*
X62206000Y-193576000D01*
X62229000Y-193554000D01*
X62252000Y-193534000D01*
X62277000Y-193515000D01*
X62303000Y-193497000D01*
X62330000Y-193480000D01*
X62358000Y-193465000D01*
X62386000Y-193452000D01*
X62415000Y-193440000D01*
X62445000Y-193429000D01*
X62475000Y-193420000D01*
X62505000Y-193413000D01*
X62536000Y-193407000D01*
X62567000Y-193403000D01*
X62599000Y-193401000D01*
X62630000Y-193400000D01*
X62661000Y-193401000D01*
G37*
D11*
X47897500Y-96320000D03*
X47897500Y-97820000D03*
X46397500Y-96320000D03*
X46397500Y-97820000D03*
X44897500Y-96320000D03*
X44897500Y-97820000D03*
X47147500Y-95570000D03*
X47147500Y-97070000D03*
X47147500Y-98570000D03*
X45647500Y-95570000D03*
X45647500Y-98570000D03*
X45647500Y-97070000D03*
D12*
X44897500Y-95570000D03*
X44897500Y-97070000D03*
X44897500Y-98570000D03*
X47897500Y-95570000D03*
X47897500Y-97070000D03*
X47897500Y-98570000D03*
X46397500Y-95570000D03*
X46397500Y-98570000D03*
X46397500Y-97070000D03*
D13*
X41047500Y-86960000D03*
X42317500Y-86960000D03*
X43587500Y-86960000D03*
X44857500Y-86960000D03*
X46127500Y-86960000D03*
X47397500Y-86960000D03*
X48667500Y-86960000D03*
X49937500Y-86960000D03*
X51207500Y-86960000D03*
X52477500Y-86960000D03*
X53747500Y-86960000D03*
X55017500Y-86960000D03*
X56287500Y-86960000D03*
X57557500Y-86960000D03*
D14*
X58807500Y-88725000D03*
X58807500Y-89995000D03*
X58807500Y-91265000D03*
X58807500Y-92535000D03*
X58807500Y-93805000D03*
X58807500Y-95075000D03*
X58807500Y-96345000D03*
X58807500Y-97615000D03*
X58807500Y-98885000D03*
X58807500Y-100155000D03*
X58807500Y-101425000D03*
X58807500Y-102695000D03*
D13*
X57557500Y-104460000D03*
X56287500Y-104460000D03*
X55017500Y-104460000D03*
X53747500Y-104460000D03*
X52477500Y-104460000D03*
X51207500Y-104460000D03*
X49937500Y-104460000D03*
X48667500Y-104460000D03*
X47397500Y-104460000D03*
X46127500Y-104460000D03*
X44857500Y-104460000D03*
X43587500Y-104460000D03*
X42317500Y-104460000D03*
X41047500Y-104460000D03*
D15*
X66500000Y-193250000D03*
X67500000Y-193250000D03*
X69000000Y-193250000D03*
X70000000Y-193250000D03*
D16*
X70650000Y-193250000D03*
X71450000Y-193250000D03*
D15*
X69500000Y-193250000D03*
X68500000Y-193250000D03*
X68000000Y-193250000D03*
X67000000Y-193250000D03*
D16*
X65850000Y-193250000D03*
X65050000Y-193250000D03*
D17*
X36387500Y-150250000D03*
X38112500Y-150250000D03*
D18*
X60087500Y-112750000D03*
X61912500Y-112750000D03*
D19*
X56000000Y-110587500D03*
X56000000Y-112412500D03*
D20*
X41662500Y-150200000D03*
X39937500Y-150200000D03*
D21*
X40950000Y-163862500D03*
X40000000Y-163862500D03*
X39050000Y-163862500D03*
X39050000Y-166137500D03*
X40000000Y-166137500D03*
X40950000Y-166137500D03*
D22*
X60975000Y-66800000D03*
X60975000Y-42700000D03*
D23*
X63675000Y-45000000D03*
X63675000Y-45500000D03*
X63675000Y-46000000D03*
X63675000Y-46500000D03*
X63675000Y-47000000D03*
X63675000Y-47500000D03*
X63675000Y-48000000D03*
X63675000Y-48500000D03*
X63675000Y-49000000D03*
X63675000Y-49500000D03*
X63675000Y-50000000D03*
X63675000Y-50500000D03*
X63675000Y-51000000D03*
X63675000Y-51500000D03*
X63675000Y-52000000D03*
X63675000Y-52500000D03*
X63675000Y-53000000D03*
X63675000Y-53500000D03*
X63675000Y-54000000D03*
X63675000Y-54500000D03*
X63675000Y-55000000D03*
X63675000Y-55500000D03*
X63675000Y-56000000D03*
X63675000Y-56500000D03*
X63675000Y-57000000D03*
X63675000Y-57500000D03*
X63675000Y-58000000D03*
X63675000Y-58500000D03*
X63675000Y-59000000D03*
X63675000Y-59500000D03*
X63675000Y-60000000D03*
X63675000Y-60500000D03*
X63675000Y-61000000D03*
X63675000Y-61500000D03*
X63675000Y-62000000D03*
X63675000Y-62500000D03*
X63675000Y-63000000D03*
X63675000Y-63500000D03*
X63675000Y-64000000D03*
X63675000Y-64500000D03*
D24*
X80350000Y-59000000D03*
X82250000Y-59000000D03*
X81300000Y-57125000D03*
D25*
X64750000Y-103612500D03*
X64750000Y-101887500D03*
D20*
X41000000Y-169000000D03*
X39275000Y-169000000D03*
D26*
X51400000Y-76812500D03*
X51400000Y-74987500D03*
D20*
X41662500Y-152100000D03*
X39937500Y-152100000D03*
D19*
X33500000Y-123587500D03*
X33500000Y-125412500D03*
X36250000Y-123587500D03*
X36250000Y-125412500D03*
D27*
X69137500Y-188350000D03*
X69137500Y-189300000D03*
X69137500Y-190250000D03*
X66862500Y-190250000D03*
X66862500Y-189300000D03*
X66862500Y-188350000D03*
D28*
X59700000Y-194425000D03*
X59700000Y-196175000D03*
D24*
X41550000Y-161437500D03*
X43450000Y-161437500D03*
X42500000Y-159562500D03*
D17*
X56062500Y-107200000D03*
X54337500Y-107200000D03*
D29*
X54250000Y-193737500D03*
X54250000Y-190762500D03*
D19*
X43000000Y-166162500D03*
X43000000Y-164337500D03*
D20*
X36362500Y-152500000D03*
X34637500Y-152500000D03*
D19*
X39250000Y-172662500D03*
X39250000Y-170837500D03*
D30*
X92225000Y-98361979D03*
X92225000Y-99011979D03*
X92225000Y-99661979D03*
X92225000Y-100311979D03*
X92225000Y-100961979D03*
X92225000Y-101611979D03*
X92225000Y-102261979D03*
X92225000Y-102911979D03*
X92225000Y-103561979D03*
X92225000Y-104211979D03*
X92225000Y-104861979D03*
X92225000Y-105511979D03*
X86500000Y-105511979D03*
X86500000Y-104861979D03*
X86500000Y-104211979D03*
X86500000Y-103561979D03*
X86500000Y-102911979D03*
X86500000Y-102261979D03*
X86500000Y-101611979D03*
X86500000Y-100961979D03*
X86500000Y-100311979D03*
X86500000Y-99661979D03*
X86500000Y-99011979D03*
X86500000Y-98361979D03*
D17*
X36387500Y-162000000D03*
X38112500Y-162000000D03*
X37237500Y-143000000D03*
X38962500Y-143000000D03*
D27*
X43112500Y-192550000D03*
X43112500Y-193500000D03*
X43112500Y-194450000D03*
X45387500Y-194450000D03*
X45387500Y-192550000D03*
D17*
X42662500Y-109400000D03*
X40937500Y-109400000D03*
X42662500Y-107300000D03*
X40937500Y-107300000D03*
D31*
X41000000Y-194362500D03*
X41000000Y-192637500D03*
D32*
X60000000Y-123400000D03*
X60000000Y-116600000D03*
X64000000Y-123400000D03*
X64000000Y-116600000D03*
D27*
X34962500Y-145150000D03*
X34962500Y-146100000D03*
X34962500Y-147050000D03*
X37237500Y-147050000D03*
X37237500Y-146100000D03*
X37237500Y-145150000D03*
D33*
X81150000Y-45900000D03*
X81150000Y-34600000D03*
D34*
X83500000Y-37750000D03*
X83500000Y-38750000D03*
X83500000Y-39750000D03*
X83500000Y-40750000D03*
X83500000Y-41750000D03*
X83500000Y-42750000D03*
D20*
X57837500Y-107200000D03*
X59562500Y-107200000D03*
D35*
X34550000Y-160100000D03*
X35500000Y-160100000D03*
X36450000Y-160100000D03*
X36450000Y-157400000D03*
X34550000Y-157400000D03*
D19*
X57800000Y-110587500D03*
X57800000Y-112412500D03*
D17*
X88500000Y-95936979D03*
X90225000Y-95936979D03*
D31*
X39000000Y-123637500D03*
X39000000Y-125362500D03*
D36*
X39250000Y-189200000D03*
D37*
X41250000Y-189200000D03*
D25*
X47250000Y-193387500D03*
X47250000Y-195112500D03*
D38*
X51400000Y-80875000D03*
X51400000Y-79125000D03*
D20*
X36362500Y-154750000D03*
X34637500Y-154750000D03*
D24*
X41550000Y-157437500D03*
X43450000Y-157437500D03*
X42500000Y-155562500D03*
D39*
X64712500Y-190500000D03*
X62887500Y-190500000D03*
D19*
X64750000Y-105337500D03*
X64750000Y-107162500D03*
D25*
X50005000Y-195112500D03*
X50005000Y-193387500D03*
D40*
X39575000Y-146400000D03*
X42625000Y-146400000D03*
D39*
X79337500Y-53750000D03*
X81162500Y-53750000D03*
D41*
X49445000Y-198080000D03*
X51195000Y-198080000D03*
D20*
X53637500Y-197350000D03*
X55362500Y-197350000D03*
D42*
X35250000Y-172575000D03*
X35250000Y-168425000D03*
D39*
X71387500Y-191100000D03*
X73212500Y-191100000D03*
D18*
X37162500Y-165000000D03*
X35337500Y-165000000D03*
D43*
X39000000Y-127000000D03*
X84500000Y-108750000D03*
X34000000Y-127000000D03*
X41000000Y-88800000D03*
X33000000Y-154750000D03*
X82250000Y-61000000D03*
D44*
X75250000Y-129750000D03*
D43*
X66250000Y-116500000D03*
X72600000Y-192600000D03*
X61300000Y-106000000D03*
X34650500Y-163750000D03*
X51400000Y-73200000D03*
X63700000Y-68700000D03*
X38250000Y-158750000D03*
D45*
X44250000Y-155000000D03*
D43*
X42000000Y-191500000D03*
X63600000Y-192200000D03*
D46*
X75000000Y-190500000D03*
D43*
X66079289Y-123400000D03*
X65900000Y-44500000D03*
X59600000Y-192700000D03*
X38300000Y-152100000D03*
X88500000Y-93900000D03*
D47*
X40800000Y-113700000D03*
D43*
X65900000Y-48600000D03*
X65300000Y-189000000D03*
X54000000Y-109000000D03*
X34500000Y-151000000D03*
X59000000Y-42250000D03*
X64750000Y-99750000D03*
X61100000Y-69100000D03*
X56960000Y-197430000D03*
X86000000Y-41800000D03*
D44*
X85250000Y-129749374D03*
D43*
X66100000Y-60000000D03*
X85600000Y-44200000D03*
D44*
X51250000Y-129750000D03*
D43*
X90300000Y-93900000D03*
X34300000Y-143500000D03*
D47*
X44600000Y-111800000D03*
D43*
X61900000Y-114400000D03*
X41700000Y-153900000D03*
D44*
X61250000Y-129750000D03*
D43*
X66100000Y-61400000D03*
X58000000Y-82000000D03*
X62000000Y-103419500D03*
X37500000Y-178000000D03*
X34550000Y-162000000D03*
X49762299Y-82862299D03*
X80250000Y-61000000D03*
D48*
X68500000Y-191200000D03*
X68400000Y-187200000D03*
X67970346Y-192029654D03*
X67500000Y-191200000D03*
X67600000Y-187200000D03*
D43*
X69250000Y-118500000D03*
X61500000Y-118500000D03*
X54250000Y-116000000D03*
X85000000Y-119500000D03*
X80750000Y-115250000D03*
X61500000Y-119500000D03*
X75750000Y-124750000D03*
X53750000Y-117250000D03*
X48700000Y-112700000D03*
X47500000Y-111250000D03*
X40750000Y-117500000D03*
X52500000Y-118750000D03*
X45000000Y-109250000D03*
X48250000Y-118750000D03*
X60000000Y-120500000D03*
X54000000Y-106000000D03*
X71700000Y-188300000D03*
X71488105Y-190024926D03*
X65400000Y-110400000D03*
X77100000Y-53800000D03*
X65900000Y-47500000D03*
X81525500Y-98000000D03*
X83000000Y-99500000D03*
X69400000Y-89700000D03*
X94250000Y-100000000D03*
X81525500Y-96750000D03*
X83000000Y-98250000D03*
X68800000Y-88600000D03*
X94250000Y-98750000D03*
X42400000Y-114000000D03*
X50200000Y-81900000D03*
X84055659Y-101055658D03*
X100500000Y-104750000D03*
X97750000Y-109500000D03*
X97500000Y-119500000D03*
X98250000Y-130000000D03*
X97500000Y-139250000D03*
X97500000Y-149250000D03*
X97500000Y-159250000D03*
X102400000Y-154200000D03*
X102400000Y-101000000D03*
X62100000Y-188700000D03*
X70800000Y-189300000D03*
X66000000Y-46000000D03*
D44*
X34500000Y-129500000D03*
M02*
