%TF.GenerationSoftware,KiCad,Pcbnew,7.0.1*%
%TF.CreationDate,2023-03-17T22:45:02-07:00*%
%TF.ProjectId,TI-83x,54492d38-3378-42e6-9b69-6361645f7063,A*%
%TF.SameCoordinates,Original*%
%TF.FileFunction,Drillmap*%
%TF.FilePolarity,Positive*%
%FSLAX45Y45*%
G04 Gerber Fmt 4.5, Leading zero omitted, Abs format (unit mm)*
G04 Created by KiCad (PCBNEW 7.0.1) date 2023-03-17 22:45:02*
%MOMM*%
%LPD*%
G01*
G04 APERTURE LIST*
%ADD10C,0.100000*%
%ADD11C,0.200000*%
%ADD12C,0.030000*%
%ADD13C,0.035000*%
%ADD14C,0.040000*%
%ADD15C,0.050000*%
%ADD16C,0.060000*%
%ADD17C,0.075000*%
%ADD18C,0.076200*%
%ADD19C,0.080000*%
G04 APERTURE END LIST*
D10*
X9825552Y-19599680D02*
X10250000Y-19175000D01*
X10450000Y-14800000D02*
G75*
G03*
X10450000Y-15050000I0J-125000D01*
G01*
X4865000Y-19934999D02*
G75*
G03*
X5445000Y-20000000I551660J2302279D01*
G01*
X3200000Y-10090355D02*
X3200000Y-11800000D01*
X3825000Y-19600000D02*
G75*
G03*
X4100000Y-19759419I397410J368640D01*
G01*
X10450000Y-14800000D02*
X10450000Y-11000000D01*
X3250000Y-18100000D02*
X3250000Y-18800000D01*
X9550551Y-19759096D02*
G75*
G03*
X9825552Y-19599680I-122421J528086D01*
G01*
X8785000Y-19935000D02*
X9550552Y-19759099D01*
X3200000Y-12050000D02*
G75*
G03*
X3200000Y-11800000I0J125000D01*
G01*
X3250000Y-18100000D02*
G75*
G03*
X3250000Y-17850000I0J125000D01*
G01*
X10450000Y-8550000D02*
X9775000Y-8550000D01*
X4100000Y-8550000D02*
G75*
G03*
X5000000Y-7650000I0J900000D01*
G01*
X10450000Y-3900000D02*
G75*
G03*
X9550000Y-3000000I-900000J0D01*
G01*
X5066421Y-19100000D02*
G75*
G03*
X5066421Y-19100000I-141421J0D01*
G01*
X3200000Y-15050000D02*
G75*
G03*
X3200000Y-14800000I0J125000D01*
G01*
X10400000Y-17850000D02*
X10450000Y-17850000D01*
X3860000Y-10089645D02*
X3200000Y-10090355D01*
X10249998Y-19174998D02*
G75*
G03*
X10400000Y-18800000I-345538J355718D01*
G01*
X7780750Y-11971000D02*
G75*
G03*
X7780750Y-11971000I-230000J0D01*
G01*
X8205000Y-20000000D02*
X7461000Y-20000000D01*
X3249997Y-18800000D02*
G75*
G03*
X3400000Y-19175000I495543J-19280D01*
G01*
X3400000Y-19175000D02*
X3825000Y-19600000D01*
X10450000Y-17850000D02*
X10450000Y-15050000D01*
X3200000Y-15050000D02*
X3200000Y-17850000D01*
X3960000Y-9370000D02*
X3960000Y-9989289D01*
X8205000Y-19999999D02*
G75*
G03*
X8785000Y-19935000I28340J2367339D01*
G01*
X10450000Y-7950000D02*
X10450000Y-3900000D01*
X3860000Y-10089290D02*
G75*
G03*
X3960000Y-9989289I0J100000D01*
G01*
X9550000Y-3000000D02*
X5000000Y-3000000D01*
X5445000Y-20000000D02*
X6173000Y-20000000D01*
X10400000Y-17850000D02*
G75*
G03*
X10400000Y-18100000I0J-125000D01*
G01*
X9775000Y-7950000D02*
X10450000Y-7950000D01*
X3960000Y-9370000D02*
G75*
G03*
X3860000Y-9270000I-100000J0D01*
G01*
X3200000Y-12050000D02*
X3200000Y-14800000D01*
X8875000Y-19100000D02*
G75*
G03*
X8875000Y-19100000I-150000J0D01*
G01*
X3460000Y-8550000D02*
X4100000Y-8550000D01*
X3200000Y-17850000D02*
X3250000Y-17850000D01*
X3460000Y-9270000D02*
X3460000Y-8550000D01*
X3860000Y-9270000D02*
X3460000Y-9270000D01*
X10400000Y-18800000D02*
X10400000Y-18100000D01*
X10450000Y-10750000D02*
X10450000Y-8550000D01*
X4100000Y-19759419D02*
X4865000Y-19935000D01*
X10450000Y-10750000D02*
G75*
G03*
X10450000Y-11000000I0J-125000D01*
G01*
X5000000Y-3000000D02*
X5000000Y-7650000D01*
X9775000Y-7950000D02*
G75*
G03*
X9775000Y-8550000I0J-300000D01*
G01*
D11*
D12*
X4474750Y-9617000D02*
X4504750Y-9647000D01*
X4504750Y-9617000D02*
X4474750Y-9647000D01*
X4474750Y-9767000D02*
X4504750Y-9797000D01*
X4504750Y-9767000D02*
X4474750Y-9797000D01*
X4549750Y-9542000D02*
X4579750Y-9572000D01*
X4579750Y-9542000D02*
X4549750Y-9572000D01*
X4549750Y-9692000D02*
X4579750Y-9722000D01*
X4579750Y-9692000D02*
X4549750Y-9722000D01*
X4549750Y-9842000D02*
X4579750Y-9872000D01*
X4579750Y-9842000D02*
X4549750Y-9872000D01*
X4624750Y-9617000D02*
X4654750Y-9647000D01*
X4654750Y-9617000D02*
X4624750Y-9647000D01*
X4624750Y-9767000D02*
X4654750Y-9797000D01*
X4654750Y-9767000D02*
X4624750Y-9797000D01*
X4699750Y-9542000D02*
X4729750Y-9572000D01*
X4729750Y-9542000D02*
X4699750Y-9572000D01*
X4699750Y-9692000D02*
X4729750Y-9722000D01*
X4729750Y-9692000D02*
X4699750Y-9722000D01*
X4699750Y-9842000D02*
X4729750Y-9872000D01*
X4729750Y-9842000D02*
X4699750Y-9872000D01*
X4774750Y-9617000D02*
X4804750Y-9647000D01*
X4804750Y-9617000D02*
X4774750Y-9647000D01*
X4774750Y-9767000D02*
X4804750Y-9797000D01*
X4804750Y-9767000D02*
X4774750Y-9797000D01*
D13*
X6767500Y-19120000D02*
G75*
G03*
X6767500Y-19120000I-17500J0D01*
G01*
X6777500Y-18720000D02*
G75*
G03*
X6777500Y-18720000I-17500J0D01*
G01*
X6814535Y-19202965D02*
G75*
G03*
X6814535Y-19202965I-17500J0D01*
G01*
X6857500Y-18720000D02*
G75*
G03*
X6857500Y-18720000I-17500J0D01*
G01*
X6867500Y-19120000D02*
G75*
G03*
X6867500Y-19120000I-17500J0D01*
G01*
D14*
X3300000Y-15455000D02*
X3300000Y-15495000D01*
X3280000Y-15475000D02*
X3320000Y-15475000D01*
X3400000Y-12680000D02*
X3400000Y-12720000D01*
X3380000Y-12700000D02*
X3420000Y-12700000D01*
X3430000Y-14330000D02*
X3430000Y-14370000D01*
X3410000Y-14350000D02*
X3450000Y-14350000D01*
X3450000Y-15080000D02*
X3450000Y-15120000D01*
X3430000Y-15100000D02*
X3470000Y-15100000D01*
X3455000Y-16180000D02*
X3455000Y-16220000D01*
X3435000Y-16200000D02*
X3475000Y-16200000D01*
X3465050Y-16355000D02*
X3465050Y-16395000D01*
X3445050Y-16375000D02*
X3485050Y-16375000D01*
X3750000Y-17780000D02*
X3750000Y-17820000D01*
X3730000Y-17800000D02*
X3770000Y-17800000D01*
X3825000Y-15855000D02*
X3825000Y-15895000D01*
X3805000Y-15875000D02*
X3845000Y-15875000D01*
X3830000Y-15190000D02*
X3830000Y-15230000D01*
X3810000Y-15210000D02*
X3850000Y-15210000D01*
X3900000Y-12680000D02*
X3900000Y-12720000D01*
X3880000Y-12700000D02*
X3920000Y-12700000D01*
X4075000Y-11730000D02*
X4075000Y-11770000D01*
X4055000Y-11750000D02*
X4095000Y-11750000D01*
X4100000Y-8860000D02*
X4100000Y-8900000D01*
X4080000Y-8880000D02*
X4120000Y-8880000D01*
X4170000Y-15370000D02*
X4170000Y-15410000D01*
X4150000Y-15390000D02*
X4190000Y-15390000D01*
X4200000Y-19130000D02*
X4200000Y-19170000D01*
X4180000Y-19150000D02*
X4220000Y-19150000D01*
X4240000Y-11380000D02*
X4240000Y-11420000D01*
X4220000Y-11400000D02*
X4260000Y-11400000D01*
X4500000Y-10905000D02*
X4500000Y-10945000D01*
X4480000Y-10925000D02*
X4520000Y-10925000D01*
X4750000Y-11105000D02*
X4750000Y-11145000D01*
X4730000Y-11125000D02*
X4770000Y-11125000D01*
X4825000Y-11855000D02*
X4825000Y-11895000D01*
X4805000Y-11875000D02*
X4845000Y-11875000D01*
X4870000Y-11250000D02*
X4870000Y-11290000D01*
X4850000Y-11270000D02*
X4890000Y-11270000D01*
X4976230Y-8266230D02*
X4976230Y-8306230D01*
X4956230Y-8286230D02*
X4996230Y-8286230D01*
X5020000Y-8170000D02*
X5020000Y-8210000D01*
X5000000Y-8190000D02*
X5040000Y-8190000D01*
X5140000Y-7300000D02*
X5140000Y-7340000D01*
X5120000Y-7320000D02*
X5160000Y-7320000D01*
X5250000Y-11855000D02*
X5250000Y-11895000D01*
X5230000Y-11875000D02*
X5270000Y-11875000D01*
X5375000Y-11705000D02*
X5375000Y-11745000D01*
X5355000Y-11725000D02*
X5395000Y-11725000D01*
X5400000Y-10580000D02*
X5400000Y-10620000D01*
X5380000Y-10600000D02*
X5420000Y-10600000D01*
X5400000Y-10880000D02*
X5400000Y-10920000D01*
X5380000Y-10900000D02*
X5420000Y-10900000D01*
X5425000Y-11580000D02*
X5425000Y-11620000D01*
X5405000Y-11600000D02*
X5445000Y-11600000D01*
X5696000Y-19723000D02*
X5696000Y-19763000D01*
X5676000Y-19743000D02*
X5716000Y-19743000D01*
X5800000Y-8180000D02*
X5800000Y-8220000D01*
X5780000Y-8200000D02*
X5820000Y-8200000D01*
X5900000Y-4205000D02*
X5900000Y-4245000D01*
X5880000Y-4225000D02*
X5920000Y-4225000D01*
X5960000Y-19250000D02*
X5960000Y-19290000D01*
X5940000Y-19270000D02*
X5980000Y-19270000D01*
X6000000Y-12030000D02*
X6000000Y-12070000D01*
X5980000Y-12050000D02*
X6020000Y-12050000D01*
X6110000Y-6890000D02*
X6110000Y-6930000D01*
X6090000Y-6910000D02*
X6130000Y-6910000D01*
X6130000Y-10580000D02*
X6130000Y-10620000D01*
X6110000Y-10600000D02*
X6150000Y-10600000D01*
X6150000Y-11830000D02*
X6150000Y-11870000D01*
X6130000Y-11850000D02*
X6170000Y-11850000D01*
X6150000Y-11930000D02*
X6150000Y-11970000D01*
X6130000Y-11950000D02*
X6170000Y-11950000D01*
X6190000Y-11420000D02*
X6190000Y-11460000D01*
X6170000Y-11440000D02*
X6210000Y-11440000D01*
X6200000Y-10321950D02*
X6200000Y-10361950D01*
X6180000Y-10341950D02*
X6220000Y-10341950D01*
X6360000Y-19200000D02*
X6360000Y-19240000D01*
X6340000Y-19220000D02*
X6380000Y-19220000D01*
X6370000Y-6850000D02*
X6370000Y-6890000D01*
X6350000Y-6870000D02*
X6390000Y-6870000D01*
X6475000Y-9955000D02*
X6475000Y-9995000D01*
X6455000Y-9975000D02*
X6495000Y-9975000D01*
X6530000Y-18880000D02*
X6530000Y-18920000D01*
X6510000Y-18900000D02*
X6550000Y-18900000D01*
X6540000Y-11020000D02*
X6540000Y-11060000D01*
X6520000Y-11040000D02*
X6560000Y-11040000D01*
X6590000Y-4430000D02*
X6590000Y-4470000D01*
X6570000Y-4450000D02*
X6610000Y-4450000D01*
X6590000Y-4730000D02*
X6590000Y-4770000D01*
X6570000Y-4750000D02*
X6610000Y-4750000D01*
X6590000Y-4840000D02*
X6590000Y-4880000D01*
X6570000Y-4860000D02*
X6610000Y-4860000D01*
X6600000Y-4580000D02*
X6600000Y-4620000D01*
X6580000Y-4600000D02*
X6620000Y-4600000D01*
X6607929Y-12320000D02*
X6607929Y-12360000D01*
X6587929Y-12340000D02*
X6627929Y-12340000D01*
X6610000Y-5980000D02*
X6610000Y-6020000D01*
X6590000Y-6000000D02*
X6630000Y-6000000D01*
X6610000Y-6120000D02*
X6610000Y-6160000D01*
X6590000Y-6140000D02*
X6630000Y-6140000D01*
X6625000Y-11630000D02*
X6625000Y-11670000D01*
X6605000Y-11650000D02*
X6645000Y-11650000D01*
X6880000Y-8840000D02*
X6880000Y-8880000D01*
X6860000Y-8860000D02*
X6900000Y-8860000D01*
X6925000Y-11830000D02*
X6925000Y-11870000D01*
X6905000Y-11850000D02*
X6945000Y-11850000D01*
X6940000Y-8950000D02*
X6940000Y-8990000D01*
X6920000Y-8970000D02*
X6960000Y-8970000D01*
X7080000Y-18910000D02*
X7080000Y-18950000D01*
X7060000Y-18930000D02*
X7100000Y-18930000D01*
X7148810Y-18982493D02*
X7148810Y-19022493D01*
X7128810Y-19002493D02*
X7168810Y-19002493D01*
X7170000Y-18810000D02*
X7170000Y-18850000D01*
X7150000Y-18830000D02*
X7190000Y-18830000D01*
X7260000Y-19240000D02*
X7260000Y-19280000D01*
X7240000Y-19260000D02*
X7280000Y-19260000D01*
X7575000Y-12455000D02*
X7575000Y-12495000D01*
X7555000Y-12475000D02*
X7595000Y-12475000D01*
X7710000Y-5360000D02*
X7710000Y-5400000D01*
X7690000Y-5380000D02*
X7730000Y-5380000D01*
X8025000Y-6080000D02*
X8025000Y-6120000D01*
X8005000Y-6100000D02*
X8045000Y-6100000D01*
X8075000Y-11505000D02*
X8075000Y-11545000D01*
X8055000Y-11525000D02*
X8095000Y-11525000D01*
X8152550Y-9655000D02*
X8152550Y-9695000D01*
X8132550Y-9675000D02*
X8172550Y-9675000D01*
X8152550Y-9780000D02*
X8152550Y-9820000D01*
X8132550Y-9800000D02*
X8172550Y-9800000D01*
X8225000Y-6080000D02*
X8225000Y-6120000D01*
X8205000Y-6100000D02*
X8245000Y-6100000D01*
X8300000Y-9805000D02*
X8300000Y-9845000D01*
X8280000Y-9825000D02*
X8320000Y-9825000D01*
X8300000Y-9930000D02*
X8300000Y-9970000D01*
X8280000Y-9950000D02*
X8320000Y-9950000D01*
X8405566Y-10085566D02*
X8405566Y-10125566D01*
X8385566Y-10105566D02*
X8425566Y-10105566D01*
X8450000Y-10855000D02*
X8450000Y-10895000D01*
X8430000Y-10875000D02*
X8470000Y-10875000D01*
X8500000Y-11930000D02*
X8500000Y-11970000D01*
X8480000Y-11950000D02*
X8520000Y-11950000D01*
X8560000Y-4400000D02*
X8560000Y-4440000D01*
X8540000Y-4420000D02*
X8580000Y-4420000D01*
X8600000Y-4160000D02*
X8600000Y-4200000D01*
X8580000Y-4180000D02*
X8620000Y-4180000D01*
X8850000Y-9370000D02*
X8850000Y-9410000D01*
X8830000Y-9390000D02*
X8870000Y-9390000D01*
X9030000Y-9370000D02*
X9030000Y-9410000D01*
X9010000Y-9390000D02*
X9050000Y-9390000D01*
X9425000Y-9855000D02*
X9425000Y-9895000D01*
X9405000Y-9875000D02*
X9445000Y-9875000D01*
X9425000Y-9980000D02*
X9425000Y-10020000D01*
X9405000Y-10000000D02*
X9445000Y-10000000D01*
X9750000Y-11930000D02*
X9750000Y-11970000D01*
X9730000Y-11950000D02*
X9770000Y-11950000D01*
X9750000Y-13905000D02*
X9750000Y-13945000D01*
X9730000Y-13925000D02*
X9770000Y-13925000D01*
X9750000Y-14905000D02*
X9750000Y-14945000D01*
X9730000Y-14925000D02*
X9770000Y-14925000D01*
X9750000Y-15905000D02*
X9750000Y-15945000D01*
X9730000Y-15925000D02*
X9770000Y-15925000D01*
X9775000Y-10930000D02*
X9775000Y-10970000D01*
X9755000Y-10950000D02*
X9795000Y-10950000D01*
X9825000Y-12980000D02*
X9825000Y-13020000D01*
X9805000Y-13000000D02*
X9845000Y-13000000D01*
X10050000Y-10455000D02*
X10050000Y-10495000D01*
X10030000Y-10475000D02*
X10070000Y-10475000D01*
X10240000Y-10080000D02*
X10240000Y-10120000D01*
X10220000Y-10100000D02*
X10260000Y-10100000D01*
X10240000Y-15400000D02*
X10240000Y-15440000D01*
X10220000Y-15420000D02*
X10260000Y-15420000D01*
D15*
X4442678Y-15517678D02*
X4442678Y-15482322D01*
X4407322Y-15482322D01*
X4407322Y-15517678D01*
X4442678Y-15517678D01*
X6227678Y-18887678D02*
X6227678Y-18852322D01*
X6192322Y-18852322D01*
X6192322Y-18887678D01*
X6227678Y-18887678D01*
D16*
X6263000Y-19470000D02*
X6293000Y-19440000D01*
X6263000Y-19410000D01*
X6233000Y-19440000D01*
X6263000Y-19470000D01*
D11*
X6233000Y-19400000D02*
X6233000Y-19480000D01*
X6233000Y-19480000D02*
G75*
G03*
X6293000Y-19480000I30000J0D01*
G01*
X6293000Y-19480000D02*
X6293000Y-19400000D01*
X6293000Y-19400000D02*
G75*
G03*
X6233000Y-19400000I-30000J0D01*
G01*
D16*
X6263000Y-19870000D02*
X6293000Y-19840000D01*
X6263000Y-19810000D01*
X6233000Y-19840000D01*
X6263000Y-19870000D01*
D11*
X6233000Y-19780000D02*
X6233000Y-19900000D01*
X6233000Y-19900000D02*
G75*
G03*
X6293000Y-19900000I30000J0D01*
G01*
X6293000Y-19900000D02*
X6293000Y-19780000D01*
X6293000Y-19780000D02*
G75*
G03*
X6233000Y-19780000I-30000J0D01*
G01*
D16*
X7387000Y-19470000D02*
X7417000Y-19440000D01*
X7387000Y-19410000D01*
X7357000Y-19440000D01*
X7387000Y-19470000D01*
D11*
X7357000Y-19400000D02*
X7357000Y-19480000D01*
X7357000Y-19480000D02*
G75*
G03*
X7417000Y-19480000I30000J0D01*
G01*
X7417000Y-19480000D02*
X7417000Y-19400000D01*
X7417000Y-19400000D02*
G75*
G03*
X7357000Y-19400000I-30000J0D01*
G01*
D16*
X7387000Y-19870000D02*
X7417000Y-19840000D01*
X7387000Y-19810000D01*
X7357000Y-19840000D01*
X7387000Y-19870000D01*
D11*
X7357000Y-19780000D02*
X7357000Y-19900000D01*
X7357000Y-19900000D02*
G75*
G03*
X7417000Y-19900000I30000J0D01*
G01*
X7417000Y-19900000D02*
X7417000Y-19780000D01*
X7417000Y-19780000D02*
G75*
G03*
X7357000Y-19780000I-30000J0D01*
G01*
D17*
X3887500Y-18882500D02*
X3962500Y-18957500D01*
X3962500Y-18882500D02*
X3887500Y-18957500D01*
X3962500Y-18920000D02*
G75*
G03*
X3962500Y-18920000I-37500J0D01*
G01*
X4087500Y-18882500D02*
X4162500Y-18957500D01*
X4162500Y-18882500D02*
X4087500Y-18957500D01*
X4162500Y-18920000D02*
G75*
G03*
X4162500Y-18920000I-37500J0D01*
G01*
D18*
X4041900Y-11331900D02*
X4118100Y-11408100D01*
X4118100Y-11331900D02*
X4041900Y-11408100D01*
X4080000Y-11331900D02*
X4080000Y-11408100D01*
X4041900Y-11370000D02*
X4118100Y-11370000D01*
X4421900Y-11141900D02*
X4498100Y-11218100D01*
X4498100Y-11141900D02*
X4421900Y-11218100D01*
X4460000Y-11141900D02*
X4460000Y-11218100D01*
X4421900Y-11180000D02*
X4498100Y-11180000D01*
D19*
X3410000Y-12910000D02*
X3490000Y-12990000D01*
X3490000Y-12910000D02*
X3410000Y-12990000D01*
X3478284Y-12978284D02*
X3478284Y-12921715D01*
X3421715Y-12921715D01*
X3421715Y-12978284D01*
X3478284Y-12978284D01*
X5085000Y-12935000D02*
X5165000Y-13015000D01*
X5165000Y-12935000D02*
X5085000Y-13015000D01*
X5153285Y-13003284D02*
X5153285Y-12946715D01*
X5096716Y-12946715D01*
X5096716Y-13003284D01*
X5153285Y-13003284D01*
X6085000Y-12935000D02*
X6165000Y-13015000D01*
X6165000Y-12935000D02*
X6085000Y-13015000D01*
X6153284Y-13003284D02*
X6153284Y-12946715D01*
X6096715Y-12946715D01*
X6096715Y-13003284D01*
X6153284Y-13003284D01*
X7485000Y-12935000D02*
X7565000Y-13015000D01*
X7565000Y-12935000D02*
X7485000Y-13015000D01*
X7553284Y-13003284D02*
X7553284Y-12946715D01*
X7496715Y-12946715D01*
X7496715Y-13003284D01*
X7553284Y-13003284D01*
X8485000Y-12934937D02*
X8565000Y-13014937D01*
X8565000Y-12934937D02*
X8485000Y-13014937D01*
X8553285Y-13003222D02*
X8553285Y-12946653D01*
X8496716Y-12946653D01*
X8496716Y-13003222D01*
X8553285Y-13003222D01*
D11*
X7400000Y-18950000D02*
X7600000Y-19150000D01*
X7600000Y-18950000D02*
X7400000Y-19150000D01*
X7500000Y-19150000D02*
X7600000Y-19050000D01*
X7500000Y-18950000D01*
X7400000Y-19050000D01*
X7500000Y-19150000D01*
X3442619Y-20317693D02*
X3442619Y-20117693D01*
X3442619Y-20117693D02*
X3490238Y-20117693D01*
X3490238Y-20117693D02*
X3518809Y-20127217D01*
X3518809Y-20127217D02*
X3537857Y-20146265D01*
X3537857Y-20146265D02*
X3547381Y-20165312D01*
X3547381Y-20165312D02*
X3556905Y-20203408D01*
X3556905Y-20203408D02*
X3556905Y-20231979D01*
X3556905Y-20231979D02*
X3547381Y-20270074D01*
X3547381Y-20270074D02*
X3537857Y-20289122D01*
X3537857Y-20289122D02*
X3518809Y-20308170D01*
X3518809Y-20308170D02*
X3490238Y-20317693D01*
X3490238Y-20317693D02*
X3442619Y-20317693D01*
X3642619Y-20317693D02*
X3642619Y-20184360D01*
X3642619Y-20222455D02*
X3652143Y-20203408D01*
X3652143Y-20203408D02*
X3661667Y-20193884D01*
X3661667Y-20193884D02*
X3680714Y-20184360D01*
X3680714Y-20184360D02*
X3699762Y-20184360D01*
X3766428Y-20317693D02*
X3766428Y-20184360D01*
X3766428Y-20117693D02*
X3756905Y-20127217D01*
X3756905Y-20127217D02*
X3766428Y-20136741D01*
X3766428Y-20136741D02*
X3775952Y-20127217D01*
X3775952Y-20127217D02*
X3766428Y-20117693D01*
X3766428Y-20117693D02*
X3766428Y-20136741D01*
X3890238Y-20317693D02*
X3871190Y-20308170D01*
X3871190Y-20308170D02*
X3861667Y-20289122D01*
X3861667Y-20289122D02*
X3861667Y-20117693D01*
X3995000Y-20317693D02*
X3975952Y-20308170D01*
X3975952Y-20308170D02*
X3966428Y-20289122D01*
X3966428Y-20289122D02*
X3966428Y-20117693D01*
X4223571Y-20317693D02*
X4223571Y-20117693D01*
X4223571Y-20117693D02*
X4290238Y-20260551D01*
X4290238Y-20260551D02*
X4356905Y-20117693D01*
X4356905Y-20117693D02*
X4356905Y-20317693D01*
X4537857Y-20317693D02*
X4537857Y-20212932D01*
X4537857Y-20212932D02*
X4528333Y-20193884D01*
X4528333Y-20193884D02*
X4509286Y-20184360D01*
X4509286Y-20184360D02*
X4471190Y-20184360D01*
X4471190Y-20184360D02*
X4452143Y-20193884D01*
X4537857Y-20308170D02*
X4518810Y-20317693D01*
X4518810Y-20317693D02*
X4471190Y-20317693D01*
X4471190Y-20317693D02*
X4452143Y-20308170D01*
X4452143Y-20308170D02*
X4442619Y-20289122D01*
X4442619Y-20289122D02*
X4442619Y-20270074D01*
X4442619Y-20270074D02*
X4452143Y-20251027D01*
X4452143Y-20251027D02*
X4471190Y-20241503D01*
X4471190Y-20241503D02*
X4518810Y-20241503D01*
X4518810Y-20241503D02*
X4537857Y-20231979D01*
X4633095Y-20184360D02*
X4633095Y-20384360D01*
X4633095Y-20193884D02*
X4652143Y-20184360D01*
X4652143Y-20184360D02*
X4690238Y-20184360D01*
X4690238Y-20184360D02*
X4709286Y-20193884D01*
X4709286Y-20193884D02*
X4718810Y-20203408D01*
X4718810Y-20203408D02*
X4728333Y-20222455D01*
X4728333Y-20222455D02*
X4728333Y-20279598D01*
X4728333Y-20279598D02*
X4718810Y-20298646D01*
X4718810Y-20298646D02*
X4709286Y-20308170D01*
X4709286Y-20308170D02*
X4690238Y-20317693D01*
X4690238Y-20317693D02*
X4652143Y-20317693D01*
X4652143Y-20317693D02*
X4633095Y-20308170D01*
X4814048Y-20298646D02*
X4823571Y-20308170D01*
X4823571Y-20308170D02*
X4814048Y-20317693D01*
X4814048Y-20317693D02*
X4804524Y-20308170D01*
X4804524Y-20308170D02*
X4814048Y-20298646D01*
X4814048Y-20298646D02*
X4814048Y-20317693D01*
X4814048Y-20193884D02*
X4823571Y-20203408D01*
X4823571Y-20203408D02*
X4814048Y-20212932D01*
X4814048Y-20212932D02*
X4804524Y-20203408D01*
X4804524Y-20203408D02*
X4814048Y-20193884D01*
X4814048Y-20193884D02*
X4814048Y-20212932D01*
D12*
X3165000Y-20630170D02*
X3195000Y-20660170D01*
X3195000Y-20630170D02*
X3165000Y-20660170D01*
D11*
X3480714Y-20537693D02*
X3499762Y-20537693D01*
X3499762Y-20537693D02*
X3518809Y-20547217D01*
X3518809Y-20547217D02*
X3528333Y-20556741D01*
X3528333Y-20556741D02*
X3537857Y-20575789D01*
X3537857Y-20575789D02*
X3547381Y-20613884D01*
X3547381Y-20613884D02*
X3547381Y-20661503D01*
X3547381Y-20661503D02*
X3537857Y-20699598D01*
X3537857Y-20699598D02*
X3528333Y-20718646D01*
X3528333Y-20718646D02*
X3518809Y-20728170D01*
X3518809Y-20728170D02*
X3499762Y-20737693D01*
X3499762Y-20737693D02*
X3480714Y-20737693D01*
X3480714Y-20737693D02*
X3461667Y-20728170D01*
X3461667Y-20728170D02*
X3452143Y-20718646D01*
X3452143Y-20718646D02*
X3442619Y-20699598D01*
X3442619Y-20699598D02*
X3433095Y-20661503D01*
X3433095Y-20661503D02*
X3433095Y-20613884D01*
X3433095Y-20613884D02*
X3442619Y-20575789D01*
X3442619Y-20575789D02*
X3452143Y-20556741D01*
X3452143Y-20556741D02*
X3461667Y-20547217D01*
X3461667Y-20547217D02*
X3480714Y-20537693D01*
X3633095Y-20718646D02*
X3642619Y-20728170D01*
X3642619Y-20728170D02*
X3633095Y-20737693D01*
X3633095Y-20737693D02*
X3623571Y-20728170D01*
X3623571Y-20728170D02*
X3633095Y-20718646D01*
X3633095Y-20718646D02*
X3633095Y-20737693D01*
X3709286Y-20537693D02*
X3833095Y-20537693D01*
X3833095Y-20537693D02*
X3766428Y-20613884D01*
X3766428Y-20613884D02*
X3795000Y-20613884D01*
X3795000Y-20613884D02*
X3814048Y-20623408D01*
X3814048Y-20623408D02*
X3823571Y-20632932D01*
X3823571Y-20632932D02*
X3833095Y-20651979D01*
X3833095Y-20651979D02*
X3833095Y-20699598D01*
X3833095Y-20699598D02*
X3823571Y-20718646D01*
X3823571Y-20718646D02*
X3814048Y-20728170D01*
X3814048Y-20728170D02*
X3795000Y-20737693D01*
X3795000Y-20737693D02*
X3737857Y-20737693D01*
X3737857Y-20737693D02*
X3718809Y-20728170D01*
X3718809Y-20728170D02*
X3709286Y-20718646D01*
X3956905Y-20537693D02*
X3975952Y-20537693D01*
X3975952Y-20537693D02*
X3995000Y-20547217D01*
X3995000Y-20547217D02*
X4004524Y-20556741D01*
X4004524Y-20556741D02*
X4014048Y-20575789D01*
X4014048Y-20575789D02*
X4023571Y-20613884D01*
X4023571Y-20613884D02*
X4023571Y-20661503D01*
X4023571Y-20661503D02*
X4014048Y-20699598D01*
X4014048Y-20699598D02*
X4004524Y-20718646D01*
X4004524Y-20718646D02*
X3995000Y-20728170D01*
X3995000Y-20728170D02*
X3975952Y-20737693D01*
X3975952Y-20737693D02*
X3956905Y-20737693D01*
X3956905Y-20737693D02*
X3937857Y-20728170D01*
X3937857Y-20728170D02*
X3928333Y-20718646D01*
X3928333Y-20718646D02*
X3918809Y-20699598D01*
X3918809Y-20699598D02*
X3909286Y-20661503D01*
X3909286Y-20661503D02*
X3909286Y-20613884D01*
X3909286Y-20613884D02*
X3918809Y-20575789D01*
X3918809Y-20575789D02*
X3928333Y-20556741D01*
X3928333Y-20556741D02*
X3937857Y-20547217D01*
X3937857Y-20547217D02*
X3956905Y-20537693D01*
X4147381Y-20537693D02*
X4166429Y-20537693D01*
X4166429Y-20537693D02*
X4185476Y-20547217D01*
X4185476Y-20547217D02*
X4195000Y-20556741D01*
X4195000Y-20556741D02*
X4204524Y-20575789D01*
X4204524Y-20575789D02*
X4214048Y-20613884D01*
X4214048Y-20613884D02*
X4214048Y-20661503D01*
X4214048Y-20661503D02*
X4204524Y-20699598D01*
X4204524Y-20699598D02*
X4195000Y-20718646D01*
X4195000Y-20718646D02*
X4185476Y-20728170D01*
X4185476Y-20728170D02*
X4166429Y-20737693D01*
X4166429Y-20737693D02*
X4147381Y-20737693D01*
X4147381Y-20737693D02*
X4128333Y-20728170D01*
X4128333Y-20728170D02*
X4118809Y-20718646D01*
X4118809Y-20718646D02*
X4109286Y-20699598D01*
X4109286Y-20699598D02*
X4099762Y-20661503D01*
X4099762Y-20661503D02*
X4099762Y-20613884D01*
X4099762Y-20613884D02*
X4109286Y-20575789D01*
X4109286Y-20575789D02*
X4118809Y-20556741D01*
X4118809Y-20556741D02*
X4128333Y-20547217D01*
X4128333Y-20547217D02*
X4147381Y-20537693D01*
X4299762Y-20737693D02*
X4299762Y-20604360D01*
X4299762Y-20623408D02*
X4309286Y-20613884D01*
X4309286Y-20613884D02*
X4328333Y-20604360D01*
X4328333Y-20604360D02*
X4356905Y-20604360D01*
X4356905Y-20604360D02*
X4375952Y-20613884D01*
X4375952Y-20613884D02*
X4385476Y-20632932D01*
X4385476Y-20632932D02*
X4385476Y-20737693D01*
X4385476Y-20632932D02*
X4395000Y-20613884D01*
X4395000Y-20613884D02*
X4414048Y-20604360D01*
X4414048Y-20604360D02*
X4442619Y-20604360D01*
X4442619Y-20604360D02*
X4461667Y-20613884D01*
X4461667Y-20613884D02*
X4471191Y-20632932D01*
X4471191Y-20632932D02*
X4471191Y-20737693D01*
X4566429Y-20737693D02*
X4566429Y-20604360D01*
X4566429Y-20623408D02*
X4575952Y-20613884D01*
X4575952Y-20613884D02*
X4595000Y-20604360D01*
X4595000Y-20604360D02*
X4623572Y-20604360D01*
X4623572Y-20604360D02*
X4642619Y-20613884D01*
X4642619Y-20613884D02*
X4652143Y-20632932D01*
X4652143Y-20632932D02*
X4652143Y-20737693D01*
X4652143Y-20632932D02*
X4661667Y-20613884D01*
X4661667Y-20613884D02*
X4680714Y-20604360D01*
X4680714Y-20604360D02*
X4709286Y-20604360D01*
X4709286Y-20604360D02*
X4728333Y-20613884D01*
X4728333Y-20613884D02*
X4737857Y-20632932D01*
X4737857Y-20632932D02*
X4737857Y-20737693D01*
X5128333Y-20528170D02*
X4956905Y-20785312D01*
X5385476Y-20537693D02*
X5404524Y-20537693D01*
X5404524Y-20537693D02*
X5423572Y-20547217D01*
X5423572Y-20547217D02*
X5433095Y-20556741D01*
X5433095Y-20556741D02*
X5442619Y-20575789D01*
X5442619Y-20575789D02*
X5452143Y-20613884D01*
X5452143Y-20613884D02*
X5452143Y-20661503D01*
X5452143Y-20661503D02*
X5442619Y-20699598D01*
X5442619Y-20699598D02*
X5433095Y-20718646D01*
X5433095Y-20718646D02*
X5423572Y-20728170D01*
X5423572Y-20728170D02*
X5404524Y-20737693D01*
X5404524Y-20737693D02*
X5385476Y-20737693D01*
X5385476Y-20737693D02*
X5366429Y-20728170D01*
X5366429Y-20728170D02*
X5356905Y-20718646D01*
X5356905Y-20718646D02*
X5347381Y-20699598D01*
X5347381Y-20699598D02*
X5337857Y-20661503D01*
X5337857Y-20661503D02*
X5337857Y-20613884D01*
X5337857Y-20613884D02*
X5347381Y-20575789D01*
X5347381Y-20575789D02*
X5356905Y-20556741D01*
X5356905Y-20556741D02*
X5366429Y-20547217D01*
X5366429Y-20547217D02*
X5385476Y-20537693D01*
X5537857Y-20718646D02*
X5547381Y-20728170D01*
X5547381Y-20728170D02*
X5537857Y-20737693D01*
X5537857Y-20737693D02*
X5528334Y-20728170D01*
X5528334Y-20728170D02*
X5537857Y-20718646D01*
X5537857Y-20718646D02*
X5537857Y-20737693D01*
X5671191Y-20537693D02*
X5690238Y-20537693D01*
X5690238Y-20537693D02*
X5709286Y-20547217D01*
X5709286Y-20547217D02*
X5718810Y-20556741D01*
X5718810Y-20556741D02*
X5728333Y-20575789D01*
X5728333Y-20575789D02*
X5737857Y-20613884D01*
X5737857Y-20613884D02*
X5737857Y-20661503D01*
X5737857Y-20661503D02*
X5728333Y-20699598D01*
X5728333Y-20699598D02*
X5718810Y-20718646D01*
X5718810Y-20718646D02*
X5709286Y-20728170D01*
X5709286Y-20728170D02*
X5690238Y-20737693D01*
X5690238Y-20737693D02*
X5671191Y-20737693D01*
X5671191Y-20737693D02*
X5652143Y-20728170D01*
X5652143Y-20728170D02*
X5642619Y-20718646D01*
X5642619Y-20718646D02*
X5633095Y-20699598D01*
X5633095Y-20699598D02*
X5623572Y-20661503D01*
X5623572Y-20661503D02*
X5623572Y-20613884D01*
X5623572Y-20613884D02*
X5633095Y-20575789D01*
X5633095Y-20575789D02*
X5642619Y-20556741D01*
X5642619Y-20556741D02*
X5652143Y-20547217D01*
X5652143Y-20547217D02*
X5671191Y-20537693D01*
X5928333Y-20737693D02*
X5814048Y-20737693D01*
X5871191Y-20737693D02*
X5871191Y-20537693D01*
X5871191Y-20537693D02*
X5852143Y-20566265D01*
X5852143Y-20566265D02*
X5833095Y-20585312D01*
X5833095Y-20585312D02*
X5814048Y-20594836D01*
X6118810Y-20737693D02*
X6004524Y-20737693D01*
X6061667Y-20737693D02*
X6061667Y-20537693D01*
X6061667Y-20537693D02*
X6042619Y-20566265D01*
X6042619Y-20566265D02*
X6023572Y-20585312D01*
X6023572Y-20585312D02*
X6004524Y-20594836D01*
X6233095Y-20623408D02*
X6214048Y-20613884D01*
X6214048Y-20613884D02*
X6204524Y-20604360D01*
X6204524Y-20604360D02*
X6195000Y-20585312D01*
X6195000Y-20585312D02*
X6195000Y-20575789D01*
X6195000Y-20575789D02*
X6204524Y-20556741D01*
X6204524Y-20556741D02*
X6214048Y-20547217D01*
X6214048Y-20547217D02*
X6233095Y-20537693D01*
X6233095Y-20537693D02*
X6271191Y-20537693D01*
X6271191Y-20537693D02*
X6290238Y-20547217D01*
X6290238Y-20547217D02*
X6299762Y-20556741D01*
X6299762Y-20556741D02*
X6309286Y-20575789D01*
X6309286Y-20575789D02*
X6309286Y-20585312D01*
X6309286Y-20585312D02*
X6299762Y-20604360D01*
X6299762Y-20604360D02*
X6290238Y-20613884D01*
X6290238Y-20613884D02*
X6271191Y-20623408D01*
X6271191Y-20623408D02*
X6233095Y-20623408D01*
X6233095Y-20623408D02*
X6214048Y-20632932D01*
X6214048Y-20632932D02*
X6204524Y-20642455D01*
X6204524Y-20642455D02*
X6195000Y-20661503D01*
X6195000Y-20661503D02*
X6195000Y-20699598D01*
X6195000Y-20699598D02*
X6204524Y-20718646D01*
X6204524Y-20718646D02*
X6214048Y-20728170D01*
X6214048Y-20728170D02*
X6233095Y-20737693D01*
X6233095Y-20737693D02*
X6271191Y-20737693D01*
X6271191Y-20737693D02*
X6290238Y-20728170D01*
X6290238Y-20728170D02*
X6299762Y-20718646D01*
X6299762Y-20718646D02*
X6309286Y-20699598D01*
X6309286Y-20699598D02*
X6309286Y-20661503D01*
X6309286Y-20661503D02*
X6299762Y-20642455D01*
X6299762Y-20642455D02*
X6290238Y-20632932D01*
X6290238Y-20632932D02*
X6271191Y-20623408D01*
X6385476Y-20537693D02*
X6385476Y-20575789D01*
X6461667Y-20537693D02*
X6461667Y-20575789D01*
X6756905Y-20813884D02*
X6747381Y-20804360D01*
X6747381Y-20804360D02*
X6728334Y-20775789D01*
X6728334Y-20775789D02*
X6718810Y-20756741D01*
X6718810Y-20756741D02*
X6709286Y-20728170D01*
X6709286Y-20728170D02*
X6699762Y-20680551D01*
X6699762Y-20680551D02*
X6699762Y-20642455D01*
X6699762Y-20642455D02*
X6709286Y-20594836D01*
X6709286Y-20594836D02*
X6718810Y-20566265D01*
X6718810Y-20566265D02*
X6728334Y-20547217D01*
X6728334Y-20547217D02*
X6747381Y-20518646D01*
X6747381Y-20518646D02*
X6756905Y-20509122D01*
X6937857Y-20737693D02*
X6823572Y-20737693D01*
X6880714Y-20737693D02*
X6880714Y-20537693D01*
X6880714Y-20537693D02*
X6861667Y-20566265D01*
X6861667Y-20566265D02*
X6842619Y-20585312D01*
X6842619Y-20585312D02*
X6823572Y-20594836D01*
X7014048Y-20556741D02*
X7023572Y-20547217D01*
X7023572Y-20547217D02*
X7042619Y-20537693D01*
X7042619Y-20537693D02*
X7090238Y-20537693D01*
X7090238Y-20537693D02*
X7109286Y-20547217D01*
X7109286Y-20547217D02*
X7118810Y-20556741D01*
X7118810Y-20556741D02*
X7128334Y-20575789D01*
X7128334Y-20575789D02*
X7128334Y-20594836D01*
X7128334Y-20594836D02*
X7118810Y-20623408D01*
X7118810Y-20623408D02*
X7004524Y-20737693D01*
X7004524Y-20737693D02*
X7128334Y-20737693D01*
X7366429Y-20737693D02*
X7366429Y-20537693D01*
X7452143Y-20737693D02*
X7452143Y-20632932D01*
X7452143Y-20632932D02*
X7442619Y-20613884D01*
X7442619Y-20613884D02*
X7423572Y-20604360D01*
X7423572Y-20604360D02*
X7395000Y-20604360D01*
X7395000Y-20604360D02*
X7375953Y-20613884D01*
X7375953Y-20613884D02*
X7366429Y-20623408D01*
X7575953Y-20737693D02*
X7556905Y-20728170D01*
X7556905Y-20728170D02*
X7547381Y-20718646D01*
X7547381Y-20718646D02*
X7537857Y-20699598D01*
X7537857Y-20699598D02*
X7537857Y-20642455D01*
X7537857Y-20642455D02*
X7547381Y-20623408D01*
X7547381Y-20623408D02*
X7556905Y-20613884D01*
X7556905Y-20613884D02*
X7575953Y-20604360D01*
X7575953Y-20604360D02*
X7604524Y-20604360D01*
X7604524Y-20604360D02*
X7623572Y-20613884D01*
X7623572Y-20613884D02*
X7633096Y-20623408D01*
X7633096Y-20623408D02*
X7642619Y-20642455D01*
X7642619Y-20642455D02*
X7642619Y-20699598D01*
X7642619Y-20699598D02*
X7633096Y-20718646D01*
X7633096Y-20718646D02*
X7623572Y-20728170D01*
X7623572Y-20728170D02*
X7604524Y-20737693D01*
X7604524Y-20737693D02*
X7575953Y-20737693D01*
X7756905Y-20737693D02*
X7737857Y-20728170D01*
X7737857Y-20728170D02*
X7728334Y-20709122D01*
X7728334Y-20709122D02*
X7728334Y-20537693D01*
X7909286Y-20728170D02*
X7890238Y-20737693D01*
X7890238Y-20737693D02*
X7852143Y-20737693D01*
X7852143Y-20737693D02*
X7833096Y-20728170D01*
X7833096Y-20728170D02*
X7823572Y-20709122D01*
X7823572Y-20709122D02*
X7823572Y-20632932D01*
X7823572Y-20632932D02*
X7833096Y-20613884D01*
X7833096Y-20613884D02*
X7852143Y-20604360D01*
X7852143Y-20604360D02*
X7890238Y-20604360D01*
X7890238Y-20604360D02*
X7909286Y-20613884D01*
X7909286Y-20613884D02*
X7918810Y-20632932D01*
X7918810Y-20632932D02*
X7918810Y-20651979D01*
X7918810Y-20651979D02*
X7823572Y-20671027D01*
X7995000Y-20728170D02*
X8014048Y-20737693D01*
X8014048Y-20737693D02*
X8052143Y-20737693D01*
X8052143Y-20737693D02*
X8071191Y-20728170D01*
X8071191Y-20728170D02*
X8080715Y-20709122D01*
X8080715Y-20709122D02*
X8080715Y-20699598D01*
X8080715Y-20699598D02*
X8071191Y-20680551D01*
X8071191Y-20680551D02*
X8052143Y-20671027D01*
X8052143Y-20671027D02*
X8023572Y-20671027D01*
X8023572Y-20671027D02*
X8004524Y-20661503D01*
X8004524Y-20661503D02*
X7995000Y-20642455D01*
X7995000Y-20642455D02*
X7995000Y-20632932D01*
X7995000Y-20632932D02*
X8004524Y-20613884D01*
X8004524Y-20613884D02*
X8023572Y-20604360D01*
X8023572Y-20604360D02*
X8052143Y-20604360D01*
X8052143Y-20604360D02*
X8071191Y-20613884D01*
X8147381Y-20813884D02*
X8156905Y-20804360D01*
X8156905Y-20804360D02*
X8175953Y-20775789D01*
X8175953Y-20775789D02*
X8185477Y-20756741D01*
X8185477Y-20756741D02*
X8195000Y-20728170D01*
X8195000Y-20728170D02*
X8204524Y-20680551D01*
X8204524Y-20680551D02*
X8204524Y-20642455D01*
X8204524Y-20642455D02*
X8195000Y-20594836D01*
X8195000Y-20594836D02*
X8185477Y-20566265D01*
X8185477Y-20566265D02*
X8175953Y-20547217D01*
X8175953Y-20547217D02*
X8156905Y-20518646D01*
X8156905Y-20518646D02*
X8147381Y-20509122D01*
D13*
X3195000Y-20909170D02*
G75*
G03*
X3195000Y-20909170I-17500J0D01*
G01*
D11*
X3480714Y-20801693D02*
X3499762Y-20801693D01*
X3499762Y-20801693D02*
X3518809Y-20811217D01*
X3518809Y-20811217D02*
X3528333Y-20820741D01*
X3528333Y-20820741D02*
X3537857Y-20839789D01*
X3537857Y-20839789D02*
X3547381Y-20877884D01*
X3547381Y-20877884D02*
X3547381Y-20925503D01*
X3547381Y-20925503D02*
X3537857Y-20963598D01*
X3537857Y-20963598D02*
X3528333Y-20982646D01*
X3528333Y-20982646D02*
X3518809Y-20992170D01*
X3518809Y-20992170D02*
X3499762Y-21001693D01*
X3499762Y-21001693D02*
X3480714Y-21001693D01*
X3480714Y-21001693D02*
X3461667Y-20992170D01*
X3461667Y-20992170D02*
X3452143Y-20982646D01*
X3452143Y-20982646D02*
X3442619Y-20963598D01*
X3442619Y-20963598D02*
X3433095Y-20925503D01*
X3433095Y-20925503D02*
X3433095Y-20877884D01*
X3433095Y-20877884D02*
X3442619Y-20839789D01*
X3442619Y-20839789D02*
X3452143Y-20820741D01*
X3452143Y-20820741D02*
X3461667Y-20811217D01*
X3461667Y-20811217D02*
X3480714Y-20801693D01*
X3633095Y-20982646D02*
X3642619Y-20992170D01*
X3642619Y-20992170D02*
X3633095Y-21001693D01*
X3633095Y-21001693D02*
X3623571Y-20992170D01*
X3623571Y-20992170D02*
X3633095Y-20982646D01*
X3633095Y-20982646D02*
X3633095Y-21001693D01*
X3709286Y-20801693D02*
X3833095Y-20801693D01*
X3833095Y-20801693D02*
X3766428Y-20877884D01*
X3766428Y-20877884D02*
X3795000Y-20877884D01*
X3795000Y-20877884D02*
X3814048Y-20887408D01*
X3814048Y-20887408D02*
X3823571Y-20896932D01*
X3823571Y-20896932D02*
X3833095Y-20915979D01*
X3833095Y-20915979D02*
X3833095Y-20963598D01*
X3833095Y-20963598D02*
X3823571Y-20982646D01*
X3823571Y-20982646D02*
X3814048Y-20992170D01*
X3814048Y-20992170D02*
X3795000Y-21001693D01*
X3795000Y-21001693D02*
X3737857Y-21001693D01*
X3737857Y-21001693D02*
X3718809Y-20992170D01*
X3718809Y-20992170D02*
X3709286Y-20982646D01*
X4014048Y-20801693D02*
X3918809Y-20801693D01*
X3918809Y-20801693D02*
X3909286Y-20896932D01*
X3909286Y-20896932D02*
X3918809Y-20887408D01*
X3918809Y-20887408D02*
X3937857Y-20877884D01*
X3937857Y-20877884D02*
X3985476Y-20877884D01*
X3985476Y-20877884D02*
X4004524Y-20887408D01*
X4004524Y-20887408D02*
X4014048Y-20896932D01*
X4014048Y-20896932D02*
X4023571Y-20915979D01*
X4023571Y-20915979D02*
X4023571Y-20963598D01*
X4023571Y-20963598D02*
X4014048Y-20982646D01*
X4014048Y-20982646D02*
X4004524Y-20992170D01*
X4004524Y-20992170D02*
X3985476Y-21001693D01*
X3985476Y-21001693D02*
X3937857Y-21001693D01*
X3937857Y-21001693D02*
X3918809Y-20992170D01*
X3918809Y-20992170D02*
X3909286Y-20982646D01*
X4147381Y-20801693D02*
X4166429Y-20801693D01*
X4166429Y-20801693D02*
X4185476Y-20811217D01*
X4185476Y-20811217D02*
X4195000Y-20820741D01*
X4195000Y-20820741D02*
X4204524Y-20839789D01*
X4204524Y-20839789D02*
X4214048Y-20877884D01*
X4214048Y-20877884D02*
X4214048Y-20925503D01*
X4214048Y-20925503D02*
X4204524Y-20963598D01*
X4204524Y-20963598D02*
X4195000Y-20982646D01*
X4195000Y-20982646D02*
X4185476Y-20992170D01*
X4185476Y-20992170D02*
X4166429Y-21001693D01*
X4166429Y-21001693D02*
X4147381Y-21001693D01*
X4147381Y-21001693D02*
X4128333Y-20992170D01*
X4128333Y-20992170D02*
X4118809Y-20982646D01*
X4118809Y-20982646D02*
X4109286Y-20963598D01*
X4109286Y-20963598D02*
X4099762Y-20925503D01*
X4099762Y-20925503D02*
X4099762Y-20877884D01*
X4099762Y-20877884D02*
X4109286Y-20839789D01*
X4109286Y-20839789D02*
X4118809Y-20820741D01*
X4118809Y-20820741D02*
X4128333Y-20811217D01*
X4128333Y-20811217D02*
X4147381Y-20801693D01*
X4299762Y-21001693D02*
X4299762Y-20868360D01*
X4299762Y-20887408D02*
X4309286Y-20877884D01*
X4309286Y-20877884D02*
X4328333Y-20868360D01*
X4328333Y-20868360D02*
X4356905Y-20868360D01*
X4356905Y-20868360D02*
X4375952Y-20877884D01*
X4375952Y-20877884D02*
X4385476Y-20896932D01*
X4385476Y-20896932D02*
X4385476Y-21001693D01*
X4385476Y-20896932D02*
X4395000Y-20877884D01*
X4395000Y-20877884D02*
X4414048Y-20868360D01*
X4414048Y-20868360D02*
X4442619Y-20868360D01*
X4442619Y-20868360D02*
X4461667Y-20877884D01*
X4461667Y-20877884D02*
X4471191Y-20896932D01*
X4471191Y-20896932D02*
X4471191Y-21001693D01*
X4566429Y-21001693D02*
X4566429Y-20868360D01*
X4566429Y-20887408D02*
X4575952Y-20877884D01*
X4575952Y-20877884D02*
X4595000Y-20868360D01*
X4595000Y-20868360D02*
X4623572Y-20868360D01*
X4623572Y-20868360D02*
X4642619Y-20877884D01*
X4642619Y-20877884D02*
X4652143Y-20896932D01*
X4652143Y-20896932D02*
X4652143Y-21001693D01*
X4652143Y-20896932D02*
X4661667Y-20877884D01*
X4661667Y-20877884D02*
X4680714Y-20868360D01*
X4680714Y-20868360D02*
X4709286Y-20868360D01*
X4709286Y-20868360D02*
X4728333Y-20877884D01*
X4728333Y-20877884D02*
X4737857Y-20896932D01*
X4737857Y-20896932D02*
X4737857Y-21001693D01*
X5128333Y-20792170D02*
X4956905Y-21049312D01*
X5385476Y-20801693D02*
X5404524Y-20801693D01*
X5404524Y-20801693D02*
X5423572Y-20811217D01*
X5423572Y-20811217D02*
X5433095Y-20820741D01*
X5433095Y-20820741D02*
X5442619Y-20839789D01*
X5442619Y-20839789D02*
X5452143Y-20877884D01*
X5452143Y-20877884D02*
X5452143Y-20925503D01*
X5452143Y-20925503D02*
X5442619Y-20963598D01*
X5442619Y-20963598D02*
X5433095Y-20982646D01*
X5433095Y-20982646D02*
X5423572Y-20992170D01*
X5423572Y-20992170D02*
X5404524Y-21001693D01*
X5404524Y-21001693D02*
X5385476Y-21001693D01*
X5385476Y-21001693D02*
X5366429Y-20992170D01*
X5366429Y-20992170D02*
X5356905Y-20982646D01*
X5356905Y-20982646D02*
X5347381Y-20963598D01*
X5347381Y-20963598D02*
X5337857Y-20925503D01*
X5337857Y-20925503D02*
X5337857Y-20877884D01*
X5337857Y-20877884D02*
X5347381Y-20839789D01*
X5347381Y-20839789D02*
X5356905Y-20820741D01*
X5356905Y-20820741D02*
X5366429Y-20811217D01*
X5366429Y-20811217D02*
X5385476Y-20801693D01*
X5537857Y-20982646D02*
X5547381Y-20992170D01*
X5547381Y-20992170D02*
X5537857Y-21001693D01*
X5537857Y-21001693D02*
X5528334Y-20992170D01*
X5528334Y-20992170D02*
X5537857Y-20982646D01*
X5537857Y-20982646D02*
X5537857Y-21001693D01*
X5671191Y-20801693D02*
X5690238Y-20801693D01*
X5690238Y-20801693D02*
X5709286Y-20811217D01*
X5709286Y-20811217D02*
X5718810Y-20820741D01*
X5718810Y-20820741D02*
X5728333Y-20839789D01*
X5728333Y-20839789D02*
X5737857Y-20877884D01*
X5737857Y-20877884D02*
X5737857Y-20925503D01*
X5737857Y-20925503D02*
X5728333Y-20963598D01*
X5728333Y-20963598D02*
X5718810Y-20982646D01*
X5718810Y-20982646D02*
X5709286Y-20992170D01*
X5709286Y-20992170D02*
X5690238Y-21001693D01*
X5690238Y-21001693D02*
X5671191Y-21001693D01*
X5671191Y-21001693D02*
X5652143Y-20992170D01*
X5652143Y-20992170D02*
X5642619Y-20982646D01*
X5642619Y-20982646D02*
X5633095Y-20963598D01*
X5633095Y-20963598D02*
X5623572Y-20925503D01*
X5623572Y-20925503D02*
X5623572Y-20877884D01*
X5623572Y-20877884D02*
X5633095Y-20839789D01*
X5633095Y-20839789D02*
X5642619Y-20820741D01*
X5642619Y-20820741D02*
X5652143Y-20811217D01*
X5652143Y-20811217D02*
X5671191Y-20801693D01*
X5928333Y-21001693D02*
X5814048Y-21001693D01*
X5871191Y-21001693D02*
X5871191Y-20801693D01*
X5871191Y-20801693D02*
X5852143Y-20830265D01*
X5852143Y-20830265D02*
X5833095Y-20849312D01*
X5833095Y-20849312D02*
X5814048Y-20858836D01*
X5995000Y-20801693D02*
X6118810Y-20801693D01*
X6118810Y-20801693D02*
X6052143Y-20877884D01*
X6052143Y-20877884D02*
X6080714Y-20877884D01*
X6080714Y-20877884D02*
X6099762Y-20887408D01*
X6099762Y-20887408D02*
X6109286Y-20896932D01*
X6109286Y-20896932D02*
X6118810Y-20915979D01*
X6118810Y-20915979D02*
X6118810Y-20963598D01*
X6118810Y-20963598D02*
X6109286Y-20982646D01*
X6109286Y-20982646D02*
X6099762Y-20992170D01*
X6099762Y-20992170D02*
X6080714Y-21001693D01*
X6080714Y-21001693D02*
X6023572Y-21001693D01*
X6023572Y-21001693D02*
X6004524Y-20992170D01*
X6004524Y-20992170D02*
X5995000Y-20982646D01*
X6233095Y-20887408D02*
X6214048Y-20877884D01*
X6214048Y-20877884D02*
X6204524Y-20868360D01*
X6204524Y-20868360D02*
X6195000Y-20849312D01*
X6195000Y-20849312D02*
X6195000Y-20839789D01*
X6195000Y-20839789D02*
X6204524Y-20820741D01*
X6204524Y-20820741D02*
X6214048Y-20811217D01*
X6214048Y-20811217D02*
X6233095Y-20801693D01*
X6233095Y-20801693D02*
X6271191Y-20801693D01*
X6271191Y-20801693D02*
X6290238Y-20811217D01*
X6290238Y-20811217D02*
X6299762Y-20820741D01*
X6299762Y-20820741D02*
X6309286Y-20839789D01*
X6309286Y-20839789D02*
X6309286Y-20849312D01*
X6309286Y-20849312D02*
X6299762Y-20868360D01*
X6299762Y-20868360D02*
X6290238Y-20877884D01*
X6290238Y-20877884D02*
X6271191Y-20887408D01*
X6271191Y-20887408D02*
X6233095Y-20887408D01*
X6233095Y-20887408D02*
X6214048Y-20896932D01*
X6214048Y-20896932D02*
X6204524Y-20906455D01*
X6204524Y-20906455D02*
X6195000Y-20925503D01*
X6195000Y-20925503D02*
X6195000Y-20963598D01*
X6195000Y-20963598D02*
X6204524Y-20982646D01*
X6204524Y-20982646D02*
X6214048Y-20992170D01*
X6214048Y-20992170D02*
X6233095Y-21001693D01*
X6233095Y-21001693D02*
X6271191Y-21001693D01*
X6271191Y-21001693D02*
X6290238Y-20992170D01*
X6290238Y-20992170D02*
X6299762Y-20982646D01*
X6299762Y-20982646D02*
X6309286Y-20963598D01*
X6309286Y-20963598D02*
X6309286Y-20925503D01*
X6309286Y-20925503D02*
X6299762Y-20906455D01*
X6299762Y-20906455D02*
X6290238Y-20896932D01*
X6290238Y-20896932D02*
X6271191Y-20887408D01*
X6385476Y-20801693D02*
X6385476Y-20839789D01*
X6461667Y-20801693D02*
X6461667Y-20839789D01*
X6756905Y-21077884D02*
X6747381Y-21068360D01*
X6747381Y-21068360D02*
X6728334Y-21039789D01*
X6728334Y-21039789D02*
X6718810Y-21020741D01*
X6718810Y-21020741D02*
X6709286Y-20992170D01*
X6709286Y-20992170D02*
X6699762Y-20944551D01*
X6699762Y-20944551D02*
X6699762Y-20906455D01*
X6699762Y-20906455D02*
X6709286Y-20858836D01*
X6709286Y-20858836D02*
X6718810Y-20830265D01*
X6718810Y-20830265D02*
X6728334Y-20811217D01*
X6728334Y-20811217D02*
X6747381Y-20782646D01*
X6747381Y-20782646D02*
X6756905Y-20773122D01*
X6928334Y-20801693D02*
X6833095Y-20801693D01*
X6833095Y-20801693D02*
X6823572Y-20896932D01*
X6823572Y-20896932D02*
X6833095Y-20887408D01*
X6833095Y-20887408D02*
X6852143Y-20877884D01*
X6852143Y-20877884D02*
X6899762Y-20877884D01*
X6899762Y-20877884D02*
X6918810Y-20887408D01*
X6918810Y-20887408D02*
X6928334Y-20896932D01*
X6928334Y-20896932D02*
X6937857Y-20915979D01*
X6937857Y-20915979D02*
X6937857Y-20963598D01*
X6937857Y-20963598D02*
X6928334Y-20982646D01*
X6928334Y-20982646D02*
X6918810Y-20992170D01*
X6918810Y-20992170D02*
X6899762Y-21001693D01*
X6899762Y-21001693D02*
X6852143Y-21001693D01*
X6852143Y-21001693D02*
X6833095Y-20992170D01*
X6833095Y-20992170D02*
X6823572Y-20982646D01*
X7175953Y-21001693D02*
X7175953Y-20801693D01*
X7261667Y-21001693D02*
X7261667Y-20896932D01*
X7261667Y-20896932D02*
X7252143Y-20877884D01*
X7252143Y-20877884D02*
X7233096Y-20868360D01*
X7233096Y-20868360D02*
X7204524Y-20868360D01*
X7204524Y-20868360D02*
X7185476Y-20877884D01*
X7185476Y-20877884D02*
X7175953Y-20887408D01*
X7385476Y-21001693D02*
X7366429Y-20992170D01*
X7366429Y-20992170D02*
X7356905Y-20982646D01*
X7356905Y-20982646D02*
X7347381Y-20963598D01*
X7347381Y-20963598D02*
X7347381Y-20906455D01*
X7347381Y-20906455D02*
X7356905Y-20887408D01*
X7356905Y-20887408D02*
X7366429Y-20877884D01*
X7366429Y-20877884D02*
X7385476Y-20868360D01*
X7385476Y-20868360D02*
X7414048Y-20868360D01*
X7414048Y-20868360D02*
X7433096Y-20877884D01*
X7433096Y-20877884D02*
X7442619Y-20887408D01*
X7442619Y-20887408D02*
X7452143Y-20906455D01*
X7452143Y-20906455D02*
X7452143Y-20963598D01*
X7452143Y-20963598D02*
X7442619Y-20982646D01*
X7442619Y-20982646D02*
X7433096Y-20992170D01*
X7433096Y-20992170D02*
X7414048Y-21001693D01*
X7414048Y-21001693D02*
X7385476Y-21001693D01*
X7566429Y-21001693D02*
X7547381Y-20992170D01*
X7547381Y-20992170D02*
X7537857Y-20973122D01*
X7537857Y-20973122D02*
X7537857Y-20801693D01*
X7718810Y-20992170D02*
X7699762Y-21001693D01*
X7699762Y-21001693D02*
X7661667Y-21001693D01*
X7661667Y-21001693D02*
X7642619Y-20992170D01*
X7642619Y-20992170D02*
X7633096Y-20973122D01*
X7633096Y-20973122D02*
X7633096Y-20896932D01*
X7633096Y-20896932D02*
X7642619Y-20877884D01*
X7642619Y-20877884D02*
X7661667Y-20868360D01*
X7661667Y-20868360D02*
X7699762Y-20868360D01*
X7699762Y-20868360D02*
X7718810Y-20877884D01*
X7718810Y-20877884D02*
X7728334Y-20896932D01*
X7728334Y-20896932D02*
X7728334Y-20915979D01*
X7728334Y-20915979D02*
X7633096Y-20935027D01*
X7804524Y-20992170D02*
X7823572Y-21001693D01*
X7823572Y-21001693D02*
X7861667Y-21001693D01*
X7861667Y-21001693D02*
X7880715Y-20992170D01*
X7880715Y-20992170D02*
X7890238Y-20973122D01*
X7890238Y-20973122D02*
X7890238Y-20963598D01*
X7890238Y-20963598D02*
X7880715Y-20944551D01*
X7880715Y-20944551D02*
X7861667Y-20935027D01*
X7861667Y-20935027D02*
X7833096Y-20935027D01*
X7833096Y-20935027D02*
X7814048Y-20925503D01*
X7814048Y-20925503D02*
X7804524Y-20906455D01*
X7804524Y-20906455D02*
X7804524Y-20896932D01*
X7804524Y-20896932D02*
X7814048Y-20877884D01*
X7814048Y-20877884D02*
X7833096Y-20868360D01*
X7833096Y-20868360D02*
X7861667Y-20868360D01*
X7861667Y-20868360D02*
X7880715Y-20877884D01*
X7956905Y-21077884D02*
X7966429Y-21068360D01*
X7966429Y-21068360D02*
X7985477Y-21039789D01*
X7985477Y-21039789D02*
X7995000Y-21020741D01*
X7995000Y-21020741D02*
X8004524Y-20992170D01*
X8004524Y-20992170D02*
X8014048Y-20944551D01*
X8014048Y-20944551D02*
X8014048Y-20906455D01*
X8014048Y-20906455D02*
X8004524Y-20858836D01*
X8004524Y-20858836D02*
X7995000Y-20830265D01*
X7995000Y-20830265D02*
X7985477Y-20811217D01*
X7985477Y-20811217D02*
X7966429Y-20782646D01*
X7966429Y-20782646D02*
X7956905Y-20773122D01*
D14*
X3175000Y-21153170D02*
X3175000Y-21193170D01*
X3155000Y-21173170D02*
X3195000Y-21173170D01*
D11*
X3480714Y-21065693D02*
X3499762Y-21065693D01*
X3499762Y-21065693D02*
X3518809Y-21075217D01*
X3518809Y-21075217D02*
X3528333Y-21084741D01*
X3528333Y-21084741D02*
X3537857Y-21103789D01*
X3537857Y-21103789D02*
X3547381Y-21141884D01*
X3547381Y-21141884D02*
X3547381Y-21189503D01*
X3547381Y-21189503D02*
X3537857Y-21227598D01*
X3537857Y-21227598D02*
X3528333Y-21246646D01*
X3528333Y-21246646D02*
X3518809Y-21256170D01*
X3518809Y-21256170D02*
X3499762Y-21265693D01*
X3499762Y-21265693D02*
X3480714Y-21265693D01*
X3480714Y-21265693D02*
X3461667Y-21256170D01*
X3461667Y-21256170D02*
X3452143Y-21246646D01*
X3452143Y-21246646D02*
X3442619Y-21227598D01*
X3442619Y-21227598D02*
X3433095Y-21189503D01*
X3433095Y-21189503D02*
X3433095Y-21141884D01*
X3433095Y-21141884D02*
X3442619Y-21103789D01*
X3442619Y-21103789D02*
X3452143Y-21084741D01*
X3452143Y-21084741D02*
X3461667Y-21075217D01*
X3461667Y-21075217D02*
X3480714Y-21065693D01*
X3633095Y-21246646D02*
X3642619Y-21256170D01*
X3642619Y-21256170D02*
X3633095Y-21265693D01*
X3633095Y-21265693D02*
X3623571Y-21256170D01*
X3623571Y-21256170D02*
X3633095Y-21246646D01*
X3633095Y-21246646D02*
X3633095Y-21265693D01*
X3814048Y-21132360D02*
X3814048Y-21265693D01*
X3766428Y-21056170D02*
X3718809Y-21199027D01*
X3718809Y-21199027D02*
X3842619Y-21199027D01*
X3956905Y-21065693D02*
X3975952Y-21065693D01*
X3975952Y-21065693D02*
X3995000Y-21075217D01*
X3995000Y-21075217D02*
X4004524Y-21084741D01*
X4004524Y-21084741D02*
X4014048Y-21103789D01*
X4014048Y-21103789D02*
X4023571Y-21141884D01*
X4023571Y-21141884D02*
X4023571Y-21189503D01*
X4023571Y-21189503D02*
X4014048Y-21227598D01*
X4014048Y-21227598D02*
X4004524Y-21246646D01*
X4004524Y-21246646D02*
X3995000Y-21256170D01*
X3995000Y-21256170D02*
X3975952Y-21265693D01*
X3975952Y-21265693D02*
X3956905Y-21265693D01*
X3956905Y-21265693D02*
X3937857Y-21256170D01*
X3937857Y-21256170D02*
X3928333Y-21246646D01*
X3928333Y-21246646D02*
X3918809Y-21227598D01*
X3918809Y-21227598D02*
X3909286Y-21189503D01*
X3909286Y-21189503D02*
X3909286Y-21141884D01*
X3909286Y-21141884D02*
X3918809Y-21103789D01*
X3918809Y-21103789D02*
X3928333Y-21084741D01*
X3928333Y-21084741D02*
X3937857Y-21075217D01*
X3937857Y-21075217D02*
X3956905Y-21065693D01*
X4147381Y-21065693D02*
X4166429Y-21065693D01*
X4166429Y-21065693D02*
X4185476Y-21075217D01*
X4185476Y-21075217D02*
X4195000Y-21084741D01*
X4195000Y-21084741D02*
X4204524Y-21103789D01*
X4204524Y-21103789D02*
X4214048Y-21141884D01*
X4214048Y-21141884D02*
X4214048Y-21189503D01*
X4214048Y-21189503D02*
X4204524Y-21227598D01*
X4204524Y-21227598D02*
X4195000Y-21246646D01*
X4195000Y-21246646D02*
X4185476Y-21256170D01*
X4185476Y-21256170D02*
X4166429Y-21265693D01*
X4166429Y-21265693D02*
X4147381Y-21265693D01*
X4147381Y-21265693D02*
X4128333Y-21256170D01*
X4128333Y-21256170D02*
X4118809Y-21246646D01*
X4118809Y-21246646D02*
X4109286Y-21227598D01*
X4109286Y-21227598D02*
X4099762Y-21189503D01*
X4099762Y-21189503D02*
X4099762Y-21141884D01*
X4099762Y-21141884D02*
X4109286Y-21103789D01*
X4109286Y-21103789D02*
X4118809Y-21084741D01*
X4118809Y-21084741D02*
X4128333Y-21075217D01*
X4128333Y-21075217D02*
X4147381Y-21065693D01*
X4299762Y-21265693D02*
X4299762Y-21132360D01*
X4299762Y-21151408D02*
X4309286Y-21141884D01*
X4309286Y-21141884D02*
X4328333Y-21132360D01*
X4328333Y-21132360D02*
X4356905Y-21132360D01*
X4356905Y-21132360D02*
X4375952Y-21141884D01*
X4375952Y-21141884D02*
X4385476Y-21160932D01*
X4385476Y-21160932D02*
X4385476Y-21265693D01*
X4385476Y-21160932D02*
X4395000Y-21141884D01*
X4395000Y-21141884D02*
X4414048Y-21132360D01*
X4414048Y-21132360D02*
X4442619Y-21132360D01*
X4442619Y-21132360D02*
X4461667Y-21141884D01*
X4461667Y-21141884D02*
X4471191Y-21160932D01*
X4471191Y-21160932D02*
X4471191Y-21265693D01*
X4566429Y-21265693D02*
X4566429Y-21132360D01*
X4566429Y-21151408D02*
X4575952Y-21141884D01*
X4575952Y-21141884D02*
X4595000Y-21132360D01*
X4595000Y-21132360D02*
X4623572Y-21132360D01*
X4623572Y-21132360D02*
X4642619Y-21141884D01*
X4642619Y-21141884D02*
X4652143Y-21160932D01*
X4652143Y-21160932D02*
X4652143Y-21265693D01*
X4652143Y-21160932D02*
X4661667Y-21141884D01*
X4661667Y-21141884D02*
X4680714Y-21132360D01*
X4680714Y-21132360D02*
X4709286Y-21132360D01*
X4709286Y-21132360D02*
X4728333Y-21141884D01*
X4728333Y-21141884D02*
X4737857Y-21160932D01*
X4737857Y-21160932D02*
X4737857Y-21265693D01*
X5128333Y-21056170D02*
X4956905Y-21313312D01*
X5385476Y-21065693D02*
X5404524Y-21065693D01*
X5404524Y-21065693D02*
X5423572Y-21075217D01*
X5423572Y-21075217D02*
X5433095Y-21084741D01*
X5433095Y-21084741D02*
X5442619Y-21103789D01*
X5442619Y-21103789D02*
X5452143Y-21141884D01*
X5452143Y-21141884D02*
X5452143Y-21189503D01*
X5452143Y-21189503D02*
X5442619Y-21227598D01*
X5442619Y-21227598D02*
X5433095Y-21246646D01*
X5433095Y-21246646D02*
X5423572Y-21256170D01*
X5423572Y-21256170D02*
X5404524Y-21265693D01*
X5404524Y-21265693D02*
X5385476Y-21265693D01*
X5385476Y-21265693D02*
X5366429Y-21256170D01*
X5366429Y-21256170D02*
X5356905Y-21246646D01*
X5356905Y-21246646D02*
X5347381Y-21227598D01*
X5347381Y-21227598D02*
X5337857Y-21189503D01*
X5337857Y-21189503D02*
X5337857Y-21141884D01*
X5337857Y-21141884D02*
X5347381Y-21103789D01*
X5347381Y-21103789D02*
X5356905Y-21084741D01*
X5356905Y-21084741D02*
X5366429Y-21075217D01*
X5366429Y-21075217D02*
X5385476Y-21065693D01*
X5537857Y-21246646D02*
X5547381Y-21256170D01*
X5547381Y-21256170D02*
X5537857Y-21265693D01*
X5537857Y-21265693D02*
X5528334Y-21256170D01*
X5528334Y-21256170D02*
X5537857Y-21246646D01*
X5537857Y-21246646D02*
X5537857Y-21265693D01*
X5671191Y-21065693D02*
X5690238Y-21065693D01*
X5690238Y-21065693D02*
X5709286Y-21075217D01*
X5709286Y-21075217D02*
X5718810Y-21084741D01*
X5718810Y-21084741D02*
X5728333Y-21103789D01*
X5728333Y-21103789D02*
X5737857Y-21141884D01*
X5737857Y-21141884D02*
X5737857Y-21189503D01*
X5737857Y-21189503D02*
X5728333Y-21227598D01*
X5728333Y-21227598D02*
X5718810Y-21246646D01*
X5718810Y-21246646D02*
X5709286Y-21256170D01*
X5709286Y-21256170D02*
X5690238Y-21265693D01*
X5690238Y-21265693D02*
X5671191Y-21265693D01*
X5671191Y-21265693D02*
X5652143Y-21256170D01*
X5652143Y-21256170D02*
X5642619Y-21246646D01*
X5642619Y-21246646D02*
X5633095Y-21227598D01*
X5633095Y-21227598D02*
X5623572Y-21189503D01*
X5623572Y-21189503D02*
X5623572Y-21141884D01*
X5623572Y-21141884D02*
X5633095Y-21103789D01*
X5633095Y-21103789D02*
X5642619Y-21084741D01*
X5642619Y-21084741D02*
X5652143Y-21075217D01*
X5652143Y-21075217D02*
X5671191Y-21065693D01*
X5928333Y-21265693D02*
X5814048Y-21265693D01*
X5871191Y-21265693D02*
X5871191Y-21065693D01*
X5871191Y-21065693D02*
X5852143Y-21094265D01*
X5852143Y-21094265D02*
X5833095Y-21113312D01*
X5833095Y-21113312D02*
X5814048Y-21122836D01*
X6109286Y-21065693D02*
X6014048Y-21065693D01*
X6014048Y-21065693D02*
X6004524Y-21160932D01*
X6004524Y-21160932D02*
X6014048Y-21151408D01*
X6014048Y-21151408D02*
X6033095Y-21141884D01*
X6033095Y-21141884D02*
X6080714Y-21141884D01*
X6080714Y-21141884D02*
X6099762Y-21151408D01*
X6099762Y-21151408D02*
X6109286Y-21160932D01*
X6109286Y-21160932D02*
X6118810Y-21179979D01*
X6118810Y-21179979D02*
X6118810Y-21227598D01*
X6118810Y-21227598D02*
X6109286Y-21246646D01*
X6109286Y-21246646D02*
X6099762Y-21256170D01*
X6099762Y-21256170D02*
X6080714Y-21265693D01*
X6080714Y-21265693D02*
X6033095Y-21265693D01*
X6033095Y-21265693D02*
X6014048Y-21256170D01*
X6014048Y-21256170D02*
X6004524Y-21246646D01*
X6185476Y-21065693D02*
X6318810Y-21065693D01*
X6318810Y-21065693D02*
X6233095Y-21265693D01*
X6385476Y-21065693D02*
X6385476Y-21103789D01*
X6461667Y-21065693D02*
X6461667Y-21103789D01*
X6756905Y-21341884D02*
X6747381Y-21332360D01*
X6747381Y-21332360D02*
X6728334Y-21303789D01*
X6728334Y-21303789D02*
X6718810Y-21284741D01*
X6718810Y-21284741D02*
X6709286Y-21256170D01*
X6709286Y-21256170D02*
X6699762Y-21208551D01*
X6699762Y-21208551D02*
X6699762Y-21170455D01*
X6699762Y-21170455D02*
X6709286Y-21122836D01*
X6709286Y-21122836D02*
X6718810Y-21094265D01*
X6718810Y-21094265D02*
X6728334Y-21075217D01*
X6728334Y-21075217D02*
X6747381Y-21046646D01*
X6747381Y-21046646D02*
X6756905Y-21037122D01*
X6861667Y-21151408D02*
X6842619Y-21141884D01*
X6842619Y-21141884D02*
X6833095Y-21132360D01*
X6833095Y-21132360D02*
X6823572Y-21113312D01*
X6823572Y-21113312D02*
X6823572Y-21103789D01*
X6823572Y-21103789D02*
X6833095Y-21084741D01*
X6833095Y-21084741D02*
X6842619Y-21075217D01*
X6842619Y-21075217D02*
X6861667Y-21065693D01*
X6861667Y-21065693D02*
X6899762Y-21065693D01*
X6899762Y-21065693D02*
X6918810Y-21075217D01*
X6918810Y-21075217D02*
X6928334Y-21084741D01*
X6928334Y-21084741D02*
X6937857Y-21103789D01*
X6937857Y-21103789D02*
X6937857Y-21113312D01*
X6937857Y-21113312D02*
X6928334Y-21132360D01*
X6928334Y-21132360D02*
X6918810Y-21141884D01*
X6918810Y-21141884D02*
X6899762Y-21151408D01*
X6899762Y-21151408D02*
X6861667Y-21151408D01*
X6861667Y-21151408D02*
X6842619Y-21160932D01*
X6842619Y-21160932D02*
X6833095Y-21170455D01*
X6833095Y-21170455D02*
X6823572Y-21189503D01*
X6823572Y-21189503D02*
X6823572Y-21227598D01*
X6823572Y-21227598D02*
X6833095Y-21246646D01*
X6833095Y-21246646D02*
X6842619Y-21256170D01*
X6842619Y-21256170D02*
X6861667Y-21265693D01*
X6861667Y-21265693D02*
X6899762Y-21265693D01*
X6899762Y-21265693D02*
X6918810Y-21256170D01*
X6918810Y-21256170D02*
X6928334Y-21246646D01*
X6928334Y-21246646D02*
X6937857Y-21227598D01*
X6937857Y-21227598D02*
X6937857Y-21189503D01*
X6937857Y-21189503D02*
X6928334Y-21170455D01*
X6928334Y-21170455D02*
X6918810Y-21160932D01*
X6918810Y-21160932D02*
X6899762Y-21151408D01*
X7118810Y-21065693D02*
X7023572Y-21065693D01*
X7023572Y-21065693D02*
X7014048Y-21160932D01*
X7014048Y-21160932D02*
X7023572Y-21151408D01*
X7023572Y-21151408D02*
X7042619Y-21141884D01*
X7042619Y-21141884D02*
X7090238Y-21141884D01*
X7090238Y-21141884D02*
X7109286Y-21151408D01*
X7109286Y-21151408D02*
X7118810Y-21160932D01*
X7118810Y-21160932D02*
X7128334Y-21179979D01*
X7128334Y-21179979D02*
X7128334Y-21227598D01*
X7128334Y-21227598D02*
X7118810Y-21246646D01*
X7118810Y-21246646D02*
X7109286Y-21256170D01*
X7109286Y-21256170D02*
X7090238Y-21265693D01*
X7090238Y-21265693D02*
X7042619Y-21265693D01*
X7042619Y-21265693D02*
X7023572Y-21256170D01*
X7023572Y-21256170D02*
X7014048Y-21246646D01*
X7366429Y-21265693D02*
X7366429Y-21065693D01*
X7452143Y-21265693D02*
X7452143Y-21160932D01*
X7452143Y-21160932D02*
X7442619Y-21141884D01*
X7442619Y-21141884D02*
X7423572Y-21132360D01*
X7423572Y-21132360D02*
X7395000Y-21132360D01*
X7395000Y-21132360D02*
X7375953Y-21141884D01*
X7375953Y-21141884D02*
X7366429Y-21151408D01*
X7575953Y-21265693D02*
X7556905Y-21256170D01*
X7556905Y-21256170D02*
X7547381Y-21246646D01*
X7547381Y-21246646D02*
X7537857Y-21227598D01*
X7537857Y-21227598D02*
X7537857Y-21170455D01*
X7537857Y-21170455D02*
X7547381Y-21151408D01*
X7547381Y-21151408D02*
X7556905Y-21141884D01*
X7556905Y-21141884D02*
X7575953Y-21132360D01*
X7575953Y-21132360D02*
X7604524Y-21132360D01*
X7604524Y-21132360D02*
X7623572Y-21141884D01*
X7623572Y-21141884D02*
X7633096Y-21151408D01*
X7633096Y-21151408D02*
X7642619Y-21170455D01*
X7642619Y-21170455D02*
X7642619Y-21227598D01*
X7642619Y-21227598D02*
X7633096Y-21246646D01*
X7633096Y-21246646D02*
X7623572Y-21256170D01*
X7623572Y-21256170D02*
X7604524Y-21265693D01*
X7604524Y-21265693D02*
X7575953Y-21265693D01*
X7756905Y-21265693D02*
X7737857Y-21256170D01*
X7737857Y-21256170D02*
X7728334Y-21237122D01*
X7728334Y-21237122D02*
X7728334Y-21065693D01*
X7909286Y-21256170D02*
X7890238Y-21265693D01*
X7890238Y-21265693D02*
X7852143Y-21265693D01*
X7852143Y-21265693D02*
X7833096Y-21256170D01*
X7833096Y-21256170D02*
X7823572Y-21237122D01*
X7823572Y-21237122D02*
X7823572Y-21160932D01*
X7823572Y-21160932D02*
X7833096Y-21141884D01*
X7833096Y-21141884D02*
X7852143Y-21132360D01*
X7852143Y-21132360D02*
X7890238Y-21132360D01*
X7890238Y-21132360D02*
X7909286Y-21141884D01*
X7909286Y-21141884D02*
X7918810Y-21160932D01*
X7918810Y-21160932D02*
X7918810Y-21179979D01*
X7918810Y-21179979D02*
X7823572Y-21199027D01*
X7995000Y-21256170D02*
X8014048Y-21265693D01*
X8014048Y-21265693D02*
X8052143Y-21265693D01*
X8052143Y-21265693D02*
X8071191Y-21256170D01*
X8071191Y-21256170D02*
X8080715Y-21237122D01*
X8080715Y-21237122D02*
X8080715Y-21227598D01*
X8080715Y-21227598D02*
X8071191Y-21208551D01*
X8071191Y-21208551D02*
X8052143Y-21199027D01*
X8052143Y-21199027D02*
X8023572Y-21199027D01*
X8023572Y-21199027D02*
X8004524Y-21189503D01*
X8004524Y-21189503D02*
X7995000Y-21170455D01*
X7995000Y-21170455D02*
X7995000Y-21160932D01*
X7995000Y-21160932D02*
X8004524Y-21141884D01*
X8004524Y-21141884D02*
X8023572Y-21132360D01*
X8023572Y-21132360D02*
X8052143Y-21132360D01*
X8052143Y-21132360D02*
X8071191Y-21141884D01*
X8147381Y-21341884D02*
X8156905Y-21332360D01*
X8156905Y-21332360D02*
X8175953Y-21303789D01*
X8175953Y-21303789D02*
X8185477Y-21284741D01*
X8185477Y-21284741D02*
X8195000Y-21256170D01*
X8195000Y-21256170D02*
X8204524Y-21208551D01*
X8204524Y-21208551D02*
X8204524Y-21170455D01*
X8204524Y-21170455D02*
X8195000Y-21122836D01*
X8195000Y-21122836D02*
X8185477Y-21094265D01*
X8185477Y-21094265D02*
X8175953Y-21075217D01*
X8175953Y-21075217D02*
X8156905Y-21046646D01*
X8156905Y-21046646D02*
X8147381Y-21037122D01*
D15*
X3187678Y-21454847D02*
X3187678Y-21419492D01*
X3152322Y-21419492D01*
X3152322Y-21454847D01*
X3187678Y-21454847D01*
D11*
X3480714Y-21329693D02*
X3499762Y-21329693D01*
X3499762Y-21329693D02*
X3518809Y-21339217D01*
X3518809Y-21339217D02*
X3528333Y-21348741D01*
X3528333Y-21348741D02*
X3537857Y-21367789D01*
X3537857Y-21367789D02*
X3547381Y-21405884D01*
X3547381Y-21405884D02*
X3547381Y-21453503D01*
X3547381Y-21453503D02*
X3537857Y-21491598D01*
X3537857Y-21491598D02*
X3528333Y-21510646D01*
X3528333Y-21510646D02*
X3518809Y-21520170D01*
X3518809Y-21520170D02*
X3499762Y-21529693D01*
X3499762Y-21529693D02*
X3480714Y-21529693D01*
X3480714Y-21529693D02*
X3461667Y-21520170D01*
X3461667Y-21520170D02*
X3452143Y-21510646D01*
X3452143Y-21510646D02*
X3442619Y-21491598D01*
X3442619Y-21491598D02*
X3433095Y-21453503D01*
X3433095Y-21453503D02*
X3433095Y-21405884D01*
X3433095Y-21405884D02*
X3442619Y-21367789D01*
X3442619Y-21367789D02*
X3452143Y-21348741D01*
X3452143Y-21348741D02*
X3461667Y-21339217D01*
X3461667Y-21339217D02*
X3480714Y-21329693D01*
X3633095Y-21510646D02*
X3642619Y-21520170D01*
X3642619Y-21520170D02*
X3633095Y-21529693D01*
X3633095Y-21529693D02*
X3623571Y-21520170D01*
X3623571Y-21520170D02*
X3633095Y-21510646D01*
X3633095Y-21510646D02*
X3633095Y-21529693D01*
X3823571Y-21329693D02*
X3728333Y-21329693D01*
X3728333Y-21329693D02*
X3718809Y-21424932D01*
X3718809Y-21424932D02*
X3728333Y-21415408D01*
X3728333Y-21415408D02*
X3747381Y-21405884D01*
X3747381Y-21405884D02*
X3795000Y-21405884D01*
X3795000Y-21405884D02*
X3814048Y-21415408D01*
X3814048Y-21415408D02*
X3823571Y-21424932D01*
X3823571Y-21424932D02*
X3833095Y-21443979D01*
X3833095Y-21443979D02*
X3833095Y-21491598D01*
X3833095Y-21491598D02*
X3823571Y-21510646D01*
X3823571Y-21510646D02*
X3814048Y-21520170D01*
X3814048Y-21520170D02*
X3795000Y-21529693D01*
X3795000Y-21529693D02*
X3747381Y-21529693D01*
X3747381Y-21529693D02*
X3728333Y-21520170D01*
X3728333Y-21520170D02*
X3718809Y-21510646D01*
X3956905Y-21329693D02*
X3975952Y-21329693D01*
X3975952Y-21329693D02*
X3995000Y-21339217D01*
X3995000Y-21339217D02*
X4004524Y-21348741D01*
X4004524Y-21348741D02*
X4014048Y-21367789D01*
X4014048Y-21367789D02*
X4023571Y-21405884D01*
X4023571Y-21405884D02*
X4023571Y-21453503D01*
X4023571Y-21453503D02*
X4014048Y-21491598D01*
X4014048Y-21491598D02*
X4004524Y-21510646D01*
X4004524Y-21510646D02*
X3995000Y-21520170D01*
X3995000Y-21520170D02*
X3975952Y-21529693D01*
X3975952Y-21529693D02*
X3956905Y-21529693D01*
X3956905Y-21529693D02*
X3937857Y-21520170D01*
X3937857Y-21520170D02*
X3928333Y-21510646D01*
X3928333Y-21510646D02*
X3918809Y-21491598D01*
X3918809Y-21491598D02*
X3909286Y-21453503D01*
X3909286Y-21453503D02*
X3909286Y-21405884D01*
X3909286Y-21405884D02*
X3918809Y-21367789D01*
X3918809Y-21367789D02*
X3928333Y-21348741D01*
X3928333Y-21348741D02*
X3937857Y-21339217D01*
X3937857Y-21339217D02*
X3956905Y-21329693D01*
X4147381Y-21329693D02*
X4166429Y-21329693D01*
X4166429Y-21329693D02*
X4185476Y-21339217D01*
X4185476Y-21339217D02*
X4195000Y-21348741D01*
X4195000Y-21348741D02*
X4204524Y-21367789D01*
X4204524Y-21367789D02*
X4214048Y-21405884D01*
X4214048Y-21405884D02*
X4214048Y-21453503D01*
X4214048Y-21453503D02*
X4204524Y-21491598D01*
X4204524Y-21491598D02*
X4195000Y-21510646D01*
X4195000Y-21510646D02*
X4185476Y-21520170D01*
X4185476Y-21520170D02*
X4166429Y-21529693D01*
X4166429Y-21529693D02*
X4147381Y-21529693D01*
X4147381Y-21529693D02*
X4128333Y-21520170D01*
X4128333Y-21520170D02*
X4118809Y-21510646D01*
X4118809Y-21510646D02*
X4109286Y-21491598D01*
X4109286Y-21491598D02*
X4099762Y-21453503D01*
X4099762Y-21453503D02*
X4099762Y-21405884D01*
X4099762Y-21405884D02*
X4109286Y-21367789D01*
X4109286Y-21367789D02*
X4118809Y-21348741D01*
X4118809Y-21348741D02*
X4128333Y-21339217D01*
X4128333Y-21339217D02*
X4147381Y-21329693D01*
X4299762Y-21529693D02*
X4299762Y-21396360D01*
X4299762Y-21415408D02*
X4309286Y-21405884D01*
X4309286Y-21405884D02*
X4328333Y-21396360D01*
X4328333Y-21396360D02*
X4356905Y-21396360D01*
X4356905Y-21396360D02*
X4375952Y-21405884D01*
X4375952Y-21405884D02*
X4385476Y-21424932D01*
X4385476Y-21424932D02*
X4385476Y-21529693D01*
X4385476Y-21424932D02*
X4395000Y-21405884D01*
X4395000Y-21405884D02*
X4414048Y-21396360D01*
X4414048Y-21396360D02*
X4442619Y-21396360D01*
X4442619Y-21396360D02*
X4461667Y-21405884D01*
X4461667Y-21405884D02*
X4471191Y-21424932D01*
X4471191Y-21424932D02*
X4471191Y-21529693D01*
X4566429Y-21529693D02*
X4566429Y-21396360D01*
X4566429Y-21415408D02*
X4575952Y-21405884D01*
X4575952Y-21405884D02*
X4595000Y-21396360D01*
X4595000Y-21396360D02*
X4623572Y-21396360D01*
X4623572Y-21396360D02*
X4642619Y-21405884D01*
X4642619Y-21405884D02*
X4652143Y-21424932D01*
X4652143Y-21424932D02*
X4652143Y-21529693D01*
X4652143Y-21424932D02*
X4661667Y-21405884D01*
X4661667Y-21405884D02*
X4680714Y-21396360D01*
X4680714Y-21396360D02*
X4709286Y-21396360D01*
X4709286Y-21396360D02*
X4728333Y-21405884D01*
X4728333Y-21405884D02*
X4737857Y-21424932D01*
X4737857Y-21424932D02*
X4737857Y-21529693D01*
X5128333Y-21320170D02*
X4956905Y-21577312D01*
X5385476Y-21329693D02*
X5404524Y-21329693D01*
X5404524Y-21329693D02*
X5423572Y-21339217D01*
X5423572Y-21339217D02*
X5433095Y-21348741D01*
X5433095Y-21348741D02*
X5442619Y-21367789D01*
X5442619Y-21367789D02*
X5452143Y-21405884D01*
X5452143Y-21405884D02*
X5452143Y-21453503D01*
X5452143Y-21453503D02*
X5442619Y-21491598D01*
X5442619Y-21491598D02*
X5433095Y-21510646D01*
X5433095Y-21510646D02*
X5423572Y-21520170D01*
X5423572Y-21520170D02*
X5404524Y-21529693D01*
X5404524Y-21529693D02*
X5385476Y-21529693D01*
X5385476Y-21529693D02*
X5366429Y-21520170D01*
X5366429Y-21520170D02*
X5356905Y-21510646D01*
X5356905Y-21510646D02*
X5347381Y-21491598D01*
X5347381Y-21491598D02*
X5337857Y-21453503D01*
X5337857Y-21453503D02*
X5337857Y-21405884D01*
X5337857Y-21405884D02*
X5347381Y-21367789D01*
X5347381Y-21367789D02*
X5356905Y-21348741D01*
X5356905Y-21348741D02*
X5366429Y-21339217D01*
X5366429Y-21339217D02*
X5385476Y-21329693D01*
X5537857Y-21510646D02*
X5547381Y-21520170D01*
X5547381Y-21520170D02*
X5537857Y-21529693D01*
X5537857Y-21529693D02*
X5528334Y-21520170D01*
X5528334Y-21520170D02*
X5537857Y-21510646D01*
X5537857Y-21510646D02*
X5537857Y-21529693D01*
X5671191Y-21329693D02*
X5690238Y-21329693D01*
X5690238Y-21329693D02*
X5709286Y-21339217D01*
X5709286Y-21339217D02*
X5718810Y-21348741D01*
X5718810Y-21348741D02*
X5728333Y-21367789D01*
X5728333Y-21367789D02*
X5737857Y-21405884D01*
X5737857Y-21405884D02*
X5737857Y-21453503D01*
X5737857Y-21453503D02*
X5728333Y-21491598D01*
X5728333Y-21491598D02*
X5718810Y-21510646D01*
X5718810Y-21510646D02*
X5709286Y-21520170D01*
X5709286Y-21520170D02*
X5690238Y-21529693D01*
X5690238Y-21529693D02*
X5671191Y-21529693D01*
X5671191Y-21529693D02*
X5652143Y-21520170D01*
X5652143Y-21520170D02*
X5642619Y-21510646D01*
X5642619Y-21510646D02*
X5633095Y-21491598D01*
X5633095Y-21491598D02*
X5623572Y-21453503D01*
X5623572Y-21453503D02*
X5623572Y-21405884D01*
X5623572Y-21405884D02*
X5633095Y-21367789D01*
X5633095Y-21367789D02*
X5642619Y-21348741D01*
X5642619Y-21348741D02*
X5652143Y-21339217D01*
X5652143Y-21339217D02*
X5671191Y-21329693D01*
X5928333Y-21529693D02*
X5814048Y-21529693D01*
X5871191Y-21529693D02*
X5871191Y-21329693D01*
X5871191Y-21329693D02*
X5852143Y-21358265D01*
X5852143Y-21358265D02*
X5833095Y-21377312D01*
X5833095Y-21377312D02*
X5814048Y-21386836D01*
X6023572Y-21529693D02*
X6061667Y-21529693D01*
X6061667Y-21529693D02*
X6080714Y-21520170D01*
X6080714Y-21520170D02*
X6090238Y-21510646D01*
X6090238Y-21510646D02*
X6109286Y-21482074D01*
X6109286Y-21482074D02*
X6118810Y-21443979D01*
X6118810Y-21443979D02*
X6118810Y-21367789D01*
X6118810Y-21367789D02*
X6109286Y-21348741D01*
X6109286Y-21348741D02*
X6099762Y-21339217D01*
X6099762Y-21339217D02*
X6080714Y-21329693D01*
X6080714Y-21329693D02*
X6042619Y-21329693D01*
X6042619Y-21329693D02*
X6023572Y-21339217D01*
X6023572Y-21339217D02*
X6014048Y-21348741D01*
X6014048Y-21348741D02*
X6004524Y-21367789D01*
X6004524Y-21367789D02*
X6004524Y-21415408D01*
X6004524Y-21415408D02*
X6014048Y-21434455D01*
X6014048Y-21434455D02*
X6023572Y-21443979D01*
X6023572Y-21443979D02*
X6042619Y-21453503D01*
X6042619Y-21453503D02*
X6080714Y-21453503D01*
X6080714Y-21453503D02*
X6099762Y-21443979D01*
X6099762Y-21443979D02*
X6109286Y-21434455D01*
X6109286Y-21434455D02*
X6118810Y-21415408D01*
X6185476Y-21329693D02*
X6318810Y-21329693D01*
X6318810Y-21329693D02*
X6233095Y-21529693D01*
X6385476Y-21329693D02*
X6385476Y-21367789D01*
X6461667Y-21329693D02*
X6461667Y-21367789D01*
X6756905Y-21605884D02*
X6747381Y-21596360D01*
X6747381Y-21596360D02*
X6728334Y-21567789D01*
X6728334Y-21567789D02*
X6718810Y-21548741D01*
X6718810Y-21548741D02*
X6709286Y-21520170D01*
X6709286Y-21520170D02*
X6699762Y-21472551D01*
X6699762Y-21472551D02*
X6699762Y-21434455D01*
X6699762Y-21434455D02*
X6709286Y-21386836D01*
X6709286Y-21386836D02*
X6718810Y-21358265D01*
X6718810Y-21358265D02*
X6728334Y-21339217D01*
X6728334Y-21339217D02*
X6747381Y-21310646D01*
X6747381Y-21310646D02*
X6756905Y-21301122D01*
X6823572Y-21348741D02*
X6833095Y-21339217D01*
X6833095Y-21339217D02*
X6852143Y-21329693D01*
X6852143Y-21329693D02*
X6899762Y-21329693D01*
X6899762Y-21329693D02*
X6918810Y-21339217D01*
X6918810Y-21339217D02*
X6928334Y-21348741D01*
X6928334Y-21348741D02*
X6937857Y-21367789D01*
X6937857Y-21367789D02*
X6937857Y-21386836D01*
X6937857Y-21386836D02*
X6928334Y-21415408D01*
X6928334Y-21415408D02*
X6814048Y-21529693D01*
X6814048Y-21529693D02*
X6937857Y-21529693D01*
X7175953Y-21529693D02*
X7175953Y-21329693D01*
X7261667Y-21529693D02*
X7261667Y-21424932D01*
X7261667Y-21424932D02*
X7252143Y-21405884D01*
X7252143Y-21405884D02*
X7233096Y-21396360D01*
X7233096Y-21396360D02*
X7204524Y-21396360D01*
X7204524Y-21396360D02*
X7185476Y-21405884D01*
X7185476Y-21405884D02*
X7175953Y-21415408D01*
X7385476Y-21529693D02*
X7366429Y-21520170D01*
X7366429Y-21520170D02*
X7356905Y-21510646D01*
X7356905Y-21510646D02*
X7347381Y-21491598D01*
X7347381Y-21491598D02*
X7347381Y-21434455D01*
X7347381Y-21434455D02*
X7356905Y-21415408D01*
X7356905Y-21415408D02*
X7366429Y-21405884D01*
X7366429Y-21405884D02*
X7385476Y-21396360D01*
X7385476Y-21396360D02*
X7414048Y-21396360D01*
X7414048Y-21396360D02*
X7433096Y-21405884D01*
X7433096Y-21405884D02*
X7442619Y-21415408D01*
X7442619Y-21415408D02*
X7452143Y-21434455D01*
X7452143Y-21434455D02*
X7452143Y-21491598D01*
X7452143Y-21491598D02*
X7442619Y-21510646D01*
X7442619Y-21510646D02*
X7433096Y-21520170D01*
X7433096Y-21520170D02*
X7414048Y-21529693D01*
X7414048Y-21529693D02*
X7385476Y-21529693D01*
X7566429Y-21529693D02*
X7547381Y-21520170D01*
X7547381Y-21520170D02*
X7537857Y-21501122D01*
X7537857Y-21501122D02*
X7537857Y-21329693D01*
X7718810Y-21520170D02*
X7699762Y-21529693D01*
X7699762Y-21529693D02*
X7661667Y-21529693D01*
X7661667Y-21529693D02*
X7642619Y-21520170D01*
X7642619Y-21520170D02*
X7633096Y-21501122D01*
X7633096Y-21501122D02*
X7633096Y-21424932D01*
X7633096Y-21424932D02*
X7642619Y-21405884D01*
X7642619Y-21405884D02*
X7661667Y-21396360D01*
X7661667Y-21396360D02*
X7699762Y-21396360D01*
X7699762Y-21396360D02*
X7718810Y-21405884D01*
X7718810Y-21405884D02*
X7728334Y-21424932D01*
X7728334Y-21424932D02*
X7728334Y-21443979D01*
X7728334Y-21443979D02*
X7633096Y-21463027D01*
X7804524Y-21520170D02*
X7823572Y-21529693D01*
X7823572Y-21529693D02*
X7861667Y-21529693D01*
X7861667Y-21529693D02*
X7880715Y-21520170D01*
X7880715Y-21520170D02*
X7890238Y-21501122D01*
X7890238Y-21501122D02*
X7890238Y-21491598D01*
X7890238Y-21491598D02*
X7880715Y-21472551D01*
X7880715Y-21472551D02*
X7861667Y-21463027D01*
X7861667Y-21463027D02*
X7833096Y-21463027D01*
X7833096Y-21463027D02*
X7814048Y-21453503D01*
X7814048Y-21453503D02*
X7804524Y-21434455D01*
X7804524Y-21434455D02*
X7804524Y-21424932D01*
X7804524Y-21424932D02*
X7814048Y-21405884D01*
X7814048Y-21405884D02*
X7833096Y-21396360D01*
X7833096Y-21396360D02*
X7861667Y-21396360D01*
X7861667Y-21396360D02*
X7880715Y-21405884D01*
X7956905Y-21605884D02*
X7966429Y-21596360D01*
X7966429Y-21596360D02*
X7985477Y-21567789D01*
X7985477Y-21567789D02*
X7995000Y-21548741D01*
X7995000Y-21548741D02*
X8004524Y-21520170D01*
X8004524Y-21520170D02*
X8014048Y-21472551D01*
X8014048Y-21472551D02*
X8014048Y-21434455D01*
X8014048Y-21434455D02*
X8004524Y-21386836D01*
X8004524Y-21386836D02*
X7995000Y-21358265D01*
X7995000Y-21358265D02*
X7985477Y-21339217D01*
X7985477Y-21339217D02*
X7966429Y-21310646D01*
X7966429Y-21310646D02*
X7956905Y-21301122D01*
D16*
X3165000Y-21731170D02*
X3195000Y-21701170D01*
X3165000Y-21671170D01*
X3135000Y-21701170D01*
X3165000Y-21731170D01*
D11*
X3480714Y-21593693D02*
X3499762Y-21593693D01*
X3499762Y-21593693D02*
X3518809Y-21603217D01*
X3518809Y-21603217D02*
X3528333Y-21612741D01*
X3528333Y-21612741D02*
X3537857Y-21631789D01*
X3537857Y-21631789D02*
X3547381Y-21669884D01*
X3547381Y-21669884D02*
X3547381Y-21717503D01*
X3547381Y-21717503D02*
X3537857Y-21755598D01*
X3537857Y-21755598D02*
X3528333Y-21774646D01*
X3528333Y-21774646D02*
X3518809Y-21784170D01*
X3518809Y-21784170D02*
X3499762Y-21793693D01*
X3499762Y-21793693D02*
X3480714Y-21793693D01*
X3480714Y-21793693D02*
X3461667Y-21784170D01*
X3461667Y-21784170D02*
X3452143Y-21774646D01*
X3452143Y-21774646D02*
X3442619Y-21755598D01*
X3442619Y-21755598D02*
X3433095Y-21717503D01*
X3433095Y-21717503D02*
X3433095Y-21669884D01*
X3433095Y-21669884D02*
X3442619Y-21631789D01*
X3442619Y-21631789D02*
X3452143Y-21612741D01*
X3452143Y-21612741D02*
X3461667Y-21603217D01*
X3461667Y-21603217D02*
X3480714Y-21593693D01*
X3633095Y-21774646D02*
X3642619Y-21784170D01*
X3642619Y-21784170D02*
X3633095Y-21793693D01*
X3633095Y-21793693D02*
X3623571Y-21784170D01*
X3623571Y-21784170D02*
X3633095Y-21774646D01*
X3633095Y-21774646D02*
X3633095Y-21793693D01*
X3814048Y-21593693D02*
X3775952Y-21593693D01*
X3775952Y-21593693D02*
X3756905Y-21603217D01*
X3756905Y-21603217D02*
X3747381Y-21612741D01*
X3747381Y-21612741D02*
X3728333Y-21641312D01*
X3728333Y-21641312D02*
X3718809Y-21679408D01*
X3718809Y-21679408D02*
X3718809Y-21755598D01*
X3718809Y-21755598D02*
X3728333Y-21774646D01*
X3728333Y-21774646D02*
X3737857Y-21784170D01*
X3737857Y-21784170D02*
X3756905Y-21793693D01*
X3756905Y-21793693D02*
X3795000Y-21793693D01*
X3795000Y-21793693D02*
X3814048Y-21784170D01*
X3814048Y-21784170D02*
X3823571Y-21774646D01*
X3823571Y-21774646D02*
X3833095Y-21755598D01*
X3833095Y-21755598D02*
X3833095Y-21707979D01*
X3833095Y-21707979D02*
X3823571Y-21688932D01*
X3823571Y-21688932D02*
X3814048Y-21679408D01*
X3814048Y-21679408D02*
X3795000Y-21669884D01*
X3795000Y-21669884D02*
X3756905Y-21669884D01*
X3756905Y-21669884D02*
X3737857Y-21679408D01*
X3737857Y-21679408D02*
X3728333Y-21688932D01*
X3728333Y-21688932D02*
X3718809Y-21707979D01*
X3956905Y-21593693D02*
X3975952Y-21593693D01*
X3975952Y-21593693D02*
X3995000Y-21603217D01*
X3995000Y-21603217D02*
X4004524Y-21612741D01*
X4004524Y-21612741D02*
X4014048Y-21631789D01*
X4014048Y-21631789D02*
X4023571Y-21669884D01*
X4023571Y-21669884D02*
X4023571Y-21717503D01*
X4023571Y-21717503D02*
X4014048Y-21755598D01*
X4014048Y-21755598D02*
X4004524Y-21774646D01*
X4004524Y-21774646D02*
X3995000Y-21784170D01*
X3995000Y-21784170D02*
X3975952Y-21793693D01*
X3975952Y-21793693D02*
X3956905Y-21793693D01*
X3956905Y-21793693D02*
X3937857Y-21784170D01*
X3937857Y-21784170D02*
X3928333Y-21774646D01*
X3928333Y-21774646D02*
X3918809Y-21755598D01*
X3918809Y-21755598D02*
X3909286Y-21717503D01*
X3909286Y-21717503D02*
X3909286Y-21669884D01*
X3909286Y-21669884D02*
X3918809Y-21631789D01*
X3918809Y-21631789D02*
X3928333Y-21612741D01*
X3928333Y-21612741D02*
X3937857Y-21603217D01*
X3937857Y-21603217D02*
X3956905Y-21593693D01*
X4147381Y-21593693D02*
X4166429Y-21593693D01*
X4166429Y-21593693D02*
X4185476Y-21603217D01*
X4185476Y-21603217D02*
X4195000Y-21612741D01*
X4195000Y-21612741D02*
X4204524Y-21631789D01*
X4204524Y-21631789D02*
X4214048Y-21669884D01*
X4214048Y-21669884D02*
X4214048Y-21717503D01*
X4214048Y-21717503D02*
X4204524Y-21755598D01*
X4204524Y-21755598D02*
X4195000Y-21774646D01*
X4195000Y-21774646D02*
X4185476Y-21784170D01*
X4185476Y-21784170D02*
X4166429Y-21793693D01*
X4166429Y-21793693D02*
X4147381Y-21793693D01*
X4147381Y-21793693D02*
X4128333Y-21784170D01*
X4128333Y-21784170D02*
X4118809Y-21774646D01*
X4118809Y-21774646D02*
X4109286Y-21755598D01*
X4109286Y-21755598D02*
X4099762Y-21717503D01*
X4099762Y-21717503D02*
X4099762Y-21669884D01*
X4099762Y-21669884D02*
X4109286Y-21631789D01*
X4109286Y-21631789D02*
X4118809Y-21612741D01*
X4118809Y-21612741D02*
X4128333Y-21603217D01*
X4128333Y-21603217D02*
X4147381Y-21593693D01*
X4299762Y-21793693D02*
X4299762Y-21660360D01*
X4299762Y-21679408D02*
X4309286Y-21669884D01*
X4309286Y-21669884D02*
X4328333Y-21660360D01*
X4328333Y-21660360D02*
X4356905Y-21660360D01*
X4356905Y-21660360D02*
X4375952Y-21669884D01*
X4375952Y-21669884D02*
X4385476Y-21688932D01*
X4385476Y-21688932D02*
X4385476Y-21793693D01*
X4385476Y-21688932D02*
X4395000Y-21669884D01*
X4395000Y-21669884D02*
X4414048Y-21660360D01*
X4414048Y-21660360D02*
X4442619Y-21660360D01*
X4442619Y-21660360D02*
X4461667Y-21669884D01*
X4461667Y-21669884D02*
X4471191Y-21688932D01*
X4471191Y-21688932D02*
X4471191Y-21793693D01*
X4566429Y-21793693D02*
X4566429Y-21660360D01*
X4566429Y-21679408D02*
X4575952Y-21669884D01*
X4575952Y-21669884D02*
X4595000Y-21660360D01*
X4595000Y-21660360D02*
X4623572Y-21660360D01*
X4623572Y-21660360D02*
X4642619Y-21669884D01*
X4642619Y-21669884D02*
X4652143Y-21688932D01*
X4652143Y-21688932D02*
X4652143Y-21793693D01*
X4652143Y-21688932D02*
X4661667Y-21669884D01*
X4661667Y-21669884D02*
X4680714Y-21660360D01*
X4680714Y-21660360D02*
X4709286Y-21660360D01*
X4709286Y-21660360D02*
X4728333Y-21669884D01*
X4728333Y-21669884D02*
X4737857Y-21688932D01*
X4737857Y-21688932D02*
X4737857Y-21793693D01*
X5128333Y-21584170D02*
X4956905Y-21841312D01*
X5385476Y-21593693D02*
X5404524Y-21593693D01*
X5404524Y-21593693D02*
X5423572Y-21603217D01*
X5423572Y-21603217D02*
X5433095Y-21612741D01*
X5433095Y-21612741D02*
X5442619Y-21631789D01*
X5442619Y-21631789D02*
X5452143Y-21669884D01*
X5452143Y-21669884D02*
X5452143Y-21717503D01*
X5452143Y-21717503D02*
X5442619Y-21755598D01*
X5442619Y-21755598D02*
X5433095Y-21774646D01*
X5433095Y-21774646D02*
X5423572Y-21784170D01*
X5423572Y-21784170D02*
X5404524Y-21793693D01*
X5404524Y-21793693D02*
X5385476Y-21793693D01*
X5385476Y-21793693D02*
X5366429Y-21784170D01*
X5366429Y-21784170D02*
X5356905Y-21774646D01*
X5356905Y-21774646D02*
X5347381Y-21755598D01*
X5347381Y-21755598D02*
X5337857Y-21717503D01*
X5337857Y-21717503D02*
X5337857Y-21669884D01*
X5337857Y-21669884D02*
X5347381Y-21631789D01*
X5347381Y-21631789D02*
X5356905Y-21612741D01*
X5356905Y-21612741D02*
X5366429Y-21603217D01*
X5366429Y-21603217D02*
X5385476Y-21593693D01*
X5537857Y-21774646D02*
X5547381Y-21784170D01*
X5547381Y-21784170D02*
X5537857Y-21793693D01*
X5537857Y-21793693D02*
X5528334Y-21784170D01*
X5528334Y-21784170D02*
X5537857Y-21774646D01*
X5537857Y-21774646D02*
X5537857Y-21793693D01*
X5671191Y-21593693D02*
X5690238Y-21593693D01*
X5690238Y-21593693D02*
X5709286Y-21603217D01*
X5709286Y-21603217D02*
X5718810Y-21612741D01*
X5718810Y-21612741D02*
X5728333Y-21631789D01*
X5728333Y-21631789D02*
X5737857Y-21669884D01*
X5737857Y-21669884D02*
X5737857Y-21717503D01*
X5737857Y-21717503D02*
X5728333Y-21755598D01*
X5728333Y-21755598D02*
X5718810Y-21774646D01*
X5718810Y-21774646D02*
X5709286Y-21784170D01*
X5709286Y-21784170D02*
X5690238Y-21793693D01*
X5690238Y-21793693D02*
X5671191Y-21793693D01*
X5671191Y-21793693D02*
X5652143Y-21784170D01*
X5652143Y-21784170D02*
X5642619Y-21774646D01*
X5642619Y-21774646D02*
X5633095Y-21755598D01*
X5633095Y-21755598D02*
X5623572Y-21717503D01*
X5623572Y-21717503D02*
X5623572Y-21669884D01*
X5623572Y-21669884D02*
X5633095Y-21631789D01*
X5633095Y-21631789D02*
X5642619Y-21612741D01*
X5642619Y-21612741D02*
X5652143Y-21603217D01*
X5652143Y-21603217D02*
X5671191Y-21593693D01*
X5814048Y-21612741D02*
X5823572Y-21603217D01*
X5823572Y-21603217D02*
X5842619Y-21593693D01*
X5842619Y-21593693D02*
X5890238Y-21593693D01*
X5890238Y-21593693D02*
X5909286Y-21603217D01*
X5909286Y-21603217D02*
X5918810Y-21612741D01*
X5918810Y-21612741D02*
X5928333Y-21631789D01*
X5928333Y-21631789D02*
X5928333Y-21650836D01*
X5928333Y-21650836D02*
X5918810Y-21679408D01*
X5918810Y-21679408D02*
X5804524Y-21793693D01*
X5804524Y-21793693D02*
X5928333Y-21793693D01*
X5995000Y-21593693D02*
X6118810Y-21593693D01*
X6118810Y-21593693D02*
X6052143Y-21669884D01*
X6052143Y-21669884D02*
X6080714Y-21669884D01*
X6080714Y-21669884D02*
X6099762Y-21679408D01*
X6099762Y-21679408D02*
X6109286Y-21688932D01*
X6109286Y-21688932D02*
X6118810Y-21707979D01*
X6118810Y-21707979D02*
X6118810Y-21755598D01*
X6118810Y-21755598D02*
X6109286Y-21774646D01*
X6109286Y-21774646D02*
X6099762Y-21784170D01*
X6099762Y-21784170D02*
X6080714Y-21793693D01*
X6080714Y-21793693D02*
X6023572Y-21793693D01*
X6023572Y-21793693D02*
X6004524Y-21784170D01*
X6004524Y-21784170D02*
X5995000Y-21774646D01*
X6290238Y-21593693D02*
X6252143Y-21593693D01*
X6252143Y-21593693D02*
X6233095Y-21603217D01*
X6233095Y-21603217D02*
X6223572Y-21612741D01*
X6223572Y-21612741D02*
X6204524Y-21641312D01*
X6204524Y-21641312D02*
X6195000Y-21679408D01*
X6195000Y-21679408D02*
X6195000Y-21755598D01*
X6195000Y-21755598D02*
X6204524Y-21774646D01*
X6204524Y-21774646D02*
X6214048Y-21784170D01*
X6214048Y-21784170D02*
X6233095Y-21793693D01*
X6233095Y-21793693D02*
X6271191Y-21793693D01*
X6271191Y-21793693D02*
X6290238Y-21784170D01*
X6290238Y-21784170D02*
X6299762Y-21774646D01*
X6299762Y-21774646D02*
X6309286Y-21755598D01*
X6309286Y-21755598D02*
X6309286Y-21707979D01*
X6309286Y-21707979D02*
X6299762Y-21688932D01*
X6299762Y-21688932D02*
X6290238Y-21679408D01*
X6290238Y-21679408D02*
X6271191Y-21669884D01*
X6271191Y-21669884D02*
X6233095Y-21669884D01*
X6233095Y-21669884D02*
X6214048Y-21679408D01*
X6214048Y-21679408D02*
X6204524Y-21688932D01*
X6204524Y-21688932D02*
X6195000Y-21707979D01*
X6385476Y-21593693D02*
X6385476Y-21631789D01*
X6461667Y-21593693D02*
X6461667Y-21631789D01*
X6756905Y-21869884D02*
X6747381Y-21860360D01*
X6747381Y-21860360D02*
X6728334Y-21831789D01*
X6728334Y-21831789D02*
X6718810Y-21812741D01*
X6718810Y-21812741D02*
X6709286Y-21784170D01*
X6709286Y-21784170D02*
X6699762Y-21736551D01*
X6699762Y-21736551D02*
X6699762Y-21698455D01*
X6699762Y-21698455D02*
X6709286Y-21650836D01*
X6709286Y-21650836D02*
X6718810Y-21622265D01*
X6718810Y-21622265D02*
X6728334Y-21603217D01*
X6728334Y-21603217D02*
X6747381Y-21574646D01*
X6747381Y-21574646D02*
X6756905Y-21565122D01*
X6871191Y-21593693D02*
X6890238Y-21593693D01*
X6890238Y-21593693D02*
X6909286Y-21603217D01*
X6909286Y-21603217D02*
X6918810Y-21612741D01*
X6918810Y-21612741D02*
X6928334Y-21631789D01*
X6928334Y-21631789D02*
X6937857Y-21669884D01*
X6937857Y-21669884D02*
X6937857Y-21717503D01*
X6937857Y-21717503D02*
X6928334Y-21755598D01*
X6928334Y-21755598D02*
X6918810Y-21774646D01*
X6918810Y-21774646D02*
X6909286Y-21784170D01*
X6909286Y-21784170D02*
X6890238Y-21793693D01*
X6890238Y-21793693D02*
X6871191Y-21793693D01*
X6871191Y-21793693D02*
X6852143Y-21784170D01*
X6852143Y-21784170D02*
X6842619Y-21774646D01*
X6842619Y-21774646D02*
X6833095Y-21755598D01*
X6833095Y-21755598D02*
X6823572Y-21717503D01*
X6823572Y-21717503D02*
X6823572Y-21669884D01*
X6823572Y-21669884D02*
X6833095Y-21631789D01*
X6833095Y-21631789D02*
X6842619Y-21612741D01*
X6842619Y-21612741D02*
X6852143Y-21603217D01*
X6852143Y-21603217D02*
X6871191Y-21593693D01*
X7175953Y-21793693D02*
X7175953Y-21593693D01*
X7261667Y-21793693D02*
X7261667Y-21688932D01*
X7261667Y-21688932D02*
X7252143Y-21669884D01*
X7252143Y-21669884D02*
X7233096Y-21660360D01*
X7233096Y-21660360D02*
X7204524Y-21660360D01*
X7204524Y-21660360D02*
X7185476Y-21669884D01*
X7185476Y-21669884D02*
X7175953Y-21679408D01*
X7385476Y-21793693D02*
X7366429Y-21784170D01*
X7366429Y-21784170D02*
X7356905Y-21774646D01*
X7356905Y-21774646D02*
X7347381Y-21755598D01*
X7347381Y-21755598D02*
X7347381Y-21698455D01*
X7347381Y-21698455D02*
X7356905Y-21679408D01*
X7356905Y-21679408D02*
X7366429Y-21669884D01*
X7366429Y-21669884D02*
X7385476Y-21660360D01*
X7385476Y-21660360D02*
X7414048Y-21660360D01*
X7414048Y-21660360D02*
X7433096Y-21669884D01*
X7433096Y-21669884D02*
X7442619Y-21679408D01*
X7442619Y-21679408D02*
X7452143Y-21698455D01*
X7452143Y-21698455D02*
X7452143Y-21755598D01*
X7452143Y-21755598D02*
X7442619Y-21774646D01*
X7442619Y-21774646D02*
X7433096Y-21784170D01*
X7433096Y-21784170D02*
X7414048Y-21793693D01*
X7414048Y-21793693D02*
X7385476Y-21793693D01*
X7566429Y-21793693D02*
X7547381Y-21784170D01*
X7547381Y-21784170D02*
X7537857Y-21765122D01*
X7537857Y-21765122D02*
X7537857Y-21593693D01*
X7718810Y-21784170D02*
X7699762Y-21793693D01*
X7699762Y-21793693D02*
X7661667Y-21793693D01*
X7661667Y-21793693D02*
X7642619Y-21784170D01*
X7642619Y-21784170D02*
X7633096Y-21765122D01*
X7633096Y-21765122D02*
X7633096Y-21688932D01*
X7633096Y-21688932D02*
X7642619Y-21669884D01*
X7642619Y-21669884D02*
X7661667Y-21660360D01*
X7661667Y-21660360D02*
X7699762Y-21660360D01*
X7699762Y-21660360D02*
X7718810Y-21669884D01*
X7718810Y-21669884D02*
X7728334Y-21688932D01*
X7728334Y-21688932D02*
X7728334Y-21707979D01*
X7728334Y-21707979D02*
X7633096Y-21727027D01*
X7804524Y-21784170D02*
X7823572Y-21793693D01*
X7823572Y-21793693D02*
X7861667Y-21793693D01*
X7861667Y-21793693D02*
X7880715Y-21784170D01*
X7880715Y-21784170D02*
X7890238Y-21765122D01*
X7890238Y-21765122D02*
X7890238Y-21755598D01*
X7890238Y-21755598D02*
X7880715Y-21736551D01*
X7880715Y-21736551D02*
X7861667Y-21727027D01*
X7861667Y-21727027D02*
X7833096Y-21727027D01*
X7833096Y-21727027D02*
X7814048Y-21717503D01*
X7814048Y-21717503D02*
X7804524Y-21698455D01*
X7804524Y-21698455D02*
X7804524Y-21688932D01*
X7804524Y-21688932D02*
X7814048Y-21669884D01*
X7814048Y-21669884D02*
X7833096Y-21660360D01*
X7833096Y-21660360D02*
X7861667Y-21660360D01*
X7861667Y-21660360D02*
X7880715Y-21669884D01*
X8128334Y-21717503D02*
X8280715Y-21717503D01*
X8204524Y-21793693D02*
X8204524Y-21641312D01*
X8614048Y-21660360D02*
X8614048Y-21793693D01*
X8566429Y-21584170D02*
X8518810Y-21727027D01*
X8518810Y-21727027D02*
X8642620Y-21727027D01*
X8861667Y-21784170D02*
X8880715Y-21793693D01*
X8880715Y-21793693D02*
X8918810Y-21793693D01*
X8918810Y-21793693D02*
X8937858Y-21784170D01*
X8937858Y-21784170D02*
X8947382Y-21765122D01*
X8947382Y-21765122D02*
X8947382Y-21755598D01*
X8947382Y-21755598D02*
X8937858Y-21736551D01*
X8937858Y-21736551D02*
X8918810Y-21727027D01*
X8918810Y-21727027D02*
X8890239Y-21727027D01*
X8890239Y-21727027D02*
X8871191Y-21717503D01*
X8871191Y-21717503D02*
X8861667Y-21698455D01*
X8861667Y-21698455D02*
X8861667Y-21688932D01*
X8861667Y-21688932D02*
X8871191Y-21669884D01*
X8871191Y-21669884D02*
X8890239Y-21660360D01*
X8890239Y-21660360D02*
X8918810Y-21660360D01*
X8918810Y-21660360D02*
X8937858Y-21669884D01*
X9061667Y-21793693D02*
X9042620Y-21784170D01*
X9042620Y-21784170D02*
X9033096Y-21765122D01*
X9033096Y-21765122D02*
X9033096Y-21593693D01*
X9166429Y-21793693D02*
X9147382Y-21784170D01*
X9147382Y-21784170D02*
X9137858Y-21774646D01*
X9137858Y-21774646D02*
X9128334Y-21755598D01*
X9128334Y-21755598D02*
X9128334Y-21698455D01*
X9128334Y-21698455D02*
X9137858Y-21679408D01*
X9137858Y-21679408D02*
X9147382Y-21669884D01*
X9147382Y-21669884D02*
X9166429Y-21660360D01*
X9166429Y-21660360D02*
X9195001Y-21660360D01*
X9195001Y-21660360D02*
X9214048Y-21669884D01*
X9214048Y-21669884D02*
X9223572Y-21679408D01*
X9223572Y-21679408D02*
X9233096Y-21698455D01*
X9233096Y-21698455D02*
X9233096Y-21755598D01*
X9233096Y-21755598D02*
X9223572Y-21774646D01*
X9223572Y-21774646D02*
X9214048Y-21784170D01*
X9214048Y-21784170D02*
X9195001Y-21793693D01*
X9195001Y-21793693D02*
X9166429Y-21793693D01*
X9290239Y-21660360D02*
X9366429Y-21660360D01*
X9318810Y-21593693D02*
X9318810Y-21765122D01*
X9318810Y-21765122D02*
X9328334Y-21784170D01*
X9328334Y-21784170D02*
X9347382Y-21793693D01*
X9347382Y-21793693D02*
X9366429Y-21793693D01*
X9423572Y-21784170D02*
X9442620Y-21793693D01*
X9442620Y-21793693D02*
X9480715Y-21793693D01*
X9480715Y-21793693D02*
X9499763Y-21784170D01*
X9499763Y-21784170D02*
X9509286Y-21765122D01*
X9509286Y-21765122D02*
X9509286Y-21755598D01*
X9509286Y-21755598D02*
X9499763Y-21736551D01*
X9499763Y-21736551D02*
X9480715Y-21727027D01*
X9480715Y-21727027D02*
X9452143Y-21727027D01*
X9452143Y-21727027D02*
X9433096Y-21717503D01*
X9433096Y-21717503D02*
X9423572Y-21698455D01*
X9423572Y-21698455D02*
X9423572Y-21688932D01*
X9423572Y-21688932D02*
X9433096Y-21669884D01*
X9433096Y-21669884D02*
X9452143Y-21660360D01*
X9452143Y-21660360D02*
X9480715Y-21660360D01*
X9480715Y-21660360D02*
X9499763Y-21669884D01*
X9575953Y-21869884D02*
X9585477Y-21860360D01*
X9585477Y-21860360D02*
X9604524Y-21831789D01*
X9604524Y-21831789D02*
X9614048Y-21812741D01*
X9614048Y-21812741D02*
X9623572Y-21784170D01*
X9623572Y-21784170D02*
X9633096Y-21736551D01*
X9633096Y-21736551D02*
X9633096Y-21698455D01*
X9633096Y-21698455D02*
X9623572Y-21650836D01*
X9623572Y-21650836D02*
X9614048Y-21622265D01*
X9614048Y-21622265D02*
X9604524Y-21603217D01*
X9604524Y-21603217D02*
X9585477Y-21574646D01*
X9585477Y-21574646D02*
X9575953Y-21565122D01*
D17*
X3120000Y-21927670D02*
X3195000Y-22002670D01*
X3195000Y-21927670D02*
X3120000Y-22002670D01*
X3195000Y-21965170D02*
G75*
G03*
X3195000Y-21965170I-37500J0D01*
G01*
D11*
X3480714Y-21857693D02*
X3499762Y-21857693D01*
X3499762Y-21857693D02*
X3518809Y-21867217D01*
X3518809Y-21867217D02*
X3528333Y-21876741D01*
X3528333Y-21876741D02*
X3537857Y-21895789D01*
X3537857Y-21895789D02*
X3547381Y-21933884D01*
X3547381Y-21933884D02*
X3547381Y-21981503D01*
X3547381Y-21981503D02*
X3537857Y-22019598D01*
X3537857Y-22019598D02*
X3528333Y-22038646D01*
X3528333Y-22038646D02*
X3518809Y-22048170D01*
X3518809Y-22048170D02*
X3499762Y-22057693D01*
X3499762Y-22057693D02*
X3480714Y-22057693D01*
X3480714Y-22057693D02*
X3461667Y-22048170D01*
X3461667Y-22048170D02*
X3452143Y-22038646D01*
X3452143Y-22038646D02*
X3442619Y-22019598D01*
X3442619Y-22019598D02*
X3433095Y-21981503D01*
X3433095Y-21981503D02*
X3433095Y-21933884D01*
X3433095Y-21933884D02*
X3442619Y-21895789D01*
X3442619Y-21895789D02*
X3452143Y-21876741D01*
X3452143Y-21876741D02*
X3461667Y-21867217D01*
X3461667Y-21867217D02*
X3480714Y-21857693D01*
X3633095Y-22038646D02*
X3642619Y-22048170D01*
X3642619Y-22048170D02*
X3633095Y-22057693D01*
X3633095Y-22057693D02*
X3623571Y-22048170D01*
X3623571Y-22048170D02*
X3633095Y-22038646D01*
X3633095Y-22038646D02*
X3633095Y-22057693D01*
X3709286Y-21857693D02*
X3842619Y-21857693D01*
X3842619Y-21857693D02*
X3756905Y-22057693D01*
X4014048Y-21857693D02*
X3918809Y-21857693D01*
X3918809Y-21857693D02*
X3909286Y-21952932D01*
X3909286Y-21952932D02*
X3918809Y-21943408D01*
X3918809Y-21943408D02*
X3937857Y-21933884D01*
X3937857Y-21933884D02*
X3985476Y-21933884D01*
X3985476Y-21933884D02*
X4004524Y-21943408D01*
X4004524Y-21943408D02*
X4014048Y-21952932D01*
X4014048Y-21952932D02*
X4023571Y-21971979D01*
X4023571Y-21971979D02*
X4023571Y-22019598D01*
X4023571Y-22019598D02*
X4014048Y-22038646D01*
X4014048Y-22038646D02*
X4004524Y-22048170D01*
X4004524Y-22048170D02*
X3985476Y-22057693D01*
X3985476Y-22057693D02*
X3937857Y-22057693D01*
X3937857Y-22057693D02*
X3918809Y-22048170D01*
X3918809Y-22048170D02*
X3909286Y-22038646D01*
X4147381Y-21857693D02*
X4166429Y-21857693D01*
X4166429Y-21857693D02*
X4185476Y-21867217D01*
X4185476Y-21867217D02*
X4195000Y-21876741D01*
X4195000Y-21876741D02*
X4204524Y-21895789D01*
X4204524Y-21895789D02*
X4214048Y-21933884D01*
X4214048Y-21933884D02*
X4214048Y-21981503D01*
X4214048Y-21981503D02*
X4204524Y-22019598D01*
X4204524Y-22019598D02*
X4195000Y-22038646D01*
X4195000Y-22038646D02*
X4185476Y-22048170D01*
X4185476Y-22048170D02*
X4166429Y-22057693D01*
X4166429Y-22057693D02*
X4147381Y-22057693D01*
X4147381Y-22057693D02*
X4128333Y-22048170D01*
X4128333Y-22048170D02*
X4118809Y-22038646D01*
X4118809Y-22038646D02*
X4109286Y-22019598D01*
X4109286Y-22019598D02*
X4099762Y-21981503D01*
X4099762Y-21981503D02*
X4099762Y-21933884D01*
X4099762Y-21933884D02*
X4109286Y-21895789D01*
X4109286Y-21895789D02*
X4118809Y-21876741D01*
X4118809Y-21876741D02*
X4128333Y-21867217D01*
X4128333Y-21867217D02*
X4147381Y-21857693D01*
X4299762Y-22057693D02*
X4299762Y-21924360D01*
X4299762Y-21943408D02*
X4309286Y-21933884D01*
X4309286Y-21933884D02*
X4328333Y-21924360D01*
X4328333Y-21924360D02*
X4356905Y-21924360D01*
X4356905Y-21924360D02*
X4375952Y-21933884D01*
X4375952Y-21933884D02*
X4385476Y-21952932D01*
X4385476Y-21952932D02*
X4385476Y-22057693D01*
X4385476Y-21952932D02*
X4395000Y-21933884D01*
X4395000Y-21933884D02*
X4414048Y-21924360D01*
X4414048Y-21924360D02*
X4442619Y-21924360D01*
X4442619Y-21924360D02*
X4461667Y-21933884D01*
X4461667Y-21933884D02*
X4471191Y-21952932D01*
X4471191Y-21952932D02*
X4471191Y-22057693D01*
X4566429Y-22057693D02*
X4566429Y-21924360D01*
X4566429Y-21943408D02*
X4575952Y-21933884D01*
X4575952Y-21933884D02*
X4595000Y-21924360D01*
X4595000Y-21924360D02*
X4623572Y-21924360D01*
X4623572Y-21924360D02*
X4642619Y-21933884D01*
X4642619Y-21933884D02*
X4652143Y-21952932D01*
X4652143Y-21952932D02*
X4652143Y-22057693D01*
X4652143Y-21952932D02*
X4661667Y-21933884D01*
X4661667Y-21933884D02*
X4680714Y-21924360D01*
X4680714Y-21924360D02*
X4709286Y-21924360D01*
X4709286Y-21924360D02*
X4728333Y-21933884D01*
X4728333Y-21933884D02*
X4737857Y-21952932D01*
X4737857Y-21952932D02*
X4737857Y-22057693D01*
X5128333Y-21848170D02*
X4956905Y-22105312D01*
X5385476Y-21857693D02*
X5404524Y-21857693D01*
X5404524Y-21857693D02*
X5423572Y-21867217D01*
X5423572Y-21867217D02*
X5433095Y-21876741D01*
X5433095Y-21876741D02*
X5442619Y-21895789D01*
X5442619Y-21895789D02*
X5452143Y-21933884D01*
X5452143Y-21933884D02*
X5452143Y-21981503D01*
X5452143Y-21981503D02*
X5442619Y-22019598D01*
X5442619Y-22019598D02*
X5433095Y-22038646D01*
X5433095Y-22038646D02*
X5423572Y-22048170D01*
X5423572Y-22048170D02*
X5404524Y-22057693D01*
X5404524Y-22057693D02*
X5385476Y-22057693D01*
X5385476Y-22057693D02*
X5366429Y-22048170D01*
X5366429Y-22048170D02*
X5356905Y-22038646D01*
X5356905Y-22038646D02*
X5347381Y-22019598D01*
X5347381Y-22019598D02*
X5337857Y-21981503D01*
X5337857Y-21981503D02*
X5337857Y-21933884D01*
X5337857Y-21933884D02*
X5347381Y-21895789D01*
X5347381Y-21895789D02*
X5356905Y-21876741D01*
X5356905Y-21876741D02*
X5366429Y-21867217D01*
X5366429Y-21867217D02*
X5385476Y-21857693D01*
X5537857Y-22038646D02*
X5547381Y-22048170D01*
X5547381Y-22048170D02*
X5537857Y-22057693D01*
X5537857Y-22057693D02*
X5528334Y-22048170D01*
X5528334Y-22048170D02*
X5537857Y-22038646D01*
X5537857Y-22038646D02*
X5537857Y-22057693D01*
X5671191Y-21857693D02*
X5690238Y-21857693D01*
X5690238Y-21857693D02*
X5709286Y-21867217D01*
X5709286Y-21867217D02*
X5718810Y-21876741D01*
X5718810Y-21876741D02*
X5728333Y-21895789D01*
X5728333Y-21895789D02*
X5737857Y-21933884D01*
X5737857Y-21933884D02*
X5737857Y-21981503D01*
X5737857Y-21981503D02*
X5728333Y-22019598D01*
X5728333Y-22019598D02*
X5718810Y-22038646D01*
X5718810Y-22038646D02*
X5709286Y-22048170D01*
X5709286Y-22048170D02*
X5690238Y-22057693D01*
X5690238Y-22057693D02*
X5671191Y-22057693D01*
X5671191Y-22057693D02*
X5652143Y-22048170D01*
X5652143Y-22048170D02*
X5642619Y-22038646D01*
X5642619Y-22038646D02*
X5633095Y-22019598D01*
X5633095Y-22019598D02*
X5623572Y-21981503D01*
X5623572Y-21981503D02*
X5623572Y-21933884D01*
X5623572Y-21933884D02*
X5633095Y-21895789D01*
X5633095Y-21895789D02*
X5642619Y-21876741D01*
X5642619Y-21876741D02*
X5652143Y-21867217D01*
X5652143Y-21867217D02*
X5671191Y-21857693D01*
X5814048Y-21876741D02*
X5823572Y-21867217D01*
X5823572Y-21867217D02*
X5842619Y-21857693D01*
X5842619Y-21857693D02*
X5890238Y-21857693D01*
X5890238Y-21857693D02*
X5909286Y-21867217D01*
X5909286Y-21867217D02*
X5918810Y-21876741D01*
X5918810Y-21876741D02*
X5928333Y-21895789D01*
X5928333Y-21895789D02*
X5928333Y-21914836D01*
X5928333Y-21914836D02*
X5918810Y-21943408D01*
X5918810Y-21943408D02*
X5804524Y-22057693D01*
X5804524Y-22057693D02*
X5928333Y-22057693D01*
X6023572Y-22057693D02*
X6061667Y-22057693D01*
X6061667Y-22057693D02*
X6080714Y-22048170D01*
X6080714Y-22048170D02*
X6090238Y-22038646D01*
X6090238Y-22038646D02*
X6109286Y-22010074D01*
X6109286Y-22010074D02*
X6118810Y-21971979D01*
X6118810Y-21971979D02*
X6118810Y-21895789D01*
X6118810Y-21895789D02*
X6109286Y-21876741D01*
X6109286Y-21876741D02*
X6099762Y-21867217D01*
X6099762Y-21867217D02*
X6080714Y-21857693D01*
X6080714Y-21857693D02*
X6042619Y-21857693D01*
X6042619Y-21857693D02*
X6023572Y-21867217D01*
X6023572Y-21867217D02*
X6014048Y-21876741D01*
X6014048Y-21876741D02*
X6004524Y-21895789D01*
X6004524Y-21895789D02*
X6004524Y-21943408D01*
X6004524Y-21943408D02*
X6014048Y-21962455D01*
X6014048Y-21962455D02*
X6023572Y-21971979D01*
X6023572Y-21971979D02*
X6042619Y-21981503D01*
X6042619Y-21981503D02*
X6080714Y-21981503D01*
X6080714Y-21981503D02*
X6099762Y-21971979D01*
X6099762Y-21971979D02*
X6109286Y-21962455D01*
X6109286Y-21962455D02*
X6118810Y-21943408D01*
X6299762Y-21857693D02*
X6204524Y-21857693D01*
X6204524Y-21857693D02*
X6195000Y-21952932D01*
X6195000Y-21952932D02*
X6204524Y-21943408D01*
X6204524Y-21943408D02*
X6223572Y-21933884D01*
X6223572Y-21933884D02*
X6271191Y-21933884D01*
X6271191Y-21933884D02*
X6290238Y-21943408D01*
X6290238Y-21943408D02*
X6299762Y-21952932D01*
X6299762Y-21952932D02*
X6309286Y-21971979D01*
X6309286Y-21971979D02*
X6309286Y-22019598D01*
X6309286Y-22019598D02*
X6299762Y-22038646D01*
X6299762Y-22038646D02*
X6290238Y-22048170D01*
X6290238Y-22048170D02*
X6271191Y-22057693D01*
X6271191Y-22057693D02*
X6223572Y-22057693D01*
X6223572Y-22057693D02*
X6204524Y-22048170D01*
X6204524Y-22048170D02*
X6195000Y-22038646D01*
X6385476Y-21857693D02*
X6385476Y-21895789D01*
X6461667Y-21857693D02*
X6461667Y-21895789D01*
X6756905Y-22133884D02*
X6747381Y-22124360D01*
X6747381Y-22124360D02*
X6728334Y-22095789D01*
X6728334Y-22095789D02*
X6718810Y-22076741D01*
X6718810Y-22076741D02*
X6709286Y-22048170D01*
X6709286Y-22048170D02*
X6699762Y-22000551D01*
X6699762Y-22000551D02*
X6699762Y-21962455D01*
X6699762Y-21962455D02*
X6709286Y-21914836D01*
X6709286Y-21914836D02*
X6718810Y-21886265D01*
X6718810Y-21886265D02*
X6728334Y-21867217D01*
X6728334Y-21867217D02*
X6747381Y-21838646D01*
X6747381Y-21838646D02*
X6756905Y-21829122D01*
X6823572Y-21876741D02*
X6833095Y-21867217D01*
X6833095Y-21867217D02*
X6852143Y-21857693D01*
X6852143Y-21857693D02*
X6899762Y-21857693D01*
X6899762Y-21857693D02*
X6918810Y-21867217D01*
X6918810Y-21867217D02*
X6928334Y-21876741D01*
X6928334Y-21876741D02*
X6937857Y-21895789D01*
X6937857Y-21895789D02*
X6937857Y-21914836D01*
X6937857Y-21914836D02*
X6928334Y-21943408D01*
X6928334Y-21943408D02*
X6814048Y-22057693D01*
X6814048Y-22057693D02*
X6937857Y-22057693D01*
X7175953Y-22057693D02*
X7175953Y-21857693D01*
X7261667Y-22057693D02*
X7261667Y-21952932D01*
X7261667Y-21952932D02*
X7252143Y-21933884D01*
X7252143Y-21933884D02*
X7233096Y-21924360D01*
X7233096Y-21924360D02*
X7204524Y-21924360D01*
X7204524Y-21924360D02*
X7185476Y-21933884D01*
X7185476Y-21933884D02*
X7175953Y-21943408D01*
X7385476Y-22057693D02*
X7366429Y-22048170D01*
X7366429Y-22048170D02*
X7356905Y-22038646D01*
X7356905Y-22038646D02*
X7347381Y-22019598D01*
X7347381Y-22019598D02*
X7347381Y-21962455D01*
X7347381Y-21962455D02*
X7356905Y-21943408D01*
X7356905Y-21943408D02*
X7366429Y-21933884D01*
X7366429Y-21933884D02*
X7385476Y-21924360D01*
X7385476Y-21924360D02*
X7414048Y-21924360D01*
X7414048Y-21924360D02*
X7433096Y-21933884D01*
X7433096Y-21933884D02*
X7442619Y-21943408D01*
X7442619Y-21943408D02*
X7452143Y-21962455D01*
X7452143Y-21962455D02*
X7452143Y-22019598D01*
X7452143Y-22019598D02*
X7442619Y-22038646D01*
X7442619Y-22038646D02*
X7433096Y-22048170D01*
X7433096Y-22048170D02*
X7414048Y-22057693D01*
X7414048Y-22057693D02*
X7385476Y-22057693D01*
X7566429Y-22057693D02*
X7547381Y-22048170D01*
X7547381Y-22048170D02*
X7537857Y-22029122D01*
X7537857Y-22029122D02*
X7537857Y-21857693D01*
X7718810Y-22048170D02*
X7699762Y-22057693D01*
X7699762Y-22057693D02*
X7661667Y-22057693D01*
X7661667Y-22057693D02*
X7642619Y-22048170D01*
X7642619Y-22048170D02*
X7633096Y-22029122D01*
X7633096Y-22029122D02*
X7633096Y-21952932D01*
X7633096Y-21952932D02*
X7642619Y-21933884D01*
X7642619Y-21933884D02*
X7661667Y-21924360D01*
X7661667Y-21924360D02*
X7699762Y-21924360D01*
X7699762Y-21924360D02*
X7718810Y-21933884D01*
X7718810Y-21933884D02*
X7728334Y-21952932D01*
X7728334Y-21952932D02*
X7728334Y-21971979D01*
X7728334Y-21971979D02*
X7633096Y-21991027D01*
X7804524Y-22048170D02*
X7823572Y-22057693D01*
X7823572Y-22057693D02*
X7861667Y-22057693D01*
X7861667Y-22057693D02*
X7880715Y-22048170D01*
X7880715Y-22048170D02*
X7890238Y-22029122D01*
X7890238Y-22029122D02*
X7890238Y-22019598D01*
X7890238Y-22019598D02*
X7880715Y-22000551D01*
X7880715Y-22000551D02*
X7861667Y-21991027D01*
X7861667Y-21991027D02*
X7833096Y-21991027D01*
X7833096Y-21991027D02*
X7814048Y-21981503D01*
X7814048Y-21981503D02*
X7804524Y-21962455D01*
X7804524Y-21962455D02*
X7804524Y-21952932D01*
X7804524Y-21952932D02*
X7814048Y-21933884D01*
X7814048Y-21933884D02*
X7833096Y-21924360D01*
X7833096Y-21924360D02*
X7861667Y-21924360D01*
X7861667Y-21924360D02*
X7880715Y-21933884D01*
X7956905Y-22133884D02*
X7966429Y-22124360D01*
X7966429Y-22124360D02*
X7985477Y-22095789D01*
X7985477Y-22095789D02*
X7995000Y-22076741D01*
X7995000Y-22076741D02*
X8004524Y-22048170D01*
X8004524Y-22048170D02*
X8014048Y-22000551D01*
X8014048Y-22000551D02*
X8014048Y-21962455D01*
X8014048Y-21962455D02*
X8004524Y-21914836D01*
X8004524Y-21914836D02*
X7995000Y-21886265D01*
X7995000Y-21886265D02*
X7985477Y-21867217D01*
X7985477Y-21867217D02*
X7966429Y-21838646D01*
X7966429Y-21838646D02*
X7956905Y-21829122D01*
D18*
X3118800Y-22191070D02*
X3195000Y-22267270D01*
X3195000Y-22191070D02*
X3118800Y-22267270D01*
X3156900Y-22191070D02*
X3156900Y-22267270D01*
X3118800Y-22229170D02*
X3195000Y-22229170D01*
D11*
X3480714Y-22121693D02*
X3499762Y-22121693D01*
X3499762Y-22121693D02*
X3518809Y-22131217D01*
X3518809Y-22131217D02*
X3528333Y-22140741D01*
X3528333Y-22140741D02*
X3537857Y-22159789D01*
X3537857Y-22159789D02*
X3547381Y-22197884D01*
X3547381Y-22197884D02*
X3547381Y-22245503D01*
X3547381Y-22245503D02*
X3537857Y-22283598D01*
X3537857Y-22283598D02*
X3528333Y-22302646D01*
X3528333Y-22302646D02*
X3518809Y-22312170D01*
X3518809Y-22312170D02*
X3499762Y-22321693D01*
X3499762Y-22321693D02*
X3480714Y-22321693D01*
X3480714Y-22321693D02*
X3461667Y-22312170D01*
X3461667Y-22312170D02*
X3452143Y-22302646D01*
X3452143Y-22302646D02*
X3442619Y-22283598D01*
X3442619Y-22283598D02*
X3433095Y-22245503D01*
X3433095Y-22245503D02*
X3433095Y-22197884D01*
X3433095Y-22197884D02*
X3442619Y-22159789D01*
X3442619Y-22159789D02*
X3452143Y-22140741D01*
X3452143Y-22140741D02*
X3461667Y-22131217D01*
X3461667Y-22131217D02*
X3480714Y-22121693D01*
X3633095Y-22302646D02*
X3642619Y-22312170D01*
X3642619Y-22312170D02*
X3633095Y-22321693D01*
X3633095Y-22321693D02*
X3623571Y-22312170D01*
X3623571Y-22312170D02*
X3633095Y-22302646D01*
X3633095Y-22302646D02*
X3633095Y-22321693D01*
X3709286Y-22121693D02*
X3842619Y-22121693D01*
X3842619Y-22121693D02*
X3756905Y-22321693D01*
X4004524Y-22121693D02*
X3966428Y-22121693D01*
X3966428Y-22121693D02*
X3947381Y-22131217D01*
X3947381Y-22131217D02*
X3937857Y-22140741D01*
X3937857Y-22140741D02*
X3918809Y-22169312D01*
X3918809Y-22169312D02*
X3909286Y-22207408D01*
X3909286Y-22207408D02*
X3909286Y-22283598D01*
X3909286Y-22283598D02*
X3918809Y-22302646D01*
X3918809Y-22302646D02*
X3928333Y-22312170D01*
X3928333Y-22312170D02*
X3947381Y-22321693D01*
X3947381Y-22321693D02*
X3985476Y-22321693D01*
X3985476Y-22321693D02*
X4004524Y-22312170D01*
X4004524Y-22312170D02*
X4014048Y-22302646D01*
X4014048Y-22302646D02*
X4023571Y-22283598D01*
X4023571Y-22283598D02*
X4023571Y-22235979D01*
X4023571Y-22235979D02*
X4014048Y-22216932D01*
X4014048Y-22216932D02*
X4004524Y-22207408D01*
X4004524Y-22207408D02*
X3985476Y-22197884D01*
X3985476Y-22197884D02*
X3947381Y-22197884D01*
X3947381Y-22197884D02*
X3928333Y-22207408D01*
X3928333Y-22207408D02*
X3918809Y-22216932D01*
X3918809Y-22216932D02*
X3909286Y-22235979D01*
X4099762Y-22140741D02*
X4109286Y-22131217D01*
X4109286Y-22131217D02*
X4128333Y-22121693D01*
X4128333Y-22121693D02*
X4175952Y-22121693D01*
X4175952Y-22121693D02*
X4195000Y-22131217D01*
X4195000Y-22131217D02*
X4204524Y-22140741D01*
X4204524Y-22140741D02*
X4214048Y-22159789D01*
X4214048Y-22159789D02*
X4214048Y-22178836D01*
X4214048Y-22178836D02*
X4204524Y-22207408D01*
X4204524Y-22207408D02*
X4090238Y-22321693D01*
X4090238Y-22321693D02*
X4214048Y-22321693D01*
X4299762Y-22321693D02*
X4299762Y-22188360D01*
X4299762Y-22207408D02*
X4309286Y-22197884D01*
X4309286Y-22197884D02*
X4328333Y-22188360D01*
X4328333Y-22188360D02*
X4356905Y-22188360D01*
X4356905Y-22188360D02*
X4375952Y-22197884D01*
X4375952Y-22197884D02*
X4385476Y-22216932D01*
X4385476Y-22216932D02*
X4385476Y-22321693D01*
X4385476Y-22216932D02*
X4395000Y-22197884D01*
X4395000Y-22197884D02*
X4414048Y-22188360D01*
X4414048Y-22188360D02*
X4442619Y-22188360D01*
X4442619Y-22188360D02*
X4461667Y-22197884D01*
X4461667Y-22197884D02*
X4471191Y-22216932D01*
X4471191Y-22216932D02*
X4471191Y-22321693D01*
X4566429Y-22321693D02*
X4566429Y-22188360D01*
X4566429Y-22207408D02*
X4575952Y-22197884D01*
X4575952Y-22197884D02*
X4595000Y-22188360D01*
X4595000Y-22188360D02*
X4623572Y-22188360D01*
X4623572Y-22188360D02*
X4642619Y-22197884D01*
X4642619Y-22197884D02*
X4652143Y-22216932D01*
X4652143Y-22216932D02*
X4652143Y-22321693D01*
X4652143Y-22216932D02*
X4661667Y-22197884D01*
X4661667Y-22197884D02*
X4680714Y-22188360D01*
X4680714Y-22188360D02*
X4709286Y-22188360D01*
X4709286Y-22188360D02*
X4728333Y-22197884D01*
X4728333Y-22197884D02*
X4737857Y-22216932D01*
X4737857Y-22216932D02*
X4737857Y-22321693D01*
X5128333Y-22112170D02*
X4956905Y-22369312D01*
X5385476Y-22121693D02*
X5404524Y-22121693D01*
X5404524Y-22121693D02*
X5423572Y-22131217D01*
X5423572Y-22131217D02*
X5433095Y-22140741D01*
X5433095Y-22140741D02*
X5442619Y-22159789D01*
X5442619Y-22159789D02*
X5452143Y-22197884D01*
X5452143Y-22197884D02*
X5452143Y-22245503D01*
X5452143Y-22245503D02*
X5442619Y-22283598D01*
X5442619Y-22283598D02*
X5433095Y-22302646D01*
X5433095Y-22302646D02*
X5423572Y-22312170D01*
X5423572Y-22312170D02*
X5404524Y-22321693D01*
X5404524Y-22321693D02*
X5385476Y-22321693D01*
X5385476Y-22321693D02*
X5366429Y-22312170D01*
X5366429Y-22312170D02*
X5356905Y-22302646D01*
X5356905Y-22302646D02*
X5347381Y-22283598D01*
X5347381Y-22283598D02*
X5337857Y-22245503D01*
X5337857Y-22245503D02*
X5337857Y-22197884D01*
X5337857Y-22197884D02*
X5347381Y-22159789D01*
X5347381Y-22159789D02*
X5356905Y-22140741D01*
X5356905Y-22140741D02*
X5366429Y-22131217D01*
X5366429Y-22131217D02*
X5385476Y-22121693D01*
X5537857Y-22302646D02*
X5547381Y-22312170D01*
X5547381Y-22312170D02*
X5537857Y-22321693D01*
X5537857Y-22321693D02*
X5528334Y-22312170D01*
X5528334Y-22312170D02*
X5537857Y-22302646D01*
X5537857Y-22302646D02*
X5537857Y-22321693D01*
X5671191Y-22121693D02*
X5690238Y-22121693D01*
X5690238Y-22121693D02*
X5709286Y-22131217D01*
X5709286Y-22131217D02*
X5718810Y-22140741D01*
X5718810Y-22140741D02*
X5728333Y-22159789D01*
X5728333Y-22159789D02*
X5737857Y-22197884D01*
X5737857Y-22197884D02*
X5737857Y-22245503D01*
X5737857Y-22245503D02*
X5728333Y-22283598D01*
X5728333Y-22283598D02*
X5718810Y-22302646D01*
X5718810Y-22302646D02*
X5709286Y-22312170D01*
X5709286Y-22312170D02*
X5690238Y-22321693D01*
X5690238Y-22321693D02*
X5671191Y-22321693D01*
X5671191Y-22321693D02*
X5652143Y-22312170D01*
X5652143Y-22312170D02*
X5642619Y-22302646D01*
X5642619Y-22302646D02*
X5633095Y-22283598D01*
X5633095Y-22283598D02*
X5623572Y-22245503D01*
X5623572Y-22245503D02*
X5623572Y-22197884D01*
X5623572Y-22197884D02*
X5633095Y-22159789D01*
X5633095Y-22159789D02*
X5642619Y-22140741D01*
X5642619Y-22140741D02*
X5652143Y-22131217D01*
X5652143Y-22131217D02*
X5671191Y-22121693D01*
X5804524Y-22121693D02*
X5928333Y-22121693D01*
X5928333Y-22121693D02*
X5861667Y-22197884D01*
X5861667Y-22197884D02*
X5890238Y-22197884D01*
X5890238Y-22197884D02*
X5909286Y-22207408D01*
X5909286Y-22207408D02*
X5918810Y-22216932D01*
X5918810Y-22216932D02*
X5928333Y-22235979D01*
X5928333Y-22235979D02*
X5928333Y-22283598D01*
X5928333Y-22283598D02*
X5918810Y-22302646D01*
X5918810Y-22302646D02*
X5909286Y-22312170D01*
X5909286Y-22312170D02*
X5890238Y-22321693D01*
X5890238Y-22321693D02*
X5833095Y-22321693D01*
X5833095Y-22321693D02*
X5814048Y-22312170D01*
X5814048Y-22312170D02*
X5804524Y-22302646D01*
X6052143Y-22121693D02*
X6071191Y-22121693D01*
X6071191Y-22121693D02*
X6090238Y-22131217D01*
X6090238Y-22131217D02*
X6099762Y-22140741D01*
X6099762Y-22140741D02*
X6109286Y-22159789D01*
X6109286Y-22159789D02*
X6118810Y-22197884D01*
X6118810Y-22197884D02*
X6118810Y-22245503D01*
X6118810Y-22245503D02*
X6109286Y-22283598D01*
X6109286Y-22283598D02*
X6099762Y-22302646D01*
X6099762Y-22302646D02*
X6090238Y-22312170D01*
X6090238Y-22312170D02*
X6071191Y-22321693D01*
X6071191Y-22321693D02*
X6052143Y-22321693D01*
X6052143Y-22321693D02*
X6033095Y-22312170D01*
X6033095Y-22312170D02*
X6023572Y-22302646D01*
X6023572Y-22302646D02*
X6014048Y-22283598D01*
X6014048Y-22283598D02*
X6004524Y-22245503D01*
X6004524Y-22245503D02*
X6004524Y-22197884D01*
X6004524Y-22197884D02*
X6014048Y-22159789D01*
X6014048Y-22159789D02*
X6023572Y-22140741D01*
X6023572Y-22140741D02*
X6033095Y-22131217D01*
X6033095Y-22131217D02*
X6052143Y-22121693D01*
X6242619Y-22121693D02*
X6261667Y-22121693D01*
X6261667Y-22121693D02*
X6280714Y-22131217D01*
X6280714Y-22131217D02*
X6290238Y-22140741D01*
X6290238Y-22140741D02*
X6299762Y-22159789D01*
X6299762Y-22159789D02*
X6309286Y-22197884D01*
X6309286Y-22197884D02*
X6309286Y-22245503D01*
X6309286Y-22245503D02*
X6299762Y-22283598D01*
X6299762Y-22283598D02*
X6290238Y-22302646D01*
X6290238Y-22302646D02*
X6280714Y-22312170D01*
X6280714Y-22312170D02*
X6261667Y-22321693D01*
X6261667Y-22321693D02*
X6242619Y-22321693D01*
X6242619Y-22321693D02*
X6223572Y-22312170D01*
X6223572Y-22312170D02*
X6214048Y-22302646D01*
X6214048Y-22302646D02*
X6204524Y-22283598D01*
X6204524Y-22283598D02*
X6195000Y-22245503D01*
X6195000Y-22245503D02*
X6195000Y-22197884D01*
X6195000Y-22197884D02*
X6204524Y-22159789D01*
X6204524Y-22159789D02*
X6214048Y-22140741D01*
X6214048Y-22140741D02*
X6223572Y-22131217D01*
X6223572Y-22131217D02*
X6242619Y-22121693D01*
X6385476Y-22121693D02*
X6385476Y-22159789D01*
X6461667Y-22121693D02*
X6461667Y-22159789D01*
X6756905Y-22397884D02*
X6747381Y-22388360D01*
X6747381Y-22388360D02*
X6728334Y-22359789D01*
X6728334Y-22359789D02*
X6718810Y-22340741D01*
X6718810Y-22340741D02*
X6709286Y-22312170D01*
X6709286Y-22312170D02*
X6699762Y-22264551D01*
X6699762Y-22264551D02*
X6699762Y-22226455D01*
X6699762Y-22226455D02*
X6709286Y-22178836D01*
X6709286Y-22178836D02*
X6718810Y-22150265D01*
X6718810Y-22150265D02*
X6728334Y-22131217D01*
X6728334Y-22131217D02*
X6747381Y-22102646D01*
X6747381Y-22102646D02*
X6756905Y-22093122D01*
X6823572Y-22140741D02*
X6833095Y-22131217D01*
X6833095Y-22131217D02*
X6852143Y-22121693D01*
X6852143Y-22121693D02*
X6899762Y-22121693D01*
X6899762Y-22121693D02*
X6918810Y-22131217D01*
X6918810Y-22131217D02*
X6928334Y-22140741D01*
X6928334Y-22140741D02*
X6937857Y-22159789D01*
X6937857Y-22159789D02*
X6937857Y-22178836D01*
X6937857Y-22178836D02*
X6928334Y-22207408D01*
X6928334Y-22207408D02*
X6814048Y-22321693D01*
X6814048Y-22321693D02*
X6937857Y-22321693D01*
X7175953Y-22321693D02*
X7175953Y-22121693D01*
X7261667Y-22321693D02*
X7261667Y-22216932D01*
X7261667Y-22216932D02*
X7252143Y-22197884D01*
X7252143Y-22197884D02*
X7233096Y-22188360D01*
X7233096Y-22188360D02*
X7204524Y-22188360D01*
X7204524Y-22188360D02*
X7185476Y-22197884D01*
X7185476Y-22197884D02*
X7175953Y-22207408D01*
X7385476Y-22321693D02*
X7366429Y-22312170D01*
X7366429Y-22312170D02*
X7356905Y-22302646D01*
X7356905Y-22302646D02*
X7347381Y-22283598D01*
X7347381Y-22283598D02*
X7347381Y-22226455D01*
X7347381Y-22226455D02*
X7356905Y-22207408D01*
X7356905Y-22207408D02*
X7366429Y-22197884D01*
X7366429Y-22197884D02*
X7385476Y-22188360D01*
X7385476Y-22188360D02*
X7414048Y-22188360D01*
X7414048Y-22188360D02*
X7433096Y-22197884D01*
X7433096Y-22197884D02*
X7442619Y-22207408D01*
X7442619Y-22207408D02*
X7452143Y-22226455D01*
X7452143Y-22226455D02*
X7452143Y-22283598D01*
X7452143Y-22283598D02*
X7442619Y-22302646D01*
X7442619Y-22302646D02*
X7433096Y-22312170D01*
X7433096Y-22312170D02*
X7414048Y-22321693D01*
X7414048Y-22321693D02*
X7385476Y-22321693D01*
X7566429Y-22321693D02*
X7547381Y-22312170D01*
X7547381Y-22312170D02*
X7537857Y-22293122D01*
X7537857Y-22293122D02*
X7537857Y-22121693D01*
X7718810Y-22312170D02*
X7699762Y-22321693D01*
X7699762Y-22321693D02*
X7661667Y-22321693D01*
X7661667Y-22321693D02*
X7642619Y-22312170D01*
X7642619Y-22312170D02*
X7633096Y-22293122D01*
X7633096Y-22293122D02*
X7633096Y-22216932D01*
X7633096Y-22216932D02*
X7642619Y-22197884D01*
X7642619Y-22197884D02*
X7661667Y-22188360D01*
X7661667Y-22188360D02*
X7699762Y-22188360D01*
X7699762Y-22188360D02*
X7718810Y-22197884D01*
X7718810Y-22197884D02*
X7728334Y-22216932D01*
X7728334Y-22216932D02*
X7728334Y-22235979D01*
X7728334Y-22235979D02*
X7633096Y-22255027D01*
X7804524Y-22312170D02*
X7823572Y-22321693D01*
X7823572Y-22321693D02*
X7861667Y-22321693D01*
X7861667Y-22321693D02*
X7880715Y-22312170D01*
X7880715Y-22312170D02*
X7890238Y-22293122D01*
X7890238Y-22293122D02*
X7890238Y-22283598D01*
X7890238Y-22283598D02*
X7880715Y-22264551D01*
X7880715Y-22264551D02*
X7861667Y-22255027D01*
X7861667Y-22255027D02*
X7833096Y-22255027D01*
X7833096Y-22255027D02*
X7814048Y-22245503D01*
X7814048Y-22245503D02*
X7804524Y-22226455D01*
X7804524Y-22226455D02*
X7804524Y-22216932D01*
X7804524Y-22216932D02*
X7814048Y-22197884D01*
X7814048Y-22197884D02*
X7833096Y-22188360D01*
X7833096Y-22188360D02*
X7861667Y-22188360D01*
X7861667Y-22188360D02*
X7880715Y-22197884D01*
X7956905Y-22397884D02*
X7966429Y-22388360D01*
X7966429Y-22388360D02*
X7985477Y-22359789D01*
X7985477Y-22359789D02*
X7995000Y-22340741D01*
X7995000Y-22340741D02*
X8004524Y-22312170D01*
X8004524Y-22312170D02*
X8014048Y-22264551D01*
X8014048Y-22264551D02*
X8014048Y-22226455D01*
X8014048Y-22226455D02*
X8004524Y-22178836D01*
X8004524Y-22178836D02*
X7995000Y-22150265D01*
X7995000Y-22150265D02*
X7985477Y-22131217D01*
X7985477Y-22131217D02*
X7966429Y-22102646D01*
X7966429Y-22102646D02*
X7956905Y-22093122D01*
D19*
X3115000Y-22453170D02*
X3195000Y-22533170D01*
X3195000Y-22453170D02*
X3115000Y-22533170D01*
X3183284Y-22521454D02*
X3183284Y-22464885D01*
X3126715Y-22464885D01*
X3126715Y-22521454D01*
X3183284Y-22521454D01*
D11*
X3480714Y-22385693D02*
X3499762Y-22385693D01*
X3499762Y-22385693D02*
X3518809Y-22395217D01*
X3518809Y-22395217D02*
X3528333Y-22404741D01*
X3528333Y-22404741D02*
X3537857Y-22423789D01*
X3537857Y-22423789D02*
X3547381Y-22461884D01*
X3547381Y-22461884D02*
X3547381Y-22509503D01*
X3547381Y-22509503D02*
X3537857Y-22547598D01*
X3537857Y-22547598D02*
X3528333Y-22566646D01*
X3528333Y-22566646D02*
X3518809Y-22576170D01*
X3518809Y-22576170D02*
X3499762Y-22585693D01*
X3499762Y-22585693D02*
X3480714Y-22585693D01*
X3480714Y-22585693D02*
X3461667Y-22576170D01*
X3461667Y-22576170D02*
X3452143Y-22566646D01*
X3452143Y-22566646D02*
X3442619Y-22547598D01*
X3442619Y-22547598D02*
X3433095Y-22509503D01*
X3433095Y-22509503D02*
X3433095Y-22461884D01*
X3433095Y-22461884D02*
X3442619Y-22423789D01*
X3442619Y-22423789D02*
X3452143Y-22404741D01*
X3452143Y-22404741D02*
X3461667Y-22395217D01*
X3461667Y-22395217D02*
X3480714Y-22385693D01*
X3633095Y-22566646D02*
X3642619Y-22576170D01*
X3642619Y-22576170D02*
X3633095Y-22585693D01*
X3633095Y-22585693D02*
X3623571Y-22576170D01*
X3623571Y-22576170D02*
X3633095Y-22566646D01*
X3633095Y-22566646D02*
X3633095Y-22585693D01*
X3756905Y-22471408D02*
X3737857Y-22461884D01*
X3737857Y-22461884D02*
X3728333Y-22452360D01*
X3728333Y-22452360D02*
X3718809Y-22433312D01*
X3718809Y-22433312D02*
X3718809Y-22423789D01*
X3718809Y-22423789D02*
X3728333Y-22404741D01*
X3728333Y-22404741D02*
X3737857Y-22395217D01*
X3737857Y-22395217D02*
X3756905Y-22385693D01*
X3756905Y-22385693D02*
X3795000Y-22385693D01*
X3795000Y-22385693D02*
X3814048Y-22395217D01*
X3814048Y-22395217D02*
X3823571Y-22404741D01*
X3823571Y-22404741D02*
X3833095Y-22423789D01*
X3833095Y-22423789D02*
X3833095Y-22433312D01*
X3833095Y-22433312D02*
X3823571Y-22452360D01*
X3823571Y-22452360D02*
X3814048Y-22461884D01*
X3814048Y-22461884D02*
X3795000Y-22471408D01*
X3795000Y-22471408D02*
X3756905Y-22471408D01*
X3756905Y-22471408D02*
X3737857Y-22480931D01*
X3737857Y-22480931D02*
X3728333Y-22490455D01*
X3728333Y-22490455D02*
X3718809Y-22509503D01*
X3718809Y-22509503D02*
X3718809Y-22547598D01*
X3718809Y-22547598D02*
X3728333Y-22566646D01*
X3728333Y-22566646D02*
X3737857Y-22576170D01*
X3737857Y-22576170D02*
X3756905Y-22585693D01*
X3756905Y-22585693D02*
X3795000Y-22585693D01*
X3795000Y-22585693D02*
X3814048Y-22576170D01*
X3814048Y-22576170D02*
X3823571Y-22566646D01*
X3823571Y-22566646D02*
X3833095Y-22547598D01*
X3833095Y-22547598D02*
X3833095Y-22509503D01*
X3833095Y-22509503D02*
X3823571Y-22490455D01*
X3823571Y-22490455D02*
X3814048Y-22480931D01*
X3814048Y-22480931D02*
X3795000Y-22471408D01*
X3956905Y-22385693D02*
X3975952Y-22385693D01*
X3975952Y-22385693D02*
X3995000Y-22395217D01*
X3995000Y-22395217D02*
X4004524Y-22404741D01*
X4004524Y-22404741D02*
X4014048Y-22423789D01*
X4014048Y-22423789D02*
X4023571Y-22461884D01*
X4023571Y-22461884D02*
X4023571Y-22509503D01*
X4023571Y-22509503D02*
X4014048Y-22547598D01*
X4014048Y-22547598D02*
X4004524Y-22566646D01*
X4004524Y-22566646D02*
X3995000Y-22576170D01*
X3995000Y-22576170D02*
X3975952Y-22585693D01*
X3975952Y-22585693D02*
X3956905Y-22585693D01*
X3956905Y-22585693D02*
X3937857Y-22576170D01*
X3937857Y-22576170D02*
X3928333Y-22566646D01*
X3928333Y-22566646D02*
X3918809Y-22547598D01*
X3918809Y-22547598D02*
X3909286Y-22509503D01*
X3909286Y-22509503D02*
X3909286Y-22461884D01*
X3909286Y-22461884D02*
X3918809Y-22423789D01*
X3918809Y-22423789D02*
X3928333Y-22404741D01*
X3928333Y-22404741D02*
X3937857Y-22395217D01*
X3937857Y-22395217D02*
X3956905Y-22385693D01*
X4147381Y-22385693D02*
X4166429Y-22385693D01*
X4166429Y-22385693D02*
X4185476Y-22395217D01*
X4185476Y-22395217D02*
X4195000Y-22404741D01*
X4195000Y-22404741D02*
X4204524Y-22423789D01*
X4204524Y-22423789D02*
X4214048Y-22461884D01*
X4214048Y-22461884D02*
X4214048Y-22509503D01*
X4214048Y-22509503D02*
X4204524Y-22547598D01*
X4204524Y-22547598D02*
X4195000Y-22566646D01*
X4195000Y-22566646D02*
X4185476Y-22576170D01*
X4185476Y-22576170D02*
X4166429Y-22585693D01*
X4166429Y-22585693D02*
X4147381Y-22585693D01*
X4147381Y-22585693D02*
X4128333Y-22576170D01*
X4128333Y-22576170D02*
X4118809Y-22566646D01*
X4118809Y-22566646D02*
X4109286Y-22547598D01*
X4109286Y-22547598D02*
X4099762Y-22509503D01*
X4099762Y-22509503D02*
X4099762Y-22461884D01*
X4099762Y-22461884D02*
X4109286Y-22423789D01*
X4109286Y-22423789D02*
X4118809Y-22404741D01*
X4118809Y-22404741D02*
X4128333Y-22395217D01*
X4128333Y-22395217D02*
X4147381Y-22385693D01*
X4299762Y-22585693D02*
X4299762Y-22452360D01*
X4299762Y-22471408D02*
X4309286Y-22461884D01*
X4309286Y-22461884D02*
X4328333Y-22452360D01*
X4328333Y-22452360D02*
X4356905Y-22452360D01*
X4356905Y-22452360D02*
X4375952Y-22461884D01*
X4375952Y-22461884D02*
X4385476Y-22480931D01*
X4385476Y-22480931D02*
X4385476Y-22585693D01*
X4385476Y-22480931D02*
X4395000Y-22461884D01*
X4395000Y-22461884D02*
X4414048Y-22452360D01*
X4414048Y-22452360D02*
X4442619Y-22452360D01*
X4442619Y-22452360D02*
X4461667Y-22461884D01*
X4461667Y-22461884D02*
X4471191Y-22480931D01*
X4471191Y-22480931D02*
X4471191Y-22585693D01*
X4566429Y-22585693D02*
X4566429Y-22452360D01*
X4566429Y-22471408D02*
X4575952Y-22461884D01*
X4575952Y-22461884D02*
X4595000Y-22452360D01*
X4595000Y-22452360D02*
X4623572Y-22452360D01*
X4623572Y-22452360D02*
X4642619Y-22461884D01*
X4642619Y-22461884D02*
X4652143Y-22480931D01*
X4652143Y-22480931D02*
X4652143Y-22585693D01*
X4652143Y-22480931D02*
X4661667Y-22461884D01*
X4661667Y-22461884D02*
X4680714Y-22452360D01*
X4680714Y-22452360D02*
X4709286Y-22452360D01*
X4709286Y-22452360D02*
X4728333Y-22461884D01*
X4728333Y-22461884D02*
X4737857Y-22480931D01*
X4737857Y-22480931D02*
X4737857Y-22585693D01*
X5128333Y-22376170D02*
X4956905Y-22633312D01*
X5385476Y-22385693D02*
X5404524Y-22385693D01*
X5404524Y-22385693D02*
X5423572Y-22395217D01*
X5423572Y-22395217D02*
X5433095Y-22404741D01*
X5433095Y-22404741D02*
X5442619Y-22423789D01*
X5442619Y-22423789D02*
X5452143Y-22461884D01*
X5452143Y-22461884D02*
X5452143Y-22509503D01*
X5452143Y-22509503D02*
X5442619Y-22547598D01*
X5442619Y-22547598D02*
X5433095Y-22566646D01*
X5433095Y-22566646D02*
X5423572Y-22576170D01*
X5423572Y-22576170D02*
X5404524Y-22585693D01*
X5404524Y-22585693D02*
X5385476Y-22585693D01*
X5385476Y-22585693D02*
X5366429Y-22576170D01*
X5366429Y-22576170D02*
X5356905Y-22566646D01*
X5356905Y-22566646D02*
X5347381Y-22547598D01*
X5347381Y-22547598D02*
X5337857Y-22509503D01*
X5337857Y-22509503D02*
X5337857Y-22461884D01*
X5337857Y-22461884D02*
X5347381Y-22423789D01*
X5347381Y-22423789D02*
X5356905Y-22404741D01*
X5356905Y-22404741D02*
X5366429Y-22395217D01*
X5366429Y-22395217D02*
X5385476Y-22385693D01*
X5537857Y-22566646D02*
X5547381Y-22576170D01*
X5547381Y-22576170D02*
X5537857Y-22585693D01*
X5537857Y-22585693D02*
X5528334Y-22576170D01*
X5528334Y-22576170D02*
X5537857Y-22566646D01*
X5537857Y-22566646D02*
X5537857Y-22585693D01*
X5671191Y-22385693D02*
X5690238Y-22385693D01*
X5690238Y-22385693D02*
X5709286Y-22395217D01*
X5709286Y-22395217D02*
X5718810Y-22404741D01*
X5718810Y-22404741D02*
X5728333Y-22423789D01*
X5728333Y-22423789D02*
X5737857Y-22461884D01*
X5737857Y-22461884D02*
X5737857Y-22509503D01*
X5737857Y-22509503D02*
X5728333Y-22547598D01*
X5728333Y-22547598D02*
X5718810Y-22566646D01*
X5718810Y-22566646D02*
X5709286Y-22576170D01*
X5709286Y-22576170D02*
X5690238Y-22585693D01*
X5690238Y-22585693D02*
X5671191Y-22585693D01*
X5671191Y-22585693D02*
X5652143Y-22576170D01*
X5652143Y-22576170D02*
X5642619Y-22566646D01*
X5642619Y-22566646D02*
X5633095Y-22547598D01*
X5633095Y-22547598D02*
X5623572Y-22509503D01*
X5623572Y-22509503D02*
X5623572Y-22461884D01*
X5623572Y-22461884D02*
X5633095Y-22423789D01*
X5633095Y-22423789D02*
X5642619Y-22404741D01*
X5642619Y-22404741D02*
X5652143Y-22395217D01*
X5652143Y-22395217D02*
X5671191Y-22385693D01*
X5804524Y-22385693D02*
X5928333Y-22385693D01*
X5928333Y-22385693D02*
X5861667Y-22461884D01*
X5861667Y-22461884D02*
X5890238Y-22461884D01*
X5890238Y-22461884D02*
X5909286Y-22471408D01*
X5909286Y-22471408D02*
X5918810Y-22480931D01*
X5918810Y-22480931D02*
X5928333Y-22499979D01*
X5928333Y-22499979D02*
X5928333Y-22547598D01*
X5928333Y-22547598D02*
X5918810Y-22566646D01*
X5918810Y-22566646D02*
X5909286Y-22576170D01*
X5909286Y-22576170D02*
X5890238Y-22585693D01*
X5890238Y-22585693D02*
X5833095Y-22585693D01*
X5833095Y-22585693D02*
X5814048Y-22576170D01*
X5814048Y-22576170D02*
X5804524Y-22566646D01*
X6118810Y-22585693D02*
X6004524Y-22585693D01*
X6061667Y-22585693D02*
X6061667Y-22385693D01*
X6061667Y-22385693D02*
X6042619Y-22414265D01*
X6042619Y-22414265D02*
X6023572Y-22433312D01*
X6023572Y-22433312D02*
X6004524Y-22442836D01*
X6299762Y-22385693D02*
X6204524Y-22385693D01*
X6204524Y-22385693D02*
X6195000Y-22480931D01*
X6195000Y-22480931D02*
X6204524Y-22471408D01*
X6204524Y-22471408D02*
X6223572Y-22461884D01*
X6223572Y-22461884D02*
X6271191Y-22461884D01*
X6271191Y-22461884D02*
X6290238Y-22471408D01*
X6290238Y-22471408D02*
X6299762Y-22480931D01*
X6299762Y-22480931D02*
X6309286Y-22499979D01*
X6309286Y-22499979D02*
X6309286Y-22547598D01*
X6309286Y-22547598D02*
X6299762Y-22566646D01*
X6299762Y-22566646D02*
X6290238Y-22576170D01*
X6290238Y-22576170D02*
X6271191Y-22585693D01*
X6271191Y-22585693D02*
X6223572Y-22585693D01*
X6223572Y-22585693D02*
X6204524Y-22576170D01*
X6204524Y-22576170D02*
X6195000Y-22566646D01*
X6385476Y-22385693D02*
X6385476Y-22423789D01*
X6461667Y-22385693D02*
X6461667Y-22423789D01*
X6756905Y-22661884D02*
X6747381Y-22652360D01*
X6747381Y-22652360D02*
X6728334Y-22623789D01*
X6728334Y-22623789D02*
X6718810Y-22604741D01*
X6718810Y-22604741D02*
X6709286Y-22576170D01*
X6709286Y-22576170D02*
X6699762Y-22528550D01*
X6699762Y-22528550D02*
X6699762Y-22490455D01*
X6699762Y-22490455D02*
X6709286Y-22442836D01*
X6709286Y-22442836D02*
X6718810Y-22414265D01*
X6718810Y-22414265D02*
X6728334Y-22395217D01*
X6728334Y-22395217D02*
X6747381Y-22366646D01*
X6747381Y-22366646D02*
X6756905Y-22357122D01*
X6928334Y-22385693D02*
X6833095Y-22385693D01*
X6833095Y-22385693D02*
X6823572Y-22480931D01*
X6823572Y-22480931D02*
X6833095Y-22471408D01*
X6833095Y-22471408D02*
X6852143Y-22461884D01*
X6852143Y-22461884D02*
X6899762Y-22461884D01*
X6899762Y-22461884D02*
X6918810Y-22471408D01*
X6918810Y-22471408D02*
X6928334Y-22480931D01*
X6928334Y-22480931D02*
X6937857Y-22499979D01*
X6937857Y-22499979D02*
X6937857Y-22547598D01*
X6937857Y-22547598D02*
X6928334Y-22566646D01*
X6928334Y-22566646D02*
X6918810Y-22576170D01*
X6918810Y-22576170D02*
X6899762Y-22585693D01*
X6899762Y-22585693D02*
X6852143Y-22585693D01*
X6852143Y-22585693D02*
X6833095Y-22576170D01*
X6833095Y-22576170D02*
X6823572Y-22566646D01*
X7175953Y-22585693D02*
X7175953Y-22385693D01*
X7261667Y-22585693D02*
X7261667Y-22480931D01*
X7261667Y-22480931D02*
X7252143Y-22461884D01*
X7252143Y-22461884D02*
X7233096Y-22452360D01*
X7233096Y-22452360D02*
X7204524Y-22452360D01*
X7204524Y-22452360D02*
X7185476Y-22461884D01*
X7185476Y-22461884D02*
X7175953Y-22471408D01*
X7385476Y-22585693D02*
X7366429Y-22576170D01*
X7366429Y-22576170D02*
X7356905Y-22566646D01*
X7356905Y-22566646D02*
X7347381Y-22547598D01*
X7347381Y-22547598D02*
X7347381Y-22490455D01*
X7347381Y-22490455D02*
X7356905Y-22471408D01*
X7356905Y-22471408D02*
X7366429Y-22461884D01*
X7366429Y-22461884D02*
X7385476Y-22452360D01*
X7385476Y-22452360D02*
X7414048Y-22452360D01*
X7414048Y-22452360D02*
X7433096Y-22461884D01*
X7433096Y-22461884D02*
X7442619Y-22471408D01*
X7442619Y-22471408D02*
X7452143Y-22490455D01*
X7452143Y-22490455D02*
X7452143Y-22547598D01*
X7452143Y-22547598D02*
X7442619Y-22566646D01*
X7442619Y-22566646D02*
X7433096Y-22576170D01*
X7433096Y-22576170D02*
X7414048Y-22585693D01*
X7414048Y-22585693D02*
X7385476Y-22585693D01*
X7566429Y-22585693D02*
X7547381Y-22576170D01*
X7547381Y-22576170D02*
X7537857Y-22557122D01*
X7537857Y-22557122D02*
X7537857Y-22385693D01*
X7718810Y-22576170D02*
X7699762Y-22585693D01*
X7699762Y-22585693D02*
X7661667Y-22585693D01*
X7661667Y-22585693D02*
X7642619Y-22576170D01*
X7642619Y-22576170D02*
X7633096Y-22557122D01*
X7633096Y-22557122D02*
X7633096Y-22480931D01*
X7633096Y-22480931D02*
X7642619Y-22461884D01*
X7642619Y-22461884D02*
X7661667Y-22452360D01*
X7661667Y-22452360D02*
X7699762Y-22452360D01*
X7699762Y-22452360D02*
X7718810Y-22461884D01*
X7718810Y-22461884D02*
X7728334Y-22480931D01*
X7728334Y-22480931D02*
X7728334Y-22499979D01*
X7728334Y-22499979D02*
X7633096Y-22519027D01*
X7804524Y-22576170D02*
X7823572Y-22585693D01*
X7823572Y-22585693D02*
X7861667Y-22585693D01*
X7861667Y-22585693D02*
X7880715Y-22576170D01*
X7880715Y-22576170D02*
X7890238Y-22557122D01*
X7890238Y-22557122D02*
X7890238Y-22547598D01*
X7890238Y-22547598D02*
X7880715Y-22528550D01*
X7880715Y-22528550D02*
X7861667Y-22519027D01*
X7861667Y-22519027D02*
X7833096Y-22519027D01*
X7833096Y-22519027D02*
X7814048Y-22509503D01*
X7814048Y-22509503D02*
X7804524Y-22490455D01*
X7804524Y-22490455D02*
X7804524Y-22480931D01*
X7804524Y-22480931D02*
X7814048Y-22461884D01*
X7814048Y-22461884D02*
X7833096Y-22452360D01*
X7833096Y-22452360D02*
X7861667Y-22452360D01*
X7861667Y-22452360D02*
X7880715Y-22461884D01*
X7956905Y-22661884D02*
X7966429Y-22652360D01*
X7966429Y-22652360D02*
X7985477Y-22623789D01*
X7985477Y-22623789D02*
X7995000Y-22604741D01*
X7995000Y-22604741D02*
X8004524Y-22576170D01*
X8004524Y-22576170D02*
X8014048Y-22528550D01*
X8014048Y-22528550D02*
X8014048Y-22490455D01*
X8014048Y-22490455D02*
X8004524Y-22442836D01*
X8004524Y-22442836D02*
X7995000Y-22414265D01*
X7995000Y-22414265D02*
X7985477Y-22395217D01*
X7985477Y-22395217D02*
X7966429Y-22366646D01*
X7966429Y-22366646D02*
X7956905Y-22357122D01*
X2995000Y-22657170D02*
X3195000Y-22857170D01*
X3195000Y-22657170D02*
X2995000Y-22857170D01*
X3095000Y-22857170D02*
X3195000Y-22757170D01*
X3095000Y-22657170D01*
X2995000Y-22757170D01*
X3095000Y-22857170D01*
X3433095Y-22668741D02*
X3442619Y-22659217D01*
X3442619Y-22659217D02*
X3461667Y-22649693D01*
X3461667Y-22649693D02*
X3509286Y-22649693D01*
X3509286Y-22649693D02*
X3528333Y-22659217D01*
X3528333Y-22659217D02*
X3537857Y-22668741D01*
X3537857Y-22668741D02*
X3547381Y-22687789D01*
X3547381Y-22687789D02*
X3547381Y-22706836D01*
X3547381Y-22706836D02*
X3537857Y-22735408D01*
X3537857Y-22735408D02*
X3423571Y-22849693D01*
X3423571Y-22849693D02*
X3547381Y-22849693D01*
X3633095Y-22830646D02*
X3642619Y-22840170D01*
X3642619Y-22840170D02*
X3633095Y-22849693D01*
X3633095Y-22849693D02*
X3623571Y-22840170D01*
X3623571Y-22840170D02*
X3633095Y-22830646D01*
X3633095Y-22830646D02*
X3633095Y-22849693D01*
X3766428Y-22649693D02*
X3785476Y-22649693D01*
X3785476Y-22649693D02*
X3804524Y-22659217D01*
X3804524Y-22659217D02*
X3814048Y-22668741D01*
X3814048Y-22668741D02*
X3823571Y-22687789D01*
X3823571Y-22687789D02*
X3833095Y-22725884D01*
X3833095Y-22725884D02*
X3833095Y-22773503D01*
X3833095Y-22773503D02*
X3823571Y-22811598D01*
X3823571Y-22811598D02*
X3814048Y-22830646D01*
X3814048Y-22830646D02*
X3804524Y-22840170D01*
X3804524Y-22840170D02*
X3785476Y-22849693D01*
X3785476Y-22849693D02*
X3766428Y-22849693D01*
X3766428Y-22849693D02*
X3747381Y-22840170D01*
X3747381Y-22840170D02*
X3737857Y-22830646D01*
X3737857Y-22830646D02*
X3728333Y-22811598D01*
X3728333Y-22811598D02*
X3718809Y-22773503D01*
X3718809Y-22773503D02*
X3718809Y-22725884D01*
X3718809Y-22725884D02*
X3728333Y-22687789D01*
X3728333Y-22687789D02*
X3737857Y-22668741D01*
X3737857Y-22668741D02*
X3747381Y-22659217D01*
X3747381Y-22659217D02*
X3766428Y-22649693D01*
X3956905Y-22649693D02*
X3975952Y-22649693D01*
X3975952Y-22649693D02*
X3995000Y-22659217D01*
X3995000Y-22659217D02*
X4004524Y-22668741D01*
X4004524Y-22668741D02*
X4014048Y-22687789D01*
X4014048Y-22687789D02*
X4023571Y-22725884D01*
X4023571Y-22725884D02*
X4023571Y-22773503D01*
X4023571Y-22773503D02*
X4014048Y-22811598D01*
X4014048Y-22811598D02*
X4004524Y-22830646D01*
X4004524Y-22830646D02*
X3995000Y-22840170D01*
X3995000Y-22840170D02*
X3975952Y-22849693D01*
X3975952Y-22849693D02*
X3956905Y-22849693D01*
X3956905Y-22849693D02*
X3937857Y-22840170D01*
X3937857Y-22840170D02*
X3928333Y-22830646D01*
X3928333Y-22830646D02*
X3918809Y-22811598D01*
X3918809Y-22811598D02*
X3909286Y-22773503D01*
X3909286Y-22773503D02*
X3909286Y-22725884D01*
X3909286Y-22725884D02*
X3918809Y-22687789D01*
X3918809Y-22687789D02*
X3928333Y-22668741D01*
X3928333Y-22668741D02*
X3937857Y-22659217D01*
X3937857Y-22659217D02*
X3956905Y-22649693D01*
X4147381Y-22649693D02*
X4166429Y-22649693D01*
X4166429Y-22649693D02*
X4185476Y-22659217D01*
X4185476Y-22659217D02*
X4195000Y-22668741D01*
X4195000Y-22668741D02*
X4204524Y-22687789D01*
X4204524Y-22687789D02*
X4214048Y-22725884D01*
X4214048Y-22725884D02*
X4214048Y-22773503D01*
X4214048Y-22773503D02*
X4204524Y-22811598D01*
X4204524Y-22811598D02*
X4195000Y-22830646D01*
X4195000Y-22830646D02*
X4185476Y-22840170D01*
X4185476Y-22840170D02*
X4166429Y-22849693D01*
X4166429Y-22849693D02*
X4147381Y-22849693D01*
X4147381Y-22849693D02*
X4128333Y-22840170D01*
X4128333Y-22840170D02*
X4118809Y-22830646D01*
X4118809Y-22830646D02*
X4109286Y-22811598D01*
X4109286Y-22811598D02*
X4099762Y-22773503D01*
X4099762Y-22773503D02*
X4099762Y-22725884D01*
X4099762Y-22725884D02*
X4109286Y-22687789D01*
X4109286Y-22687789D02*
X4118809Y-22668741D01*
X4118809Y-22668741D02*
X4128333Y-22659217D01*
X4128333Y-22659217D02*
X4147381Y-22649693D01*
X4299762Y-22849693D02*
X4299762Y-22716360D01*
X4299762Y-22735408D02*
X4309286Y-22725884D01*
X4309286Y-22725884D02*
X4328333Y-22716360D01*
X4328333Y-22716360D02*
X4356905Y-22716360D01*
X4356905Y-22716360D02*
X4375952Y-22725884D01*
X4375952Y-22725884D02*
X4385476Y-22744931D01*
X4385476Y-22744931D02*
X4385476Y-22849693D01*
X4385476Y-22744931D02*
X4395000Y-22725884D01*
X4395000Y-22725884D02*
X4414048Y-22716360D01*
X4414048Y-22716360D02*
X4442619Y-22716360D01*
X4442619Y-22716360D02*
X4461667Y-22725884D01*
X4461667Y-22725884D02*
X4471191Y-22744931D01*
X4471191Y-22744931D02*
X4471191Y-22849693D01*
X4566429Y-22849693D02*
X4566429Y-22716360D01*
X4566429Y-22735408D02*
X4575952Y-22725884D01*
X4575952Y-22725884D02*
X4595000Y-22716360D01*
X4595000Y-22716360D02*
X4623572Y-22716360D01*
X4623572Y-22716360D02*
X4642619Y-22725884D01*
X4642619Y-22725884D02*
X4652143Y-22744931D01*
X4652143Y-22744931D02*
X4652143Y-22849693D01*
X4652143Y-22744931D02*
X4661667Y-22725884D01*
X4661667Y-22725884D02*
X4680714Y-22716360D01*
X4680714Y-22716360D02*
X4709286Y-22716360D01*
X4709286Y-22716360D02*
X4728333Y-22725884D01*
X4728333Y-22725884D02*
X4737857Y-22744931D01*
X4737857Y-22744931D02*
X4737857Y-22849693D01*
X5128333Y-22640170D02*
X4956905Y-22897312D01*
X5385476Y-22649693D02*
X5404524Y-22649693D01*
X5404524Y-22649693D02*
X5423572Y-22659217D01*
X5423572Y-22659217D02*
X5433095Y-22668741D01*
X5433095Y-22668741D02*
X5442619Y-22687789D01*
X5442619Y-22687789D02*
X5452143Y-22725884D01*
X5452143Y-22725884D02*
X5452143Y-22773503D01*
X5452143Y-22773503D02*
X5442619Y-22811598D01*
X5442619Y-22811598D02*
X5433095Y-22830646D01*
X5433095Y-22830646D02*
X5423572Y-22840170D01*
X5423572Y-22840170D02*
X5404524Y-22849693D01*
X5404524Y-22849693D02*
X5385476Y-22849693D01*
X5385476Y-22849693D02*
X5366429Y-22840170D01*
X5366429Y-22840170D02*
X5356905Y-22830646D01*
X5356905Y-22830646D02*
X5347381Y-22811598D01*
X5347381Y-22811598D02*
X5337857Y-22773503D01*
X5337857Y-22773503D02*
X5337857Y-22725884D01*
X5337857Y-22725884D02*
X5347381Y-22687789D01*
X5347381Y-22687789D02*
X5356905Y-22668741D01*
X5356905Y-22668741D02*
X5366429Y-22659217D01*
X5366429Y-22659217D02*
X5385476Y-22649693D01*
X5537857Y-22830646D02*
X5547381Y-22840170D01*
X5547381Y-22840170D02*
X5537857Y-22849693D01*
X5537857Y-22849693D02*
X5528334Y-22840170D01*
X5528334Y-22840170D02*
X5537857Y-22830646D01*
X5537857Y-22830646D02*
X5537857Y-22849693D01*
X5671191Y-22649693D02*
X5690238Y-22649693D01*
X5690238Y-22649693D02*
X5709286Y-22659217D01*
X5709286Y-22659217D02*
X5718810Y-22668741D01*
X5718810Y-22668741D02*
X5728333Y-22687789D01*
X5728333Y-22687789D02*
X5737857Y-22725884D01*
X5737857Y-22725884D02*
X5737857Y-22773503D01*
X5737857Y-22773503D02*
X5728333Y-22811598D01*
X5728333Y-22811598D02*
X5718810Y-22830646D01*
X5718810Y-22830646D02*
X5709286Y-22840170D01*
X5709286Y-22840170D02*
X5690238Y-22849693D01*
X5690238Y-22849693D02*
X5671191Y-22849693D01*
X5671191Y-22849693D02*
X5652143Y-22840170D01*
X5652143Y-22840170D02*
X5642619Y-22830646D01*
X5642619Y-22830646D02*
X5633095Y-22811598D01*
X5633095Y-22811598D02*
X5623572Y-22773503D01*
X5623572Y-22773503D02*
X5623572Y-22725884D01*
X5623572Y-22725884D02*
X5633095Y-22687789D01*
X5633095Y-22687789D02*
X5642619Y-22668741D01*
X5642619Y-22668741D02*
X5652143Y-22659217D01*
X5652143Y-22659217D02*
X5671191Y-22649693D01*
X5804524Y-22649693D02*
X5937857Y-22649693D01*
X5937857Y-22649693D02*
X5852143Y-22849693D01*
X6042619Y-22735408D02*
X6023572Y-22725884D01*
X6023572Y-22725884D02*
X6014048Y-22716360D01*
X6014048Y-22716360D02*
X6004524Y-22697312D01*
X6004524Y-22697312D02*
X6004524Y-22687789D01*
X6004524Y-22687789D02*
X6014048Y-22668741D01*
X6014048Y-22668741D02*
X6023572Y-22659217D01*
X6023572Y-22659217D02*
X6042619Y-22649693D01*
X6042619Y-22649693D02*
X6080714Y-22649693D01*
X6080714Y-22649693D02*
X6099762Y-22659217D01*
X6099762Y-22659217D02*
X6109286Y-22668741D01*
X6109286Y-22668741D02*
X6118810Y-22687789D01*
X6118810Y-22687789D02*
X6118810Y-22697312D01*
X6118810Y-22697312D02*
X6109286Y-22716360D01*
X6109286Y-22716360D02*
X6099762Y-22725884D01*
X6099762Y-22725884D02*
X6080714Y-22735408D01*
X6080714Y-22735408D02*
X6042619Y-22735408D01*
X6042619Y-22735408D02*
X6023572Y-22744931D01*
X6023572Y-22744931D02*
X6014048Y-22754455D01*
X6014048Y-22754455D02*
X6004524Y-22773503D01*
X6004524Y-22773503D02*
X6004524Y-22811598D01*
X6004524Y-22811598D02*
X6014048Y-22830646D01*
X6014048Y-22830646D02*
X6023572Y-22840170D01*
X6023572Y-22840170D02*
X6042619Y-22849693D01*
X6042619Y-22849693D02*
X6080714Y-22849693D01*
X6080714Y-22849693D02*
X6099762Y-22840170D01*
X6099762Y-22840170D02*
X6109286Y-22830646D01*
X6109286Y-22830646D02*
X6118810Y-22811598D01*
X6118810Y-22811598D02*
X6118810Y-22773503D01*
X6118810Y-22773503D02*
X6109286Y-22754455D01*
X6109286Y-22754455D02*
X6099762Y-22744931D01*
X6099762Y-22744931D02*
X6080714Y-22735408D01*
X6185476Y-22649693D02*
X6318810Y-22649693D01*
X6318810Y-22649693D02*
X6233095Y-22849693D01*
X6385476Y-22649693D02*
X6385476Y-22687789D01*
X6461667Y-22649693D02*
X6461667Y-22687789D01*
X6756905Y-22925884D02*
X6747381Y-22916360D01*
X6747381Y-22916360D02*
X6728334Y-22887789D01*
X6728334Y-22887789D02*
X6718810Y-22868741D01*
X6718810Y-22868741D02*
X6709286Y-22840170D01*
X6709286Y-22840170D02*
X6699762Y-22792550D01*
X6699762Y-22792550D02*
X6699762Y-22754455D01*
X6699762Y-22754455D02*
X6709286Y-22706836D01*
X6709286Y-22706836D02*
X6718810Y-22678265D01*
X6718810Y-22678265D02*
X6728334Y-22659217D01*
X6728334Y-22659217D02*
X6747381Y-22630646D01*
X6747381Y-22630646D02*
X6756905Y-22621122D01*
X6937857Y-22849693D02*
X6823572Y-22849693D01*
X6880714Y-22849693D02*
X6880714Y-22649693D01*
X6880714Y-22649693D02*
X6861667Y-22678265D01*
X6861667Y-22678265D02*
X6842619Y-22697312D01*
X6842619Y-22697312D02*
X6823572Y-22706836D01*
X7175953Y-22849693D02*
X7175953Y-22649693D01*
X7261667Y-22849693D02*
X7261667Y-22744931D01*
X7261667Y-22744931D02*
X7252143Y-22725884D01*
X7252143Y-22725884D02*
X7233096Y-22716360D01*
X7233096Y-22716360D02*
X7204524Y-22716360D01*
X7204524Y-22716360D02*
X7185476Y-22725884D01*
X7185476Y-22725884D02*
X7175953Y-22735408D01*
X7385476Y-22849693D02*
X7366429Y-22840170D01*
X7366429Y-22840170D02*
X7356905Y-22830646D01*
X7356905Y-22830646D02*
X7347381Y-22811598D01*
X7347381Y-22811598D02*
X7347381Y-22754455D01*
X7347381Y-22754455D02*
X7356905Y-22735408D01*
X7356905Y-22735408D02*
X7366429Y-22725884D01*
X7366429Y-22725884D02*
X7385476Y-22716360D01*
X7385476Y-22716360D02*
X7414048Y-22716360D01*
X7414048Y-22716360D02*
X7433096Y-22725884D01*
X7433096Y-22725884D02*
X7442619Y-22735408D01*
X7442619Y-22735408D02*
X7452143Y-22754455D01*
X7452143Y-22754455D02*
X7452143Y-22811598D01*
X7452143Y-22811598D02*
X7442619Y-22830646D01*
X7442619Y-22830646D02*
X7433096Y-22840170D01*
X7433096Y-22840170D02*
X7414048Y-22849693D01*
X7414048Y-22849693D02*
X7385476Y-22849693D01*
X7566429Y-22849693D02*
X7547381Y-22840170D01*
X7547381Y-22840170D02*
X7537857Y-22821122D01*
X7537857Y-22821122D02*
X7537857Y-22649693D01*
X7718810Y-22840170D02*
X7699762Y-22849693D01*
X7699762Y-22849693D02*
X7661667Y-22849693D01*
X7661667Y-22849693D02*
X7642619Y-22840170D01*
X7642619Y-22840170D02*
X7633096Y-22821122D01*
X7633096Y-22821122D02*
X7633096Y-22744931D01*
X7633096Y-22744931D02*
X7642619Y-22725884D01*
X7642619Y-22725884D02*
X7661667Y-22716360D01*
X7661667Y-22716360D02*
X7699762Y-22716360D01*
X7699762Y-22716360D02*
X7718810Y-22725884D01*
X7718810Y-22725884D02*
X7728334Y-22744931D01*
X7728334Y-22744931D02*
X7728334Y-22763979D01*
X7728334Y-22763979D02*
X7633096Y-22783027D01*
X7795000Y-22925884D02*
X7804524Y-22916360D01*
X7804524Y-22916360D02*
X7823572Y-22887789D01*
X7823572Y-22887789D02*
X7833096Y-22868741D01*
X7833096Y-22868741D02*
X7842619Y-22840170D01*
X7842619Y-22840170D02*
X7852143Y-22792550D01*
X7852143Y-22792550D02*
X7852143Y-22754455D01*
X7852143Y-22754455D02*
X7842619Y-22706836D01*
X7842619Y-22706836D02*
X7833096Y-22678265D01*
X7833096Y-22678265D02*
X7823572Y-22659217D01*
X7823572Y-22659217D02*
X7804524Y-22630646D01*
X7804524Y-22630646D02*
X7795000Y-22621122D01*
M02*
