%TF.GenerationSoftware,KiCad,Pcbnew,7.0.1*%
%TF.CreationDate,2023-03-17T22:45:02-07:00*%
%TF.ProjectId,TI-83x,54492d38-3378-42e6-9b69-6361645f7063,A*%
%TF.SameCoordinates,Original*%
%TF.FileFunction,Drillmap*%
%TF.FilePolarity,Positive*%
%FSLAX45Y45*%
G04 Gerber Fmt 4.5, Leading zero omitted, Abs format (unit mm)*
G04 Created by KiCad (PCBNEW 7.0.1) date 2023-03-17 22:45:02*
%MOMM*%
%LPD*%
G01*
G04 APERTURE LIST*
%ADD10C,0.100000*%
%ADD11C,0.200000*%
G04 APERTURE END LIST*
D10*
X9825552Y-19599680D02*
X10250000Y-19175000D01*
X10450000Y-14800000D02*
G75*
G03*
X10450000Y-15050000I0J-125000D01*
G01*
X4865000Y-19934999D02*
G75*
G03*
X5445000Y-20000000I551660J2302279D01*
G01*
X3200000Y-10090355D02*
X3200000Y-11800000D01*
X3825000Y-19600000D02*
G75*
G03*
X4100000Y-19759419I397410J368640D01*
G01*
X10450000Y-14800000D02*
X10450000Y-11000000D01*
X3250000Y-18100000D02*
X3250000Y-18800000D01*
X9550551Y-19759096D02*
G75*
G03*
X9825552Y-19599680I-122421J528086D01*
G01*
X8785000Y-19935000D02*
X9550552Y-19759099D01*
X3200000Y-12050000D02*
G75*
G03*
X3200000Y-11800000I0J125000D01*
G01*
X3250000Y-18100000D02*
G75*
G03*
X3250000Y-17850000I0J125000D01*
G01*
X10450000Y-8550000D02*
X9775000Y-8550000D01*
X4100000Y-8550000D02*
G75*
G03*
X5000000Y-7650000I0J900000D01*
G01*
X10450000Y-3900000D02*
G75*
G03*
X9550000Y-3000000I-900000J0D01*
G01*
X5066421Y-19100000D02*
G75*
G03*
X5066421Y-19100000I-141421J0D01*
G01*
X3200000Y-15050000D02*
G75*
G03*
X3200000Y-14800000I0J125000D01*
G01*
X10400000Y-17850000D02*
X10450000Y-17850000D01*
X3860000Y-10089645D02*
X3200000Y-10090355D01*
X10249998Y-19174998D02*
G75*
G03*
X10400000Y-18800000I-345538J355718D01*
G01*
X7780750Y-11971000D02*
G75*
G03*
X7780750Y-11971000I-230000J0D01*
G01*
X8205000Y-20000000D02*
X7461000Y-20000000D01*
X3249997Y-18800000D02*
G75*
G03*
X3400000Y-19175000I495543J-19280D01*
G01*
X3400000Y-19175000D02*
X3825000Y-19600000D01*
X10450000Y-17850000D02*
X10450000Y-15050000D01*
X3200000Y-15050000D02*
X3200000Y-17850000D01*
X3960000Y-9370000D02*
X3960000Y-9989289D01*
X8205000Y-19999999D02*
G75*
G03*
X8785000Y-19935000I28340J2367339D01*
G01*
X10450000Y-7950000D02*
X10450000Y-3900000D01*
X3860000Y-10089290D02*
G75*
G03*
X3960000Y-9989289I0J100000D01*
G01*
X9550000Y-3000000D02*
X5000000Y-3000000D01*
X5445000Y-20000000D02*
X6173000Y-20000000D01*
X10400000Y-17850000D02*
G75*
G03*
X10400000Y-18100000I0J-125000D01*
G01*
X9775000Y-7950000D02*
X10450000Y-7950000D01*
X3960000Y-9370000D02*
G75*
G03*
X3860000Y-9270000I-100000J0D01*
G01*
X3200000Y-12050000D02*
X3200000Y-14800000D01*
X8875000Y-19100000D02*
G75*
G03*
X8875000Y-19100000I-150000J0D01*
G01*
X3460000Y-8550000D02*
X4100000Y-8550000D01*
X3200000Y-17850000D02*
X3250000Y-17850000D01*
X3460000Y-9270000D02*
X3460000Y-8550000D01*
X3860000Y-9270000D02*
X3460000Y-9270000D01*
X10400000Y-18800000D02*
X10400000Y-18100000D01*
X10450000Y-10750000D02*
X10450000Y-8550000D01*
X4100000Y-19759419D02*
X4865000Y-19935000D01*
X10450000Y-10750000D02*
G75*
G03*
X10450000Y-11000000I0J-125000D01*
G01*
X5000000Y-3000000D02*
X5000000Y-7650000D01*
X9775000Y-7950000D02*
G75*
G03*
X9775000Y-8550000I0J-300000D01*
G01*
D11*
X3442619Y-20317693D02*
X3442619Y-20117693D01*
X3442619Y-20117693D02*
X3490238Y-20117693D01*
X3490238Y-20117693D02*
X3518809Y-20127217D01*
X3518809Y-20127217D02*
X3537857Y-20146265D01*
X3537857Y-20146265D02*
X3547381Y-20165312D01*
X3547381Y-20165312D02*
X3556905Y-20203408D01*
X3556905Y-20203408D02*
X3556905Y-20231979D01*
X3556905Y-20231979D02*
X3547381Y-20270074D01*
X3547381Y-20270074D02*
X3537857Y-20289122D01*
X3537857Y-20289122D02*
X3518809Y-20308170D01*
X3518809Y-20308170D02*
X3490238Y-20317693D01*
X3490238Y-20317693D02*
X3442619Y-20317693D01*
X3642619Y-20317693D02*
X3642619Y-20184360D01*
X3642619Y-20222455D02*
X3652143Y-20203408D01*
X3652143Y-20203408D02*
X3661667Y-20193884D01*
X3661667Y-20193884D02*
X3680714Y-20184360D01*
X3680714Y-20184360D02*
X3699762Y-20184360D01*
X3766428Y-20317693D02*
X3766428Y-20184360D01*
X3766428Y-20117693D02*
X3756905Y-20127217D01*
X3756905Y-20127217D02*
X3766428Y-20136741D01*
X3766428Y-20136741D02*
X3775952Y-20127217D01*
X3775952Y-20127217D02*
X3766428Y-20117693D01*
X3766428Y-20117693D02*
X3766428Y-20136741D01*
X3890238Y-20317693D02*
X3871190Y-20308170D01*
X3871190Y-20308170D02*
X3861667Y-20289122D01*
X3861667Y-20289122D02*
X3861667Y-20117693D01*
X3995000Y-20317693D02*
X3975952Y-20308170D01*
X3975952Y-20308170D02*
X3966428Y-20289122D01*
X3966428Y-20289122D02*
X3966428Y-20117693D01*
X4223571Y-20317693D02*
X4223571Y-20117693D01*
X4223571Y-20117693D02*
X4290238Y-20260551D01*
X4290238Y-20260551D02*
X4356905Y-20117693D01*
X4356905Y-20117693D02*
X4356905Y-20317693D01*
X4537857Y-20317693D02*
X4537857Y-20212932D01*
X4537857Y-20212932D02*
X4528333Y-20193884D01*
X4528333Y-20193884D02*
X4509286Y-20184360D01*
X4509286Y-20184360D02*
X4471190Y-20184360D01*
X4471190Y-20184360D02*
X4452143Y-20193884D01*
X4537857Y-20308170D02*
X4518810Y-20317693D01*
X4518810Y-20317693D02*
X4471190Y-20317693D01*
X4471190Y-20317693D02*
X4452143Y-20308170D01*
X4452143Y-20308170D02*
X4442619Y-20289122D01*
X4442619Y-20289122D02*
X4442619Y-20270074D01*
X4442619Y-20270074D02*
X4452143Y-20251027D01*
X4452143Y-20251027D02*
X4471190Y-20241503D01*
X4471190Y-20241503D02*
X4518810Y-20241503D01*
X4518810Y-20241503D02*
X4537857Y-20231979D01*
X4633095Y-20184360D02*
X4633095Y-20384360D01*
X4633095Y-20193884D02*
X4652143Y-20184360D01*
X4652143Y-20184360D02*
X4690238Y-20184360D01*
X4690238Y-20184360D02*
X4709286Y-20193884D01*
X4709286Y-20193884D02*
X4718810Y-20203408D01*
X4718810Y-20203408D02*
X4728333Y-20222455D01*
X4728333Y-20222455D02*
X4728333Y-20279598D01*
X4728333Y-20279598D02*
X4718810Y-20298646D01*
X4718810Y-20298646D02*
X4709286Y-20308170D01*
X4709286Y-20308170D02*
X4690238Y-20317693D01*
X4690238Y-20317693D02*
X4652143Y-20317693D01*
X4652143Y-20317693D02*
X4633095Y-20308170D01*
X4814048Y-20298646D02*
X4823571Y-20308170D01*
X4823571Y-20308170D02*
X4814048Y-20317693D01*
X4814048Y-20317693D02*
X4804524Y-20308170D01*
X4804524Y-20308170D02*
X4814048Y-20298646D01*
X4814048Y-20298646D02*
X4814048Y-20317693D01*
X4814048Y-20193884D02*
X4823571Y-20203408D01*
X4823571Y-20203408D02*
X4814048Y-20212932D01*
X4814048Y-20212932D02*
X4804524Y-20203408D01*
X4804524Y-20203408D02*
X4814048Y-20193884D01*
X4814048Y-20193884D02*
X4814048Y-20212932D01*
M02*
