G04 #@! TF.GenerationSoftware,KiCad,Pcbnew,7.0.1*
G04 #@! TF.CreationDate,2023-03-17T22:44:53-07:00*
G04 #@! TF.ProjectId,TI-83x,54492d38-3378-42e6-9b69-6361645f7063,A*
G04 #@! TF.SameCoordinates,Original*
G04 #@! TF.FileFunction,Copper,L2,Inr*
G04 #@! TF.FilePolarity,Positive*
%FSLAX46Y46*%
G04 Gerber Fmt 4.6, Leading zero omitted, Abs format (unit mm)*
G04 Created by KiCad (PCBNEW 7.0.1) date 2023-03-17 22:44:53*
%MOMM*%
%LPD*%
G01*
G04 APERTURE LIST*
G04 Aperture macros list*
%AMRoundRect*
0 Rectangle with rounded corners*
0 $1 Rounding radius*
0 $2 $3 $4 $5 $6 $7 $8 $9 X,Y pos of 4 corners*
0 Add a 4 corners polygon primitive as box body*
4,1,4,$2,$3,$4,$5,$6,$7,$8,$9,$2,$3,0*
0 Add four circle primitives for the rounded corners*
1,1,$1+$1,$2,$3*
1,1,$1+$1,$4,$5*
1,1,$1+$1,$6,$7*
1,1,$1+$1,$8,$9*
0 Add four rect primitives between the rounded corners*
20,1,$1+$1,$2,$3,$4,$5,0*
20,1,$1+$1,$4,$5,$6,$7,0*
20,1,$1+$1,$6,$7,$8,$9,0*
20,1,$1+$1,$8,$9,$2,$3,0*%
G04 Aperture macros list end*
G04 #@! TA.AperFunction,ComponentPad*
%ADD10C,0.450000*%
G04 #@! TD*
G04 #@! TA.AperFunction,ComponentPad*
%ADD11O,0.900000X2.100000*%
G04 #@! TD*
G04 #@! TA.AperFunction,ComponentPad*
%ADD12O,0.800000X1.600000*%
G04 #@! TD*
G04 #@! TA.AperFunction,ComponentPad*
%ADD13O,1.200000X1.750000*%
G04 #@! TD*
G04 #@! TA.AperFunction,ComponentPad*
%ADD14RoundRect,0.250000X0.350000X0.625000X-0.350000X0.625000X-0.350000X-0.625000X0.350000X-0.625000X0*%
G04 #@! TD*
G04 #@! TA.AperFunction,ViaPad*
%ADD15C,0.800000*%
G04 #@! TD*
G04 #@! TA.AperFunction,ViaPad*
%ADD16C,1.600000*%
G04 #@! TD*
G04 #@! TA.AperFunction,ViaPad*
%ADD17C,0.900000*%
G04 #@! TD*
G04 #@! TA.AperFunction,ViaPad*
%ADD18C,2.500000*%
G04 #@! TD*
G04 #@! TA.AperFunction,ViaPad*
%ADD19C,1.524000*%
G04 #@! TD*
G04 #@! TA.AperFunction,ViaPad*
%ADD20C,0.500000*%
G04 #@! TD*
G04 APERTURE END LIST*
D10*
X47897500Y-96320000D03*
X47897500Y-97820000D03*
X46397500Y-96320000D03*
X46397500Y-97820000D03*
X44897500Y-96320000D03*
X44897500Y-97820000D03*
X47147500Y-95570000D03*
X47147500Y-97070000D03*
X47147500Y-98570000D03*
X45647500Y-95570000D03*
X45647500Y-98570000D03*
X45647500Y-97070000D03*
D11*
X73870000Y-198400000D03*
D12*
X62630000Y-194400000D03*
X73870000Y-194400000D03*
D11*
X62630000Y-198400000D03*
D13*
X39250000Y-189200000D03*
D14*
X41250000Y-189200000D03*
D15*
X39000000Y-127000000D03*
X84500000Y-108750000D03*
X34000000Y-127000000D03*
X41000000Y-88800000D03*
X33000000Y-154750000D03*
X82250000Y-61000000D03*
D16*
X75250000Y-129750000D03*
D15*
X66250000Y-116500000D03*
X72600000Y-192600000D03*
X61300000Y-106000000D03*
X34650500Y-163750000D03*
X51400000Y-73200000D03*
X63700000Y-68700000D03*
X38250000Y-158750000D03*
D17*
X44250000Y-155000000D03*
D15*
X42000000Y-191500000D03*
X63600000Y-192200000D03*
D18*
X75000000Y-190500000D03*
D15*
X66079289Y-123400000D03*
X65900000Y-44500000D03*
X59600000Y-192700000D03*
X38300000Y-152100000D03*
X88500000Y-93900000D03*
D19*
X40800000Y-113700000D03*
D15*
X65900000Y-48600000D03*
X65300000Y-189000000D03*
X54000000Y-109000000D03*
X34500000Y-151000000D03*
X59000000Y-42250000D03*
X64750000Y-99750000D03*
X61100000Y-69100000D03*
X56960000Y-197430000D03*
X86000000Y-41800000D03*
D16*
X85250000Y-129749374D03*
D15*
X66100000Y-60000000D03*
X85600000Y-44200000D03*
D16*
X51250000Y-129750000D03*
D15*
X90300000Y-93900000D03*
X34300000Y-143500000D03*
D19*
X44600000Y-111800000D03*
D15*
X61900000Y-114400000D03*
X41700000Y-153900000D03*
D16*
X61250000Y-129750000D03*
D15*
X66100000Y-61400000D03*
X58000000Y-82000000D03*
X62000000Y-103419500D03*
X37500000Y-178000000D03*
X34550000Y-162000000D03*
X49762299Y-82862299D03*
X80250000Y-61000000D03*
D20*
X68500000Y-191200000D03*
X68400000Y-187200000D03*
X67970346Y-192029654D03*
X67500000Y-191200000D03*
X67600000Y-187200000D03*
D15*
X69250000Y-118500000D03*
X61500000Y-118500000D03*
X54250000Y-116000000D03*
X85000000Y-119500000D03*
X80750000Y-115250000D03*
X61500000Y-119500000D03*
X75750000Y-124750000D03*
X53750000Y-117250000D03*
X48700000Y-112700000D03*
X47500000Y-111250000D03*
X40750000Y-117500000D03*
X52500000Y-118750000D03*
X45000000Y-109250000D03*
X48250000Y-118750000D03*
X60000000Y-120500000D03*
X54000000Y-106000000D03*
X71700000Y-188300000D03*
X71488105Y-190024926D03*
X65400000Y-110400000D03*
X77100000Y-53800000D03*
X65900000Y-47500000D03*
X81525500Y-98000000D03*
X83000000Y-99500000D03*
X69400000Y-89700000D03*
X94250000Y-100000000D03*
X81525500Y-96750000D03*
X83000000Y-98250000D03*
X68800000Y-88600000D03*
X94250000Y-98750000D03*
X42400000Y-114000000D03*
X50200000Y-81900000D03*
X84055659Y-101055658D03*
X100500000Y-104750000D03*
X97750000Y-109500000D03*
X97500000Y-119500000D03*
X98250000Y-130000000D03*
X97500000Y-139250000D03*
X97500000Y-149250000D03*
X97500000Y-159250000D03*
X102400000Y-154200000D03*
X102400000Y-101000000D03*
X62100000Y-188700000D03*
X70800000Y-189300000D03*
X66000000Y-46000000D03*
D16*
X34500000Y-129500000D03*
G04 #@! TA.AperFunction,Conductor*
G36*
X95502046Y-30500567D02*
G01*
X95530560Y-30501500D01*
X96051793Y-30518563D01*
X96059998Y-30519102D01*
X96605303Y-30572809D01*
X96613467Y-30573884D01*
X97154094Y-30663143D01*
X97162180Y-30664751D01*
X97695845Y-30789183D01*
X97703771Y-30791308D01*
X98228136Y-30950372D01*
X98235914Y-30953011D01*
X98748767Y-31146036D01*
X98756363Y-31149183D01*
X99255493Y-31375335D01*
X99262857Y-31378967D01*
X99732161Y-31629815D01*
X99746113Y-31637273D01*
X99753254Y-31641396D01*
X100218562Y-31930743D01*
X100225417Y-31935323D01*
X100670816Y-32254491D01*
X100677358Y-32259511D01*
X101100918Y-32607118D01*
X101107117Y-32612554D01*
X101507043Y-32987126D01*
X101512873Y-32992956D01*
X101887445Y-33392882D01*
X101892881Y-33399081D01*
X102240488Y-33822641D01*
X102245508Y-33829183D01*
X102564676Y-34274582D01*
X102569256Y-34281437D01*
X102858603Y-34746745D01*
X102862726Y-34753886D01*
X103121024Y-35237126D01*
X103124671Y-35244521D01*
X103350812Y-35743626D01*
X103353967Y-35751243D01*
X103546982Y-36264070D01*
X103549632Y-36271878D01*
X103708686Y-36796209D01*
X103710821Y-36804174D01*
X103835248Y-37337819D01*
X103836856Y-37345905D01*
X103926114Y-37886527D01*
X103927190Y-37894702D01*
X103980896Y-38439989D01*
X103981436Y-38448216D01*
X103999433Y-38997953D01*
X103999500Y-39002076D01*
X103999500Y-78873500D01*
X103982619Y-78936500D01*
X103936500Y-78982619D01*
X103873500Y-78999500D01*
X97815892Y-78999500D01*
X97750000Y-78999500D01*
X97566547Y-78999500D01*
X97497139Y-79006794D01*
X97201651Y-79037851D01*
X96842755Y-79114137D01*
X96493815Y-79227514D01*
X96158621Y-79376753D01*
X95840875Y-79560204D01*
X95544037Y-79775869D01*
X95271375Y-80021375D01*
X95025869Y-80294037D01*
X94810204Y-80590875D01*
X94626753Y-80908621D01*
X94477514Y-81243815D01*
X94364137Y-81592755D01*
X94287851Y-81951651D01*
X94262808Y-82189928D01*
X94249500Y-82316547D01*
X94249500Y-82683453D01*
X94251064Y-82698330D01*
X94287851Y-83048348D01*
X94364137Y-83407244D01*
X94477514Y-83756184D01*
X94524085Y-83860783D01*
X94626751Y-84091375D01*
X94664914Y-84157475D01*
X94810204Y-84409124D01*
X95025869Y-84705962D01*
X95271375Y-84978624D01*
X95544037Y-85224130D01*
X95544040Y-85224132D01*
X95544041Y-85224133D01*
X95840875Y-85439795D01*
X96158625Y-85623249D01*
X96442752Y-85749750D01*
X96493815Y-85772485D01*
X96819295Y-85878239D01*
X96842761Y-85885864D01*
X97201650Y-85962148D01*
X97566547Y-86000500D01*
X97714201Y-86000500D01*
X97750000Y-86000500D01*
X97815892Y-86000500D01*
X103873500Y-86000500D01*
X103936500Y-86017381D01*
X103982619Y-86063500D01*
X103999500Y-86126500D01*
X103999500Y-106978237D01*
X103988113Y-107030580D01*
X103956012Y-107073462D01*
X103908997Y-107099133D01*
X103886704Y-107105678D01*
X103658931Y-107209699D01*
X103448283Y-107345073D01*
X103259048Y-107509048D01*
X103095073Y-107698283D01*
X102959699Y-107908931D01*
X102855679Y-108136702D01*
X102785135Y-108376955D01*
X102749500Y-108624799D01*
X102749500Y-108875201D01*
X102785135Y-109123044D01*
X102822857Y-109251513D01*
X102855680Y-109363300D01*
X102917881Y-109499500D01*
X102959699Y-109591068D01*
X103095073Y-109801716D01*
X103177060Y-109896333D01*
X103259048Y-109990952D01*
X103316943Y-110041118D01*
X103448283Y-110154926D01*
X103485535Y-110178866D01*
X103658932Y-110290301D01*
X103886700Y-110394320D01*
X103906044Y-110400000D01*
X103908997Y-110400867D01*
X103956012Y-110426538D01*
X103988113Y-110469420D01*
X103999500Y-110521763D01*
X103999500Y-147478237D01*
X103988113Y-147530580D01*
X103956012Y-147573462D01*
X103908997Y-147599133D01*
X103886704Y-147605678D01*
X103658931Y-147709699D01*
X103448283Y-147845073D01*
X103259048Y-148009048D01*
X103095073Y-148198283D01*
X102959699Y-148408931D01*
X102855679Y-148636702D01*
X102785135Y-148876955D01*
X102749500Y-149124799D01*
X102749500Y-149375201D01*
X102785135Y-149623044D01*
X102833260Y-149786944D01*
X102855680Y-149863300D01*
X102910401Y-149983122D01*
X102959699Y-150091068D01*
X103095073Y-150301716D01*
X103119665Y-150330096D01*
X103259048Y-150490952D01*
X103368242Y-150585569D01*
X103448283Y-150654926D01*
X103448285Y-150654927D01*
X103658932Y-150790301D01*
X103886700Y-150894320D01*
X103906340Y-150900086D01*
X103908997Y-150900867D01*
X103956012Y-150926538D01*
X103988113Y-150969420D01*
X103999500Y-151021763D01*
X103999500Y-163360500D01*
X103982619Y-163423500D01*
X103936500Y-163469619D01*
X103873500Y-163486500D01*
X88126000Y-163486500D01*
X87993097Y-163503996D01*
X87930093Y-163520878D01*
X87806249Y-163572176D01*
X87699896Y-163653785D01*
X87653785Y-163699896D01*
X87572176Y-163806249D01*
X87520878Y-163930093D01*
X87503996Y-163993097D01*
X87486500Y-164126000D01*
X87486500Y-179560500D01*
X87469619Y-179623500D01*
X87423500Y-179669619D01*
X87360500Y-179686500D01*
X75726000Y-179686500D01*
X75593097Y-179703996D01*
X75530093Y-179720878D01*
X75406249Y-179772176D01*
X75299896Y-179853785D01*
X75253785Y-179899896D01*
X75172176Y-180006249D01*
X75120878Y-180130093D01*
X75103996Y-180193097D01*
X75086500Y-180326000D01*
X75086500Y-188757985D01*
X75106568Y-188900143D01*
X75125883Y-188967182D01*
X75184519Y-189098221D01*
X75244114Y-189168794D01*
X75277145Y-189207910D01*
X75329162Y-189254395D01*
X75448531Y-189334155D01*
X75541374Y-189378866D01*
X75615736Y-189414677D01*
X75632039Y-189424088D01*
X75770629Y-189518577D01*
X75785332Y-189530303D01*
X75908289Y-189644389D01*
X75921099Y-189658195D01*
X76025664Y-189789317D01*
X76036272Y-189804876D01*
X76120128Y-189950119D01*
X76128299Y-189967086D01*
X76189573Y-190123208D01*
X76195124Y-190141204D01*
X76232444Y-190304717D01*
X76235251Y-190323338D01*
X76247785Y-190490584D01*
X76247785Y-190509417D01*
X76235251Y-190676662D01*
X76232444Y-190695282D01*
X76195125Y-190858793D01*
X76189574Y-190876789D01*
X76141218Y-190999998D01*
X76141216Y-191000002D01*
X76128296Y-191032918D01*
X76120127Y-191049881D01*
X76036274Y-191195118D01*
X76025666Y-191210678D01*
X75921094Y-191341807D01*
X75908285Y-191355611D01*
X75785342Y-191469686D01*
X75770619Y-191481428D01*
X75632047Y-191575906D01*
X75615737Y-191585322D01*
X75448533Y-191665843D01*
X75329159Y-191745606D01*
X75278029Y-191791300D01*
X75277141Y-191792094D01*
X75273192Y-191796771D01*
X75184519Y-191901781D01*
X75125881Y-192032823D01*
X75106568Y-192099856D01*
X75086500Y-192242015D01*
X75086500Y-199373500D01*
X75069619Y-199436500D01*
X75023500Y-199482619D01*
X74960500Y-199499500D01*
X74889860Y-199499500D01*
X74830112Y-199484433D01*
X74784654Y-199442837D01*
X74764355Y-199384658D01*
X74774071Y-199323811D01*
X74789259Y-199288419D01*
X74828500Y-199097470D01*
X74828500Y-197751392D01*
X74813721Y-197606060D01*
X74755363Y-197420061D01*
X74660759Y-197249616D01*
X74660758Y-197249614D01*
X74660757Y-197249613D01*
X74533780Y-197101703D01*
X74379626Y-196982379D01*
X74204610Y-196896529D01*
X74015889Y-196847666D01*
X73821203Y-196837794D01*
X73821202Y-196837794D01*
X73805647Y-196840177D01*
X73628510Y-196867312D01*
X73540260Y-196899997D01*
X73480581Y-196906830D01*
X73424520Y-196885256D01*
X73384819Y-196840177D01*
X73370500Y-196781840D01*
X73370500Y-195766108D01*
X73385769Y-195705986D01*
X73427875Y-195660436D01*
X73486614Y-195640496D01*
X73547747Y-195651000D01*
X73587712Y-195668794D01*
X73774513Y-195708500D01*
X73965485Y-195708500D01*
X73965487Y-195708500D01*
X74152288Y-195668794D01*
X74326752Y-195591118D01*
X74481253Y-195478866D01*
X74609040Y-195336944D01*
X74704527Y-195171556D01*
X74763542Y-194989928D01*
X74778500Y-194847610D01*
X74778500Y-193952390D01*
X74763542Y-193810072D01*
X74704527Y-193628444D01*
X74704527Y-193628443D01*
X74609041Y-193463057D01*
X74481252Y-193321133D01*
X74326753Y-193208883D01*
X74326752Y-193208882D01*
X74152288Y-193131206D01*
X73965487Y-193091500D01*
X73774513Y-193091500D01*
X73649978Y-193117970D01*
X73587711Y-193131206D01*
X73413246Y-193208883D01*
X73358205Y-193248873D01*
X73299568Y-193271989D01*
X73237071Y-193263814D01*
X73186354Y-193226391D01*
X73125068Y-193150963D01*
X72993897Y-193042232D01*
X72993895Y-193042231D01*
X72993894Y-193042230D01*
X72844035Y-192961180D01*
X72681231Y-192910921D01*
X72669412Y-192909698D01*
X72653762Y-192906206D01*
X72591129Y-192901548D01*
X72587509Y-192901226D01*
X72525049Y-192894764D01*
X72509021Y-192895441D01*
X72503178Y-192895006D01*
X72411915Y-192906206D01*
X72346009Y-192914294D01*
X72269545Y-192939502D01*
X72195625Y-192963872D01*
X72057811Y-193041830D01*
X71954072Y-193131206D01*
X71937849Y-193145183D01*
X71855101Y-193251081D01*
X71811050Y-193286750D01*
X71755819Y-193299500D01*
X64744181Y-193299500D01*
X64688950Y-193286750D01*
X64644898Y-193251081D01*
X64562151Y-193145183D01*
X64471367Y-193066969D01*
X64442188Y-193041830D01*
X64304374Y-192963872D01*
X64296208Y-192961180D01*
X64153991Y-192914294D01*
X63996828Y-192895007D01*
X63996826Y-192895007D01*
X63990976Y-192895442D01*
X63974949Y-192894764D01*
X63912492Y-192901226D01*
X63908872Y-192901548D01*
X63846243Y-192906206D01*
X63830588Y-192909699D01*
X63818764Y-192910922D01*
X63655964Y-192961180D01*
X63506105Y-193042230D01*
X63374929Y-193150965D01*
X63313644Y-193226392D01*
X63262927Y-193263813D01*
X63200431Y-193271988D01*
X63141795Y-193248873D01*
X63110852Y-193226392D01*
X63086752Y-193208882D01*
X62912288Y-193131206D01*
X62725487Y-193091500D01*
X62534513Y-193091500D01*
X62409978Y-193117970D01*
X62347711Y-193131206D01*
X62173246Y-193208883D01*
X62018747Y-193321133D01*
X61890958Y-193463057D01*
X61795472Y-193628443D01*
X61736458Y-193810070D01*
X61721500Y-193952393D01*
X61721500Y-194847607D01*
X61736458Y-194989929D01*
X61795472Y-195171556D01*
X61890958Y-195336942D01*
X61890960Y-195336944D01*
X62018747Y-195478866D01*
X62173248Y-195591118D01*
X62347712Y-195668794D01*
X62534513Y-195708500D01*
X62725485Y-195708500D01*
X62725487Y-195708500D01*
X62912288Y-195668794D01*
X62952252Y-195651000D01*
X63013386Y-195640496D01*
X63072125Y-195660436D01*
X63114231Y-195705986D01*
X63129500Y-195766108D01*
X63129500Y-196776444D01*
X63116623Y-196831934D01*
X63080625Y-196876082D01*
X63028864Y-196899865D01*
X62971918Y-196898422D01*
X62964611Y-196896530D01*
X62964609Y-196896529D01*
X62830564Y-196861822D01*
X62775889Y-196847666D01*
X62581203Y-196837794D01*
X62581202Y-196837794D01*
X62565647Y-196840177D01*
X62388511Y-196867312D01*
X62205705Y-196935016D01*
X62040271Y-197038132D01*
X61898979Y-197172441D01*
X61787617Y-197332437D01*
X61710740Y-197511582D01*
X61703512Y-197546756D01*
X61671500Y-197702530D01*
X61671500Y-199048608D01*
X61676469Y-199097470D01*
X61686279Y-199193940D01*
X61730782Y-199335780D01*
X61734855Y-199394156D01*
X61712120Y-199448077D01*
X61667478Y-199485911D01*
X61610560Y-199499500D01*
X54528670Y-199499500D01*
X54521559Y-199498606D01*
X54447766Y-199499491D01*
X54446257Y-199499500D01*
X54438039Y-199499500D01*
X54437323Y-199499498D01*
X53628070Y-199494898D01*
X53623623Y-199494794D01*
X52810584Y-199461449D01*
X52806143Y-199461188D01*
X51994806Y-199399165D01*
X51990377Y-199398748D01*
X51181723Y-199308122D01*
X51177311Y-199307549D01*
X50372334Y-199188429D01*
X50367946Y-199187700D01*
X49567711Y-199040246D01*
X49563351Y-199039363D01*
X48768790Y-198863746D01*
X48767786Y-198863519D01*
X48764794Y-198862832D01*
X48763658Y-198862566D01*
X48702548Y-198847923D01*
X48702545Y-198847923D01*
X48690326Y-198844995D01*
X48684565Y-198844418D01*
X41115441Y-197107172D01*
X41110628Y-197105967D01*
X40764382Y-197012008D01*
X40755435Y-197009219D01*
X40419209Y-196890518D01*
X40410495Y-196887072D01*
X40084030Y-196743714D01*
X40075595Y-196739630D01*
X39760666Y-196572393D01*
X39752564Y-196567695D01*
X39643228Y-196498757D01*
X39450952Y-196377522D01*
X39443217Y-196372233D01*
X39304357Y-196269503D01*
X39156563Y-196160162D01*
X39149265Y-196154331D01*
X38879153Y-195921530D01*
X38872291Y-195915155D01*
X38723347Y-195766108D01*
X38637088Y-195679790D01*
X38633754Y-195675940D01*
X38626607Y-195668793D01*
X38612210Y-195654396D01*
X38608954Y-195651015D01*
X38569759Y-195608761D01*
X38554020Y-195596206D01*
X34408964Y-191451150D01*
X34403685Y-191444373D01*
X34351948Y-191394116D01*
X34350646Y-191392832D01*
X34348660Y-191390846D01*
X34346250Y-191388370D01*
X34281071Y-191319514D01*
X34095335Y-191123301D01*
X34088402Y-191115332D01*
X34020347Y-191030150D01*
X33996257Y-190999998D01*
X47330395Y-190999998D01*
X47349933Y-191273184D01*
X47349934Y-191273188D01*
X47408152Y-191540815D01*
X47503866Y-191797433D01*
X47572659Y-191923418D01*
X47635127Y-192037819D01*
X47799260Y-192257076D01*
X47992923Y-192450739D01*
X47992926Y-192450741D01*
X48212183Y-192614874D01*
X48452567Y-192746134D01*
X48709185Y-192841848D01*
X48976812Y-192900066D01*
X49250000Y-192919605D01*
X49523188Y-192900066D01*
X49790815Y-192841848D01*
X50047433Y-192746134D01*
X50287817Y-192614874D01*
X50507074Y-192450741D01*
X50700741Y-192257074D01*
X50864874Y-192037817D01*
X50996134Y-191797433D01*
X51091848Y-191540815D01*
X51150066Y-191273188D01*
X51155301Y-191199999D01*
X66736701Y-191199999D01*
X66755838Y-191369852D01*
X66812290Y-191531183D01*
X66903229Y-191675910D01*
X67024087Y-191796768D01*
X67024089Y-191796769D01*
X67024091Y-191796771D01*
X67152420Y-191877406D01*
X67198905Y-191929423D01*
X67210591Y-191998199D01*
X67207047Y-192029653D01*
X67226184Y-192199506D01*
X67282636Y-192360837D01*
X67373575Y-192505564D01*
X67494435Y-192626424D01*
X67639162Y-192717363D01*
X67800493Y-192773815D01*
X67800496Y-192773816D01*
X67970346Y-192792953D01*
X68140196Y-192773816D01*
X68301529Y-192717363D01*
X68446255Y-192626425D01*
X68567117Y-192505563D01*
X68658055Y-192360837D01*
X68714508Y-192199504D01*
X68733645Y-192029654D01*
X68733208Y-192025778D01*
X68739485Y-191970057D01*
X68769320Y-191922574D01*
X68816798Y-191892742D01*
X68831183Y-191887709D01*
X68975909Y-191796771D01*
X69096771Y-191675909D01*
X69187709Y-191531183D01*
X69244162Y-191369850D01*
X69263299Y-191200000D01*
X69244162Y-191030150D01*
X69187709Y-190868817D01*
X69187709Y-190868816D01*
X69096770Y-190724089D01*
X68975910Y-190603229D01*
X68831183Y-190512290D01*
X68669852Y-190455838D01*
X68500000Y-190436701D01*
X68330147Y-190455838D01*
X68168816Y-190512290D01*
X68067036Y-190576244D01*
X68000000Y-190595557D01*
X67932964Y-190576244D01*
X67831183Y-190512290D01*
X67669852Y-190455838D01*
X67500000Y-190436701D01*
X67330147Y-190455838D01*
X67168816Y-190512290D01*
X67024089Y-190603229D01*
X66903229Y-190724089D01*
X66812290Y-190868816D01*
X66755838Y-191030147D01*
X66736701Y-191199999D01*
X51155301Y-191199999D01*
X51169605Y-191000000D01*
X51164843Y-190933426D01*
X51160793Y-190876789D01*
X51150066Y-190726812D01*
X51091848Y-190459185D01*
X50996134Y-190202567D01*
X50864874Y-189962183D01*
X50776217Y-189843751D01*
X50700739Y-189742923D01*
X50507076Y-189549260D01*
X50287819Y-189385127D01*
X50190720Y-189332107D01*
X50047433Y-189253866D01*
X49790815Y-189158152D01*
X49592740Y-189115064D01*
X49523184Y-189099933D01*
X49250000Y-189080394D01*
X48976815Y-189099933D01*
X48795516Y-189139372D01*
X48709185Y-189158152D01*
X48452567Y-189253866D01*
X48452565Y-189253866D01*
X48452565Y-189253867D01*
X48212180Y-189385127D01*
X47992923Y-189549260D01*
X47799260Y-189742923D01*
X47635127Y-189962180D01*
X47508339Y-190194376D01*
X47503866Y-190202567D01*
X47461349Y-190316559D01*
X47408152Y-190459185D01*
X47349933Y-190726815D01*
X47330395Y-190999998D01*
X33996257Y-190999998D01*
X33861632Y-190831493D01*
X33855391Y-190822973D01*
X33846720Y-190810028D01*
X33653183Y-190521108D01*
X33647691Y-190512117D01*
X33471480Y-190194364D01*
X33466760Y-190184941D01*
X33317798Y-189853558D01*
X33313875Y-189843751D01*
X33311478Y-189836944D01*
X33202621Y-189527808D01*
X38141500Y-189527808D01*
X38156580Y-189685737D01*
X38216222Y-189888861D01*
X38313230Y-190077028D01*
X38324309Y-190091116D01*
X38444092Y-190243432D01*
X38604082Y-190382065D01*
X38787418Y-190487913D01*
X38987473Y-190557153D01*
X39092244Y-190572217D01*
X39197014Y-190587281D01*
X39197015Y-190587280D01*
X39197016Y-190587281D01*
X39408474Y-190577208D01*
X39614204Y-190527298D01*
X39806771Y-190439356D01*
X39806771Y-190439355D01*
X39806775Y-190439354D01*
X39979213Y-190316561D01*
X39979215Y-190316559D01*
X40068596Y-190222817D01*
X40116300Y-190191510D01*
X40172923Y-190184455D01*
X40226852Y-190203100D01*
X40267025Y-190243619D01*
X40272262Y-190252109D01*
X40300972Y-190298655D01*
X40426344Y-190424027D01*
X40426346Y-190424028D01*
X40426348Y-190424030D01*
X40577262Y-190517115D01*
X40745574Y-190572887D01*
X40849455Y-190583500D01*
X41650544Y-190583499D01*
X41754426Y-190572887D01*
X41922738Y-190517115D01*
X42073652Y-190424030D01*
X42199030Y-190298652D01*
X42292115Y-190147738D01*
X42347887Y-189979426D01*
X42358500Y-189875545D01*
X42358499Y-188700000D01*
X61186496Y-188700000D01*
X61206458Y-188889929D01*
X61265472Y-189071556D01*
X61360958Y-189236942D01*
X61376671Y-189254393D01*
X61488747Y-189378866D01*
X61643248Y-189491118D01*
X61817712Y-189568794D01*
X62004513Y-189608500D01*
X62195485Y-189608500D01*
X62195487Y-189608500D01*
X62382288Y-189568794D01*
X62556752Y-189491118D01*
X62711253Y-189378866D01*
X62782264Y-189300000D01*
X69886496Y-189300000D01*
X69906458Y-189489929D01*
X69965472Y-189671556D01*
X70060958Y-189836942D01*
X70060960Y-189836944D01*
X70188747Y-189978866D01*
X70343248Y-190091118D01*
X70517712Y-190168794D01*
X70517713Y-190168794D01*
X70529810Y-190174180D01*
X70529022Y-190175947D01*
X70571142Y-190197405D01*
X70606668Y-190252109D01*
X70653577Y-190396482D01*
X70749063Y-190561868D01*
X70786305Y-190603229D01*
X70876852Y-190703792D01*
X71031353Y-190816044D01*
X71205817Y-190893720D01*
X71392618Y-190933426D01*
X71583590Y-190933426D01*
X71583592Y-190933426D01*
X71770393Y-190893720D01*
X71944857Y-190816044D01*
X72099358Y-190703792D01*
X72227145Y-190561870D01*
X72322632Y-190396482D01*
X72381647Y-190214854D01*
X72401609Y-190024926D01*
X72381647Y-189834998D01*
X72351036Y-189740788D01*
X72322632Y-189653369D01*
X72227146Y-189487983D01*
X72161141Y-189414677D01*
X72099358Y-189346060D01*
X72080152Y-189332106D01*
X72039108Y-189281419D01*
X72028905Y-189217000D01*
X72052279Y-189156109D01*
X72102965Y-189115065D01*
X72156752Y-189091118D01*
X72311253Y-188978866D01*
X72439040Y-188836944D01*
X72534527Y-188671556D01*
X72593542Y-188489928D01*
X72613504Y-188300000D01*
X72593542Y-188110072D01*
X72539634Y-187944161D01*
X72534527Y-187928443D01*
X72439041Y-187763057D01*
X72311252Y-187621133D01*
X72234002Y-187565007D01*
X72156752Y-187508882D01*
X71982288Y-187431206D01*
X71795487Y-187391500D01*
X71604513Y-187391500D01*
X71479978Y-187417970D01*
X71417711Y-187431206D01*
X71243246Y-187508883D01*
X71088747Y-187621133D01*
X70960958Y-187763057D01*
X70865472Y-187928443D01*
X70806458Y-188110070D01*
X70788101Y-188284724D01*
X70771910Y-188334553D01*
X70736852Y-188373489D01*
X70688988Y-188394799D01*
X70661319Y-188400681D01*
X70517711Y-188431206D01*
X70343246Y-188508883D01*
X70188747Y-188621133D01*
X70060958Y-188763057D01*
X69965472Y-188928443D01*
X69906458Y-189110070D01*
X69886496Y-189300000D01*
X62782264Y-189300000D01*
X62839040Y-189236944D01*
X62934527Y-189071556D01*
X62993542Y-188889928D01*
X63013504Y-188700000D01*
X62993542Y-188510072D01*
X62934527Y-188328444D01*
X62934527Y-188328443D01*
X62839041Y-188163057D01*
X62711252Y-188021133D01*
X62614005Y-187950479D01*
X62556752Y-187908882D01*
X62382288Y-187831206D01*
X62195487Y-187791500D01*
X62004513Y-187791500D01*
X61904691Y-187812718D01*
X61817711Y-187831206D01*
X61643246Y-187908883D01*
X61488747Y-188021133D01*
X61360958Y-188163057D01*
X61265472Y-188328443D01*
X61206458Y-188510070D01*
X61186496Y-188700000D01*
X42358499Y-188700000D01*
X42358499Y-188524456D01*
X42347887Y-188420574D01*
X42292115Y-188252262D01*
X42199030Y-188101348D01*
X42199028Y-188101346D01*
X42199027Y-188101344D01*
X42073655Y-187975972D01*
X42053109Y-187963299D01*
X41922738Y-187882885D01*
X41754426Y-187827113D01*
X41650545Y-187816500D01*
X41650540Y-187816500D01*
X40849459Y-187816500D01*
X40745573Y-187827113D01*
X40577262Y-187882885D01*
X40426344Y-187975972D01*
X40300970Y-188101346D01*
X40268893Y-188153351D01*
X40226161Y-188195437D01*
X40168813Y-188212999D01*
X40109842Y-188202058D01*
X40062611Y-188165092D01*
X40061010Y-188163056D01*
X40055908Y-188156568D01*
X39895918Y-188017935D01*
X39796686Y-187960644D01*
X39712581Y-187912086D01*
X39523597Y-187846678D01*
X39512527Y-187842847D01*
X39512526Y-187842846D01*
X39512524Y-187842846D01*
X39302985Y-187812718D01*
X39091527Y-187822791D01*
X38885797Y-187872701D01*
X38693224Y-187960645D01*
X38520788Y-188083436D01*
X38374696Y-188236655D01*
X38260241Y-188414749D01*
X38181564Y-188611275D01*
X38141500Y-188819151D01*
X38141500Y-189527808D01*
X33202621Y-189527808D01*
X33193198Y-189501049D01*
X33190115Y-189490959D01*
X33189340Y-189487983D01*
X33118791Y-189217000D01*
X33098581Y-189139372D01*
X33096350Y-189129045D01*
X33034594Y-188771025D01*
X33033236Y-188760547D01*
X33021086Y-188621134D01*
X33001690Y-188398585D01*
X33001216Y-188388068D01*
X33000177Y-188047451D01*
X33000500Y-188042842D01*
X33000500Y-188012202D01*
X33000595Y-188007303D01*
X33002410Y-187960645D01*
X33002684Y-187953616D01*
X33002683Y-187953615D01*
X33002806Y-187950479D01*
X33000500Y-187929878D01*
X33000500Y-187200000D01*
X66836701Y-187200000D01*
X66855838Y-187369852D01*
X66912290Y-187531183D01*
X67003229Y-187675910D01*
X67124089Y-187796770D01*
X67268816Y-187887709D01*
X67429633Y-187943981D01*
X67430150Y-187944162D01*
X67600000Y-187963299D01*
X67769850Y-187944162D01*
X67931183Y-187887709D01*
X67932403Y-187886942D01*
X67932963Y-187886591D01*
X67940977Y-187884281D01*
X67944584Y-187883020D01*
X67944654Y-187883222D01*
X68000000Y-187867277D01*
X68055345Y-187883222D01*
X68055416Y-187883020D01*
X68059022Y-187884281D01*
X68067037Y-187886591D01*
X68068019Y-187887208D01*
X68068817Y-187887709D01*
X68230150Y-187944162D01*
X68400000Y-187963299D01*
X68569850Y-187944162D01*
X68731183Y-187887709D01*
X68875909Y-187796771D01*
X68996771Y-187675909D01*
X69087709Y-187531183D01*
X69144162Y-187369850D01*
X69163299Y-187200000D01*
X69144162Y-187030150D01*
X69087709Y-186868817D01*
X69087709Y-186868816D01*
X68996770Y-186724089D01*
X68875910Y-186603229D01*
X68731183Y-186512290D01*
X68569852Y-186455838D01*
X68400000Y-186436701D01*
X68230147Y-186455838D01*
X68068819Y-186512290D01*
X68068817Y-186512290D01*
X68068817Y-186512291D01*
X68067031Y-186513412D01*
X68058997Y-186515727D01*
X68055417Y-186516980D01*
X68055346Y-186516778D01*
X68000000Y-186532723D01*
X67944653Y-186516778D01*
X67944583Y-186516980D01*
X67941002Y-186515727D01*
X67932968Y-186513412D01*
X67931183Y-186512291D01*
X67920473Y-186508543D01*
X67769852Y-186455838D01*
X67600000Y-186436701D01*
X67430147Y-186455838D01*
X67268816Y-186512290D01*
X67124089Y-186603229D01*
X67003229Y-186724089D01*
X66912290Y-186868816D01*
X66855838Y-187030147D01*
X66836701Y-187200000D01*
X33000500Y-187200000D01*
X33000500Y-181521763D01*
X33011887Y-181469420D01*
X33043988Y-181426538D01*
X33091003Y-181400867D01*
X33092073Y-181400552D01*
X33113300Y-181394320D01*
X33341068Y-181290301D01*
X33551715Y-181154927D01*
X33740952Y-180990952D01*
X33904927Y-180801715D01*
X34040301Y-180591068D01*
X34144320Y-180363300D01*
X34214864Y-180123046D01*
X34235200Y-179981608D01*
X34250500Y-179875201D01*
X34250500Y-179624799D01*
X34214864Y-179376955D01*
X34214864Y-179376954D01*
X34144320Y-179136700D01*
X34040301Y-178908932D01*
X33904927Y-178698285D01*
X33904926Y-178698283D01*
X33795466Y-178571961D01*
X33740952Y-178509048D01*
X33646333Y-178427060D01*
X33551716Y-178345073D01*
X33341068Y-178209699D01*
X33297776Y-178189928D01*
X33113300Y-178105680D01*
X33113297Y-178105679D01*
X32873044Y-178035135D01*
X32628679Y-178000000D01*
X36586496Y-178000000D01*
X36606458Y-178189929D01*
X36665472Y-178371556D01*
X36760958Y-178536942D01*
X36760960Y-178536944D01*
X36888747Y-178678866D01*
X37043248Y-178791118D01*
X37217712Y-178868794D01*
X37404513Y-178908500D01*
X37595485Y-178908500D01*
X37595487Y-178908500D01*
X37782288Y-178868794D01*
X37956752Y-178791118D01*
X38111253Y-178678866D01*
X38239040Y-178536944D01*
X38334527Y-178371556D01*
X38393542Y-178189928D01*
X38413504Y-178000000D01*
X38393542Y-177810072D01*
X38334527Y-177628444D01*
X38334527Y-177628443D01*
X38239041Y-177463057D01*
X38111252Y-177321133D01*
X37956753Y-177208883D01*
X37956752Y-177208882D01*
X37782288Y-177131206D01*
X37595487Y-177091500D01*
X37404513Y-177091500D01*
X37279979Y-177117970D01*
X37217711Y-177131206D01*
X37043246Y-177208883D01*
X36888747Y-177321133D01*
X36760958Y-177463057D01*
X36665472Y-177628443D01*
X36606458Y-177810070D01*
X36586496Y-178000000D01*
X32628679Y-178000000D01*
X32616278Y-177998217D01*
X32616479Y-177996815D01*
X32563500Y-177982619D01*
X32517381Y-177936500D01*
X32500500Y-177873500D01*
X32500500Y-162000000D01*
X33636496Y-162000000D01*
X33656458Y-162189929D01*
X33715472Y-162371556D01*
X33810958Y-162536942D01*
X33810960Y-162536944D01*
X33938747Y-162678866D01*
X34093248Y-162791118D01*
X34267712Y-162868794D01*
X34454513Y-162908500D01*
X34645485Y-162908500D01*
X34645487Y-162908500D01*
X34832288Y-162868794D01*
X35006752Y-162791118D01*
X35161253Y-162678866D01*
X35289040Y-162536944D01*
X35384527Y-162371556D01*
X35443542Y-162189928D01*
X35463504Y-162000000D01*
X35443542Y-161810072D01*
X35384527Y-161628444D01*
X35384527Y-161628443D01*
X35289041Y-161463057D01*
X35161252Y-161321133D01*
X35006753Y-161208883D01*
X35006752Y-161208882D01*
X34832288Y-161131206D01*
X34645487Y-161091500D01*
X34454513Y-161091500D01*
X34329978Y-161117970D01*
X34267711Y-161131206D01*
X34093246Y-161208883D01*
X33938747Y-161321133D01*
X33810958Y-161463057D01*
X33715472Y-161628443D01*
X33656458Y-161810070D01*
X33636496Y-162000000D01*
X32500500Y-162000000D01*
X32500500Y-159249999D01*
X96586496Y-159249999D01*
X96606458Y-159439929D01*
X96665472Y-159621556D01*
X96760958Y-159786942D01*
X96760960Y-159786944D01*
X96888747Y-159928866D01*
X97043248Y-160041118D01*
X97217712Y-160118794D01*
X97404513Y-160158500D01*
X97595485Y-160158500D01*
X97595487Y-160158500D01*
X97782288Y-160118794D01*
X97956752Y-160041118D01*
X98111253Y-159928866D01*
X98239040Y-159786944D01*
X98334527Y-159621556D01*
X98393542Y-159439928D01*
X98413504Y-159250000D01*
X98393542Y-159060072D01*
X98334527Y-158878444D01*
X98334527Y-158878443D01*
X98239041Y-158713057D01*
X98111252Y-158571133D01*
X97956753Y-158458883D01*
X97956752Y-158458882D01*
X97782288Y-158381206D01*
X97595487Y-158341500D01*
X97404513Y-158341500D01*
X97279979Y-158367970D01*
X97217711Y-158381206D01*
X97043246Y-158458883D01*
X96888747Y-158571133D01*
X96760958Y-158713057D01*
X96665472Y-158878443D01*
X96606458Y-159060070D01*
X96586496Y-159249999D01*
X32500500Y-159249999D01*
X32500500Y-153900000D01*
X40786496Y-153900000D01*
X40806458Y-154089929D01*
X40865472Y-154271556D01*
X40960958Y-154436942D01*
X40960960Y-154436944D01*
X41088747Y-154578866D01*
X41243248Y-154691118D01*
X41417712Y-154768794D01*
X41604513Y-154808500D01*
X41795485Y-154808500D01*
X41795487Y-154808500D01*
X41982288Y-154768794D01*
X42156752Y-154691118D01*
X42311253Y-154578866D01*
X42439040Y-154436944D01*
X42534527Y-154271556D01*
X42557777Y-154199999D01*
X101486496Y-154199999D01*
X101506458Y-154389929D01*
X101565472Y-154571556D01*
X101660958Y-154736942D01*
X101660960Y-154736944D01*
X101788747Y-154878866D01*
X101943248Y-154991118D01*
X102117712Y-155068794D01*
X102304513Y-155108500D01*
X102495485Y-155108500D01*
X102495487Y-155108500D01*
X102682288Y-155068794D01*
X102856752Y-154991118D01*
X103011253Y-154878866D01*
X103139040Y-154736944D01*
X103234527Y-154571556D01*
X103293542Y-154389928D01*
X103313504Y-154200000D01*
X103293542Y-154010072D01*
X103234527Y-153828444D01*
X103234527Y-153828443D01*
X103139041Y-153663057D01*
X103011252Y-153521133D01*
X102856753Y-153408883D01*
X102856752Y-153408882D01*
X102682288Y-153331206D01*
X102495487Y-153291500D01*
X102304513Y-153291500D01*
X102179979Y-153317970D01*
X102117711Y-153331206D01*
X101943246Y-153408883D01*
X101788747Y-153521133D01*
X101660958Y-153663057D01*
X101565472Y-153828443D01*
X101506458Y-154010070D01*
X101486496Y-154199999D01*
X42557777Y-154199999D01*
X42593542Y-154089928D01*
X42613504Y-153900000D01*
X42593542Y-153710072D01*
X42534527Y-153528444D01*
X42534527Y-153528443D01*
X42439041Y-153363057D01*
X42311252Y-153221133D01*
X42156753Y-153108883D01*
X42156752Y-153108882D01*
X41982288Y-153031206D01*
X41795487Y-152991500D01*
X41604513Y-152991500D01*
X41479979Y-153017970D01*
X41417711Y-153031206D01*
X41243246Y-153108883D01*
X41088747Y-153221133D01*
X40960958Y-153363057D01*
X40865472Y-153528443D01*
X40806458Y-153710070D01*
X40786496Y-153900000D01*
X32500500Y-153900000D01*
X32500500Y-151021763D01*
X32511887Y-150969420D01*
X32543988Y-150926538D01*
X32591003Y-150900867D01*
X32592073Y-150900552D01*
X32613300Y-150894320D01*
X32841068Y-150790301D01*
X33051715Y-150654927D01*
X33240952Y-150490952D01*
X33404927Y-150301715D01*
X33540301Y-150091068D01*
X33644320Y-149863300D01*
X33714864Y-149623046D01*
X33750500Y-149375198D01*
X33750500Y-149250000D01*
X96586496Y-149250000D01*
X96606458Y-149439929D01*
X96665472Y-149621556D01*
X96760958Y-149786942D01*
X96829708Y-149863297D01*
X96888747Y-149928866D01*
X97043248Y-150041118D01*
X97217712Y-150118794D01*
X97404513Y-150158500D01*
X97595485Y-150158500D01*
X97595487Y-150158500D01*
X97782288Y-150118794D01*
X97956752Y-150041118D01*
X98111253Y-149928866D01*
X98239040Y-149786944D01*
X98334527Y-149621556D01*
X98393542Y-149439928D01*
X98413504Y-149250000D01*
X98393542Y-149060072D01*
X98334527Y-148878444D01*
X98334527Y-148878443D01*
X98239041Y-148713057D01*
X98111252Y-148571133D01*
X98014034Y-148500500D01*
X97956752Y-148458882D01*
X97782288Y-148381206D01*
X97595487Y-148341500D01*
X97404513Y-148341500D01*
X97279978Y-148367970D01*
X97217711Y-148381206D01*
X97043246Y-148458883D01*
X96888747Y-148571133D01*
X96760958Y-148713057D01*
X96665472Y-148878443D01*
X96606458Y-149060070D01*
X96586496Y-149250000D01*
X33750500Y-149250000D01*
X33750500Y-149124802D01*
X33714864Y-148876954D01*
X33644320Y-148636700D01*
X33540301Y-148408932D01*
X33404927Y-148198285D01*
X33404926Y-148198283D01*
X33320401Y-148100737D01*
X33240952Y-148009048D01*
X33146333Y-147927060D01*
X33051716Y-147845073D01*
X32841068Y-147709699D01*
X32841067Y-147709698D01*
X32613300Y-147605680D01*
X32613298Y-147605679D01*
X32613295Y-147605678D01*
X32591003Y-147599133D01*
X32543988Y-147573462D01*
X32511887Y-147530580D01*
X32500500Y-147478237D01*
X32500500Y-143500000D01*
X33386496Y-143500000D01*
X33406458Y-143689929D01*
X33465472Y-143871556D01*
X33560958Y-144036942D01*
X33560960Y-144036944D01*
X33688747Y-144178866D01*
X33843248Y-144291118D01*
X34017712Y-144368794D01*
X34204513Y-144408500D01*
X34395485Y-144408500D01*
X34395487Y-144408500D01*
X34582288Y-144368794D01*
X34756752Y-144291118D01*
X34911253Y-144178866D01*
X35039040Y-144036944D01*
X35134527Y-143871556D01*
X35193542Y-143689928D01*
X35213504Y-143500000D01*
X35193542Y-143310072D01*
X35134527Y-143128444D01*
X35134527Y-143128443D01*
X35039041Y-142963057D01*
X34911252Y-142821133D01*
X34756753Y-142708883D01*
X34756752Y-142708882D01*
X34582288Y-142631206D01*
X34395487Y-142591500D01*
X34204513Y-142591500D01*
X34079978Y-142617970D01*
X34017711Y-142631206D01*
X33843246Y-142708883D01*
X33688747Y-142821133D01*
X33560958Y-142963057D01*
X33465472Y-143128443D01*
X33406458Y-143310070D01*
X33386496Y-143500000D01*
X32500500Y-143500000D01*
X32500500Y-139250000D01*
X96586496Y-139250000D01*
X96606458Y-139439929D01*
X96665472Y-139621556D01*
X96760958Y-139786942D01*
X96760960Y-139786944D01*
X96888747Y-139928866D01*
X97043248Y-140041118D01*
X97217712Y-140118794D01*
X97404513Y-140158500D01*
X97595485Y-140158500D01*
X97595487Y-140158500D01*
X97782288Y-140118794D01*
X97956752Y-140041118D01*
X98111253Y-139928866D01*
X98239040Y-139786944D01*
X98334527Y-139621556D01*
X98393542Y-139439928D01*
X98413504Y-139250000D01*
X98393542Y-139060072D01*
X98334527Y-138878444D01*
X98334527Y-138878443D01*
X98239041Y-138713057D01*
X98111252Y-138571133D01*
X97956753Y-138458883D01*
X97956752Y-138458882D01*
X97782288Y-138381206D01*
X97595487Y-138341500D01*
X97404513Y-138341500D01*
X97279979Y-138367970D01*
X97217711Y-138381206D01*
X97043246Y-138458883D01*
X96888747Y-138571133D01*
X96760958Y-138713057D01*
X96665472Y-138878443D01*
X96606458Y-139060070D01*
X96586496Y-139250000D01*
X32500500Y-139250000D01*
X32500500Y-129500000D01*
X33186502Y-129500000D01*
X33206457Y-129728087D01*
X33265715Y-129949243D01*
X33362477Y-130156750D01*
X33493804Y-130344303D01*
X33655696Y-130506195D01*
X33843249Y-130637522D01*
X34050756Y-130734284D01*
X34110015Y-130750162D01*
X34271913Y-130793543D01*
X34500000Y-130813498D01*
X34728087Y-130793543D01*
X34949243Y-130734284D01*
X35156749Y-130637523D01*
X35344300Y-130506198D01*
X35506198Y-130344300D01*
X35637523Y-130156749D01*
X35734284Y-129949243D01*
X35787671Y-129750000D01*
X49936502Y-129750000D01*
X49956457Y-129978087D01*
X50015715Y-130199243D01*
X50112477Y-130406750D01*
X50243804Y-130594303D01*
X50405696Y-130756195D01*
X50593249Y-130887522D01*
X50800756Y-130984284D01*
X50860014Y-131000162D01*
X51021913Y-131043543D01*
X51250000Y-131063498D01*
X51478087Y-131043543D01*
X51699243Y-130984284D01*
X51906749Y-130887523D01*
X52094300Y-130756198D01*
X52256198Y-130594300D01*
X52387523Y-130406749D01*
X52484284Y-130199243D01*
X52543543Y-129978087D01*
X52563498Y-129750000D01*
X59936502Y-129750000D01*
X59956457Y-129978087D01*
X60015715Y-130199243D01*
X60112477Y-130406750D01*
X60243804Y-130594303D01*
X60405696Y-130756195D01*
X60593249Y-130887522D01*
X60800756Y-130984284D01*
X60860014Y-131000162D01*
X61021913Y-131043543D01*
X61250000Y-131063498D01*
X61478087Y-131043543D01*
X61699243Y-130984284D01*
X61906749Y-130887523D01*
X62094300Y-130756198D01*
X62256198Y-130594300D01*
X62387523Y-130406749D01*
X62484284Y-130199243D01*
X62537671Y-130000000D01*
X97336496Y-130000000D01*
X97356458Y-130189929D01*
X97415472Y-130371556D01*
X97510958Y-130536942D01*
X97562606Y-130594303D01*
X97638747Y-130678866D01*
X97793248Y-130791118D01*
X97967712Y-130868794D01*
X98154513Y-130908500D01*
X98345485Y-130908500D01*
X98345487Y-130908500D01*
X98532288Y-130868794D01*
X98706752Y-130791118D01*
X98861253Y-130678866D01*
X98989040Y-130536944D01*
X99084527Y-130371556D01*
X99143542Y-130189928D01*
X99163504Y-130000000D01*
X99143542Y-129810072D01*
X99084527Y-129628444D01*
X99084527Y-129628443D01*
X98989041Y-129463057D01*
X98861252Y-129321133D01*
X98706753Y-129208883D01*
X98706752Y-129208882D01*
X98532288Y-129131206D01*
X98345487Y-129091500D01*
X98154513Y-129091500D01*
X98029978Y-129117970D01*
X97967711Y-129131206D01*
X97793246Y-129208883D01*
X97638747Y-129321133D01*
X97510958Y-129463057D01*
X97415472Y-129628443D01*
X97356458Y-129810070D01*
X97336496Y-130000000D01*
X62537671Y-130000000D01*
X62543543Y-129978087D01*
X62563498Y-129750000D01*
X62543543Y-129521913D01*
X62484284Y-129300757D01*
X62470833Y-129271912D01*
X62387522Y-129093249D01*
X62256195Y-128905696D01*
X62094303Y-128743804D01*
X61906750Y-128612477D01*
X61699243Y-128515715D01*
X61478087Y-128456457D01*
X61250000Y-128436502D01*
X61021912Y-128456457D01*
X60800756Y-128515715D01*
X60593249Y-128612477D01*
X60405696Y-128743804D01*
X60243804Y-128905696D01*
X60112477Y-129093249D01*
X60015715Y-129300756D01*
X59956457Y-129521912D01*
X59936502Y-129750000D01*
X52563498Y-129750000D01*
X52543543Y-129521913D01*
X52484284Y-129300757D01*
X52470833Y-129271912D01*
X52387522Y-129093249D01*
X52256195Y-128905696D01*
X52094303Y-128743804D01*
X51906750Y-128612477D01*
X51699243Y-128515715D01*
X51478087Y-128456457D01*
X51250000Y-128436502D01*
X51021912Y-128456457D01*
X50800756Y-128515715D01*
X50593249Y-128612477D01*
X50405696Y-128743804D01*
X50243804Y-128905696D01*
X50112477Y-129093249D01*
X50015715Y-129300756D01*
X49956457Y-129521912D01*
X49936502Y-129750000D01*
X35787671Y-129750000D01*
X35793543Y-129728087D01*
X35813498Y-129500000D01*
X35793543Y-129271913D01*
X35734284Y-129050757D01*
X35637523Y-128843251D01*
X35506198Y-128655700D01*
X35506197Y-128655699D01*
X35506195Y-128655696D01*
X35344303Y-128493804D01*
X35156750Y-128362477D01*
X34949243Y-128265715D01*
X34728087Y-128206457D01*
X34500000Y-128186502D01*
X34271912Y-128206457D01*
X34050756Y-128265715D01*
X33843249Y-128362477D01*
X33655696Y-128493804D01*
X33493804Y-128655696D01*
X33362477Y-128843249D01*
X33265715Y-129050756D01*
X33206457Y-129271912D01*
X33186502Y-129500000D01*
X32500500Y-129500000D01*
X32500500Y-124750000D01*
X74836496Y-124750000D01*
X74856458Y-124939929D01*
X74915472Y-125121556D01*
X75010958Y-125286942D01*
X75010960Y-125286944D01*
X75138747Y-125428866D01*
X75293248Y-125541118D01*
X75467712Y-125618794D01*
X75654513Y-125658500D01*
X75845485Y-125658500D01*
X75845487Y-125658500D01*
X76032288Y-125618794D01*
X76206752Y-125541118D01*
X76361253Y-125428866D01*
X76489040Y-125286944D01*
X76584527Y-125121556D01*
X76643542Y-124939928D01*
X76663504Y-124750000D01*
X76643542Y-124560072D01*
X76584527Y-124378444D01*
X76584527Y-124378443D01*
X76489041Y-124213057D01*
X76361252Y-124071133D01*
X76206753Y-123958883D01*
X76206752Y-123958882D01*
X76032288Y-123881206D01*
X75845487Y-123841500D01*
X75654513Y-123841500D01*
X75529978Y-123867970D01*
X75467711Y-123881206D01*
X75293246Y-123958883D01*
X75138747Y-124071133D01*
X75010958Y-124213057D01*
X74915472Y-124378443D01*
X74856458Y-124560070D01*
X74836496Y-124750000D01*
X32500500Y-124750000D01*
X32500500Y-121021763D01*
X32511887Y-120969420D01*
X32543988Y-120926538D01*
X32591003Y-120900867D01*
X32592073Y-120900552D01*
X32613300Y-120894320D01*
X32841068Y-120790301D01*
X33051715Y-120654927D01*
X33230510Y-120500000D01*
X59086496Y-120500000D01*
X59106458Y-120689929D01*
X59165472Y-120871556D01*
X59260958Y-121036942D01*
X59260960Y-121036944D01*
X59388747Y-121178866D01*
X59543248Y-121291118D01*
X59717712Y-121368794D01*
X59904513Y-121408500D01*
X60095485Y-121408500D01*
X60095487Y-121408500D01*
X60282288Y-121368794D01*
X60456752Y-121291118D01*
X60611253Y-121178866D01*
X60739040Y-121036944D01*
X60834527Y-120871556D01*
X60893542Y-120689928D01*
X60913504Y-120500000D01*
X60906914Y-120437302D01*
X60917117Y-120372884D01*
X60958163Y-120322197D01*
X61019054Y-120298823D01*
X61083468Y-120309025D01*
X61217712Y-120368794D01*
X61404513Y-120408500D01*
X61595485Y-120408500D01*
X61595487Y-120408500D01*
X61782288Y-120368794D01*
X61956752Y-120291118D01*
X62111253Y-120178866D01*
X62239040Y-120036944D01*
X62334527Y-119871556D01*
X62387020Y-119709999D01*
X72702253Y-119709999D01*
X72719656Y-120008783D01*
X72721222Y-120035669D01*
X72769607Y-120310070D01*
X72777870Y-120356934D01*
X72871432Y-120669455D01*
X73000640Y-120968992D01*
X73163751Y-121251509D01*
X73322231Y-121464383D01*
X73358557Y-121513177D01*
X73582423Y-121750462D01*
X73832323Y-121960153D01*
X74104877Y-122139414D01*
X74396399Y-122285822D01*
X74702946Y-122397396D01*
X75020374Y-122472628D01*
X75344389Y-122510500D01*
X75670611Y-122510500D01*
X75994626Y-122472628D01*
X76312054Y-122397396D01*
X76618601Y-122285822D01*
X76910123Y-122139414D01*
X77182677Y-121960153D01*
X77432577Y-121750462D01*
X77656443Y-121513177D01*
X77851249Y-121251508D01*
X78014359Y-120968992D01*
X78143569Y-120669451D01*
X78237130Y-120356934D01*
X78293778Y-120035669D01*
X78312746Y-119710000D01*
X78300515Y-119500000D01*
X84086496Y-119500000D01*
X84106458Y-119689929D01*
X84165472Y-119871556D01*
X84260958Y-120036942D01*
X84343346Y-120128443D01*
X84388747Y-120178866D01*
X84543248Y-120291118D01*
X84717712Y-120368794D01*
X84904513Y-120408500D01*
X85095485Y-120408500D01*
X85095487Y-120408500D01*
X85282288Y-120368794D01*
X85456752Y-120291118D01*
X85611253Y-120178866D01*
X85739040Y-120036944D01*
X85834527Y-119871556D01*
X85893542Y-119689928D01*
X85913504Y-119500000D01*
X96586496Y-119500000D01*
X96606458Y-119689929D01*
X96665472Y-119871556D01*
X96760958Y-120036942D01*
X96843346Y-120128443D01*
X96888747Y-120178866D01*
X97043248Y-120291118D01*
X97217712Y-120368794D01*
X97404513Y-120408500D01*
X97595485Y-120408500D01*
X97595487Y-120408500D01*
X97782288Y-120368794D01*
X97956752Y-120291118D01*
X98111253Y-120178866D01*
X98239040Y-120036944D01*
X98334527Y-119871556D01*
X98393542Y-119689928D01*
X98413504Y-119500000D01*
X98393542Y-119310072D01*
X98348568Y-119171656D01*
X98334527Y-119128443D01*
X98239041Y-118963057D01*
X98111252Y-118821133D01*
X98014101Y-118750549D01*
X97956752Y-118708882D01*
X97782288Y-118631206D01*
X97595487Y-118591500D01*
X97404513Y-118591500D01*
X97279979Y-118617970D01*
X97217711Y-118631206D01*
X97043246Y-118708883D01*
X96888747Y-118821133D01*
X96760958Y-118963057D01*
X96665472Y-119128443D01*
X96606458Y-119310070D01*
X96586496Y-119500000D01*
X85913504Y-119500000D01*
X85893542Y-119310072D01*
X85848568Y-119171656D01*
X85834527Y-119128443D01*
X85739041Y-118963057D01*
X85611252Y-118821133D01*
X85514101Y-118750549D01*
X85456752Y-118708882D01*
X85282288Y-118631206D01*
X85095487Y-118591500D01*
X84904513Y-118591500D01*
X84779979Y-118617970D01*
X84717711Y-118631206D01*
X84543246Y-118708883D01*
X84388747Y-118821133D01*
X84260958Y-118963057D01*
X84165472Y-119128443D01*
X84106458Y-119310070D01*
X84086496Y-119500000D01*
X78300515Y-119500000D01*
X78293778Y-119384331D01*
X78237130Y-119063066D01*
X78143569Y-118750549D01*
X78035708Y-118500500D01*
X78014359Y-118451007D01*
X77851248Y-118168490D01*
X77656443Y-117906823D01*
X77432580Y-117669541D01*
X77432579Y-117669540D01*
X77432577Y-117669538D01*
X77182677Y-117459847D01*
X76910123Y-117280586D01*
X76618601Y-117134178D01*
X76618597Y-117134176D01*
X76618594Y-117134175D01*
X76312060Y-117022606D01*
X76312058Y-117022605D01*
X76312054Y-117022604D01*
X75994626Y-116947372D01*
X75994622Y-116947371D01*
X75670611Y-116909500D01*
X75344389Y-116909500D01*
X75020377Y-116947371D01*
X74874754Y-116981884D01*
X74702946Y-117022604D01*
X74702943Y-117022604D01*
X74702939Y-117022606D01*
X74396405Y-117134175D01*
X74104876Y-117280586D01*
X73925614Y-117398488D01*
X73832323Y-117459847D01*
X73832321Y-117459848D01*
X73832322Y-117459848D01*
X73582419Y-117669541D01*
X73358556Y-117906823D01*
X73163751Y-118168490D01*
X73000640Y-118451007D01*
X72871432Y-118750544D01*
X72777870Y-119063065D01*
X72721222Y-119384331D01*
X72702253Y-119709999D01*
X62387020Y-119709999D01*
X62393542Y-119689928D01*
X62413504Y-119500000D01*
X62393542Y-119310072D01*
X62351145Y-119179588D01*
X62334528Y-119128445D01*
X62296743Y-119063001D01*
X62279862Y-119000000D01*
X62296743Y-118936999D01*
X62334528Y-118871554D01*
X62373845Y-118750549D01*
X62393542Y-118689928D01*
X62413504Y-118500000D01*
X62413504Y-118499999D01*
X68336496Y-118499999D01*
X68356458Y-118689929D01*
X68415472Y-118871556D01*
X68510958Y-119036942D01*
X68510960Y-119036944D01*
X68638747Y-119178866D01*
X68793248Y-119291118D01*
X68967712Y-119368794D01*
X69154513Y-119408500D01*
X69345485Y-119408500D01*
X69345487Y-119408500D01*
X69532288Y-119368794D01*
X69706752Y-119291118D01*
X69861253Y-119178866D01*
X69989040Y-119036944D01*
X70084527Y-118871556D01*
X70143542Y-118689928D01*
X70163504Y-118500000D01*
X70143542Y-118310072D01*
X70097998Y-118169903D01*
X70084527Y-118128443D01*
X69989041Y-117963057D01*
X69861252Y-117821133D01*
X69706753Y-117708883D01*
X69706752Y-117708882D01*
X69532288Y-117631206D01*
X69345487Y-117591500D01*
X69154513Y-117591500D01*
X69029978Y-117617970D01*
X68967711Y-117631206D01*
X68793246Y-117708883D01*
X68638747Y-117821133D01*
X68510958Y-117963057D01*
X68415472Y-118128443D01*
X68356458Y-118310070D01*
X68336496Y-118499999D01*
X62413504Y-118499999D01*
X62393542Y-118310072D01*
X62347998Y-118169903D01*
X62334527Y-118128443D01*
X62239041Y-117963057D01*
X62111252Y-117821133D01*
X61956753Y-117708883D01*
X61956752Y-117708882D01*
X61782288Y-117631206D01*
X61595487Y-117591500D01*
X61404513Y-117591500D01*
X61279978Y-117617970D01*
X61217711Y-117631206D01*
X61043246Y-117708883D01*
X60888747Y-117821133D01*
X60760958Y-117963057D01*
X60665472Y-118128443D01*
X60606458Y-118310070D01*
X60586496Y-118499999D01*
X60606458Y-118689929D01*
X60665472Y-118871554D01*
X60703257Y-118937001D01*
X60720137Y-119000000D01*
X60703257Y-119062999D01*
X60665472Y-119128445D01*
X60606458Y-119310070D01*
X60586496Y-119500000D01*
X60593085Y-119562697D01*
X60582881Y-119627116D01*
X60541835Y-119677803D01*
X60480945Y-119701176D01*
X60416528Y-119690973D01*
X60282288Y-119631206D01*
X60095487Y-119591500D01*
X59904513Y-119591500D01*
X59779979Y-119617970D01*
X59717711Y-119631206D01*
X59543246Y-119708883D01*
X59388747Y-119821133D01*
X59260958Y-119963057D01*
X59165472Y-120128443D01*
X59106458Y-120310070D01*
X59086496Y-120500000D01*
X33230510Y-120500000D01*
X33240952Y-120490952D01*
X33404927Y-120301715D01*
X33410284Y-120293378D01*
X33455896Y-120250913D01*
X33516282Y-120235500D01*
X39285248Y-120235500D01*
X39293845Y-120235793D01*
X39343699Y-120239204D01*
X39392630Y-120229035D01*
X39401075Y-120227579D01*
X39450611Y-120220771D01*
X39455424Y-120218680D01*
X39480000Y-120210880D01*
X39485134Y-120209814D01*
X39529522Y-120186813D01*
X39537257Y-120183134D01*
X39583109Y-120163219D01*
X39587186Y-120159901D01*
X39608728Y-120145771D01*
X39613395Y-120143354D01*
X39649946Y-120109215D01*
X39656383Y-120103603D01*
X39695165Y-120072054D01*
X39698194Y-120067761D01*
X39715130Y-120048339D01*
X39718969Y-120044755D01*
X39718970Y-120044752D01*
X39730585Y-120033907D01*
X39770360Y-120008783D01*
X39816579Y-120000000D01*
X40000000Y-120000000D01*
X40000000Y-118749999D01*
X47336496Y-118749999D01*
X47356458Y-118939929D01*
X47415472Y-119121556D01*
X47510958Y-119286942D01*
X47620409Y-119408500D01*
X47638747Y-119428866D01*
X47793248Y-119541118D01*
X47967712Y-119618794D01*
X48154513Y-119658500D01*
X48345485Y-119658500D01*
X48345487Y-119658500D01*
X48532288Y-119618794D01*
X48706752Y-119541118D01*
X48861253Y-119428866D01*
X48989040Y-119286944D01*
X49084527Y-119121556D01*
X49143542Y-118939928D01*
X49163504Y-118750000D01*
X49163504Y-118749999D01*
X51586496Y-118749999D01*
X51606458Y-118939929D01*
X51665472Y-119121556D01*
X51760958Y-119286942D01*
X51870409Y-119408500D01*
X51888747Y-119428866D01*
X52043248Y-119541118D01*
X52217712Y-119618794D01*
X52404513Y-119658500D01*
X52595485Y-119658500D01*
X52595487Y-119658500D01*
X52782288Y-119618794D01*
X52956752Y-119541118D01*
X53111253Y-119428866D01*
X53239040Y-119286944D01*
X53334527Y-119121556D01*
X53393542Y-118939928D01*
X53413504Y-118750000D01*
X53393542Y-118560072D01*
X53344293Y-118408500D01*
X53334527Y-118378443D01*
X53280564Y-118284977D01*
X53263711Y-118224616D01*
X53278022Y-118163601D01*
X53319956Y-118117029D01*
X53379140Y-118096419D01*
X53440931Y-118106870D01*
X53467712Y-118118794D01*
X53654513Y-118158500D01*
X53845485Y-118158500D01*
X53845487Y-118158500D01*
X54032288Y-118118794D01*
X54206752Y-118041118D01*
X54361253Y-117928866D01*
X54489040Y-117786944D01*
X54584527Y-117621556D01*
X54643542Y-117439928D01*
X54663504Y-117250000D01*
X54643542Y-117060072D01*
X54610242Y-116957587D01*
X54605990Y-116896776D01*
X54630788Y-116841081D01*
X54678827Y-116803550D01*
X54706752Y-116791118D01*
X54861253Y-116678866D01*
X54989040Y-116536944D01*
X55084527Y-116371556D01*
X55143542Y-116189928D01*
X55163504Y-116000000D01*
X55143542Y-115810072D01*
X55084527Y-115628444D01*
X55084527Y-115628443D01*
X54989041Y-115463057D01*
X54861252Y-115321133D01*
X54706753Y-115208883D01*
X54706752Y-115208882D01*
X54532288Y-115131206D01*
X54345487Y-115091500D01*
X54154513Y-115091500D01*
X54029979Y-115117970D01*
X53967711Y-115131206D01*
X53793246Y-115208883D01*
X53638747Y-115321133D01*
X53510958Y-115463057D01*
X53415472Y-115628443D01*
X53356458Y-115810070D01*
X53356457Y-115810072D01*
X53356458Y-115810072D01*
X53336496Y-116000000D01*
X53356458Y-116189928D01*
X53356459Y-116189931D01*
X53389755Y-116292408D01*
X53394008Y-116353223D01*
X53369212Y-116408916D01*
X53321172Y-116446449D01*
X53293248Y-116458881D01*
X53138747Y-116571133D01*
X53010958Y-116713057D01*
X52915472Y-116878443D01*
X52856458Y-117060070D01*
X52836496Y-117250000D01*
X52856458Y-117439929D01*
X52915472Y-117621556D01*
X52969435Y-117715022D01*
X52986288Y-117775383D01*
X52971978Y-117836397D01*
X52930043Y-117882970D01*
X52870860Y-117903580D01*
X52809068Y-117893129D01*
X52782290Y-117881207D01*
X52782288Y-117881206D01*
X52595487Y-117841500D01*
X52404513Y-117841500D01*
X52279978Y-117867970D01*
X52217711Y-117881206D01*
X52077696Y-117943544D01*
X52050582Y-117955617D01*
X52043246Y-117958883D01*
X51888747Y-118071133D01*
X51760958Y-118213057D01*
X51665472Y-118378443D01*
X51606458Y-118560070D01*
X51586496Y-118749999D01*
X49163504Y-118749999D01*
X49143542Y-118560072D01*
X49094293Y-118408500D01*
X49084527Y-118378443D01*
X48989041Y-118213057D01*
X48861252Y-118071133D01*
X48706753Y-117958883D01*
X48706752Y-117958882D01*
X48532288Y-117881206D01*
X48345487Y-117841500D01*
X48154513Y-117841500D01*
X48029978Y-117867970D01*
X47967711Y-117881206D01*
X47827696Y-117943544D01*
X47800582Y-117955617D01*
X47793246Y-117958883D01*
X47638747Y-118071133D01*
X47510958Y-118213057D01*
X47415472Y-118378443D01*
X47356458Y-118560070D01*
X47336496Y-118749999D01*
X40000000Y-118749999D01*
X40000000Y-118325349D01*
X40018567Y-118259514D01*
X40068797Y-118213082D01*
X40135886Y-118199737D01*
X40200059Y-118223412D01*
X40293248Y-118291118D01*
X40467712Y-118368794D01*
X40654513Y-118408500D01*
X40845485Y-118408500D01*
X40845487Y-118408500D01*
X41032288Y-118368794D01*
X41206752Y-118291118D01*
X41361253Y-118178866D01*
X41489040Y-118036944D01*
X41584527Y-117871556D01*
X41643542Y-117689928D01*
X41663504Y-117500000D01*
X41643542Y-117310072D01*
X41584527Y-117128444D01*
X41584527Y-117128443D01*
X41489041Y-116963057D01*
X41361252Y-116821133D01*
X41206753Y-116708883D01*
X41206752Y-116708882D01*
X41032288Y-116631206D01*
X40845487Y-116591500D01*
X40654513Y-116591500D01*
X40529978Y-116617970D01*
X40467711Y-116631206D01*
X40293246Y-116708883D01*
X40249749Y-116740486D01*
X40200059Y-116776587D01*
X40135886Y-116800263D01*
X40068797Y-116786918D01*
X40018567Y-116740486D01*
X40000000Y-116674651D01*
X40000000Y-114000000D01*
X41486496Y-114000000D01*
X41506458Y-114189929D01*
X41565472Y-114371556D01*
X41660958Y-114536942D01*
X41660960Y-114536944D01*
X41788747Y-114678866D01*
X41943248Y-114791118D01*
X42117712Y-114868794D01*
X42304513Y-114908500D01*
X42495485Y-114908500D01*
X42495487Y-114908500D01*
X42682288Y-114868794D01*
X42856752Y-114791118D01*
X43011253Y-114678866D01*
X43139040Y-114536944D01*
X43218105Y-114400000D01*
X60986496Y-114400000D01*
X61006458Y-114589929D01*
X61065472Y-114771556D01*
X61160958Y-114936942D01*
X61160960Y-114936944D01*
X61288747Y-115078866D01*
X61443248Y-115191118D01*
X61617712Y-115268794D01*
X61804513Y-115308500D01*
X61995485Y-115308500D01*
X61995487Y-115308500D01*
X62182288Y-115268794D01*
X62224500Y-115250000D01*
X79836496Y-115250000D01*
X79856458Y-115439929D01*
X79915472Y-115621556D01*
X80010958Y-115786942D01*
X80138747Y-115928866D01*
X80293248Y-116041118D01*
X80467712Y-116118794D01*
X80654513Y-116158500D01*
X80845485Y-116158500D01*
X80845487Y-116158500D01*
X81032288Y-116118794D01*
X81206752Y-116041118D01*
X81361253Y-115928866D01*
X81489040Y-115786944D01*
X81584527Y-115621556D01*
X81643542Y-115439928D01*
X81663504Y-115250000D01*
X81643542Y-115060072D01*
X81584527Y-114878444D01*
X81584527Y-114878443D01*
X81489041Y-114713057D01*
X81361252Y-114571133D01*
X81206753Y-114458883D01*
X81206752Y-114458882D01*
X81032288Y-114381206D01*
X80845487Y-114341500D01*
X80654513Y-114341500D01*
X80529979Y-114367970D01*
X80467711Y-114381206D01*
X80293246Y-114458883D01*
X80138747Y-114571133D01*
X80010958Y-114713057D01*
X79915472Y-114878443D01*
X79856458Y-115060070D01*
X79836496Y-115250000D01*
X62224500Y-115250000D01*
X62356752Y-115191118D01*
X62511253Y-115078866D01*
X62639040Y-114936944D01*
X62734527Y-114771556D01*
X62793542Y-114589928D01*
X62813504Y-114400000D01*
X62793542Y-114210072D01*
X62734527Y-114028444D01*
X62734527Y-114028443D01*
X62639041Y-113863057D01*
X62511252Y-113721133D01*
X62434002Y-113665008D01*
X62356752Y-113608882D01*
X62182288Y-113531206D01*
X61995487Y-113491500D01*
X61804513Y-113491500D01*
X61679979Y-113517970D01*
X61617711Y-113531206D01*
X61443246Y-113608883D01*
X61288747Y-113721133D01*
X61160958Y-113863057D01*
X61065472Y-114028443D01*
X61006458Y-114210070D01*
X60986496Y-114400000D01*
X43218105Y-114400000D01*
X43234527Y-114371556D01*
X43293542Y-114189928D01*
X43313504Y-114000000D01*
X43293542Y-113810072D01*
X43234527Y-113628444D01*
X43234527Y-113628443D01*
X43139041Y-113463057D01*
X43011252Y-113321133D01*
X42856753Y-113208883D01*
X42856752Y-113208882D01*
X42682288Y-113131206D01*
X42495487Y-113091500D01*
X42304513Y-113091500D01*
X42179978Y-113117970D01*
X42117711Y-113131206D01*
X41943246Y-113208883D01*
X41788747Y-113321133D01*
X41660958Y-113463057D01*
X41565472Y-113628443D01*
X41506458Y-113810070D01*
X41486496Y-114000000D01*
X40000000Y-114000000D01*
X40000000Y-111800000D01*
X43324647Y-111800000D01*
X43327377Y-111831206D01*
X43344022Y-112021467D01*
X43380075Y-112156015D01*
X43401560Y-112236196D01*
X43444576Y-112328444D01*
X43495512Y-112437678D01*
X43623025Y-112619784D01*
X43780215Y-112776974D01*
X43962321Y-112904487D01*
X43962322Y-112904487D01*
X43962323Y-112904488D01*
X44163804Y-112998440D01*
X44314739Y-113038883D01*
X44378532Y-113055977D01*
X44378533Y-113055977D01*
X44378537Y-113055978D01*
X44600000Y-113075353D01*
X44821463Y-113055978D01*
X45036196Y-112998440D01*
X45237677Y-112904488D01*
X45419781Y-112776977D01*
X45576977Y-112619781D01*
X45704488Y-112437677D01*
X45798440Y-112236196D01*
X45855978Y-112021463D01*
X45875353Y-111800000D01*
X45855978Y-111578537D01*
X45798440Y-111363804D01*
X45745372Y-111250000D01*
X46586496Y-111250000D01*
X46606458Y-111439929D01*
X46665472Y-111621556D01*
X46760958Y-111786942D01*
X46800814Y-111831206D01*
X46888747Y-111928866D01*
X47043248Y-112041118D01*
X47217712Y-112118794D01*
X47404513Y-112158500D01*
X47595487Y-112158500D01*
X47595488Y-112158500D01*
X47642735Y-112148456D01*
X47738266Y-112128151D01*
X47795797Y-112129355D01*
X47846793Y-112156015D01*
X47880617Y-112202568D01*
X47890215Y-112259306D01*
X47873583Y-112314395D01*
X47865473Y-112328442D01*
X47806458Y-112510070D01*
X47786496Y-112700000D01*
X47806458Y-112889929D01*
X47865472Y-113071556D01*
X47960958Y-113236942D01*
X47960960Y-113236944D01*
X48088747Y-113378866D01*
X48243248Y-113491118D01*
X48417712Y-113568794D01*
X48604513Y-113608500D01*
X48795485Y-113608500D01*
X48795487Y-113608500D01*
X48982288Y-113568794D01*
X49156752Y-113491118D01*
X49311253Y-113378866D01*
X49439040Y-113236944D01*
X49534527Y-113071556D01*
X49593542Y-112889928D01*
X49613504Y-112700000D01*
X49593542Y-112510072D01*
X49534527Y-112328444D01*
X49534527Y-112328443D01*
X49439041Y-112163057D01*
X49311252Y-112021133D01*
X49234002Y-111965007D01*
X49156752Y-111908882D01*
X48982288Y-111831206D01*
X48795487Y-111791500D01*
X48604513Y-111791500D01*
X48461733Y-111821849D01*
X48404200Y-111820643D01*
X48353204Y-111793982D01*
X48319380Y-111747427D01*
X48309785Y-111690688D01*
X48326416Y-111635603D01*
X48334527Y-111621556D01*
X48393542Y-111439928D01*
X48413504Y-111250000D01*
X48393542Y-111060072D01*
X48334527Y-110878444D01*
X48334527Y-110878443D01*
X48239041Y-110713057D01*
X48111252Y-110571133D01*
X47956753Y-110458883D01*
X47956752Y-110458882D01*
X47824500Y-110400000D01*
X64486496Y-110400000D01*
X64506458Y-110589929D01*
X64565472Y-110771556D01*
X64660958Y-110936942D01*
X64660960Y-110936944D01*
X64788747Y-111078866D01*
X64943248Y-111191118D01*
X65117712Y-111268794D01*
X65304513Y-111308500D01*
X65495485Y-111308500D01*
X65495487Y-111308500D01*
X65682288Y-111268794D01*
X65856752Y-111191118D01*
X66011253Y-111078866D01*
X66139040Y-110936944D01*
X66234527Y-110771556D01*
X66293542Y-110589928D01*
X66313504Y-110400000D01*
X66293542Y-110210072D01*
X66238645Y-110041118D01*
X66234527Y-110028443D01*
X66139041Y-109863057D01*
X66011252Y-109721133D01*
X65856753Y-109608883D01*
X65856752Y-109608882D01*
X65682288Y-109531206D01*
X65535476Y-109500000D01*
X96836496Y-109500000D01*
X96856458Y-109689929D01*
X96915472Y-109871556D01*
X97010958Y-110036942D01*
X97010960Y-110036944D01*
X97138747Y-110178866D01*
X97293248Y-110291118D01*
X97467712Y-110368794D01*
X97654513Y-110408500D01*
X97845485Y-110408500D01*
X97845487Y-110408500D01*
X98032288Y-110368794D01*
X98206752Y-110291118D01*
X98361253Y-110178866D01*
X98489040Y-110036944D01*
X98584527Y-109871556D01*
X98643542Y-109689928D01*
X98663504Y-109500000D01*
X98643542Y-109310072D01*
X98584527Y-109128444D01*
X98584527Y-109128443D01*
X98489041Y-108963057D01*
X98361252Y-108821133D01*
X98206753Y-108708883D01*
X98206752Y-108708882D01*
X98032288Y-108631206D01*
X97845487Y-108591500D01*
X97654513Y-108591500D01*
X97529979Y-108617970D01*
X97467711Y-108631206D01*
X97293246Y-108708883D01*
X97138747Y-108821133D01*
X97010958Y-108963057D01*
X96915472Y-109128443D01*
X96856458Y-109310070D01*
X96836496Y-109500000D01*
X65535476Y-109500000D01*
X65495487Y-109491500D01*
X65304513Y-109491500D01*
X65179979Y-109517970D01*
X65117711Y-109531206D01*
X64983259Y-109591068D01*
X64964321Y-109599500D01*
X64943246Y-109608883D01*
X64788747Y-109721133D01*
X64660958Y-109863057D01*
X64565472Y-110028443D01*
X64506458Y-110210070D01*
X64486496Y-110400000D01*
X47824500Y-110400000D01*
X47782288Y-110381206D01*
X47595487Y-110341500D01*
X47404513Y-110341500D01*
X47279978Y-110367970D01*
X47217711Y-110381206D01*
X47043246Y-110458883D01*
X46888747Y-110571133D01*
X46760958Y-110713057D01*
X46665472Y-110878443D01*
X46606458Y-111060070D01*
X46586496Y-111250000D01*
X45745372Y-111250000D01*
X45704488Y-111162324D01*
X45576977Y-110980219D01*
X45576976Y-110980218D01*
X45576974Y-110980215D01*
X45419784Y-110823025D01*
X45237678Y-110695512D01*
X45167117Y-110662609D01*
X45036196Y-110601560D01*
X44992789Y-110589929D01*
X44821467Y-110544022D01*
X44600000Y-110524647D01*
X44378532Y-110544022D01*
X44163807Y-110601559D01*
X44163806Y-110601559D01*
X44163804Y-110601560D01*
X44103442Y-110629707D01*
X43962322Y-110695512D01*
X43780215Y-110823025D01*
X43623025Y-110980215D01*
X43495512Y-111162322D01*
X43401559Y-111363807D01*
X43344022Y-111578532D01*
X43340258Y-111621556D01*
X43324647Y-111800000D01*
X40000000Y-111800000D01*
X40000000Y-109249999D01*
X44086496Y-109249999D01*
X44106458Y-109439929D01*
X44165472Y-109621556D01*
X44260958Y-109786942D01*
X44329491Y-109863056D01*
X44388747Y-109928866D01*
X44543248Y-110041118D01*
X44717712Y-110118794D01*
X44904513Y-110158500D01*
X45095485Y-110158500D01*
X45095487Y-110158500D01*
X45282288Y-110118794D01*
X45456752Y-110041118D01*
X45611253Y-109928866D01*
X45739040Y-109786944D01*
X45834527Y-109621556D01*
X45893542Y-109439928D01*
X45913504Y-109250000D01*
X45893542Y-109060072D01*
X45834527Y-108878444D01*
X45834527Y-108878443D01*
X45739041Y-108713057D01*
X45611252Y-108571133D01*
X45456753Y-108458883D01*
X45456752Y-108458882D01*
X45282288Y-108381206D01*
X45095487Y-108341500D01*
X44904513Y-108341500D01*
X44779978Y-108367970D01*
X44717711Y-108381206D01*
X44543246Y-108458883D01*
X44388747Y-108571133D01*
X44260958Y-108713057D01*
X44165472Y-108878443D01*
X44106458Y-109060070D01*
X44086496Y-109249999D01*
X40000000Y-109249999D01*
X40000000Y-106000000D01*
X53086496Y-106000000D01*
X53106458Y-106189929D01*
X53165472Y-106371556D01*
X53260958Y-106536942D01*
X53260960Y-106536944D01*
X53388747Y-106678866D01*
X53543248Y-106791118D01*
X53717712Y-106868794D01*
X53904513Y-106908500D01*
X54095485Y-106908500D01*
X54095487Y-106908500D01*
X54282288Y-106868794D01*
X54456752Y-106791118D01*
X54611253Y-106678866D01*
X54739040Y-106536944D01*
X54834527Y-106371556D01*
X54893542Y-106189928D01*
X54913504Y-106000000D01*
X54893542Y-105810072D01*
X54834527Y-105628444D01*
X54834527Y-105628443D01*
X54739041Y-105463057D01*
X54611252Y-105321133D01*
X54456753Y-105208883D01*
X54456752Y-105208882D01*
X54282288Y-105131206D01*
X54095487Y-105091500D01*
X53904513Y-105091500D01*
X53779978Y-105117970D01*
X53717711Y-105131206D01*
X53543246Y-105208883D01*
X53388747Y-105321133D01*
X53260958Y-105463057D01*
X53165472Y-105628443D01*
X53106458Y-105810070D01*
X53086496Y-106000000D01*
X40000000Y-106000000D01*
X40000000Y-104749999D01*
X99586496Y-104749999D01*
X99606458Y-104939929D01*
X99665472Y-105121556D01*
X99760958Y-105286942D01*
X99760960Y-105286944D01*
X99888747Y-105428866D01*
X100043248Y-105541118D01*
X100217712Y-105618794D01*
X100404513Y-105658500D01*
X100595485Y-105658500D01*
X100595487Y-105658500D01*
X100782288Y-105618794D01*
X100956752Y-105541118D01*
X101111253Y-105428866D01*
X101239040Y-105286944D01*
X101334527Y-105121556D01*
X101393542Y-104939928D01*
X101413504Y-104750000D01*
X101393542Y-104560072D01*
X101334527Y-104378444D01*
X101334527Y-104378443D01*
X101239041Y-104213057D01*
X101111252Y-104071133D01*
X100956753Y-103958883D01*
X100956752Y-103958882D01*
X100782288Y-103881206D01*
X100595487Y-103841500D01*
X100404513Y-103841500D01*
X100279978Y-103867970D01*
X100217711Y-103881206D01*
X100077696Y-103943544D01*
X100048729Y-103956442D01*
X100043246Y-103958883D01*
X99888747Y-104071133D01*
X99760958Y-104213057D01*
X99665472Y-104378443D01*
X99606458Y-104560070D01*
X99586496Y-104749999D01*
X40000000Y-104749999D01*
X40000000Y-103419499D01*
X61086496Y-103419499D01*
X61106458Y-103609429D01*
X61165472Y-103791056D01*
X61260958Y-103956442D01*
X61260960Y-103956444D01*
X61388747Y-104098366D01*
X61543248Y-104210618D01*
X61717712Y-104288294D01*
X61904513Y-104328000D01*
X62095485Y-104328000D01*
X62095487Y-104328000D01*
X62282288Y-104288294D01*
X62456752Y-104210618D01*
X62611253Y-104098366D01*
X62739040Y-103956444D01*
X62834527Y-103791056D01*
X62893542Y-103609428D01*
X62913504Y-103419500D01*
X62893542Y-103229572D01*
X62834527Y-103047944D01*
X62834527Y-103047943D01*
X62739041Y-102882557D01*
X62611252Y-102740633D01*
X62456753Y-102628383D01*
X62456752Y-102628382D01*
X62282288Y-102550706D01*
X62095487Y-102511000D01*
X61904513Y-102511000D01*
X61779979Y-102537470D01*
X61717711Y-102550706D01*
X61543246Y-102628383D01*
X61388747Y-102740633D01*
X61260958Y-102882557D01*
X61165472Y-103047943D01*
X61106458Y-103229570D01*
X61086496Y-103419499D01*
X40000000Y-103419499D01*
X40000000Y-100466787D01*
X40008501Y-100427705D01*
X40006949Y-100427250D01*
X40069954Y-100212666D01*
X40069956Y-100212660D01*
X40100501Y-100000208D01*
X40100500Y-99892889D01*
X40100500Y-99826997D01*
X40100500Y-99224424D01*
X45311273Y-99224424D01*
X45327452Y-99234590D01*
X45483357Y-99289143D01*
X45647500Y-99307637D01*
X45811642Y-99289143D01*
X45967547Y-99234589D01*
X45983725Y-99224424D01*
X46811273Y-99224424D01*
X46827452Y-99234590D01*
X46983357Y-99289143D01*
X47147500Y-99307637D01*
X47311642Y-99289143D01*
X47467547Y-99234589D01*
X47483725Y-99224424D01*
X47483725Y-99224422D01*
X47147501Y-98888198D01*
X47147500Y-98888198D01*
X46811273Y-99224423D01*
X46811273Y-99224424D01*
X45983725Y-99224424D01*
X45983725Y-99224422D01*
X45647501Y-98888198D01*
X45647500Y-98888198D01*
X45311273Y-99224423D01*
X45311273Y-99224424D01*
X40100500Y-99224424D01*
X40100500Y-98474424D01*
X44561273Y-98474424D01*
X44577452Y-98484590D01*
X44733357Y-98539143D01*
X44808758Y-98547638D01*
X44861687Y-98566158D01*
X44901339Y-98605809D01*
X44919860Y-98658737D01*
X44928356Y-98734142D01*
X44982910Y-98890047D01*
X44993074Y-98906225D01*
X45329301Y-98570001D01*
X45965698Y-98570001D01*
X46301922Y-98906225D01*
X46310543Y-98905254D01*
X46336549Y-98880668D01*
X46397498Y-98864946D01*
X46458448Y-98880668D01*
X46484451Y-98905253D01*
X46493074Y-98906225D01*
X46829301Y-98570001D01*
X47465698Y-98570001D01*
X47801922Y-98906225D01*
X47801924Y-98906225D01*
X47812089Y-98890047D01*
X47866643Y-98734142D01*
X47875138Y-98658740D01*
X47893658Y-98605810D01*
X47933310Y-98566158D01*
X47986240Y-98547638D01*
X48061642Y-98539143D01*
X48217547Y-98484589D01*
X48233725Y-98474424D01*
X48233725Y-98474422D01*
X47897501Y-98138198D01*
X47897500Y-98138198D01*
X47510006Y-98525693D01*
X47510005Y-98525694D01*
X47465698Y-98570000D01*
X47465698Y-98570001D01*
X46829301Y-98570001D01*
X46829302Y-98570000D01*
X46784995Y-98525694D01*
X46784994Y-98525693D01*
X46397500Y-98138198D01*
X46010006Y-98525693D01*
X46010005Y-98525694D01*
X45965698Y-98570000D01*
X45965698Y-98570001D01*
X45329301Y-98570001D01*
X45329302Y-98570000D01*
X45284995Y-98525694D01*
X45284994Y-98525693D01*
X44897500Y-98138198D01*
X44561273Y-98474423D01*
X44561273Y-98474424D01*
X40100500Y-98474424D01*
X40100500Y-97820000D01*
X44159862Y-97820000D01*
X44178356Y-97984142D01*
X44232910Y-98140047D01*
X44243074Y-98156225D01*
X44579302Y-97820000D01*
X45215698Y-97820000D01*
X45260005Y-97864306D01*
X45647500Y-98251801D01*
X46034995Y-97864306D01*
X46079302Y-97820000D01*
X46715698Y-97820000D01*
X46760005Y-97864306D01*
X47147500Y-98251801D01*
X47534995Y-97864306D01*
X47579301Y-97820001D01*
X48215698Y-97820001D01*
X48551922Y-98156225D01*
X48551924Y-98156225D01*
X48562089Y-98140047D01*
X48611094Y-98000000D01*
X80611996Y-98000000D01*
X80631958Y-98189929D01*
X80690972Y-98371556D01*
X80786458Y-98536942D01*
X80848466Y-98605809D01*
X80914247Y-98678866D01*
X81068748Y-98791118D01*
X81243212Y-98868794D01*
X81430013Y-98908500D01*
X81620985Y-98908500D01*
X81620987Y-98908500D01*
X81807788Y-98868794D01*
X81982252Y-98791118D01*
X82067085Y-98729482D01*
X82132354Y-98705726D01*
X82200296Y-98720167D01*
X82250262Y-98768415D01*
X82260960Y-98786944D01*
X82264333Y-98790690D01*
X82292953Y-98844514D01*
X82292955Y-98905476D01*
X82264338Y-98959303D01*
X82260961Y-98963053D01*
X82165472Y-99128444D01*
X82106458Y-99310070D01*
X82086496Y-99499999D01*
X82106458Y-99689929D01*
X82165472Y-99871556D01*
X82260958Y-100036942D01*
X82388746Y-100178865D01*
X82388747Y-100178866D01*
X82543248Y-100291118D01*
X82717712Y-100368794D01*
X82904513Y-100408500D01*
X83095487Y-100408500D01*
X83095488Y-100408500D01*
X83143267Y-100398344D01*
X83200799Y-100399548D01*
X83251795Y-100426208D01*
X83285619Y-100472762D01*
X83295216Y-100529501D01*
X83278585Y-100584589D01*
X83221131Y-100684103D01*
X83162117Y-100865728D01*
X83142155Y-101055657D01*
X83162117Y-101245587D01*
X83221131Y-101427214D01*
X83316617Y-101592600D01*
X83316619Y-101592602D01*
X83444406Y-101734524D01*
X83598907Y-101846776D01*
X83773371Y-101924452D01*
X83960172Y-101964158D01*
X84151144Y-101964158D01*
X84151146Y-101964158D01*
X84337947Y-101924452D01*
X84512411Y-101846776D01*
X84666912Y-101734524D01*
X84794699Y-101592602D01*
X84890186Y-101427214D01*
X84949201Y-101245586D01*
X84969163Y-101055658D01*
X84963313Y-101000000D01*
X101486496Y-101000000D01*
X101506458Y-101189929D01*
X101565472Y-101371556D01*
X101660958Y-101536942D01*
X101660960Y-101536944D01*
X101788747Y-101678866D01*
X101943248Y-101791118D01*
X102117712Y-101868794D01*
X102304513Y-101908500D01*
X102495485Y-101908500D01*
X102495487Y-101908500D01*
X102682288Y-101868794D01*
X102856752Y-101791118D01*
X103011253Y-101678866D01*
X103139040Y-101536944D01*
X103234527Y-101371556D01*
X103293542Y-101189928D01*
X103313504Y-101000000D01*
X103293542Y-100810072D01*
X103245859Y-100663320D01*
X103234527Y-100628443D01*
X103139041Y-100463057D01*
X103011252Y-100321133D01*
X102856753Y-100208883D01*
X102856752Y-100208882D01*
X102682288Y-100131206D01*
X102495487Y-100091500D01*
X102304513Y-100091500D01*
X102179979Y-100117970D01*
X102117711Y-100131206D01*
X101943246Y-100208883D01*
X101788747Y-100321133D01*
X101660958Y-100463057D01*
X101565472Y-100628443D01*
X101506458Y-100810070D01*
X101486496Y-101000000D01*
X84963313Y-101000000D01*
X84949201Y-100865730D01*
X84893401Y-100693996D01*
X84890186Y-100684101D01*
X84794700Y-100518715D01*
X84666911Y-100376791D01*
X84548992Y-100291118D01*
X84512411Y-100264540D01*
X84337947Y-100186864D01*
X84151146Y-100147158D01*
X83960172Y-100147158D01*
X83960171Y-100147158D01*
X83912388Y-100157314D01*
X83854857Y-100156108D01*
X83803861Y-100129448D01*
X83770038Y-100082893D01*
X83760442Y-100026155D01*
X83768339Y-100000000D01*
X93336496Y-100000000D01*
X93356458Y-100189929D01*
X93415472Y-100371556D01*
X93510958Y-100536942D01*
X93580201Y-100613844D01*
X93638747Y-100678866D01*
X93793248Y-100791118D01*
X93967712Y-100868794D01*
X94154513Y-100908500D01*
X94345485Y-100908500D01*
X94345487Y-100908500D01*
X94532288Y-100868794D01*
X94706752Y-100791118D01*
X94861253Y-100678866D01*
X94989040Y-100536944D01*
X95084527Y-100371556D01*
X95143542Y-100189928D01*
X95163504Y-100000000D01*
X95143542Y-99810072D01*
X95084527Y-99628444D01*
X95084527Y-99628443D01*
X94989041Y-99463057D01*
X94985668Y-99459311D01*
X94957047Y-99405483D01*
X94957047Y-99344517D01*
X94985668Y-99290689D01*
X94987060Y-99289143D01*
X94989040Y-99286944D01*
X95084527Y-99121556D01*
X95143542Y-98939928D01*
X95163504Y-98750000D01*
X95143542Y-98560072D01*
X95084527Y-98378444D01*
X95084527Y-98378443D01*
X94989041Y-98213057D01*
X94861252Y-98071133D01*
X94706753Y-97958883D01*
X94706752Y-97958882D01*
X94532288Y-97881206D01*
X94345487Y-97841500D01*
X94154513Y-97841500D01*
X94047220Y-97864306D01*
X93967711Y-97881206D01*
X93793246Y-97958883D01*
X93638747Y-98071133D01*
X93510958Y-98213057D01*
X93415472Y-98378443D01*
X93356458Y-98560070D01*
X93336496Y-98750000D01*
X93356458Y-98939929D01*
X93415472Y-99121556D01*
X93510960Y-99286946D01*
X93514334Y-99290693D01*
X93542953Y-99344519D01*
X93542953Y-99405481D01*
X93514334Y-99459307D01*
X93510960Y-99463053D01*
X93415472Y-99628443D01*
X93356458Y-99810070D01*
X93336496Y-100000000D01*
X83768339Y-100000000D01*
X83777074Y-99971067D01*
X83834527Y-99871556D01*
X83893542Y-99689928D01*
X83913504Y-99500000D01*
X83893542Y-99310072D01*
X83834527Y-99128444D01*
X83834527Y-99128443D01*
X83739041Y-98963057D01*
X83735668Y-98959311D01*
X83707046Y-98905480D01*
X83707047Y-98844514D01*
X83735668Y-98790687D01*
X83739040Y-98786944D01*
X83834527Y-98621556D01*
X83893542Y-98439928D01*
X83913504Y-98250000D01*
X83893542Y-98060072D01*
X83860663Y-97958882D01*
X83834527Y-97878443D01*
X83739041Y-97713057D01*
X83611252Y-97571133D01*
X83515825Y-97501801D01*
X83456752Y-97458882D01*
X83282288Y-97381206D01*
X83095487Y-97341500D01*
X82904513Y-97341500D01*
X82779978Y-97367970D01*
X82717711Y-97381206D01*
X82543246Y-97458883D01*
X82458414Y-97520517D01*
X82393142Y-97544273D01*
X82325199Y-97529831D01*
X82275234Y-97481579D01*
X82264540Y-97463056D01*
X82261167Y-97459310D01*
X82232546Y-97405480D01*
X82232547Y-97344514D01*
X82261168Y-97290687D01*
X82264540Y-97286944D01*
X82360027Y-97121556D01*
X82419042Y-96939928D01*
X82439004Y-96750000D01*
X82419042Y-96560072D01*
X82360027Y-96378444D01*
X82360027Y-96378443D01*
X82264541Y-96213057D01*
X82136752Y-96071133D01*
X82041325Y-96001801D01*
X81982252Y-95958882D01*
X81807788Y-95881206D01*
X81620987Y-95841500D01*
X81430013Y-95841500D01*
X81305478Y-95867970D01*
X81243211Y-95881206D01*
X81068746Y-95958883D01*
X80914247Y-96071133D01*
X80786458Y-96213057D01*
X80690972Y-96378443D01*
X80631958Y-96560070D01*
X80611996Y-96750000D01*
X80631958Y-96939929D01*
X80690972Y-97121556D01*
X80786458Y-97286942D01*
X80789832Y-97290689D01*
X80818453Y-97344516D01*
X80818454Y-97405480D01*
X80789835Y-97459308D01*
X80786458Y-97463057D01*
X80690972Y-97628444D01*
X80631958Y-97810070D01*
X80611996Y-98000000D01*
X48611094Y-98000000D01*
X48616643Y-97984142D01*
X48635137Y-97820000D01*
X48616643Y-97655857D01*
X48562090Y-97499952D01*
X48551924Y-97483773D01*
X48215698Y-97820000D01*
X48215698Y-97820001D01*
X47579301Y-97820001D01*
X47579302Y-97820000D01*
X47534995Y-97775694D01*
X47534994Y-97775693D01*
X47147500Y-97388198D01*
X46760006Y-97775693D01*
X46760005Y-97775694D01*
X46715698Y-97820000D01*
X46079302Y-97820000D01*
X46034995Y-97775694D01*
X46034994Y-97775693D01*
X45647500Y-97388198D01*
X45260006Y-97775693D01*
X45260005Y-97775694D01*
X45215698Y-97820000D01*
X44579302Y-97820000D01*
X44579302Y-97819999D01*
X44243075Y-97483772D01*
X44232909Y-97499954D01*
X44178356Y-97655857D01*
X44159862Y-97820000D01*
X40100500Y-97820000D01*
X40100500Y-97165575D01*
X44561272Y-97165575D01*
X44897499Y-97501802D01*
X44897500Y-97501802D01*
X45284994Y-97114307D01*
X45284995Y-97114306D01*
X45329302Y-97070000D01*
X45965698Y-97070000D01*
X46010005Y-97114306D01*
X46397500Y-97501801D01*
X46784995Y-97114306D01*
X46829302Y-97070000D01*
X47465698Y-97070000D01*
X47510005Y-97114306D01*
X47510006Y-97114307D01*
X47897499Y-97501801D01*
X48233725Y-97165574D01*
X48232753Y-97156951D01*
X48208168Y-97130948D01*
X48192446Y-97069998D01*
X48208168Y-97009049D01*
X48232754Y-96983043D01*
X48233725Y-96974422D01*
X47897501Y-96638198D01*
X47897500Y-96638198D01*
X47510006Y-97025693D01*
X47510005Y-97025694D01*
X47465698Y-97070000D01*
X46829302Y-97070000D01*
X46784995Y-97025694D01*
X46784994Y-97025693D01*
X46397500Y-96638198D01*
X46010006Y-97025693D01*
X46010005Y-97025694D01*
X45965698Y-97070000D01*
X45329302Y-97070000D01*
X45284995Y-97025694D01*
X45284994Y-97025693D01*
X44897500Y-96638198D01*
X44561273Y-96974423D01*
X44562245Y-96983046D01*
X44586828Y-97009048D01*
X44602551Y-97069998D01*
X44586828Y-97130948D01*
X44562245Y-97156949D01*
X44561272Y-97165575D01*
X40100500Y-97165575D01*
X40100500Y-96319999D01*
X44159862Y-96319999D01*
X44178356Y-96484142D01*
X44232910Y-96640047D01*
X44243074Y-96656225D01*
X44579302Y-96320000D01*
X45215698Y-96320000D01*
X45260005Y-96364306D01*
X45260006Y-96364307D01*
X45647499Y-96751801D01*
X46034994Y-96364307D01*
X46034995Y-96364306D01*
X46079302Y-96320000D01*
X46715698Y-96320000D01*
X46760005Y-96364306D01*
X46760006Y-96364307D01*
X47147499Y-96751801D01*
X47534994Y-96364307D01*
X47534995Y-96364306D01*
X47579301Y-96320001D01*
X48215698Y-96320001D01*
X48551922Y-96656225D01*
X48551924Y-96656225D01*
X48562089Y-96640047D01*
X48616643Y-96484142D01*
X48635137Y-96319999D01*
X48616643Y-96155857D01*
X48562090Y-95999952D01*
X48551924Y-95983773D01*
X48215698Y-96320000D01*
X48215698Y-96320001D01*
X47579301Y-96320001D01*
X47579302Y-96320000D01*
X47534995Y-96275694D01*
X47534994Y-96275693D01*
X47147500Y-95888198D01*
X46760006Y-96275693D01*
X46760005Y-96275694D01*
X46715698Y-96320000D01*
X46079302Y-96320000D01*
X46034995Y-96275694D01*
X46034994Y-96275693D01*
X45647500Y-95888198D01*
X45260006Y-96275693D01*
X45260005Y-96275694D01*
X45215698Y-96320000D01*
X44579302Y-96320000D01*
X44579302Y-96319999D01*
X44243075Y-95983772D01*
X44232909Y-95999954D01*
X44178356Y-96155857D01*
X44159862Y-96319999D01*
X40100500Y-96319999D01*
X40100500Y-95665575D01*
X44561272Y-95665575D01*
X44897499Y-96001802D01*
X44897500Y-96001802D01*
X45284994Y-95614307D01*
X45284995Y-95614306D01*
X45329302Y-95570000D01*
X45965698Y-95570000D01*
X46010005Y-95614306D01*
X46397500Y-96001801D01*
X46784995Y-95614306D01*
X46829302Y-95570000D01*
X47465698Y-95570000D01*
X47510005Y-95614306D01*
X47510006Y-95614307D01*
X47897499Y-96001801D01*
X48233725Y-95665574D01*
X48217547Y-95655410D01*
X48061642Y-95600856D01*
X47986237Y-95592360D01*
X47933309Y-95573839D01*
X47893658Y-95534187D01*
X47875138Y-95481258D01*
X47866643Y-95405857D01*
X47812090Y-95249952D01*
X47801924Y-95233773D01*
X47801923Y-95233773D01*
X47465698Y-95570000D01*
X46829302Y-95570000D01*
X46829302Y-95569999D01*
X46493075Y-95233772D01*
X46484449Y-95234745D01*
X46458448Y-95259328D01*
X46397498Y-95275051D01*
X46336548Y-95259328D01*
X46310546Y-95234745D01*
X46301923Y-95233773D01*
X45965698Y-95570000D01*
X45329302Y-95570000D01*
X45329302Y-95569999D01*
X44993075Y-95233772D01*
X44982909Y-95249954D01*
X44928356Y-95405857D01*
X44919860Y-95481261D01*
X44901339Y-95534188D01*
X44861688Y-95573839D01*
X44808761Y-95592360D01*
X44733357Y-95600856D01*
X44577454Y-95655409D01*
X44561272Y-95665575D01*
X40100500Y-95665575D01*
X40100500Y-94915575D01*
X45311272Y-94915575D01*
X45647499Y-95251802D01*
X45647500Y-95251802D01*
X45983724Y-94915575D01*
X46811272Y-94915575D01*
X47147499Y-95251802D01*
X47147500Y-95251802D01*
X47483725Y-94915574D01*
X47467547Y-94905410D01*
X47311642Y-94850856D01*
X47147500Y-94832362D01*
X46983357Y-94850856D01*
X46827454Y-94905409D01*
X46811272Y-94915575D01*
X45983724Y-94915575D01*
X45983725Y-94915574D01*
X45967547Y-94905410D01*
X45811642Y-94850856D01*
X45647500Y-94832362D01*
X45483357Y-94850856D01*
X45327454Y-94905409D01*
X45311272Y-94915575D01*
X40100500Y-94915575D01*
X40100500Y-93900000D01*
X89386496Y-93900000D01*
X89406458Y-94089929D01*
X89465472Y-94271556D01*
X89560958Y-94436942D01*
X89560960Y-94436944D01*
X89688747Y-94578866D01*
X89843248Y-94691118D01*
X90017712Y-94768794D01*
X90204513Y-94808500D01*
X90395485Y-94808500D01*
X90395487Y-94808500D01*
X90582288Y-94768794D01*
X90756752Y-94691118D01*
X90911253Y-94578866D01*
X91039040Y-94436944D01*
X91134527Y-94271556D01*
X91193542Y-94089928D01*
X91213504Y-93900000D01*
X91193542Y-93710072D01*
X91134527Y-93528444D01*
X91134527Y-93528443D01*
X91039041Y-93363057D01*
X90911252Y-93221133D01*
X90800131Y-93140399D01*
X90756752Y-93108882D01*
X90582288Y-93031206D01*
X90395487Y-92991500D01*
X90204513Y-92991500D01*
X90079979Y-93017970D01*
X90017711Y-93031206D01*
X89843246Y-93108883D01*
X89688747Y-93221133D01*
X89560958Y-93363057D01*
X89465472Y-93528443D01*
X89406458Y-93710070D01*
X89386496Y-93900000D01*
X40100500Y-93900000D01*
X40100500Y-93664201D01*
X40100500Y-93592682D01*
X40100500Y-93592679D01*
X40069955Y-93380234D01*
X40049178Y-93309475D01*
X40009484Y-93174290D01*
X40009483Y-93174288D01*
X40006945Y-93165644D01*
X40008499Y-93165187D01*
X40000000Y-93126114D01*
X40000000Y-88600000D01*
X67886496Y-88600000D01*
X67906458Y-88789929D01*
X67965472Y-88971556D01*
X68060958Y-89136942D01*
X68060960Y-89136944D01*
X68188747Y-89278866D01*
X68343248Y-89391118D01*
X68427476Y-89428618D01*
X68469862Y-89459413D01*
X68496059Y-89504787D01*
X68501536Y-89556894D01*
X68486496Y-89699998D01*
X68506458Y-89889929D01*
X68565472Y-90071556D01*
X68660958Y-90236942D01*
X68660960Y-90236944D01*
X68788747Y-90378866D01*
X68943248Y-90491118D01*
X69117712Y-90568794D01*
X69304513Y-90608500D01*
X69495485Y-90608500D01*
X69495487Y-90608500D01*
X69682288Y-90568794D01*
X69856752Y-90491118D01*
X70011253Y-90378866D01*
X70139040Y-90236944D01*
X70234527Y-90071556D01*
X70293542Y-89889928D01*
X70313504Y-89700000D01*
X70293542Y-89510072D01*
X70234527Y-89328444D01*
X70234527Y-89328443D01*
X70139041Y-89163057D01*
X70011252Y-89021133D01*
X69856753Y-88908883D01*
X69856752Y-88908882D01*
X69772523Y-88871381D01*
X69730135Y-88840584D01*
X69703939Y-88795210D01*
X69698462Y-88743109D01*
X69713504Y-88600000D01*
X69693542Y-88410072D01*
X69634527Y-88228444D01*
X69634527Y-88228443D01*
X69539041Y-88063057D01*
X69411252Y-87921133D01*
X69256753Y-87808883D01*
X69256752Y-87808882D01*
X69082288Y-87731206D01*
X68895487Y-87691500D01*
X68704513Y-87691500D01*
X68579979Y-87717970D01*
X68517711Y-87731206D01*
X68343246Y-87808883D01*
X68188747Y-87921133D01*
X68060958Y-88063057D01*
X67965472Y-88228443D01*
X67906458Y-88410070D01*
X67886496Y-88600000D01*
X40000000Y-88600000D01*
X40000000Y-86126500D01*
X40016881Y-86063500D01*
X40063000Y-86017381D01*
X40126000Y-86000500D01*
X41298571Y-86000500D01*
X41894519Y-85963006D01*
X42091990Y-85938059D01*
X42486939Y-85888165D01*
X43073493Y-85776274D01*
X43651863Y-85627774D01*
X43651869Y-85627771D01*
X43651873Y-85627771D01*
X43744755Y-85597591D01*
X44219768Y-85443250D01*
X44774966Y-85223432D01*
X45315266Y-84969186D01*
X45838535Y-84681517D01*
X46342709Y-84361558D01*
X46825798Y-84010574D01*
X47285895Y-83629948D01*
X47721184Y-83221184D01*
X48058201Y-82862298D01*
X48848795Y-82862298D01*
X48868757Y-83052228D01*
X48927771Y-83233855D01*
X49023257Y-83399241D01*
X49030463Y-83407244D01*
X49151046Y-83541165D01*
X49305547Y-83653417D01*
X49480011Y-83731093D01*
X49666812Y-83770799D01*
X49857784Y-83770799D01*
X49857786Y-83770799D01*
X50044587Y-83731093D01*
X50219051Y-83653417D01*
X50373552Y-83541165D01*
X50501339Y-83399243D01*
X50596826Y-83233855D01*
X50655841Y-83052227D01*
X50675803Y-82862299D01*
X50665339Y-82762746D01*
X50675542Y-82698330D01*
X50716586Y-82647644D01*
X50811253Y-82578866D01*
X50939040Y-82436944D01*
X51034527Y-82271556D01*
X51093542Y-82089928D01*
X51102994Y-82000000D01*
X57086496Y-82000000D01*
X57106458Y-82189929D01*
X57165472Y-82371556D01*
X57260958Y-82536942D01*
X57260960Y-82536944D01*
X57388747Y-82678866D01*
X57543248Y-82791118D01*
X57717712Y-82868794D01*
X57904513Y-82908500D01*
X58095485Y-82908500D01*
X58095487Y-82908500D01*
X58282288Y-82868794D01*
X58456752Y-82791118D01*
X58611253Y-82678866D01*
X58739040Y-82536944D01*
X58834527Y-82371556D01*
X58893542Y-82189928D01*
X58913504Y-82000000D01*
X58893542Y-81810072D01*
X58834527Y-81628444D01*
X58834527Y-81628443D01*
X58739041Y-81463057D01*
X58611252Y-81321133D01*
X58456753Y-81208883D01*
X58456752Y-81208882D01*
X58282288Y-81131206D01*
X58095487Y-81091500D01*
X57904513Y-81091500D01*
X57779979Y-81117970D01*
X57717711Y-81131206D01*
X57543246Y-81208883D01*
X57388747Y-81321133D01*
X57260958Y-81463057D01*
X57165472Y-81628443D01*
X57106458Y-81810070D01*
X57086496Y-82000000D01*
X51102994Y-82000000D01*
X51113504Y-81900000D01*
X51093542Y-81710072D01*
X51034527Y-81528444D01*
X51034527Y-81528443D01*
X50939041Y-81363057D01*
X50811252Y-81221133D01*
X50656753Y-81108883D01*
X50656752Y-81108882D01*
X50482288Y-81031206D01*
X50295487Y-80991500D01*
X50104513Y-80991500D01*
X49979979Y-81017970D01*
X49917711Y-81031206D01*
X49743246Y-81108883D01*
X49588747Y-81221133D01*
X49460958Y-81363057D01*
X49365472Y-81528443D01*
X49306458Y-81710070D01*
X49286496Y-81900000D01*
X49296958Y-81999550D01*
X49286755Y-82063968D01*
X49245710Y-82114655D01*
X49151045Y-82183434D01*
X49023257Y-82325356D01*
X48927771Y-82490742D01*
X48868757Y-82672369D01*
X48848795Y-82862298D01*
X48058201Y-82862298D01*
X48129948Y-82785895D01*
X48510574Y-82325798D01*
X48861558Y-81842709D01*
X49181517Y-81338535D01*
X49469186Y-80815266D01*
X49723432Y-80274966D01*
X49943250Y-79719768D01*
X50097591Y-79244755D01*
X50127771Y-79151873D01*
X50137460Y-79114137D01*
X50276274Y-78573493D01*
X50388165Y-77986939D01*
X50463006Y-77394517D01*
X50500500Y-76798571D01*
X50500500Y-61399999D01*
X65186496Y-61399999D01*
X65206458Y-61589929D01*
X65265472Y-61771556D01*
X65360958Y-61936942D01*
X65360960Y-61936944D01*
X65488747Y-62078866D01*
X65643248Y-62191118D01*
X65817712Y-62268794D01*
X66004513Y-62308500D01*
X66195485Y-62308500D01*
X66195487Y-62308500D01*
X66382288Y-62268794D01*
X66556752Y-62191118D01*
X66711253Y-62078866D01*
X66839040Y-61936944D01*
X66934527Y-61771556D01*
X66993542Y-61589928D01*
X67013504Y-61400000D01*
X66993542Y-61210072D01*
X66934527Y-61028444D01*
X66934527Y-61028443D01*
X66918105Y-61000000D01*
X79336496Y-61000000D01*
X79339486Y-61028444D01*
X79356458Y-61189929D01*
X79415472Y-61371556D01*
X79510958Y-61536942D01*
X79510960Y-61536944D01*
X79638747Y-61678866D01*
X79793248Y-61791118D01*
X79967712Y-61868794D01*
X80154513Y-61908500D01*
X80345485Y-61908500D01*
X80345487Y-61908500D01*
X80532288Y-61868794D01*
X80706752Y-61791118D01*
X80861253Y-61678866D01*
X80989040Y-61536944D01*
X81084527Y-61371556D01*
X81143542Y-61189928D01*
X81163504Y-61000000D01*
X81143542Y-60810072D01*
X81084527Y-60628444D01*
X81084527Y-60628443D01*
X80989041Y-60463057D01*
X80861252Y-60321133D01*
X80706753Y-60208883D01*
X80706752Y-60208882D01*
X80532288Y-60131206D01*
X80345487Y-60091500D01*
X80154513Y-60091500D01*
X80029978Y-60117970D01*
X79967711Y-60131206D01*
X79793246Y-60208883D01*
X79638747Y-60321133D01*
X79510958Y-60463057D01*
X79415472Y-60628443D01*
X79356458Y-60810070D01*
X79356457Y-60810072D01*
X79356458Y-60810072D01*
X79336496Y-61000000D01*
X66918105Y-61000000D01*
X66839041Y-60863057D01*
X66711252Y-60721133D01*
X66634002Y-60665007D01*
X66556752Y-60608882D01*
X66382288Y-60531206D01*
X66195487Y-60491500D01*
X66004513Y-60491500D01*
X65879978Y-60517970D01*
X65817711Y-60531206D01*
X65643246Y-60608883D01*
X65488747Y-60721133D01*
X65360958Y-60863057D01*
X65265472Y-61028443D01*
X65206458Y-61210070D01*
X65186496Y-61399999D01*
X50500500Y-61399999D01*
X50500500Y-53800000D01*
X76186496Y-53800000D01*
X76206458Y-53989929D01*
X76265472Y-54171556D01*
X76360958Y-54336942D01*
X76360960Y-54336944D01*
X76488747Y-54478866D01*
X76643248Y-54591118D01*
X76817712Y-54668794D01*
X77004513Y-54708500D01*
X77195485Y-54708500D01*
X77195487Y-54708500D01*
X77382288Y-54668794D01*
X77556752Y-54591118D01*
X77711253Y-54478866D01*
X77839040Y-54336944D01*
X77934527Y-54171556D01*
X77993542Y-53989928D01*
X78013504Y-53800000D01*
X77993542Y-53610072D01*
X77934527Y-53428444D01*
X77934527Y-53428443D01*
X77839041Y-53263057D01*
X77711252Y-53121133D01*
X77556753Y-53008883D01*
X77556752Y-53008882D01*
X77382288Y-52931206D01*
X77195487Y-52891500D01*
X77004513Y-52891500D01*
X76879979Y-52917970D01*
X76817711Y-52931206D01*
X76643246Y-53008883D01*
X76488747Y-53121133D01*
X76360958Y-53263057D01*
X76265472Y-53428443D01*
X76206458Y-53610070D01*
X76186496Y-53800000D01*
X50500500Y-53800000D01*
X50500500Y-47499999D01*
X64986496Y-47499999D01*
X65006458Y-47689929D01*
X65065472Y-47871556D01*
X65160958Y-48036942D01*
X65160960Y-48036944D01*
X65288747Y-48178866D01*
X65443248Y-48291118D01*
X65617712Y-48368794D01*
X65804513Y-48408500D01*
X65995485Y-48408500D01*
X65995487Y-48408500D01*
X66182288Y-48368794D01*
X66356752Y-48291118D01*
X66511253Y-48178866D01*
X66639040Y-48036944D01*
X66734527Y-47871556D01*
X66793542Y-47689928D01*
X66813504Y-47500000D01*
X66793542Y-47310072D01*
X66734527Y-47128444D01*
X66734527Y-47128443D01*
X66639041Y-46963057D01*
X66566997Y-46883044D01*
X66536547Y-46820612D01*
X66543808Y-46751531D01*
X66586574Y-46696796D01*
X66610537Y-46679386D01*
X66611253Y-46678866D01*
X66739040Y-46536944D01*
X66834527Y-46371556D01*
X66893542Y-46189928D01*
X66913504Y-46000000D01*
X66893542Y-45810072D01*
X66834527Y-45628444D01*
X66834527Y-45628443D01*
X66739041Y-45463057D01*
X66611252Y-45321133D01*
X66456753Y-45208883D01*
X66456752Y-45208882D01*
X66282288Y-45131206D01*
X66095487Y-45091500D01*
X65904513Y-45091500D01*
X65824535Y-45108500D01*
X65717711Y-45131206D01*
X65543246Y-45208883D01*
X65388747Y-45321133D01*
X65260958Y-45463057D01*
X65165472Y-45628443D01*
X65106458Y-45810070D01*
X65086496Y-46000000D01*
X65106458Y-46189929D01*
X65165472Y-46371556D01*
X65260960Y-46536945D01*
X65333002Y-46616956D01*
X65363452Y-46679386D01*
X65356192Y-46748465D01*
X65313428Y-46803201D01*
X65288749Y-46821131D01*
X65160958Y-46963057D01*
X65065472Y-47128443D01*
X65006458Y-47310070D01*
X64986496Y-47499999D01*
X50500500Y-47499999D01*
X50500500Y-44199999D01*
X84686496Y-44199999D01*
X84706458Y-44389929D01*
X84765472Y-44571556D01*
X84860958Y-44736942D01*
X84860960Y-44736944D01*
X84988747Y-44878866D01*
X85143248Y-44991118D01*
X85317712Y-45068794D01*
X85504513Y-45108500D01*
X85695485Y-45108500D01*
X85695487Y-45108500D01*
X85882288Y-45068794D01*
X86056752Y-44991118D01*
X86211253Y-44878866D01*
X86339040Y-44736944D01*
X86434527Y-44571556D01*
X86493542Y-44389928D01*
X86513504Y-44200000D01*
X86493542Y-44010072D01*
X86434527Y-43828444D01*
X86434527Y-43828443D01*
X86339041Y-43663057D01*
X86211252Y-43521133D01*
X86056753Y-43408883D01*
X86056752Y-43408882D01*
X85882288Y-43331206D01*
X85695487Y-43291500D01*
X85504513Y-43291500D01*
X85379979Y-43317970D01*
X85317711Y-43331206D01*
X85143246Y-43408883D01*
X84988747Y-43521133D01*
X84860958Y-43663057D01*
X84765472Y-43828443D01*
X84706458Y-44010070D01*
X84686496Y-44199999D01*
X50500500Y-44199999D01*
X50500500Y-30626500D01*
X50517381Y-30563500D01*
X50563500Y-30517381D01*
X50626500Y-30500500D01*
X95434108Y-30500500D01*
X95497924Y-30500500D01*
X95502046Y-30500567D01*
G37*
G04 #@! TD.AperFunction*
G04 #@! TA.AperFunction,Conductor*
G36*
X103936500Y-164016881D02*
G01*
X103982619Y-164063000D01*
X103999500Y-164126000D01*
X103999500Y-177873500D01*
X103982619Y-177936500D01*
X103936500Y-177982619D01*
X103883520Y-177996815D01*
X103883722Y-177998217D01*
X103626955Y-178035135D01*
X103386702Y-178105679D01*
X103158931Y-178209699D01*
X102948283Y-178345073D01*
X102759048Y-178509048D01*
X102595073Y-178698283D01*
X102459699Y-178908931D01*
X102355679Y-179136702D01*
X102285135Y-179376955D01*
X102249500Y-179624799D01*
X102249500Y-179875201D01*
X102285135Y-180123044D01*
X102344728Y-180326000D01*
X102355680Y-180363300D01*
X102410401Y-180483122D01*
X102459699Y-180591068D01*
X102595073Y-180801716D01*
X102619665Y-180830096D01*
X102759048Y-180990952D01*
X102868242Y-181085569D01*
X102948283Y-181154926D01*
X102948285Y-181154927D01*
X103158932Y-181290301D01*
X103386700Y-181394320D01*
X103406340Y-181400086D01*
X103408997Y-181400867D01*
X103456012Y-181426538D01*
X103488113Y-181469420D01*
X103499500Y-181521763D01*
X103499500Y-187929878D01*
X103497193Y-187950479D01*
X103499405Y-188007303D01*
X103499500Y-188012202D01*
X103499500Y-188043047D01*
X103499792Y-188047234D01*
X103498753Y-188388047D01*
X103498278Y-188398603D01*
X103466733Y-188760544D01*
X103465375Y-188771022D01*
X103403619Y-189129042D01*
X103401388Y-189139370D01*
X103309855Y-189490949D01*
X103306767Y-189501053D01*
X103186096Y-189843740D01*
X103182172Y-189853550D01*
X103033218Y-190184916D01*
X103028486Y-190194363D01*
X102852285Y-190512097D01*
X102846777Y-190521114D01*
X102644589Y-190822947D01*
X102638346Y-190831471D01*
X102411574Y-191115313D01*
X102404639Y-191123284D01*
X102153036Y-191389079D01*
X102150626Y-191391555D01*
X102149251Y-191392930D01*
X102147951Y-191394212D01*
X102096394Y-191444295D01*
X102091025Y-191451189D01*
X97951450Y-195593024D01*
X97935825Y-195605490D01*
X97896512Y-195647868D01*
X97893264Y-195651242D01*
X97871591Y-195672928D01*
X97868400Y-195676612D01*
X97633229Y-195911934D01*
X97626363Y-195918312D01*
X97356259Y-196151097D01*
X97348938Y-196156946D01*
X97062289Y-196369009D01*
X97054553Y-196374298D01*
X96752946Y-196564462D01*
X96744839Y-196569162D01*
X96429917Y-196736394D01*
X96421483Y-196740478D01*
X96095012Y-196883839D01*
X96086298Y-196887285D01*
X95750071Y-197005987D01*
X95741124Y-197008776D01*
X95394157Y-197102933D01*
X95389374Y-197104131D01*
X87815407Y-198844405D01*
X87809788Y-198844967D01*
X87736239Y-198862590D01*
X87735081Y-198862862D01*
X87731410Y-198863705D01*
X87730402Y-198863932D01*
X86936652Y-199039367D01*
X86932292Y-199040250D01*
X86132057Y-199187700D01*
X86127669Y-199188429D01*
X85322693Y-199307544D01*
X85318282Y-199308117D01*
X84509623Y-199398742D01*
X84505194Y-199399159D01*
X83693857Y-199461181D01*
X83689416Y-199461442D01*
X82876377Y-199494786D01*
X82871930Y-199494890D01*
X82061270Y-199499498D01*
X82060554Y-199499500D01*
X82053743Y-199499500D01*
X82052234Y-199499491D01*
X81978440Y-199498606D01*
X81971330Y-199499500D01*
X75726000Y-199499500D01*
X75663000Y-199482619D01*
X75616881Y-199436500D01*
X75600000Y-199373500D01*
X75600000Y-192242014D01*
X75619313Y-192174978D01*
X75671330Y-192128492D01*
X75881716Y-192027176D01*
X76099481Y-191878706D01*
X76292686Y-191699438D01*
X76457015Y-191493376D01*
X76588796Y-191265124D01*
X76685087Y-191019780D01*
X76689602Y-191000000D01*
X85244389Y-191000000D01*
X85264803Y-191285424D01*
X85264804Y-191285428D01*
X85325631Y-191565046D01*
X85425633Y-191833161D01*
X85497022Y-191963900D01*
X85562775Y-192084317D01*
X85734262Y-192313397D01*
X85936602Y-192515737D01*
X85936605Y-192515739D01*
X86165685Y-192687226D01*
X86416839Y-192824367D01*
X86684954Y-192924369D01*
X86964572Y-192985196D01*
X87250000Y-193005610D01*
X87535428Y-192985196D01*
X87815046Y-192924369D01*
X88083161Y-192824367D01*
X88334315Y-192687226D01*
X88563395Y-192515739D01*
X88765739Y-192313395D01*
X88937226Y-192084315D01*
X89074367Y-191833161D01*
X89174369Y-191565046D01*
X89235196Y-191285428D01*
X89255610Y-191000000D01*
X89235196Y-190714572D01*
X89174369Y-190434954D01*
X89074367Y-190166839D01*
X88937226Y-189915685D01*
X88890712Y-189853550D01*
X88765737Y-189686602D01*
X88563397Y-189484262D01*
X88334317Y-189312775D01*
X88291961Y-189289646D01*
X88083161Y-189175633D01*
X87815046Y-189075631D01*
X87553462Y-189018727D01*
X87535424Y-189014803D01*
X87250000Y-188994389D01*
X86964575Y-189014803D01*
X86684954Y-189075630D01*
X86684954Y-189075631D01*
X86416839Y-189175633D01*
X86416837Y-189175633D01*
X86416837Y-189175634D01*
X86165682Y-189312775D01*
X85936602Y-189484262D01*
X85734262Y-189686602D01*
X85562775Y-189915682D01*
X85474917Y-190076582D01*
X85425633Y-190166839D01*
X85378485Y-190293247D01*
X85325631Y-190434954D01*
X85264803Y-190714575D01*
X85244389Y-191000000D01*
X76689602Y-191000000D01*
X76743735Y-190762826D01*
X76763431Y-190500000D01*
X76743735Y-190237174D01*
X76685087Y-189980220D01*
X76588796Y-189734876D01*
X76457015Y-189506624D01*
X76292686Y-189300562D01*
X76099481Y-189121294D01*
X76099478Y-189121292D01*
X76099476Y-189121290D01*
X75881716Y-188972824D01*
X75881715Y-188972823D01*
X75671330Y-188871507D01*
X75619313Y-188825022D01*
X75600000Y-188757986D01*
X75600000Y-180326000D01*
X75616881Y-180263000D01*
X75663000Y-180216881D01*
X75726000Y-180200000D01*
X88000000Y-180200000D01*
X88000000Y-164126000D01*
X88016881Y-164063000D01*
X88063000Y-164016881D01*
X88126000Y-164000000D01*
X103873500Y-164000000D01*
X103936500Y-164016881D01*
G37*
G04 #@! TD.AperFunction*
M02*
