G04 #@! TF.GenerationSoftware,KiCad,Pcbnew,7.0.1*
G04 #@! TF.CreationDate,2023-03-17T22:44:53-07:00*
G04 #@! TF.ProjectId,TI-83x,54492d38-3378-42e6-9b69-6361645f7063,A*
G04 #@! TF.SameCoordinates,Original*
G04 #@! TF.FileFunction,Profile,NP*
%FSLAX46Y46*%
G04 Gerber Fmt 4.6, Leading zero omitted, Abs format (unit mm)*
G04 Created by KiCad (PCBNEW 7.0.1) date 2023-03-17 22:44:53*
%MOMM*%
%LPD*%
G01*
G04 APERTURE LIST*
G04 #@! TA.AperFunction,Profile*
%ADD10C,0.100000*%
G04 #@! TD*
G04 #@! TA.AperFunction,Profile*
%ADD11C,0.010000*%
G04 #@! TD*
G04 APERTURE END LIST*
D10*
X98255519Y-195996798D02*
X102500000Y-191750000D01*
X104500000Y-148000000D02*
G75*
G03*
X104500000Y-150500000I0J-1250000D01*
G01*
X48650002Y-199349991D02*
G75*
G03*
X54450000Y-200000000I5516598J23022791D01*
G01*
X32000000Y-100903554D02*
X32000000Y-118000000D01*
X38249998Y-196000002D02*
G75*
G03*
X41000000Y-197594189I3974102J3686402D01*
G01*
X104500000Y-148000000D02*
X104500000Y-110000000D01*
X32500000Y-181000000D02*
X32500000Y-188000000D01*
X95505512Y-197590958D02*
G75*
G03*
X98255519Y-195996798I-1224212J5280858D01*
G01*
X87850000Y-199350000D02*
X95505519Y-197590988D01*
X32000000Y-120500000D02*
G75*
G03*
X32000000Y-118000000I0J1250000D01*
G01*
X32500000Y-181000000D02*
G75*
G03*
X32500000Y-178500000I0J1250000D01*
G01*
X104500000Y-85500000D02*
X97750000Y-85500000D01*
X41000000Y-85500000D02*
G75*
G03*
X50000000Y-76500000I0J9000000D01*
G01*
X104500000Y-39000000D02*
G75*
G03*
X95500000Y-30000000I-9000000J0D01*
G01*
X50664214Y-191000000D02*
G75*
G03*
X50664214Y-191000000I-1414214J0D01*
G01*
X32000000Y-150500000D02*
G75*
G03*
X32000000Y-148000000I0J1250000D01*
G01*
X104000000Y-178500000D02*
X104500000Y-178500000D01*
X38600000Y-100896447D02*
X32000000Y-100903554D01*
X102499979Y-191749978D02*
G75*
G03*
X104000000Y-188000000I-3455379J3557178D01*
G01*
X77807500Y-119710000D02*
G75*
G03*
X77807500Y-119710000I-2300000J0D01*
G01*
X82050000Y-200000000D02*
X74610000Y-200000000D01*
X32499970Y-187999999D02*
G75*
G03*
X34000000Y-191750000I4955430J-192801D01*
G01*
X34000000Y-191750000D02*
X38250000Y-196000000D01*
X104500000Y-178500000D02*
X104500000Y-150500000D01*
X32000000Y-150500000D02*
X32000000Y-178500000D01*
X39600000Y-93700000D02*
X39600000Y-99892893D01*
X82050000Y-199999992D02*
G75*
G03*
X87850000Y-199349999I283400J23673392D01*
G01*
X104500000Y-79500000D02*
X104500000Y-39000000D01*
X38600000Y-100892900D02*
G75*
G03*
X39600000Y-99892893I0J1000000D01*
G01*
X95500000Y-30000000D02*
X50000000Y-30000000D01*
X54450000Y-200000000D02*
X61730000Y-200000000D01*
X104000000Y-178500000D02*
G75*
G03*
X104000000Y-181000000I0J-1250000D01*
G01*
X97750000Y-79500000D02*
X104500000Y-79500000D01*
X39600000Y-93700000D02*
G75*
G03*
X38600000Y-92700000I-1000000J0D01*
G01*
X32000000Y-120500000D02*
X32000000Y-148000000D01*
X88750000Y-191000000D02*
G75*
G03*
X88750000Y-191000000I-1500000J0D01*
G01*
X34600000Y-85500000D02*
X41000000Y-85500000D01*
X32000000Y-178500000D02*
X32500000Y-178500000D01*
X34600000Y-92700000D02*
X34600000Y-85500000D01*
X38600000Y-92700000D02*
X34600000Y-92700000D01*
X104000000Y-188000000D02*
X104000000Y-181000000D01*
X104500000Y-107500000D02*
X104500000Y-85500000D01*
X41000000Y-197594190D02*
X48650000Y-199350000D01*
X104500000Y-107500000D02*
G75*
G03*
X104500000Y-110000000I0J-1250000D01*
G01*
X50000000Y-30000000D02*
X50000000Y-76500000D01*
X97750000Y-79500000D02*
G75*
G03*
X97750000Y-85500000I0J-3000000D01*
G01*
D11*
X72870000Y-193800000D02*
G75*
G03*
X72545000Y-193400000I-362500J37500D01*
G01*
X72545000Y-193400001D02*
G75*
G03*
X72220001Y-193680000I-22500J-302499D01*
G01*
X72070000Y-193799999D02*
G75*
G03*
X72219999Y-193680000I15000J134999D01*
G01*
X64280001Y-193680000D02*
G75*
G03*
X64430000Y-193799999I134999J15000D01*
G01*
X64279999Y-193680000D02*
G75*
G03*
X63955000Y-193400001I-302498J-22499D01*
G01*
X63955000Y-193400000D02*
G75*
G03*
X63630001Y-193800000I37499J-362499D01*
G01*
X72870000Y-200000000D02*
X74610000Y-200000000D01*
X72870000Y-193800000D02*
X72870000Y-200000000D01*
X64430000Y-193800000D02*
X72070000Y-193800000D01*
X63630000Y-200000000D02*
X63630000Y-193800000D01*
X61730000Y-200000000D02*
X63630000Y-200000000D01*
M02*
