M48
; DRILL file {KiCad 7.0.1} date Fri Mar 17 22:45:01 2023
; FORMAT={-:-/ absolute / metric / decimal}
; #@! TF.CreationDate,2023-03-17T22:45:01-07:00
; #@! TF.GenerationSoftware,Kicad,Pcbnew,7.0.1
; #@! TF.FileFunction,Plated,1,4,PTH
FMAT,2
METRIC
; #@! TA.AperFunction,Plated,PTH,ComponentDrill
T1C0.300
; #@! TA.AperFunction,Plated,PTH,ViaDrill
T2C0.350
; #@! TA.AperFunction,Plated,PTH,ViaDrill
T3C0.400
; #@! TA.AperFunction,Plated,PTH,ViaDrill
T4C0.500
; #@! TA.AperFunction,Plated,PTH,ComponentDrill
T5C0.600
; #@! TA.AperFunction,Plated,PTH,ComponentDrill
T6C0.750
; #@! TA.AperFunction,Plated,PTH,ViaDrill
T7C0.762
; #@! TA.AperFunction,Plated,PTH,ViaDrill
T8C0.800
; #@! TA.AperFunction,Plated,PTH,ViaDrill
T9C2.000
%
G90
G05
T1
X44.898Y-96.32
X44.898Y-97.82
X45.648Y-95.57
X45.648Y-97.07
X45.648Y-98.57
X46.398Y-96.32
X46.398Y-97.82
X47.148Y-95.57
X47.148Y-97.07
X47.148Y-98.57
X47.898Y-96.32
X47.898Y-97.82
T2
X67.5Y-191.2
X67.6Y-187.2
X67.97Y-192.03
X68.4Y-187.2
X68.5Y-191.2
T3
X33.0Y-154.75
X34.0Y-127.0
X34.3Y-143.5
X34.5Y-151.0
X34.55Y-162.0
X34.651Y-163.75
X37.5Y-178.0
X38.25Y-158.75
X38.3Y-152.1
X39.0Y-127.0
X40.75Y-117.5
X41.0Y-88.8
X41.7Y-153.9
X42.0Y-191.5
X42.4Y-114.0
X45.0Y-109.25
X47.5Y-111.25
X48.25Y-118.75
X48.7Y-112.7
X49.762Y-82.862
X50.2Y-81.9
X51.4Y-73.2
X52.5Y-118.75
X53.75Y-117.25
X54.0Y-106.0
X54.0Y-109.0
X54.25Y-116.0
X56.96Y-197.43
X58.0Y-82.0
X59.0Y-42.25
X59.6Y-192.7
X60.0Y-120.5
X61.1Y-69.1
X61.3Y-106.0
X61.5Y-118.5
X61.5Y-119.5
X61.9Y-114.4
X62.0Y-103.419
X63.6Y-192.2
X63.7Y-68.7
X64.75Y-99.75
X65.3Y-189.0
X65.4Y-110.4
X65.9Y-44.5
X65.9Y-47.5
X65.9Y-48.6
X66.0Y-46.0
X66.079Y-123.4
X66.1Y-60.0
X66.1Y-61.4
X66.25Y-116.5
X68.8Y-88.6
X69.25Y-118.5
X69.4Y-89.7
X70.8Y-189.3
X71.488Y-190.025
X71.7Y-188.3
X72.6Y-192.6
X75.75Y-124.75
X77.1Y-53.8
X80.25Y-61.0
X80.75Y-115.25
X81.525Y-96.75
X81.525Y-98.0
X82.25Y-61.0
X83.0Y-98.25
X83.0Y-99.5
X84.056Y-101.056
X84.5Y-108.75
X85.0Y-119.5
X85.6Y-44.2
X86.0Y-41.8
X88.5Y-93.9
X90.3Y-93.9
X94.25Y-98.75
X94.25Y-100.0
X97.5Y-119.5
X97.5Y-139.25
X97.5Y-149.25
X97.5Y-159.25
X97.75Y-109.5
X98.25Y-130.0
X100.5Y-104.75
X102.4Y-101.0
X102.4Y-154.2
T4
X44.25Y-155.0
X62.1Y-188.7
T6
X39.25Y-189.2
X41.25Y-189.2
T7
X40.8Y-113.7
X44.6Y-111.8
T8
X34.5Y-129.5
X51.25Y-129.75
X61.25Y-129.75
X75.25Y-129.75
X85.25Y-129.749
T9
X75.0Y-190.5
T5
X62.63Y-194.0G85X62.63Y-194.8
G05
X62.63Y-197.8G85X62.63Y-199.0
G05
X73.87Y-194.0G85X73.87Y-194.8
G05
X73.87Y-197.8G85X73.87Y-199.0
G05
T0
M30
