G04 #@! TF.GenerationSoftware,KiCad,Pcbnew,7.0.1*
G04 #@! TF.CreationDate,2023-03-17T22:44:53-07:00*
G04 #@! TF.ProjectId,TI-83x,54492d38-3378-42e6-9b69-6361645f7063,A*
G04 #@! TF.SameCoordinates,Original*
G04 #@! TF.FileFunction,Paste,Top*
G04 #@! TF.FilePolarity,Positive*
%FSLAX46Y46*%
G04 Gerber Fmt 4.6, Leading zero omitted, Abs format (unit mm)*
G04 Created by KiCad (PCBNEW 7.0.1) date 2023-03-17 22:44:53*
%MOMM*%
%LPD*%
G01*
G04 APERTURE LIST*
G04 Aperture macros list*
%AMRoundRect*
0 Rectangle with rounded corners*
0 $1 Rounding radius*
0 $2 $3 $4 $5 $6 $7 $8 $9 X,Y pos of 4 corners*
0 Add a 4 corners polygon primitive as box body*
4,1,4,$2,$3,$4,$5,$6,$7,$8,$9,$2,$3,0*
0 Add four circle primitives for the rounded corners*
1,1,$1+$1,$2,$3*
1,1,$1+$1,$4,$5*
1,1,$1+$1,$6,$7*
1,1,$1+$1,$8,$9*
0 Add four rect primitives between the rounded corners*
20,1,$1+$1,$2,$3,$4,$5,0*
20,1,$1+$1,$4,$5,$6,$7,0*
20,1,$1+$1,$6,$7,$8,$9,0*
20,1,$1+$1,$8,$9,$2,$3,0*%
G04 Aperture macros list end*
%ADD10R,1.000000X1.000000*%
%ADD11R,0.900000X1.500000*%
%ADD12R,1.500000X0.900000*%
%ADD13R,0.300000X1.100000*%
%ADD14R,0.600000X1.100000*%
%ADD15RoundRect,0.237500X-0.300000X-0.237500X0.300000X-0.237500X0.300000X0.237500X-0.300000X0.237500X0*%
%ADD16RoundRect,0.237500X0.250000X0.237500X-0.250000X0.237500X-0.250000X-0.237500X0.250000X-0.237500X0*%
%ADD17RoundRect,0.237500X0.237500X-0.250000X0.237500X0.250000X-0.237500X0.250000X-0.237500X-0.250000X0*%
%ADD18RoundRect,0.237500X0.300000X0.237500X-0.300000X0.237500X-0.300000X-0.237500X0.300000X-0.237500X0*%
%ADD19RoundRect,0.150000X-0.150000X0.512500X-0.150000X-0.512500X0.150000X-0.512500X0.150000X0.512500X0*%
%ADD20R,1.300000X2.000000*%
%ADD21R,1.000000X0.300000*%
%ADD22RoundRect,0.150000X0.150000X-0.587500X0.150000X0.587500X-0.150000X0.587500X-0.150000X-0.587500X0*%
%ADD23RoundRect,0.237500X-0.237500X0.300000X-0.237500X-0.300000X0.237500X-0.300000X0.237500X0.300000X0*%
%ADD24RoundRect,0.237500X-0.237500X0.250000X-0.237500X-0.250000X0.237500X-0.250000X0.237500X0.250000X0*%
%ADD25RoundRect,0.150000X-0.512500X-0.150000X0.512500X-0.150000X0.512500X0.150000X-0.512500X0.150000X0*%
%ADD26RoundRect,0.237500X0.237500X-0.287500X0.237500X0.287500X-0.237500X0.287500X-0.237500X-0.287500X0*%
%ADD27RoundRect,0.250001X-0.624999X0.462499X-0.624999X-0.462499X0.624999X-0.462499X0.624999X0.462499X0*%
%ADD28RoundRect,0.100000X-0.637500X-0.100000X0.637500X-0.100000X0.637500X0.100000X-0.637500X0.100000X0*%
%ADD29RoundRect,0.237500X0.237500X-0.300000X0.237500X0.300000X-0.237500X0.300000X-0.237500X-0.300000X0*%
%ADD30R,1.000000X3.200000*%
%ADD31R,2.800000X2.100000*%
%ADD32R,1.900000X0.600000*%
%ADD33R,0.650000X1.560000*%
%ADD34RoundRect,0.237500X-0.237500X0.287500X-0.237500X-0.287500X0.237500X-0.287500X0.237500X0.287500X0*%
%ADD35RoundRect,0.237500X-0.250000X-0.237500X0.250000X-0.237500X0.250000X0.237500X-0.250000X0.237500X0*%
%ADD36R,1.500000X3.600000*%
%ADD37RoundRect,0.237500X0.287500X0.237500X-0.287500X0.237500X-0.287500X-0.237500X0.287500X-0.237500X0*%
%ADD38R,5.100000X2.350000*%
G04 APERTURE END LIST*
D10*
X44897500Y-95570000D03*
X44897500Y-97070000D03*
X44897500Y-98570000D03*
X47897500Y-95570000D03*
X47897500Y-97070000D03*
X47897500Y-98570000D03*
X46397500Y-95570000D03*
X46397500Y-98570000D03*
X46397500Y-97070000D03*
D11*
X41047500Y-86960000D03*
X42317500Y-86960000D03*
X43587500Y-86960000D03*
X44857500Y-86960000D03*
X46127500Y-86960000D03*
X47397500Y-86960000D03*
X48667500Y-86960000D03*
X49937500Y-86960000D03*
X51207500Y-86960000D03*
X52477500Y-86960000D03*
X53747500Y-86960000D03*
X55017500Y-86960000D03*
X56287500Y-86960000D03*
X57557500Y-86960000D03*
D12*
X58807500Y-88725000D03*
X58807500Y-89995000D03*
X58807500Y-91265000D03*
X58807500Y-92535000D03*
X58807500Y-93805000D03*
X58807500Y-95075000D03*
X58807500Y-96345000D03*
X58807500Y-97615000D03*
X58807500Y-98885000D03*
X58807500Y-100155000D03*
X58807500Y-101425000D03*
X58807500Y-102695000D03*
D11*
X57557500Y-104460000D03*
X56287500Y-104460000D03*
X55017500Y-104460000D03*
X53747500Y-104460000D03*
X52477500Y-104460000D03*
X51207500Y-104460000D03*
X49937500Y-104460000D03*
X48667500Y-104460000D03*
X47397500Y-104460000D03*
X46127500Y-104460000D03*
X44857500Y-104460000D03*
X43587500Y-104460000D03*
X42317500Y-104460000D03*
X41047500Y-104460000D03*
D13*
X66500000Y-193250000D03*
X67500000Y-193250000D03*
X69000000Y-193250000D03*
X70000000Y-193250000D03*
D14*
X70650000Y-193250000D03*
X71450000Y-193250000D03*
D13*
X69500000Y-193250000D03*
X68500000Y-193250000D03*
X68000000Y-193250000D03*
X67000000Y-193250000D03*
D14*
X65850000Y-193250000D03*
X65050000Y-193250000D03*
D15*
X36387500Y-150250000D03*
X38112500Y-150250000D03*
D16*
X60087500Y-112750000D03*
X61912500Y-112750000D03*
D17*
X56000000Y-110587500D03*
X56000000Y-112412500D03*
D18*
X41662500Y-150200000D03*
X39937500Y-150200000D03*
D19*
X40950000Y-163862500D03*
X40000000Y-163862500D03*
X39050000Y-163862500D03*
X39050000Y-166137500D03*
X40000000Y-166137500D03*
X40950000Y-166137500D03*
D20*
X60975000Y-66800000D03*
X60975000Y-42700000D03*
D21*
X63675000Y-45000000D03*
X63675000Y-45500000D03*
X63675000Y-46000000D03*
X63675000Y-46500000D03*
X63675000Y-47000000D03*
X63675000Y-47500000D03*
X63675000Y-48000000D03*
X63675000Y-48500000D03*
X63675000Y-49000000D03*
X63675000Y-49500000D03*
X63675000Y-50000000D03*
X63675000Y-50500000D03*
X63675000Y-51000000D03*
X63675000Y-51500000D03*
X63675000Y-52000000D03*
X63675000Y-52500000D03*
X63675000Y-53000000D03*
X63675000Y-53500000D03*
X63675000Y-54000000D03*
X63675000Y-54500000D03*
X63675000Y-55000000D03*
X63675000Y-55500000D03*
X63675000Y-56000000D03*
X63675000Y-56500000D03*
X63675000Y-57000000D03*
X63675000Y-57500000D03*
X63675000Y-58000000D03*
X63675000Y-58500000D03*
X63675000Y-59000000D03*
X63675000Y-59500000D03*
X63675000Y-60000000D03*
X63675000Y-60500000D03*
X63675000Y-61000000D03*
X63675000Y-61500000D03*
X63675000Y-62000000D03*
X63675000Y-62500000D03*
X63675000Y-63000000D03*
X63675000Y-63500000D03*
X63675000Y-64000000D03*
X63675000Y-64500000D03*
D22*
X80350000Y-59000000D03*
X82250000Y-59000000D03*
X81300000Y-57125000D03*
D23*
X64750000Y-103612500D03*
X64750000Y-101887500D03*
D18*
X41000000Y-169000000D03*
X39275000Y-169000000D03*
D24*
X51400000Y-76812500D03*
X51400000Y-74987500D03*
D18*
X41662500Y-152100000D03*
X39937500Y-152100000D03*
D17*
X33500000Y-123587500D03*
X33500000Y-125412500D03*
X36250000Y-123587500D03*
X36250000Y-125412500D03*
D25*
X69137500Y-188350000D03*
X69137500Y-189300000D03*
X69137500Y-190250000D03*
X66862500Y-190250000D03*
X66862500Y-189300000D03*
X66862500Y-188350000D03*
D26*
X59700000Y-194425000D03*
X59700000Y-196175000D03*
D22*
X41550000Y-161437500D03*
X43450000Y-161437500D03*
X42500000Y-159562500D03*
D15*
X56062500Y-107200000D03*
X54337500Y-107200000D03*
D27*
X54250000Y-193737500D03*
X54250000Y-190762500D03*
D17*
X43000000Y-166162500D03*
X43000000Y-164337500D03*
D18*
X36362500Y-152500000D03*
X34637500Y-152500000D03*
D17*
X39250000Y-172662500D03*
X39250000Y-170837500D03*
D28*
X92225000Y-98361979D03*
X92225000Y-99011979D03*
X92225000Y-99661979D03*
X92225000Y-100311979D03*
X92225000Y-100961979D03*
X92225000Y-101611979D03*
X92225000Y-102261979D03*
X92225000Y-102911979D03*
X92225000Y-103561979D03*
X92225000Y-104211979D03*
X92225000Y-104861979D03*
X92225000Y-105511979D03*
X86500000Y-105511979D03*
X86500000Y-104861979D03*
X86500000Y-104211979D03*
X86500000Y-103561979D03*
X86500000Y-102911979D03*
X86500000Y-102261979D03*
X86500000Y-101611979D03*
X86500000Y-100961979D03*
X86500000Y-100311979D03*
X86500000Y-99661979D03*
X86500000Y-99011979D03*
X86500000Y-98361979D03*
D15*
X36387500Y-162000000D03*
X38112500Y-162000000D03*
X37237500Y-143000000D03*
X38962500Y-143000000D03*
D25*
X43112500Y-192550000D03*
X43112500Y-193500000D03*
X43112500Y-194450000D03*
X45387500Y-194450000D03*
X45387500Y-192550000D03*
D15*
X42662500Y-109400000D03*
X40937500Y-109400000D03*
X42662500Y-107300000D03*
X40937500Y-107300000D03*
D29*
X41000000Y-194362500D03*
X41000000Y-192637500D03*
D30*
X60000000Y-123400000D03*
X60000000Y-116600000D03*
X64000000Y-123400000D03*
X64000000Y-116600000D03*
D25*
X34962500Y-145150000D03*
X34962500Y-146100000D03*
X34962500Y-147050000D03*
X37237500Y-147050000D03*
X37237500Y-146100000D03*
X37237500Y-145150000D03*
D31*
X81150000Y-45900000D03*
X81150000Y-34600000D03*
D32*
X83500000Y-37750000D03*
X83500000Y-38750000D03*
X83500000Y-39750000D03*
X83500000Y-40750000D03*
X83500000Y-41750000D03*
X83500000Y-42750000D03*
D18*
X57837500Y-107200000D03*
X59562500Y-107200000D03*
D33*
X34550000Y-160100000D03*
X35500000Y-160100000D03*
X36450000Y-160100000D03*
X36450000Y-157400000D03*
X34550000Y-157400000D03*
D17*
X57800000Y-110587500D03*
X57800000Y-112412500D03*
D15*
X88500000Y-95936979D03*
X90225000Y-95936979D03*
D29*
X39000000Y-123637500D03*
X39000000Y-125362500D03*
D23*
X47250000Y-193387500D03*
X47250000Y-195112500D03*
D34*
X51400000Y-80875000D03*
X51400000Y-79125000D03*
D18*
X36362500Y-154750000D03*
X34637500Y-154750000D03*
D22*
X41550000Y-157437500D03*
X43450000Y-157437500D03*
X42500000Y-155562500D03*
D35*
X64712500Y-190500000D03*
X62887500Y-190500000D03*
D17*
X64750000Y-105337500D03*
X64750000Y-107162500D03*
D23*
X50005000Y-195112500D03*
X50005000Y-193387500D03*
D36*
X39575000Y-146400000D03*
X42625000Y-146400000D03*
D35*
X79337500Y-53750000D03*
X81162500Y-53750000D03*
D37*
X49445000Y-198080000D03*
X51195000Y-198080000D03*
D18*
X53637500Y-197350000D03*
X55362500Y-197350000D03*
D38*
X35250000Y-172575000D03*
X35250000Y-168425000D03*
D35*
X71387500Y-191100000D03*
X73212500Y-191100000D03*
D16*
X37162500Y-165000000D03*
X35337500Y-165000000D03*
M02*
